<?xml version="1.0" encoding="utf-8" standalone="no"?>
<!DOCTYPE svg PUBLIC "-//W3C//DTD SVG 1.1//EN"
  "http://www.w3.org/Graphics/SVG/1.1/DTD/svg11.dtd">
<svg height="432pt" version="1.1" viewBox="0 0 576 432" width="576pt" xmlns="http://www.w3.org/2000/svg" xmlns:xlink="http://www.w3.org/1999/xlink">
 <metadata>
  <rdf:RDF xmlns:cc="http://creativecommons.org/ns#" xmlns:dc="http://purl.org/dc/elements/1.1/" xmlns:rdf="http://www.w3.org/1999/02/22-rdf-syntax-ns#">
   <cc:Work>
    <dc:type rdf:resource="http://purl.org/dc/dcmitype/StillImage"/>
    <dc:date>2023-04-19T09:28:44.757316</dc:date>
    <dc:format>image/svg+xml</dc:format>
    <dc:creator>
     <cc:Agent>
      <dc:title>Matplotlib v3.4.3, https://matplotlib.org/</dc:title>
     </cc:Agent>
    </dc:creator>
   </cc:Work>
  </rdf:RDF>
 </metadata>
 <defs>
  <style type="text/css">*{stroke-linecap:butt;stroke-linejoin:round;}</style>
 </defs>
 <g id="figure_1">
  <g id="patch_1">
   <path d="M 0 432 
L 576 432 
L 576 0 
L 0 0 
z
" style="fill:#ffffff;"/>
  </g>
  <g id="axes_1">
   <g id="patch_2">
    <path d="M 72 378 
L 518.4 378 
L 518.4 51.84 
L 72 51.84 
z
" style="fill:#ffffff;"/>
   </g>
   <g id="matplotlib.axis_1">
    <g id="xtick_1">
     <g id="line2d_1">
      <defs>
       <path d="M 0 0 
L 0 3.5 
" id="m5badf434f0" style="stroke:#000000;stroke-width:0.8;"/>
      </defs>
      <g>
       <use style="stroke:#000000;stroke-width:0.8;" x="129.183471" xlink:href="#m5badf434f0" y="378"/>
      </g>
     </g>
     <g id="text_1">
      <!-- 0.2 -->
      <g transform="translate(121.231909 392.598437)scale(0.1 -0.1)">
       <defs>
        <path d="M 2034 4250 
Q 1547 4250 1301 3770 
Q 1056 3291 1056 2328 
Q 1056 1369 1301 889 
Q 1547 409 2034 409 
Q 2525 409 2770 889 
Q 3016 1369 3016 2328 
Q 3016 3291 2770 3770 
Q 2525 4250 2034 4250 
z
M 2034 4750 
Q 2819 4750 3233 4129 
Q 3647 3509 3647 2328 
Q 3647 1150 3233 529 
Q 2819 -91 2034 -91 
Q 1250 -91 836 529 
Q 422 1150 422 2328 
Q 422 3509 836 4129 
Q 1250 4750 2034 4750 
z
" id="DejaVuSans-30" transform="scale(0.015625)"/>
        <path d="M 684 794 
L 1344 794 
L 1344 0 
L 684 0 
L 684 794 
z
" id="DejaVuSans-2e" transform="scale(0.015625)"/>
        <path d="M 1228 531 
L 3431 531 
L 3431 0 
L 469 0 
L 469 531 
Q 828 903 1448 1529 
Q 2069 2156 2228 2338 
Q 2531 2678 2651 2914 
Q 2772 3150 2772 3378 
Q 2772 3750 2511 3984 
Q 2250 4219 1831 4219 
Q 1534 4219 1204 4116 
Q 875 4013 500 3803 
L 500 4441 
Q 881 4594 1212 4672 
Q 1544 4750 1819 4750 
Q 2544 4750 2975 4387 
Q 3406 4025 3406 3419 
Q 3406 3131 3298 2873 
Q 3191 2616 2906 2266 
Q 2828 2175 2409 1742 
Q 1991 1309 1228 531 
z
" id="DejaVuSans-32" transform="scale(0.015625)"/>
       </defs>
       <use xlink:href="#DejaVuSans-30"/>
       <use x="63.623047" xlink:href="#DejaVuSans-2e"/>
       <use x="95.410156" xlink:href="#DejaVuSans-32"/>
      </g>
     </g>
    </g>
    <g id="xtick_2">
     <g id="line2d_2">
      <g>
       <use style="stroke:#000000;stroke-width:0.8;" x="202.968595" xlink:href="#m5badf434f0" y="378"/>
      </g>
     </g>
     <g id="text_2">
      <!-- 0.4 -->
      <g transform="translate(195.017033 392.598437)scale(0.1 -0.1)">
       <defs>
        <path d="M 2419 4116 
L 825 1625 
L 2419 1625 
L 2419 4116 
z
M 2253 4666 
L 3047 4666 
L 3047 1625 
L 3713 1625 
L 3713 1100 
L 3047 1100 
L 3047 0 
L 2419 0 
L 2419 1100 
L 313 1100 
L 313 1709 
L 2253 4666 
z
" id="DejaVuSans-34" transform="scale(0.015625)"/>
       </defs>
       <use xlink:href="#DejaVuSans-30"/>
       <use x="63.623047" xlink:href="#DejaVuSans-2e"/>
       <use x="95.410156" xlink:href="#DejaVuSans-34"/>
      </g>
     </g>
    </g>
    <g id="xtick_3">
     <g id="line2d_3">
      <g>
       <use style="stroke:#000000;stroke-width:0.8;" x="276.753719" xlink:href="#m5badf434f0" y="378"/>
      </g>
     </g>
     <g id="text_3">
      <!-- 0.6 -->
      <g transform="translate(268.802157 392.598437)scale(0.1 -0.1)">
       <defs>
        <path d="M 2113 2584 
Q 1688 2584 1439 2293 
Q 1191 2003 1191 1497 
Q 1191 994 1439 701 
Q 1688 409 2113 409 
Q 2538 409 2786 701 
Q 3034 994 3034 1497 
Q 3034 2003 2786 2293 
Q 2538 2584 2113 2584 
z
M 3366 4563 
L 3366 3988 
Q 3128 4100 2886 4159 
Q 2644 4219 2406 4219 
Q 1781 4219 1451 3797 
Q 1122 3375 1075 2522 
Q 1259 2794 1537 2939 
Q 1816 3084 2150 3084 
Q 2853 3084 3261 2657 
Q 3669 2231 3669 1497 
Q 3669 778 3244 343 
Q 2819 -91 2113 -91 
Q 1303 -91 875 529 
Q 447 1150 447 2328 
Q 447 3434 972 4092 
Q 1497 4750 2381 4750 
Q 2619 4750 2861 4703 
Q 3103 4656 3366 4563 
z
" id="DejaVuSans-36" transform="scale(0.015625)"/>
       </defs>
       <use xlink:href="#DejaVuSans-30"/>
       <use x="63.623047" xlink:href="#DejaVuSans-2e"/>
       <use x="95.410156" xlink:href="#DejaVuSans-36"/>
      </g>
     </g>
    </g>
    <g id="xtick_4">
     <g id="line2d_4">
      <g>
       <use style="stroke:#000000;stroke-width:0.8;" x="350.538843" xlink:href="#m5badf434f0" y="378"/>
      </g>
     </g>
     <g id="text_4">
      <!-- 0.8 -->
      <g transform="translate(342.58728 392.598437)scale(0.1 -0.1)">
       <defs>
        <path d="M 2034 2216 
Q 1584 2216 1326 1975 
Q 1069 1734 1069 1313 
Q 1069 891 1326 650 
Q 1584 409 2034 409 
Q 2484 409 2743 651 
Q 3003 894 3003 1313 
Q 3003 1734 2745 1975 
Q 2488 2216 2034 2216 
z
M 1403 2484 
Q 997 2584 770 2862 
Q 544 3141 544 3541 
Q 544 4100 942 4425 
Q 1341 4750 2034 4750 
Q 2731 4750 3128 4425 
Q 3525 4100 3525 3541 
Q 3525 3141 3298 2862 
Q 3072 2584 2669 2484 
Q 3125 2378 3379 2068 
Q 3634 1759 3634 1313 
Q 3634 634 3220 271 
Q 2806 -91 2034 -91 
Q 1263 -91 848 271 
Q 434 634 434 1313 
Q 434 1759 690 2068 
Q 947 2378 1403 2484 
z
M 1172 3481 
Q 1172 3119 1398 2916 
Q 1625 2713 2034 2713 
Q 2441 2713 2670 2916 
Q 2900 3119 2900 3481 
Q 2900 3844 2670 4047 
Q 2441 4250 2034 4250 
Q 1625 4250 1398 4047 
Q 1172 3844 1172 3481 
z
" id="DejaVuSans-38" transform="scale(0.015625)"/>
       </defs>
       <use xlink:href="#DejaVuSans-30"/>
       <use x="63.623047" xlink:href="#DejaVuSans-2e"/>
       <use x="95.410156" xlink:href="#DejaVuSans-38"/>
      </g>
     </g>
    </g>
    <g id="xtick_5">
     <g id="line2d_5">
      <g>
       <use style="stroke:#000000;stroke-width:0.8;" x="424.323967" xlink:href="#m5badf434f0" y="378"/>
      </g>
     </g>
     <g id="text_5">
      <!-- 1.0 -->
      <g transform="translate(416.372404 392.598437)scale(0.1 -0.1)">
       <defs>
        <path d="M 794 531 
L 1825 531 
L 1825 4091 
L 703 3866 
L 703 4441 
L 1819 4666 
L 2450 4666 
L 2450 531 
L 3481 531 
L 3481 0 
L 794 0 
L 794 531 
z
" id="DejaVuSans-31" transform="scale(0.015625)"/>
       </defs>
       <use xlink:href="#DejaVuSans-31"/>
       <use x="63.623047" xlink:href="#DejaVuSans-2e"/>
       <use x="95.410156" xlink:href="#DejaVuSans-30"/>
      </g>
     </g>
    </g>
    <g id="xtick_6">
     <g id="line2d_6">
      <g>
       <use style="stroke:#000000;stroke-width:0.8;" x="498.109091" xlink:href="#m5badf434f0" y="378"/>
      </g>
     </g>
     <g id="text_6">
      <!-- 1.2 -->
      <g transform="translate(490.157528 392.598437)scale(0.1 -0.1)">
       <use xlink:href="#DejaVuSans-31"/>
       <use x="63.623047" xlink:href="#DejaVuSans-2e"/>
       <use x="95.410156" xlink:href="#DejaVuSans-32"/>
      </g>
     </g>
    </g>
    <g id="text_7">
     <!-- h -->
     <g transform="translate(292.03125 406.276563)scale(0.1 -0.1)">
      <defs>
       <path d="M 3513 2113 
L 3513 0 
L 2938 0 
L 2938 2094 
Q 2938 2591 2744 2837 
Q 2550 3084 2163 3084 
Q 1697 3084 1428 2787 
Q 1159 2491 1159 1978 
L 1159 0 
L 581 0 
L 581 4863 
L 1159 4863 
L 1159 2956 
Q 1366 3272 1645 3428 
Q 1925 3584 2291 3584 
Q 2894 3584 3203 3211 
Q 3513 2838 3513 2113 
z
" id="DejaVuSans-68" transform="scale(0.015625)"/>
      </defs>
      <use xlink:href="#DejaVuSans-68"/>
     </g>
    </g>
   </g>
   <g id="matplotlib.axis_2">
    <g id="ytick_1">
     <g id="line2d_7">
      <defs>
       <path d="M 0 0 
L -3.5 0 
" id="me8cc48aa79" style="stroke:#000000;stroke-width:0.8;"/>
      </defs>
      <g>
       <use style="stroke:#000000;stroke-width:0.8;" x="72" xlink:href="#me8cc48aa79" y="350.66516"/>
      </g>
     </g>
     <g id="text_8">
      <!-- −4 -->
      <g transform="translate(50.257812 354.464379)scale(0.1 -0.1)">
       <defs>
        <path d="M 678 2272 
L 4684 2272 
L 4684 1741 
L 678 1741 
L 678 2272 
z
" id="DejaVuSans-2212" transform="scale(0.015625)"/>
       </defs>
       <use xlink:href="#DejaVuSans-2212"/>
       <use x="83.789062" xlink:href="#DejaVuSans-34"/>
      </g>
     </g>
    </g>
    <g id="ytick_2">
     <g id="line2d_8">
      <g>
       <use style="stroke:#000000;stroke-width:0.8;" x="72" xlink:href="#me8cc48aa79" y="309.907666"/>
      </g>
     </g>
     <g id="text_9">
      <!-- −2 -->
      <g transform="translate(50.257812 313.706885)scale(0.1 -0.1)">
       <use xlink:href="#DejaVuSans-2212"/>
       <use x="83.789062" xlink:href="#DejaVuSans-32"/>
      </g>
     </g>
    </g>
    <g id="ytick_3">
     <g id="line2d_9">
      <g>
       <use style="stroke:#000000;stroke-width:0.8;" x="72" xlink:href="#me8cc48aa79" y="269.150172"/>
      </g>
     </g>
     <g id="text_10">
      <!-- 0 -->
      <g transform="translate(58.6375 272.949391)scale(0.1 -0.1)">
       <use xlink:href="#DejaVuSans-30"/>
      </g>
     </g>
    </g>
    <g id="ytick_4">
     <g id="line2d_10">
      <g>
       <use style="stroke:#000000;stroke-width:0.8;" x="72" xlink:href="#me8cc48aa79" y="228.392678"/>
      </g>
     </g>
     <g id="text_11">
      <!-- 2 -->
      <g transform="translate(58.6375 232.191897)scale(0.1 -0.1)">
       <use xlink:href="#DejaVuSans-32"/>
      </g>
     </g>
    </g>
    <g id="ytick_5">
     <g id="line2d_11">
      <g>
       <use style="stroke:#000000;stroke-width:0.8;" x="72" xlink:href="#me8cc48aa79" y="187.635184"/>
      </g>
     </g>
     <g id="text_12">
      <!-- 4 -->
      <g transform="translate(58.6375 191.434403)scale(0.1 -0.1)">
       <use xlink:href="#DejaVuSans-34"/>
      </g>
     </g>
    </g>
    <g id="ytick_6">
     <g id="line2d_12">
      <g>
       <use style="stroke:#000000;stroke-width:0.8;" x="72" xlink:href="#me8cc48aa79" y="146.87769"/>
      </g>
     </g>
     <g id="text_13">
      <!-- 6 -->
      <g transform="translate(58.6375 150.676909)scale(0.1 -0.1)">
       <use xlink:href="#DejaVuSans-36"/>
      </g>
     </g>
    </g>
    <g id="ytick_7">
     <g id="line2d_13">
      <g>
       <use style="stroke:#000000;stroke-width:0.8;" x="72" xlink:href="#me8cc48aa79" y="106.120196"/>
      </g>
     </g>
     <g id="text_14">
      <!-- 8 -->
      <g transform="translate(58.6375 109.919415)scale(0.1 -0.1)">
       <use xlink:href="#DejaVuSans-38"/>
      </g>
     </g>
    </g>
    <g id="ytick_8">
     <g id="line2d_14">
      <g>
       <use style="stroke:#000000;stroke-width:0.8;" x="72" xlink:href="#me8cc48aa79" y="65.362702"/>
      </g>
     </g>
     <g id="text_15">
      <!-- 10 -->
      <g transform="translate(52.275 69.161921)scale(0.1 -0.1)">
       <use xlink:href="#DejaVuSans-31"/>
       <use x="63.623047" xlink:href="#DejaVuSans-30"/>
      </g>
     </g>
    </g>
    <g id="text_16">
     <!-- Der -->
     <g transform="translate(44.178125 223.902031)rotate(-90)scale(0.1 -0.1)">
      <defs>
       <path d="M 1259 4147 
L 1259 519 
L 2022 519 
Q 2988 519 3436 956 
Q 3884 1394 3884 2338 
Q 3884 3275 3436 3711 
Q 2988 4147 2022 4147 
L 1259 4147 
z
M 628 4666 
L 1925 4666 
Q 3281 4666 3915 4102 
Q 4550 3538 4550 2338 
Q 4550 1131 3912 565 
Q 3275 0 1925 0 
L 628 0 
L 628 4666 
z
" id="DejaVuSans-44" transform="scale(0.015625)"/>
       <path d="M 3597 1894 
L 3597 1613 
L 953 1613 
Q 991 1019 1311 708 
Q 1631 397 2203 397 
Q 2534 397 2845 478 
Q 3156 559 3463 722 
L 3463 178 
Q 3153 47 2828 -22 
Q 2503 -91 2169 -91 
Q 1331 -91 842 396 
Q 353 884 353 1716 
Q 353 2575 817 3079 
Q 1281 3584 2069 3584 
Q 2775 3584 3186 3129 
Q 3597 2675 3597 1894 
z
M 3022 2063 
Q 3016 2534 2758 2815 
Q 2500 3097 2075 3097 
Q 1594 3097 1305 2825 
Q 1016 2553 972 2059 
L 3022 2063 
z
" id="DejaVuSans-65" transform="scale(0.015625)"/>
       <path d="M 2631 2963 
Q 2534 3019 2420 3045 
Q 2306 3072 2169 3072 
Q 1681 3072 1420 2755 
Q 1159 2438 1159 1844 
L 1159 0 
L 581 0 
L 581 3500 
L 1159 3500 
L 1159 2956 
Q 1341 3275 1631 3429 
Q 1922 3584 2338 3584 
Q 2397 3584 2469 3576 
Q 2541 3569 2628 3553 
L 2631 2963 
z
" id="DejaVuSans-72" transform="scale(0.015625)"/>
      </defs>
      <use xlink:href="#DejaVuSans-44"/>
      <use x="77.001953" xlink:href="#DejaVuSans-65"/>
      <use x="138.525391" xlink:href="#DejaVuSans-72"/>
     </g>
    </g>
   </g>
   <g id="line2d_15">
    <path clip-path="url(#pe70efcc6a2)" d="M 92.290909 181.604476 
L 95.701146 179.05139 
L 99.111383 174.234959 
L 102.52162 170.005402 
L 105.931856 166.373933 
L 109.342093 163.345065 
L 112.75233 160.918433 
L 116.162567 159.091303 
L 119.572804 157.859048 
L 122.98304 157.212272 
L 126.393277 157.133752 
L 129.803514 157.600669 
L 133.213751 158.591749 
L 136.623988 160.087186 
L 140.034225 162.046078 
L 143.444461 164.36839 
L 146.854698 166.887214 
L 150.264935 169.443995 
L 153.675172 172.030032 
L 157.085409 174.870619 
L 160.495646 178.313383 
L 163.905882 182.544429 
L 167.316119 187.366294 
L 170.726356 192.269447 
L 174.136593 196.769826 
L 177.54683 200.718751 
L 180.957066 204.257596 
L 184.367303 207.402516 
L 187.77754 209.811955 
L 191.187777 211.45187 
L 194.598014 213.779134 
L 198.008251 219.371005 
L 201.418487 228.727903 
L 204.828724 237.869713 
L 208.238961 242.047641 
L 211.649198 242.106874 
L 215.059435 243.717991 
L 218.469672 249.90869 
L 221.879908 257.972555 
L 225.290145 263.848223 
L 228.700382 266.116006 
L 232.110619 265.809046 
L 235.520856 264.347364 
L 238.931092 260.877664 
L 242.341329 251.963926 
L 245.751566 239.426228 
L 249.161803 240.943734 
L 252.57204 276.204925 
L 255.982277 331.003464 
L 259.392513 363.174545 
L 262.80275 350.24257 
L 266.212987 310.25845 
L 269.623224 278.329185 
L 273.033461 268.226589 
L 276.443697 268.220628 
L 279.853934 267.802708 
L 283.264171 266.356134 
L 286.674408 265.051473 
L 290.084645 264.832635 
L 293.494882 269.283162 
L 296.905118 283.559976 
L 300.315355 306.633511 
L 303.725592 326.839891 
L 307.135829 331.124018 
L 310.546066 317.918234 
L 313.956303 297.898214 
L 317.366539 281.995331 
L 320.776776 271.931773 
L 324.187013 264.921892 
L 327.59725 260.496539 
L 331.007487 258.742924 
L 334.417723 258.34604 
L 337.82796 258.246538 
L 341.238197 258.328796 
L 344.648434 258.990162 
L 348.058671 261.341825 
L 351.468908 267.284487 
L 354.879144 277.923457 
L 358.289381 291.114224 
L 361.699618 301.70581 
L 365.109855 305.170696 
L 368.520092 300.621114 
L 371.930328 290.627402 
L 375.340565 279.111949 
L 378.750802 269.364992 
L 382.161039 262.952295 
L 385.571276 259.648277 
L 388.981513 258.31788 
L 392.391749 257.92069 
L 395.801986 257.886522 
L 399.212223 258.056111 
L 402.62246 258.634149 
L 406.032697 260.315523 
L 409.442934 264.330671 
L 412.85317 271.704662 
L 416.263407 281.732419 
L 419.673644 291.359091 
L 423.083881 296.737884 
L 426.494118 295.680773 
L 429.904354 288.897719 
L 433.314591 279.349131 
L 436.724828 270.400372 
L 440.135065 264.090559 
L 443.545302 260.637975 
L 446.955539 259.171996 
L 450.365775 258.7157 
L 453.776012 258.669112 
L 457.186249 258.819637 
L 460.596486 259.25911 
L 464.006723 260.450986 
L 467.41696 263.313499 
L 470.827196 268.79784 
L 474.237433 276.776781 
L 477.64767 285.25479 
L 481.057907 291.10251 
L 484.468144 291.914559 
L 487.87838 287.453963 
L 491.288617 279.707878 
L 494.698854 271.632037 
L 498.109091 267.88602 
" style="fill:none;stroke:#1f77b4;stroke-linecap:square;stroke-width:1.5;"/>
   </g>
   <g id="line2d_16">
    <path clip-path="url(#pe70efcc6a2)" d="M 92.290909 66.665455 
L 95.701146 73.402296 
L 99.111383 87.834276 
L 102.52162 103.608921 
L 105.931856 119.674762 
L 109.342093 135.196476 
L 112.75233 149.578758 
L 116.162567 162.450901 
L 119.572804 173.627165 
L 122.98304 183.059335 
L 126.393277 190.794367 
L 129.803514 196.944238 
L 133.213751 201.669272 
L 136.623988 205.171602 
L 140.034225 207.692885 
L 143.444461 209.510159 
L 146.854698 210.925521 
L 150.264935 212.248075 
L 153.675172 213.769375 
L 157.085409 215.735471 
L 160.495646 218.31965 
L 163.905882 221.600601 
L 167.316119 225.551758 
L 170.726356 230.045331 
L 174.136593 234.867953 
L 177.54683 239.741667 
L 180.957066 244.372942 
L 184.367303 248.557974 
L 187.77754 252.211435 
L 191.187777 255.232194 
L 194.598014 257.43214 
L 198.008251 258.769876 
L 201.418487 259.694592 
L 204.828724 260.312421 
L 208.238961 260.398865 
L 211.649198 259.295373 
L 215.059435 258.039612 
L 218.469672 255.954369 
L 221.879908 253.08882 
L 225.290145 252.668347 
L 228.700382 251.402787 
L 232.110619 260.632434 
L 235.520856 266.287956 
L 238.931092 277.233858 
L 242.341329 286.574945 
L 245.751566 287.713339 
L 249.161803 294.70321 
L 252.57204 291.177719 
L 255.982277 291.179485 
L 259.392513 286.757973 
L 262.80275 288.145981 
L 266.212987 285.601128 
L 269.623224 277.707396 
L 273.033461 284.26685 
L 276.443697 280.137123 
L 279.853934 276.232752 
L 283.264171 282.123843 
L 286.674408 279.848071 
L 290.084645 276.072671 
L 293.494882 278.112459 
L 296.905118 278.062376 
L 300.315355 272.751254 
L 303.725592 271.709427 
L 307.135829 274.98858 
L 310.546066 271.044894 
L 313.956303 269.231011 
L 317.366539 274.451026 
L 320.776776 273.837893 
L 324.187013 272.017448 
L 327.59725 275.17081 
L 331.007487 276.14342 
L 334.417723 274.070348 
L 337.82796 273.02166 
L 341.238197 273.964952 
L 344.648434 272.717329 
L 348.058671 268.769824 
L 351.468908 269.596418 
L 354.879144 271.239413 
L 358.289381 267.771786 
L 361.699618 268.158376 
L 365.109855 272.004074 
L 368.520092 271.131651 
L 371.930328 270.611578 
L 375.340565 273.380095 
L 378.750802 274.005532 
L 382.161039 272.509556 
L 385.571276 272.343381 
L 388.981513 273.0769 
L 392.391749 271.433031 
L 395.801986 268.838645 
L 399.212223 269.657309 
L 402.62246 269.870724 
L 406.032697 266.962255 
L 409.442934 267.576491 
L 412.85317 270.184829 
L 416.263407 269.148743 
L 419.673644 269.059326 
L 423.083881 271.742453 
L 426.494118 272.304605 
L 429.904354 271.462466 
L 433.314591 272.198079 
L 436.724828 272.842935 
L 440.135065 271.412358 
L 443.545302 270.070555 
L 446.955539 270.575322 
L 450.365775 269.718529 
L 453.776012 267.389202 
L 457.186249 267.921859 
L 460.596486 269.037522 
L 464.006723 267.639288 
L 467.41696 267.808302 
L 470.827196 270.054379 
L 474.237433 270.367503 
L 477.64767 270.080054 
L 481.057907 271.467503 
L 484.468144 272.187066 
L 487.87838 271.395243 
L 491.288617 271.17208 
L 494.698854 271.457331 
L 498.109091 271.466404 
" style="fill:none;stroke:#ff7f0e;stroke-linecap:square;stroke-width:1.5;"/>
   </g>
   <g id="line2d_17">
    <path clip-path="url(#pe70efcc6a2)" d="M 92.290909 84.830577 
L 95.701146 99.027041 
L 99.111383 125.366308 
L 102.52162 147.544675 
L 105.931856 165.717094 
L 109.342093 180.402856 
L 112.75233 192.225436 
L 116.162567 201.762314 
L 119.572804 209.477352 
L 122.98304 215.701925 
L 126.393277 220.640085 
L 129.803514 224.386663 
L 133.213751 226.959247 
L 136.623988 228.350388 
L 140.034225 228.600846 
L 143.444461 227.878596 
L 146.854698 226.532082 
L 150.264935 225.085483 
L 153.675172 224.163691 
L 157.085409 224.363104 
L 160.495646 226.104303 
L 163.905882 229.509166 
L 167.316119 234.342883 
L 170.726356 240.052569 
L 174.136593 245.910635 
L 177.54683 251.225977 
L 180.957066 255.537434 
L 184.367303 258.699074 
L 187.77754 260.830528 
L 191.187777 262.185613 
L 194.598014 263.031351 
L 198.008251 263.572378 
L 201.418487 263.934077 
L 204.828724 264.164782 
L 208.238961 264.216134 
L 211.649198 263.891855 
L 215.059435 262.697759 
L 218.469672 260.354837 
L 221.879908 257.596884 
L 225.290145 254.928216 
L 228.700382 252.123013 
L 232.110619 252.229854 
L 235.520856 260.49417 
L 238.931092 274.814744 
L 242.341329 286.000242 
L 245.751566 289.607324 
L 249.161803 289.626709 
L 252.57204 290.439958 
L 255.982277 290.372474 
L 259.392513 286.440834 
L 262.80275 281.532429 
L 266.212987 277.977368 
L 269.623224 273.97775 
L 273.033461 272.569976 
L 276.443697 274.65964 
L 279.853934 276.003759 
L 283.264171 277.606013 
L 286.674408 279.610699 
L 290.084645 279.597518 
L 293.494882 277.917799 
L 296.905118 275.287141 
L 300.315355 272.542486 
L 303.725592 269.734146 
L 307.135829 267.727587 
L 310.546066 267.489254 
L 313.956303 267.730059 
L 317.366539 269.203241 
L 320.776776 271.637443 
L 324.187013 273.703303 
L 327.59725 275.636045 
L 331.007487 276.655659 
L 334.417723 276.42277 
L 337.82796 275.155327 
L 341.238197 273.167004 
L 344.648434 270.880297 
L 348.058671 268.705601 
L 351.468908 267.184327 
L 354.879144 266.33016 
L 358.289381 266.262787 
L 361.699618 266.945307 
L 365.109855 268.277423 
L 368.520092 270.096488 
L 371.930328 272.002746 
L 375.340565 273.691735 
L 378.750802 274.732461 
L 382.161039 274.954929 
L 385.571276 274.286728 
L 388.981513 272.847354 
L 392.391749 271.13619 
L 395.801986 269.259833 
L 399.212223 267.65967 
L 402.62246 266.782539 
L 406.032697 266.097184 
L 409.442934 266.207805 
L 412.85317 266.96881 
L 416.263407 267.891627 
L 419.673644 269.519141 
L 423.083881 271.110584 
L 426.494118 272.497598 
L 429.904354 273.53858 
L 433.314591 273.970908 
L 436.724828 273.441919 
L 440.135065 272.412998 
L 443.545302 271.321996 
L 446.955539 269.213173 
L 450.365775 268.2352 
L 453.776012 267.357303 
L 457.186249 265.914808 
L 460.596486 266.686363 
L 464.006723 266.702054 
L 467.41696 266.966731 
L 470.827196 268.742933 
L 474.237433 269.868634 
L 477.64767 270.932427 
L 481.057907 272.109786 
L 484.468144 273.415261 
L 487.87838 272.72216 
L 491.288617 272.595887 
L 494.698854 272.040069 
L 498.109091 270.28538 
" style="fill:none;stroke:#2ca02c;stroke-linecap:square;stroke-width:1.5;"/>
   </g>
   <g id="line2d_18">
    <path clip-path="url(#pe70efcc6a2)" d="M 92.290909 146.765793 
L 95.701146 157.66623 
L 99.111383 176.750102 
L 102.52162 191.223833 
L 105.931856 202.467122 
L 109.342093 211.402817 
L 112.75233 218.643784 
L 116.162567 224.605176 
L 119.572804 229.575106 
L 122.98304 233.754017 
L 126.393277 237.271088 
L 129.803514 240.179706 
L 133.213751 242.431605 
L 136.623988 243.840866 
L 140.034225 244.084019 
L 143.444461 242.819816 
L 146.854698 239.97544 
L 150.264935 236.080422 
L 153.675172 232.36333 
L 157.085409 230.405292 
L 160.495646 231.460924 
L 163.905882 235.807133 
L 167.316119 242.502878 
L 170.726356 249.785137 
L 174.136593 255.959893 
L 177.54683 260.192994 
L 180.957066 262.620383 
L 184.367303 263.859186 
L 187.77754 264.491989 
L 191.187777 264.867727 
L 194.598014 265.141256 
L 198.008251 265.367226 
L 201.418487 265.562303 
L 204.828724 265.731776 
L 208.238961 265.875658 
L 211.649198 265.972592 
L 215.059435 265.886151 
L 218.469672 265.14852 
L 221.879908 262.553919 
L 225.290145 257.633986 
L 228.700382 251.628213 
L 232.110619 249.200838 
L 235.520856 258.584527 
L 238.931092 273.191069 
L 242.341329 282.494682 
L 245.751566 287.736095 
L 249.161803 289.457869 
L 252.57204 288.574399 
L 255.982277 287.256955 
L 259.392513 284.168363 
L 262.80275 278.241952 
L 266.212987 272.406291 
L 269.623224 268.719459 
L 273.033461 267.801913 
L 276.443697 269.452525 
L 279.853934 273.005908 
L 283.264171 277.260593 
L 286.674408 280.366691 
L 290.084645 280.799765 
L 293.494882 278.309256 
L 296.905118 274.256259 
L 300.315355 270.210388 
L 303.725592 267.259068 
L 307.135829 265.997248 
L 310.546066 265.702149 
L 313.956303 265.910596 
L 317.366539 267.320994 
L 320.776776 269.787715 
L 324.187013 272.71505 
L 327.59725 275.964079 
L 331.007487 278.07819 
L 334.417723 277.587845 
L 337.82796 275.348294 
L 341.238197 272.493249 
L 344.648434 269.529963 
L 348.058671 267.15796 
L 351.468908 265.988546 
L 354.879144 265.940925 
L 358.289381 265.999108 
L 361.699618 265.890178 
L 365.109855 266.769335 
L 368.520092 268.909986 
L 371.930328 271.418783 
L 375.340565 273.800865 
L 378.750802 275.648748 
L 382.161039 276.186181 
L 385.571276 275.053811 
L 388.981513 272.767561 
L 392.391749 270.247434 
L 395.801986 268.178833 
L 399.212223 266.844068 
L 402.62246 266.237677 
L 406.032697 266.113262 
L 409.442934 266.197742 
L 412.85317 266.47933 
L 416.263407 267.146672 
L 419.673644 268.41559 
L 423.083881 270.367237 
L 426.494118 272.658697 
L 429.904354 274.493806 
L 433.314591 275.106571 
L 436.724828 274.303106 
L 440.135065 272.531778 
L 443.545302 270.507026 
L 446.955539 268.790092 
L 450.365775 267.591804 
L 453.776012 266.845487 
L 457.186249 266.432869 
L 460.596486 266.313933 
L 464.006723 266.482754 
L 467.41696 266.938046 
L 470.827196 267.757612 
L 474.237433 269.08688 
L 477.64767 270.896446 
L 481.057907 272.7537 
L 484.468144 273.996456 
L 487.87838 274.165518 
L 491.288617 273.215311 
L 494.698854 271.476335 
L 498.109091 270.472011 
" style="fill:none;stroke:#d62728;stroke-linecap:square;stroke-width:1.5;"/>
   </g>
   <g id="line2d_19">
    <path clip-path="url(#pe70efcc6a2)" d="M 92.290909 198.865057 
L 95.701146 204.655921 
L 99.111383 214.904317 
L 102.52162 222.87121 
L 105.931856 229.196827 
L 109.342093 234.310608 
L 112.75233 238.509443 
L 116.162567 242.004048 
L 119.572804 244.947425 
L 122.98304 247.452888 
L 126.393277 249.605779 
L 129.803514 251.470792 
L 133.213751 253.094698 
L 136.623988 254.491843 
L 140.034225 255.564951 
L 143.444461 255.872262 
L 146.854698 254.358496 
L 150.264935 249.839629 
L 153.675172 242.852418 
L 157.085409 237.060693 
L 160.495646 237.104497 
L 163.905882 243.965563 
L 167.316119 253.52721 
L 170.726356 260.78291 
L 174.136593 264.271159 
L 177.54683 265.459701 
L 180.957066 265.869182 
L 184.367303 266.105959 
L 187.77754 266.30244 
L 191.187777 266.476807 
L 194.598014 266.631579 
L 198.008251 266.768068 
L 201.418487 266.88767 
L 204.828724 266.99191 
L 208.238961 267.08238 
L 211.649198 267.160662 
L 215.059435 267.227756 
L 218.469672 267.267785 
L 221.879908 266.992853 
L 225.290145 264.555546 
L 228.700382 256.63492 
L 232.110619 247.972134 
L 235.520856 254.239184 
L 238.931092 275.079128 
L 242.341329 287.126948 
L 245.751566 282.313749 
L 249.161803 277.582058 
L 252.57204 282.009195 
L 255.982277 286.196467 
L 259.392513 282.075935 
L 262.80275 273.803005 
L 266.212987 268.411336 
L 269.623224 266.739275 
L 273.033461 266.623508 
L 276.443697 267.267776 
L 279.853934 269.607786 
L 283.264171 274.677346 
L 286.674408 280.316814 
L 290.084645 281.553306 
L 293.494882 277.075168 
L 296.905118 271.225569 
L 300.315355 267.80572 
L 303.725592 266.735819 
L 307.135829 266.599472 
L 310.546066 266.659147 
L 313.956303 266.759008 
L 317.366539 266.999123 
L 320.776776 267.891346 
L 324.187013 270.420189 
L 327.59725 274.7536 
L 331.007487 278.514545 
L 334.417723 278.368367 
L 337.82796 274.504725 
L 341.238197 270.219813 
L 344.648434 267.732126 
L 348.058671 267.047491 
L 351.468908 266.913276 
L 354.879144 266.837073 
L 358.289381 267.054375 
L 361.699618 267.116481 
L 365.109855 267.070281 
L 368.520092 267.695319 
L 371.930328 269.450546 
L 375.340565 272.469412 
L 378.750802 275.735916 
L 382.161039 276.96335 
L 385.571276 275.116698 
L 388.981513 271.567185 
L 392.391749 268.382068 
L 395.801986 266.901897 
L 399.212223 267.299662 
L 402.62246 268.055996 
L 406.032697 267.510961 
L 409.442934 266.209422 
L 412.85317 266.188455 
L 416.263407 268.046649 
L 419.673644 269.6062 
L 423.083881 269.542278 
L 426.494118 269.638043 
L 429.904354 271.900715 
L 433.314591 275.613738 
L 436.724828 277.208682 
L 440.135065 274.347583 
L 443.545302 268.983224 
L 446.955539 264.730408 
L 450.365775 263.984204 
L 453.776012 266.824599 
L 457.186249 270.675654 
L 460.596486 271.992157 
L 464.006723 269.416495 
L 467.41696 265.120198 
L 470.827196 262.693115 
L 474.237433 264.14789 
L 477.64767 268.87922 
L 481.057907 275.229635 
L 484.468144 280.132614 
L 487.87838 279.362174 
L 491.288617 272.70577 
L 494.698854 265.399878 
L 498.109091 262.461502 
" style="fill:none;stroke:#9467bd;stroke-linecap:square;stroke-width:1.5;"/>
   </g>
   <g id="line2d_20">
    <path clip-path="url(#pe70efcc6a2)" d="M 239.861157 378 
L 239.861157 51.84 
" style="fill:none;stroke:#ff0000;stroke-dasharray:5.55,2.4;stroke-dashoffset:0;stroke-width:1.5;"/>
   </g>
   <g id="patch_3">
    <path d="M 72 378 
L 72 51.84 
" style="fill:none;stroke:#000000;stroke-linecap:square;stroke-linejoin:miter;stroke-width:0.8;"/>
   </g>
   <g id="patch_4">
    <path d="M 518.4 378 
L 518.4 51.84 
" style="fill:none;stroke:#000000;stroke-linecap:square;stroke-linejoin:miter;stroke-width:0.8;"/>
   </g>
   <g id="patch_5">
    <path d="M 72 378 
L 518.4 378 
" style="fill:none;stroke:#000000;stroke-linecap:square;stroke-linejoin:miter;stroke-width:0.8;"/>
   </g>
   <g id="patch_6">
    <path d="M 72 51.84 
L 518.4 51.84 
" style="fill:none;stroke:#000000;stroke-linecap:square;stroke-linejoin:miter;stroke-width:0.8;"/>
   </g>
   <g id="text_17">
    <!-- Variação da TAEP -->
    <g transform="translate(243.413437 45.84)scale(0.12 -0.12)">
     <defs>
      <path d="M 1831 0 
L 50 4666 
L 709 4666 
L 2188 738 
L 3669 4666 
L 4325 4666 
L 2547 0 
L 1831 0 
z
" id="DejaVuSans-56" transform="scale(0.015625)"/>
      <path d="M 2194 1759 
Q 1497 1759 1228 1600 
Q 959 1441 959 1056 
Q 959 750 1161 570 
Q 1363 391 1709 391 
Q 2188 391 2477 730 
Q 2766 1069 2766 1631 
L 2766 1759 
L 2194 1759 
z
M 3341 1997 
L 3341 0 
L 2766 0 
L 2766 531 
Q 2569 213 2275 61 
Q 1981 -91 1556 -91 
Q 1019 -91 701 211 
Q 384 513 384 1019 
Q 384 1609 779 1909 
Q 1175 2209 1959 2209 
L 2766 2209 
L 2766 2266 
Q 2766 2663 2505 2880 
Q 2244 3097 1772 3097 
Q 1472 3097 1187 3025 
Q 903 2953 641 2809 
L 641 3341 
Q 956 3463 1253 3523 
Q 1550 3584 1831 3584 
Q 2591 3584 2966 3190 
Q 3341 2797 3341 1997 
z
" id="DejaVuSans-61" transform="scale(0.015625)"/>
      <path d="M 603 3500 
L 1178 3500 
L 1178 0 
L 603 0 
L 603 3500 
z
M 603 4863 
L 1178 4863 
L 1178 4134 
L 603 4134 
L 603 4863 
z
" id="DejaVuSans-69" transform="scale(0.015625)"/>
      <path d="M 3122 3366 
L 3122 2828 
Q 2878 2963 2633 3030 
Q 2388 3097 2138 3097 
Q 1578 3097 1268 2742 
Q 959 2388 959 1747 
Q 959 1106 1268 751 
Q 1578 397 2138 397 
Q 2388 397 2633 464 
Q 2878 531 3122 666 
L 3122 134 
Q 2881 22 2623 -34 
Q 2366 -91 2075 -91 
Q 1284 -91 818 406 
Q 353 903 353 1747 
Q 353 2603 823 3093 
Q 1294 3584 2113 3584 
Q 2378 3584 2631 3529 
Q 2884 3475 3122 3366 
z
M 2309 0 
Q 2481 -194 2565 -358 
Q 2650 -522 2650 -672 
Q 2650 -950 2462 -1092 
Q 2275 -1234 1906 -1234 
Q 1763 -1234 1627 -1215 
Q 1491 -1197 1356 -1159 
L 1356 -750 
Q 1463 -803 1578 -826 
Q 1694 -850 1841 -850 
Q 2025 -850 2119 -775 
Q 2213 -700 2213 -556 
Q 2213 -463 2145 -327 
Q 2078 -191 1938 0 
L 2309 0 
z
" id="DejaVuSans-e7" transform="scale(0.015625)"/>
      <path d="M 2194 1759 
Q 1497 1759 1228 1600 
Q 959 1441 959 1056 
Q 959 750 1161 570 
Q 1363 391 1709 391 
Q 2188 391 2477 730 
Q 2766 1069 2766 1631 
L 2766 1759 
L 2194 1759 
z
M 3341 1997 
L 3341 0 
L 2766 0 
L 2766 531 
Q 2569 213 2275 61 
Q 1981 -91 1556 -91 
Q 1019 -91 701 211 
Q 384 513 384 1019 
Q 384 1609 779 1909 
Q 1175 2209 1959 2209 
L 2766 2209 
L 2766 2266 
Q 2766 2663 2505 2880 
Q 2244 3097 1772 3097 
Q 1472 3097 1187 3025 
Q 903 2953 641 2809 
L 641 3341 
Q 956 3463 1253 3523 
Q 1550 3584 1831 3584 
Q 2591 3584 2966 3190 
Q 3341 2797 3341 1997 
z
M 1844 4281 
L 1666 4453 
Q 1597 4516 1545 4545 
Q 1494 4575 1453 4575 
Q 1334 4575 1278 4461 
Q 1222 4347 1216 4091 
L 825 4091 
Q 831 4513 990 4742 
Q 1150 4972 1434 4972 
Q 1553 4972 1653 4928 
Q 1753 4884 1869 4781 
L 2047 4609 
Q 2116 4547 2167 4517 
Q 2219 4488 2259 4488 
Q 2378 4488 2434 4602 
Q 2491 4716 2497 4972 
L 2888 4972 
Q 2881 4550 2722 4320 
Q 2563 4091 2278 4091 
Q 2159 4091 2059 4134 
Q 1959 4178 1844 4281 
z
" id="DejaVuSans-e3" transform="scale(0.015625)"/>
      <path d="M 1959 3097 
Q 1497 3097 1228 2736 
Q 959 2375 959 1747 
Q 959 1119 1226 758 
Q 1494 397 1959 397 
Q 2419 397 2687 759 
Q 2956 1122 2956 1747 
Q 2956 2369 2687 2733 
Q 2419 3097 1959 3097 
z
M 1959 3584 
Q 2709 3584 3137 3096 
Q 3566 2609 3566 1747 
Q 3566 888 3137 398 
Q 2709 -91 1959 -91 
Q 1206 -91 779 398 
Q 353 888 353 1747 
Q 353 2609 779 3096 
Q 1206 3584 1959 3584 
z
" id="DejaVuSans-6f" transform="scale(0.015625)"/>
      <path id="DejaVuSans-20" transform="scale(0.015625)"/>
      <path d="M 2906 2969 
L 2906 4863 
L 3481 4863 
L 3481 0 
L 2906 0 
L 2906 525 
Q 2725 213 2448 61 
Q 2172 -91 1784 -91 
Q 1150 -91 751 415 
Q 353 922 353 1747 
Q 353 2572 751 3078 
Q 1150 3584 1784 3584 
Q 2172 3584 2448 3432 
Q 2725 3281 2906 2969 
z
M 947 1747 
Q 947 1113 1208 752 
Q 1469 391 1925 391 
Q 2381 391 2643 752 
Q 2906 1113 2906 1747 
Q 2906 2381 2643 2742 
Q 2381 3103 1925 3103 
Q 1469 3103 1208 2742 
Q 947 2381 947 1747 
z
" id="DejaVuSans-64" transform="scale(0.015625)"/>
      <path d="M -19 4666 
L 3928 4666 
L 3928 4134 
L 2272 4134 
L 2272 0 
L 1638 0 
L 1638 4134 
L -19 4134 
L -19 4666 
z
" id="DejaVuSans-54" transform="scale(0.015625)"/>
      <path d="M 2188 4044 
L 1331 1722 
L 3047 1722 
L 2188 4044 
z
M 1831 4666 
L 2547 4666 
L 4325 0 
L 3669 0 
L 3244 1197 
L 1141 1197 
L 716 0 
L 50 0 
L 1831 4666 
z
" id="DejaVuSans-41" transform="scale(0.015625)"/>
      <path d="M 628 4666 
L 3578 4666 
L 3578 4134 
L 1259 4134 
L 1259 2753 
L 3481 2753 
L 3481 2222 
L 1259 2222 
L 1259 531 
L 3634 531 
L 3634 0 
L 628 0 
L 628 4666 
z
" id="DejaVuSans-45" transform="scale(0.015625)"/>
      <path d="M 1259 4147 
L 1259 2394 
L 2053 2394 
Q 2494 2394 2734 2622 
Q 2975 2850 2975 3272 
Q 2975 3691 2734 3919 
Q 2494 4147 2053 4147 
L 1259 4147 
z
M 628 4666 
L 2053 4666 
Q 2838 4666 3239 4311 
Q 3641 3956 3641 3272 
Q 3641 2581 3239 2228 
Q 2838 1875 2053 1875 
L 1259 1875 
L 1259 0 
L 628 0 
L 628 4666 
z
" id="DejaVuSans-50" transform="scale(0.015625)"/>
     </defs>
     <use xlink:href="#DejaVuSans-56"/>
     <use x="60.658203" xlink:href="#DejaVuSans-61"/>
     <use x="121.9375" xlink:href="#DejaVuSans-72"/>
     <use x="163.050781" xlink:href="#DejaVuSans-69"/>
     <use x="190.833984" xlink:href="#DejaVuSans-61"/>
     <use x="252.113281" xlink:href="#DejaVuSans-e7"/>
     <use x="307.09375" xlink:href="#DejaVuSans-e3"/>
     <use x="368.373047" xlink:href="#DejaVuSans-6f"/>
     <use x="429.554688" xlink:href="#DejaVuSans-20"/>
     <use x="461.341797" xlink:href="#DejaVuSans-64"/>
     <use x="524.818359" xlink:href="#DejaVuSans-61"/>
     <use x="586.097656" xlink:href="#DejaVuSans-20"/>
     <use x="617.884766" xlink:href="#DejaVuSans-54"/>
     <use x="671.21875" xlink:href="#DejaVuSans-41"/>
     <use x="739.626953" xlink:href="#DejaVuSans-45"/>
     <use x="802.810547" xlink:href="#DejaVuSans-50"/>
    </g>
   </g>
   <g id="legend_1">
    <g id="patch_7">
     <path d="M 360.239062 147.90875 
L 511.4 147.90875 
Q 513.4 147.90875 513.4 145.90875 
L 513.4 58.84 
Q 513.4 56.84 511.4 56.84 
L 360.239062 56.84 
Q 358.239062 56.84 358.239062 58.84 
L 358.239062 145.90875 
Q 358.239062 147.90875 360.239062 147.90875 
z
" style="fill:#ffffff;opacity:0.8;stroke:#cccccc;stroke-linejoin:miter;"/>
    </g>
    <g id="line2d_21">
     <path d="M 362.239062 64.938437 
L 382.239062 64.938437 
" style="fill:none;stroke:#1f77b4;stroke-linecap:square;stroke-width:1.5;"/>
    </g>
    <g id="line2d_22"/>
    <g id="text_18">
     <!-- j=10 -->
     <g transform="translate(390.239062 68.438437)scale(0.1 -0.1)">
      <defs>
       <path d="M 603 3500 
L 1178 3500 
L 1178 -63 
Q 1178 -731 923 -1031 
Q 669 -1331 103 -1331 
L -116 -1331 
L -116 -844 
L 38 -844 
Q 366 -844 484 -692 
Q 603 -541 603 -63 
L 603 3500 
z
M 603 4863 
L 1178 4863 
L 1178 4134 
L 603 4134 
L 603 4863 
z
" id="DejaVuSans-6a" transform="scale(0.015625)"/>
       <path d="M 678 2906 
L 4684 2906 
L 4684 2381 
L 678 2381 
L 678 2906 
z
M 678 1631 
L 4684 1631 
L 4684 1100 
L 678 1100 
L 678 1631 
z
" id="DejaVuSans-3d" transform="scale(0.015625)"/>
      </defs>
      <use xlink:href="#DejaVuSans-6a"/>
      <use x="27.783203" xlink:href="#DejaVuSans-3d"/>
      <use x="111.572266" xlink:href="#DejaVuSans-31"/>
      <use x="175.195312" xlink:href="#DejaVuSans-30"/>
     </g>
    </g>
    <g id="line2d_23">
     <path d="M 362.239062 79.616562 
L 382.239062 79.616562 
" style="fill:none;stroke:#ff7f0e;stroke-linecap:square;stroke-width:1.5;"/>
    </g>
    <g id="line2d_24"/>
    <g id="text_19">
     <!-- j=50 -->
     <g transform="translate(390.239062 83.116562)scale(0.1 -0.1)">
      <defs>
       <path d="M 691 4666 
L 3169 4666 
L 3169 4134 
L 1269 4134 
L 1269 2991 
Q 1406 3038 1543 3061 
Q 1681 3084 1819 3084 
Q 2600 3084 3056 2656 
Q 3513 2228 3513 1497 
Q 3513 744 3044 326 
Q 2575 -91 1722 -91 
Q 1428 -91 1123 -41 
Q 819 9 494 109 
L 494 744 
Q 775 591 1075 516 
Q 1375 441 1709 441 
Q 2250 441 2565 725 
Q 2881 1009 2881 1497 
Q 2881 1984 2565 2268 
Q 2250 2553 1709 2553 
Q 1456 2553 1204 2497 
Q 953 2441 691 2322 
L 691 4666 
z
" id="DejaVuSans-35" transform="scale(0.015625)"/>
      </defs>
      <use xlink:href="#DejaVuSans-6a"/>
      <use x="27.783203" xlink:href="#DejaVuSans-3d"/>
      <use x="111.572266" xlink:href="#DejaVuSans-35"/>
      <use x="175.195312" xlink:href="#DejaVuSans-30"/>
     </g>
    </g>
    <g id="line2d_25">
     <path d="M 362.239062 94.294687 
L 382.239062 94.294687 
" style="fill:none;stroke:#2ca02c;stroke-linecap:square;stroke-width:1.5;"/>
    </g>
    <g id="line2d_26"/>
    <g id="text_20">
     <!-- j=100 -->
     <g transform="translate(390.239062 97.794687)scale(0.1 -0.1)">
      <use xlink:href="#DejaVuSans-6a"/>
      <use x="27.783203" xlink:href="#DejaVuSans-3d"/>
      <use x="111.572266" xlink:href="#DejaVuSans-31"/>
      <use x="175.195312" xlink:href="#DejaVuSans-30"/>
      <use x="238.818359" xlink:href="#DejaVuSans-30"/>
     </g>
    </g>
    <g id="line2d_27">
     <path d="M 362.239062 108.972812 
L 382.239062 108.972812 
" style="fill:none;stroke:#d62728;stroke-linecap:square;stroke-width:1.5;"/>
    </g>
    <g id="line2d_28"/>
    <g id="text_21">
     <!-- j=200 -->
     <g transform="translate(390.239062 112.472812)scale(0.1 -0.1)">
      <use xlink:href="#DejaVuSans-6a"/>
      <use x="27.783203" xlink:href="#DejaVuSans-3d"/>
      <use x="111.572266" xlink:href="#DejaVuSans-32"/>
      <use x="175.195312" xlink:href="#DejaVuSans-30"/>
      <use x="238.818359" xlink:href="#DejaVuSans-30"/>
     </g>
    </g>
    <g id="line2d_29">
     <path d="M 362.239062 123.650937 
L 382.239062 123.650937 
" style="fill:none;stroke:#9467bd;stroke-linecap:square;stroke-width:1.5;"/>
    </g>
    <g id="line2d_30"/>
    <g id="text_22">
     <!-- j=500 -->
     <g transform="translate(390.239062 127.150937)scale(0.1 -0.1)">
      <use xlink:href="#DejaVuSans-6a"/>
      <use x="27.783203" xlink:href="#DejaVuSans-3d"/>
      <use x="111.572266" xlink:href="#DejaVuSans-35"/>
      <use x="175.195312" xlink:href="#DejaVuSans-30"/>
      <use x="238.818359" xlink:href="#DejaVuSans-30"/>
     </g>
    </g>
    <g id="line2d_31">
     <path d="M 362.239062 138.329062 
L 382.239062 138.329062 
" style="fill:none;stroke:#ff0000;stroke-dasharray:5.55,2.4;stroke-dashoffset:0;stroke-width:1.5;"/>
    </g>
    <g id="line2d_32"/>
    <g id="text_23">
     <!-- Dynamical Critical Point -->
     <g transform="translate(390.239062 141.829062)scale(0.1 -0.1)">
      <defs>
       <path d="M 2059 -325 
Q 1816 -950 1584 -1140 
Q 1353 -1331 966 -1331 
L 506 -1331 
L 506 -850 
L 844 -850 
Q 1081 -850 1212 -737 
Q 1344 -625 1503 -206 
L 1606 56 
L 191 3500 
L 800 3500 
L 1894 763 
L 2988 3500 
L 3597 3500 
L 2059 -325 
z
" id="DejaVuSans-79" transform="scale(0.015625)"/>
       <path d="M 3513 2113 
L 3513 0 
L 2938 0 
L 2938 2094 
Q 2938 2591 2744 2837 
Q 2550 3084 2163 3084 
Q 1697 3084 1428 2787 
Q 1159 2491 1159 1978 
L 1159 0 
L 581 0 
L 581 3500 
L 1159 3500 
L 1159 2956 
Q 1366 3272 1645 3428 
Q 1925 3584 2291 3584 
Q 2894 3584 3203 3211 
Q 3513 2838 3513 2113 
z
" id="DejaVuSans-6e" transform="scale(0.015625)"/>
       <path d="M 3328 2828 
Q 3544 3216 3844 3400 
Q 4144 3584 4550 3584 
Q 5097 3584 5394 3201 
Q 5691 2819 5691 2113 
L 5691 0 
L 5113 0 
L 5113 2094 
Q 5113 2597 4934 2840 
Q 4756 3084 4391 3084 
Q 3944 3084 3684 2787 
Q 3425 2491 3425 1978 
L 3425 0 
L 2847 0 
L 2847 2094 
Q 2847 2600 2669 2842 
Q 2491 3084 2119 3084 
Q 1678 3084 1418 2786 
Q 1159 2488 1159 1978 
L 1159 0 
L 581 0 
L 581 3500 
L 1159 3500 
L 1159 2956 
Q 1356 3278 1631 3431 
Q 1906 3584 2284 3584 
Q 2666 3584 2933 3390 
Q 3200 3197 3328 2828 
z
" id="DejaVuSans-6d" transform="scale(0.015625)"/>
       <path d="M 3122 3366 
L 3122 2828 
Q 2878 2963 2633 3030 
Q 2388 3097 2138 3097 
Q 1578 3097 1268 2742 
Q 959 2388 959 1747 
Q 959 1106 1268 751 
Q 1578 397 2138 397 
Q 2388 397 2633 464 
Q 2878 531 3122 666 
L 3122 134 
Q 2881 22 2623 -34 
Q 2366 -91 2075 -91 
Q 1284 -91 818 406 
Q 353 903 353 1747 
Q 353 2603 823 3093 
Q 1294 3584 2113 3584 
Q 2378 3584 2631 3529 
Q 2884 3475 3122 3366 
z
" id="DejaVuSans-63" transform="scale(0.015625)"/>
       <path d="M 603 4863 
L 1178 4863 
L 1178 0 
L 603 0 
L 603 4863 
z
" id="DejaVuSans-6c" transform="scale(0.015625)"/>
       <path d="M 4122 4306 
L 4122 3641 
Q 3803 3938 3442 4084 
Q 3081 4231 2675 4231 
Q 1875 4231 1450 3742 
Q 1025 3253 1025 2328 
Q 1025 1406 1450 917 
Q 1875 428 2675 428 
Q 3081 428 3442 575 
Q 3803 722 4122 1019 
L 4122 359 
Q 3791 134 3420 21 
Q 3050 -91 2638 -91 
Q 1578 -91 968 557 
Q 359 1206 359 2328 
Q 359 3453 968 4101 
Q 1578 4750 2638 4750 
Q 3056 4750 3426 4639 
Q 3797 4528 4122 4306 
z
" id="DejaVuSans-43" transform="scale(0.015625)"/>
       <path d="M 1172 4494 
L 1172 3500 
L 2356 3500 
L 2356 3053 
L 1172 3053 
L 1172 1153 
Q 1172 725 1289 603 
Q 1406 481 1766 481 
L 2356 481 
L 2356 0 
L 1766 0 
Q 1100 0 847 248 
Q 594 497 594 1153 
L 594 3053 
L 172 3053 
L 172 3500 
L 594 3500 
L 594 4494 
L 1172 4494 
z
" id="DejaVuSans-74" transform="scale(0.015625)"/>
      </defs>
      <use xlink:href="#DejaVuSans-44"/>
      <use x="77.001953" xlink:href="#DejaVuSans-79"/>
      <use x="136.181641" xlink:href="#DejaVuSans-6e"/>
      <use x="199.560547" xlink:href="#DejaVuSans-61"/>
      <use x="260.839844" xlink:href="#DejaVuSans-6d"/>
      <use x="358.251953" xlink:href="#DejaVuSans-69"/>
      <use x="386.035156" xlink:href="#DejaVuSans-63"/>
      <use x="441.015625" xlink:href="#DejaVuSans-61"/>
      <use x="502.294922" xlink:href="#DejaVuSans-6c"/>
      <use x="530.078125" xlink:href="#DejaVuSans-20"/>
      <use x="561.865234" xlink:href="#DejaVuSans-43"/>
      <use x="631.689453" xlink:href="#DejaVuSans-72"/>
      <use x="672.802734" xlink:href="#DejaVuSans-69"/>
      <use x="700.585938" xlink:href="#DejaVuSans-74"/>
      <use x="739.794922" xlink:href="#DejaVuSans-69"/>
      <use x="767.578125" xlink:href="#DejaVuSans-63"/>
      <use x="822.558594" xlink:href="#DejaVuSans-61"/>
      <use x="883.837891" xlink:href="#DejaVuSans-6c"/>
      <use x="911.621094" xlink:href="#DejaVuSans-20"/>
      <use x="943.408203" xlink:href="#DejaVuSans-50"/>
      <use x="1000.085938" xlink:href="#DejaVuSans-6f"/>
      <use x="1061.267578" xlink:href="#DejaVuSans-69"/>
      <use x="1089.050781" xlink:href="#DejaVuSans-6e"/>
      <use x="1152.429688" xlink:href="#DejaVuSans-74"/>
     </g>
    </g>
   </g>
  </g>
 </g>
 <defs>
  <clipPath id="pe70efcc6a2">
   <rect height="326.16" width="446.4" x="72" y="51.84"/>
  </clipPath>
 </defs>
</svg>
