<?xml version="1.0" encoding="utf-8" standalone="no"?>
<!DOCTYPE svg PUBLIC "-//W3C//DTD SVG 1.1//EN"
  "http://www.w3.org/Graphics/SVG/1.1/DTD/svg11.dtd">
<svg height="432pt" version="1.1" viewBox="0 0 576 432" width="576pt" xmlns="http://www.w3.org/2000/svg" xmlns:xlink="http://www.w3.org/1999/xlink">
 <metadata>
  <rdf:RDF xmlns:cc="http://creativecommons.org/ns#" xmlns:dc="http://purl.org/dc/elements/1.1/" xmlns:rdf="http://www.w3.org/1999/02/22-rdf-syntax-ns#">
   <cc:Work>
    <dc:type rdf:resource="http://purl.org/dc/dcmitype/StillImage"/>
    <dc:date>2023-04-24T10:29:12.049328</dc:date>
    <dc:format>image/svg+xml</dc:format>
    <dc:creator>
     <cc:Agent>
      <dc:title>Matplotlib v3.4.3, https://matplotlib.org/</dc:title>
     </cc:Agent>
    </dc:creator>
   </cc:Work>
  </rdf:RDF>
 </metadata>
 <defs>
  <style type="text/css">*{stroke-linecap:butt;stroke-linejoin:round;}</style>
 </defs>
 <g id="figure_1">
  <g id="patch_1">
   <path d="M 0 432 
L 576 432 
L 576 0 
L 0 0 
z
" style="fill:#ffffff;"/>
  </g>
  <g id="axes_1">
   <g id="patch_2">
    <path d="M 72 378 
L 518.4 378 
L 518.4 51.84 
L 72 51.84 
z
" style="fill:#ffffff;"/>
   </g>
   <g id="matplotlib.axis_1">
    <g id="xtick_1">
     <g id="line2d_1">
      <defs>
       <path d="M 0 0 
L 0 3.5 
" id="m452369fd0a" style="stroke:#000000;stroke-width:0.8;"/>
      </defs>
      <g>
       <use style="stroke:#000000;stroke-width:0.8;" x="129.183471" xlink:href="#m452369fd0a" y="378"/>
      </g>
     </g>
     <g id="text_1">
      <!-- 0.2 -->
      <g transform="translate(121.231909 392.598437)scale(0.1 -0.1)">
       <defs>
        <path d="M 2034 4250 
Q 1547 4250 1301 3770 
Q 1056 3291 1056 2328 
Q 1056 1369 1301 889 
Q 1547 409 2034 409 
Q 2525 409 2770 889 
Q 3016 1369 3016 2328 
Q 3016 3291 2770 3770 
Q 2525 4250 2034 4250 
z
M 2034 4750 
Q 2819 4750 3233 4129 
Q 3647 3509 3647 2328 
Q 3647 1150 3233 529 
Q 2819 -91 2034 -91 
Q 1250 -91 836 529 
Q 422 1150 422 2328 
Q 422 3509 836 4129 
Q 1250 4750 2034 4750 
z
" id="DejaVuSans-30" transform="scale(0.015625)"/>
        <path d="M 684 794 
L 1344 794 
L 1344 0 
L 684 0 
L 684 794 
z
" id="DejaVuSans-2e" transform="scale(0.015625)"/>
        <path d="M 1228 531 
L 3431 531 
L 3431 0 
L 469 0 
L 469 531 
Q 828 903 1448 1529 
Q 2069 2156 2228 2338 
Q 2531 2678 2651 2914 
Q 2772 3150 2772 3378 
Q 2772 3750 2511 3984 
Q 2250 4219 1831 4219 
Q 1534 4219 1204 4116 
Q 875 4013 500 3803 
L 500 4441 
Q 881 4594 1212 4672 
Q 1544 4750 1819 4750 
Q 2544 4750 2975 4387 
Q 3406 4025 3406 3419 
Q 3406 3131 3298 2873 
Q 3191 2616 2906 2266 
Q 2828 2175 2409 1742 
Q 1991 1309 1228 531 
z
" id="DejaVuSans-32" transform="scale(0.015625)"/>
       </defs>
       <use xlink:href="#DejaVuSans-30"/>
       <use x="63.623047" xlink:href="#DejaVuSans-2e"/>
       <use x="95.410156" xlink:href="#DejaVuSans-32"/>
      </g>
     </g>
    </g>
    <g id="xtick_2">
     <g id="line2d_2">
      <g>
       <use style="stroke:#000000;stroke-width:0.8;" x="202.968595" xlink:href="#m452369fd0a" y="378"/>
      </g>
     </g>
     <g id="text_2">
      <!-- 0.4 -->
      <g transform="translate(195.017033 392.598437)scale(0.1 -0.1)">
       <defs>
        <path d="M 2419 4116 
L 825 1625 
L 2419 1625 
L 2419 4116 
z
M 2253 4666 
L 3047 4666 
L 3047 1625 
L 3713 1625 
L 3713 1100 
L 3047 1100 
L 3047 0 
L 2419 0 
L 2419 1100 
L 313 1100 
L 313 1709 
L 2253 4666 
z
" id="DejaVuSans-34" transform="scale(0.015625)"/>
       </defs>
       <use xlink:href="#DejaVuSans-30"/>
       <use x="63.623047" xlink:href="#DejaVuSans-2e"/>
       <use x="95.410156" xlink:href="#DejaVuSans-34"/>
      </g>
     </g>
    </g>
    <g id="xtick_3">
     <g id="line2d_3">
      <g>
       <use style="stroke:#000000;stroke-width:0.8;" x="276.753719" xlink:href="#m452369fd0a" y="378"/>
      </g>
     </g>
     <g id="text_3">
      <!-- 0.6 -->
      <g transform="translate(268.802157 392.598437)scale(0.1 -0.1)">
       <defs>
        <path d="M 2113 2584 
Q 1688 2584 1439 2293 
Q 1191 2003 1191 1497 
Q 1191 994 1439 701 
Q 1688 409 2113 409 
Q 2538 409 2786 701 
Q 3034 994 3034 1497 
Q 3034 2003 2786 2293 
Q 2538 2584 2113 2584 
z
M 3366 4563 
L 3366 3988 
Q 3128 4100 2886 4159 
Q 2644 4219 2406 4219 
Q 1781 4219 1451 3797 
Q 1122 3375 1075 2522 
Q 1259 2794 1537 2939 
Q 1816 3084 2150 3084 
Q 2853 3084 3261 2657 
Q 3669 2231 3669 1497 
Q 3669 778 3244 343 
Q 2819 -91 2113 -91 
Q 1303 -91 875 529 
Q 447 1150 447 2328 
Q 447 3434 972 4092 
Q 1497 4750 2381 4750 
Q 2619 4750 2861 4703 
Q 3103 4656 3366 4563 
z
" id="DejaVuSans-36" transform="scale(0.015625)"/>
       </defs>
       <use xlink:href="#DejaVuSans-30"/>
       <use x="63.623047" xlink:href="#DejaVuSans-2e"/>
       <use x="95.410156" xlink:href="#DejaVuSans-36"/>
      </g>
     </g>
    </g>
    <g id="xtick_4">
     <g id="line2d_4">
      <g>
       <use style="stroke:#000000;stroke-width:0.8;" x="350.538843" xlink:href="#m452369fd0a" y="378"/>
      </g>
     </g>
     <g id="text_4">
      <!-- 0.8 -->
      <g transform="translate(342.58728 392.598437)scale(0.1 -0.1)">
       <defs>
        <path d="M 2034 2216 
Q 1584 2216 1326 1975 
Q 1069 1734 1069 1313 
Q 1069 891 1326 650 
Q 1584 409 2034 409 
Q 2484 409 2743 651 
Q 3003 894 3003 1313 
Q 3003 1734 2745 1975 
Q 2488 2216 2034 2216 
z
M 1403 2484 
Q 997 2584 770 2862 
Q 544 3141 544 3541 
Q 544 4100 942 4425 
Q 1341 4750 2034 4750 
Q 2731 4750 3128 4425 
Q 3525 4100 3525 3541 
Q 3525 3141 3298 2862 
Q 3072 2584 2669 2484 
Q 3125 2378 3379 2068 
Q 3634 1759 3634 1313 
Q 3634 634 3220 271 
Q 2806 -91 2034 -91 
Q 1263 -91 848 271 
Q 434 634 434 1313 
Q 434 1759 690 2068 
Q 947 2378 1403 2484 
z
M 1172 3481 
Q 1172 3119 1398 2916 
Q 1625 2713 2034 2713 
Q 2441 2713 2670 2916 
Q 2900 3119 2900 3481 
Q 2900 3844 2670 4047 
Q 2441 4250 2034 4250 
Q 1625 4250 1398 4047 
Q 1172 3844 1172 3481 
z
" id="DejaVuSans-38" transform="scale(0.015625)"/>
       </defs>
       <use xlink:href="#DejaVuSans-30"/>
       <use x="63.623047" xlink:href="#DejaVuSans-2e"/>
       <use x="95.410156" xlink:href="#DejaVuSans-38"/>
      </g>
     </g>
    </g>
    <g id="xtick_5">
     <g id="line2d_5">
      <g>
       <use style="stroke:#000000;stroke-width:0.8;" x="424.323967" xlink:href="#m452369fd0a" y="378"/>
      </g>
     </g>
     <g id="text_5">
      <!-- 1.0 -->
      <g transform="translate(416.372404 392.598437)scale(0.1 -0.1)">
       <defs>
        <path d="M 794 531 
L 1825 531 
L 1825 4091 
L 703 3866 
L 703 4441 
L 1819 4666 
L 2450 4666 
L 2450 531 
L 3481 531 
L 3481 0 
L 794 0 
L 794 531 
z
" id="DejaVuSans-31" transform="scale(0.015625)"/>
       </defs>
       <use xlink:href="#DejaVuSans-31"/>
       <use x="63.623047" xlink:href="#DejaVuSans-2e"/>
       <use x="95.410156" xlink:href="#DejaVuSans-30"/>
      </g>
     </g>
    </g>
    <g id="xtick_6">
     <g id="line2d_6">
      <g>
       <use style="stroke:#000000;stroke-width:0.8;" x="498.109091" xlink:href="#m452369fd0a" y="378"/>
      </g>
     </g>
     <g id="text_6">
      <!-- 1.2 -->
      <g transform="translate(490.157528 392.598437)scale(0.1 -0.1)">
       <use xlink:href="#DejaVuSans-31"/>
       <use x="63.623047" xlink:href="#DejaVuSans-2e"/>
       <use x="95.410156" xlink:href="#DejaVuSans-32"/>
      </g>
     </g>
    </g>
    <g id="text_7">
     <!-- h -->
     <g transform="translate(290.76375 409.315938)scale(0.14 -0.14)">
      <defs>
       <path d="M 3513 2113 
L 3513 0 
L 2938 0 
L 2938 2094 
Q 2938 2591 2744 2837 
Q 2550 3084 2163 3084 
Q 1697 3084 1428 2787 
Q 1159 2491 1159 1978 
L 1159 0 
L 581 0 
L 581 4863 
L 1159 4863 
L 1159 2956 
Q 1366 3272 1645 3428 
Q 1925 3584 2291 3584 
Q 2894 3584 3203 3211 
Q 3513 2838 3513 2113 
z
" id="DejaVuSans-68" transform="scale(0.015625)"/>
      </defs>
      <use xlink:href="#DejaVuSans-68"/>
     </g>
    </g>
   </g>
   <g id="matplotlib.axis_2">
    <g id="ytick_1">
     <g id="line2d_7">
      <defs>
       <path d="M 0 0 
L -3.5 0 
" id="md279e1bd95" style="stroke:#000000;stroke-width:0.8;"/>
      </defs>
      <g>
       <use style="stroke:#000000;stroke-width:0.8;" x="72" xlink:href="#md279e1bd95" y="329.948873"/>
      </g>
     </g>
     <g id="text_8">
      <!-- 0 -->
      <g transform="translate(58.6375 333.748091)scale(0.1 -0.1)">
       <use xlink:href="#DejaVuSans-30"/>
      </g>
     </g>
    </g>
    <g id="ytick_2">
     <g id="line2d_8">
      <g>
       <use style="stroke:#000000;stroke-width:0.8;" x="72" xlink:href="#md279e1bd95" y="276.953405"/>
      </g>
     </g>
     <g id="text_9">
      <!-- 2 -->
      <g transform="translate(58.6375 280.752623)scale(0.1 -0.1)">
       <use xlink:href="#DejaVuSans-32"/>
      </g>
     </g>
    </g>
    <g id="ytick_3">
     <g id="line2d_9">
      <g>
       <use style="stroke:#000000;stroke-width:0.8;" x="72" xlink:href="#md279e1bd95" y="223.957937"/>
      </g>
     </g>
     <g id="text_10">
      <!-- 4 -->
      <g transform="translate(58.6375 227.757156)scale(0.1 -0.1)">
       <use xlink:href="#DejaVuSans-34"/>
      </g>
     </g>
    </g>
    <g id="ytick_4">
     <g id="line2d_10">
      <g>
       <use style="stroke:#000000;stroke-width:0.8;" x="72" xlink:href="#md279e1bd95" y="170.962469"/>
      </g>
     </g>
     <g id="text_11">
      <!-- 6 -->
      <g transform="translate(58.6375 174.761688)scale(0.1 -0.1)">
       <use xlink:href="#DejaVuSans-36"/>
      </g>
     </g>
    </g>
    <g id="ytick_5">
     <g id="line2d_11">
      <g>
       <use style="stroke:#000000;stroke-width:0.8;" x="72" xlink:href="#md279e1bd95" y="117.967001"/>
      </g>
     </g>
     <g id="text_12">
      <!-- 8 -->
      <g transform="translate(58.6375 121.76622)scale(0.1 -0.1)">
       <use xlink:href="#DejaVuSans-38"/>
      </g>
     </g>
    </g>
    <g id="ytick_6">
     <g id="line2d_12">
      <g>
       <use style="stroke:#000000;stroke-width:0.8;" x="72" xlink:href="#md279e1bd95" y="64.971533"/>
      </g>
     </g>
     <g id="text_13">
      <!-- 10 -->
      <g transform="translate(52.275 68.770752)scale(0.1 -0.1)">
       <use xlink:href="#DejaVuSans-31"/>
       <use x="63.623047" xlink:href="#DejaVuSans-30"/>
      </g>
     </g>
    </g>
    <g id="text_14">
     <!-- $\frac{d\bar{\langle \Sigma \rangle}}{dh}$ -->
     <g transform="translate(41.555 227.4)rotate(-90)scale(0.16 -0.16)">
      <defs>
       <path d="M 2675 525 
Q 2444 222 2128 65 
Q 1813 -91 1428 -91 
Q 903 -91 598 267 
Q 294 625 294 1247 
Q 294 1766 478 2236 
Q 663 2706 1013 3078 
Q 1244 3325 1534 3454 
Q 1825 3584 2144 3584 
Q 2481 3584 2739 3421 
Q 2997 3259 3138 2956 
L 3513 4863 
L 4091 4863 
L 3144 0 
L 2566 0 
L 2675 525 
z
M 891 1350 
Q 891 897 1095 644 
Q 1300 391 1663 391 
Q 1931 391 2161 520 
Q 2391 650 2566 903 
Q 2750 1166 2856 1509 
Q 2963 1853 2963 2188 
Q 2963 2622 2758 2865 
Q 2553 3109 2194 3109 
Q 1922 3109 1687 2981 
Q 1453 2853 1288 2613 
Q 1106 2353 998 2009 
Q 891 1666 891 1350 
z
" id="DejaVuSans-Oblique-64" transform="scale(0.015625)"/>
       <path d="M -2522 4769 
L -653 4769 
L -653 4306 
L -2522 4306 
L -2522 4769 
z
" id="DejaVuSans-304" transform="scale(0.015625)"/>
       <path d="M 572 2006 
L 1453 4856 
L 1984 4856 
L 1103 2006 
L 1984 -844 
L 1453 -844 
L 572 2006 
z
" id="DejaVuSans-27e8" transform="scale(0.015625)"/>
       <path d="M 1353 531 
L 3634 531 
L 3634 0 
L 628 0 
L 628 531 
L 2125 2481 
L 628 4134 
L 628 4666 
L 3578 4666 
L 3578 4134 
L 1353 4134 
L 2850 2494 
L 1353 531 
z
" id="DejaVuSans-3a3" transform="scale(0.015625)"/>
       <path d="M 1925 2006 
L 1044 -844 
L 513 -844 
L 1394 2006 
L 513 4856 
L 1044 4856 
L 1925 2006 
z
" id="DejaVuSans-27e9" transform="scale(0.015625)"/>
       <path d="M 3566 2113 
L 3156 0 
L 2578 0 
L 2988 2091 
Q 3016 2238 3031 2350 
Q 3047 2463 3047 2528 
Q 3047 2791 2881 2937 
Q 2716 3084 2419 3084 
Q 1956 3084 1617 2771 
Q 1278 2459 1178 1941 
L 800 0 
L 225 0 
L 1172 4863 
L 1747 4863 
L 1375 2950 
Q 1594 3244 1934 3414 
Q 2275 3584 2650 3584 
Q 3113 3584 3367 3334 
Q 3622 3084 3622 2631 
Q 3622 2519 3608 2391 
Q 3594 2263 3566 2113 
z
" id="DejaVuSans-Oblique-68" transform="scale(0.015625)"/>
      </defs>
      <use transform="translate(0 53.073437)scale(0.7)" xlink:href="#DejaVuSans-Oblique-64"/>
      <use transform="translate(123.723633 67.842187)scale(0.7)" xlink:href="#DejaVuSans-304"/>
      <use transform="translate(44.433594 53.073437)scale(0.7)" xlink:href="#DejaVuSans-27e8"/>
      <use transform="translate(71.743164 53.073437)scale(0.7)" xlink:href="#DejaVuSans-3a3"/>
      <use transform="translate(115.97168 53.073437)scale(0.7)" xlink:href="#DejaVuSans-27e9"/>
      <use transform="translate(27 -40.596875)scale(0.7)" xlink:href="#DejaVuSans-Oblique-64"/>
      <use transform="translate(71.433594 -40.596875)scale(0.7)" xlink:href="#DejaVuSans-Oblique-68"/>
      <path d="M 0 18.842187 
L 0 25.092187 
L 143.28125 25.092187 
L 143.28125 18.842187 
L 0 18.842187 
z
"/>
     </g>
    </g>
   </g>
   <g id="line2d_13">
    <path clip-path="url(#p1630a15bd0)" d="M 92.290909 66.665455 
L 95.701146 75.425122 
L 99.111383 94.190493 
L 102.52162 114.701683 
L 105.931856 135.591504 
L 109.342093 155.773817 
L 112.75233 174.474568 
L 116.162567 191.211741 
L 119.572804 205.743826 
L 122.98304 218.008129 
L 126.393277 228.065706 
L 129.803514 236.062157 
L 133.213751 242.205944 
L 136.623988 246.759895 
L 140.034225 250.038226 
L 143.444461 252.401161 
L 146.854698 254.241504 
L 150.264935 255.961172 
L 153.675172 257.939263 
L 157.085409 260.495705 
L 160.495646 263.855818 
L 163.905882 268.121917 
L 167.316119 273.259461 
L 170.726356 279.102288 
L 174.136593 285.372965 
L 177.54683 291.710077 
L 180.957066 297.731953 
L 184.367303 303.173596 
L 187.77754 307.924057 
L 191.187777 311.851838 
L 194.598014 314.712347 
L 198.008251 316.451756 
L 201.418487 317.65413 
L 204.828724 318.45747 
L 208.238961 318.56987 
L 211.649198 317.13504 
L 215.059435 315.502221 
L 218.469672 312.790855 
L 221.879908 309.064888 
L 225.290145 308.518163 
L 228.700382 306.872602 
L 232.110619 318.873571 
L 235.520856 326.227238 
L 238.931092 340.459791 
L 242.341329 352.605663 
L 245.751566 354.085874 
L 249.161803 363.174545 
L 252.57204 358.59048 
L 255.982277 358.592776 
L 259.392513 352.843648 
L 262.80275 354.648422 
L 266.212987 351.339444 
L 269.623224 341.075515 
L 273.033461 349.604532 
L 276.443697 344.2348 
L 279.853934 339.15809 
L 283.264171 346.818058 
L 286.674408 343.858956 
L 290.084645 338.949943 
L 293.494882 341.602203 
L 296.905118 341.537082 
L 300.315355 334.631226 
L 303.725592 333.276577 
L 307.135829 337.540339 
L 310.546066 332.41251 
L 313.956303 330.053984 
L 317.366539 336.841377 
L 320.776776 336.044143 
L 324.187013 333.677086 
L 327.59725 337.777286 
L 331.007487 339.041935 
L 334.417723 336.346395 
L 337.82796 334.982826 
L 341.238197 336.209353 
L 344.648434 334.587115 
L 348.058671 329.45432 
L 351.468908 330.52911 
L 354.879144 332.665436 
L 358.289381 328.156608 
L 361.699618 328.659276 
L 365.109855 333.659696 
L 368.520092 332.525316 
L 371.930328 331.849085 
L 375.340565 335.448885 
L 378.750802 336.262119 
L 382.161039 334.316956 
L 385.571276 334.100884 
L 388.981513 335.054652 
L 392.391749 332.917189 
L 395.801986 329.543805 
L 399.212223 330.608284 
L 402.62246 330.885779 
L 406.032697 327.104004 
L 409.442934 327.902673 
L 412.85317 331.294199 
L 416.263407 329.947014 
L 419.673644 329.830748 
L 423.083881 333.319519 
L 426.494118 334.050465 
L 429.904354 332.955463 
L 433.314591 333.911954 
L 436.724828 334.750435 
L 440.135065 332.890309 
L 443.545302 331.145612 
L 446.955539 331.801942 
L 450.365775 330.687886 
L 453.776012 327.659148 
L 457.186249 328.351743 
L 460.596486 329.802398 
L 464.006723 327.984325 
L 467.41696 328.204089 
L 470.827196 331.124579 
L 474.237433 331.531723 
L 477.64767 331.157964 
L 481.057907 332.962012 
L 484.468144 333.897634 
L 487.87838 332.868055 
L 491.288617 332.577885 
L 494.698854 332.948786 
L 498.109091 332.960583 
" style="fill:none;stroke:#1f77b4;stroke-linecap:square;stroke-width:1.5;"/>
   </g>
   <g id="line2d_14">
    <path clip-path="url(#p1630a15bd0)" d="M 92.290909 170.816974 
L 95.701146 184.990411 
L 99.111383 209.804465 
L 102.52162 228.624125 
L 105.931856 243.243359 
L 109.342093 254.862114 
L 112.75233 264.277277 
L 116.162567 272.028655 
L 119.572804 278.490872 
L 122.98304 283.924556 
L 126.393277 288.497673 
L 129.803514 292.279643 
L 133.213751 295.207704 
L 136.623988 297.040114 
L 140.034225 297.356276 
L 143.444461 295.71248 
L 146.854698 292.014043 
L 150.264935 286.949495 
L 153.675172 282.116296 
L 157.085409 279.570332 
L 160.495646 280.942931 
L 163.905882 286.594147 
L 167.316119 295.300377 
L 170.726356 304.76923 
L 174.136593 312.798038 
L 177.54683 318.302183 
L 180.957066 321.458428 
L 184.367303 323.069199 
L 187.77754 323.892008 
L 191.187777 324.380566 
L 194.598014 324.736226 
L 198.008251 325.030046 
L 201.418487 325.283698 
L 204.828724 325.504058 
L 208.238961 325.691142 
L 211.649198 325.817182 
L 215.059435 325.704786 
L 218.469672 324.745671 
L 221.879908 321.372008 
L 225.290145 314.9748 
L 228.700382 307.165715 
L 232.110619 304.009488 
L 235.520856 316.210754 
L 238.931092 335.203101 
L 242.341329 347.300246 
L 245.751566 354.115462 
L 249.161803 356.354223 
L 252.57204 355.205479 
L 255.982277 353.492455 
L 259.392513 349.476473 
L 262.80275 341.770578 
L 266.212987 334.182683 
L 269.623224 329.388832 
L 273.033461 328.19578 
L 276.443697 330.342011 
L 279.853934 334.962344 
L 283.264171 340.494554 
L 286.674408 344.533298 
L 290.084645 345.096408 
L 293.494882 341.858091 
L 296.905118 336.588128 
L 300.315355 331.327432 
L 303.725592 327.489939 
L 307.135829 325.849241 
L 310.546066 325.465535 
L 313.956303 325.736571 
L 317.366539 327.570459 
L 320.776776 330.777846 
L 324.187013 334.584152 
L 327.59725 338.808744 
L 331.007487 341.557644 
L 334.417723 340.920067 
L 337.82796 338.008062 
L 341.238197 334.295753 
L 344.648434 330.4427 
L 348.058671 327.358472 
L 351.468908 325.837926 
L 354.879144 325.776006 
L 358.289381 325.851659 
L 361.699618 325.710022 
L 365.109855 326.853157 
L 368.520092 329.636567 
L 371.930328 332.898664 
L 375.340565 335.995996 
L 378.750802 338.398731 
L 382.161039 339.097536 
L 385.571276 337.625157 
L 388.981513 334.65243 
L 392.391749 331.375601 
L 395.801986 328.685876 
L 399.212223 326.950331 
L 402.62246 326.161862 
L 406.032697 326.000091 
L 409.442934 326.109936 
L 412.85317 326.476075 
L 416.263407 327.343795 
L 419.673644 328.993722 
L 423.083881 331.531377 
L 426.494118 334.510878 
L 429.904354 336.897003 
L 433.314591 337.693759 
L 436.724828 336.649043 
L 440.135065 334.34585 
L 443.545302 331.713139 
L 446.955539 329.480673 
L 450.365775 327.922584 
L 453.776012 326.952176 
L 457.186249 326.415663 
L 460.596486 326.261015 
L 464.006723 326.480527 
L 467.41696 327.072526 
L 470.827196 328.138177 
L 474.237433 329.866576 
L 477.64767 332.219487 
L 481.057907 334.634407 
L 484.468144 336.250316 
L 487.87838 336.470142 
L 491.288617 335.234622 
L 494.698854 332.973496 
L 498.109091 331.66761 
" style="fill:none;stroke:#ff7f0e;stroke-linecap:square;stroke-width:1.5;"/>
   </g>
   <g id="line2d_15">
    <path clip-path="url(#p1630a15bd0)" d="M 92.290909 238.559727 
L 95.701146 246.089373 
L 99.111383 259.414986 
L 102.52162 269.774043 
L 105.931856 277.99901 
L 109.342093 284.64827 
L 112.75233 290.107861 
L 116.162567 294.651767 
L 119.572804 298.478932 
L 122.98304 301.736693 
L 126.393277 304.536018 
L 129.803514 306.961026 
L 133.213751 309.072531 
L 136.623988 310.889186 
L 140.034225 312.284509 
L 143.444461 312.684095 
L 146.854698 310.715801 
L 150.264935 304.840085 
L 153.675172 295.754872 
L 157.085409 288.224105 
L 160.495646 288.281062 
L 163.905882 297.202253 
L 167.316119 309.63491 
L 170.726356 319.069229 
L 174.136593 323.604871 
L 177.54683 325.150289 
L 180.957066 325.682721 
L 184.367303 325.990594 
L 187.77754 326.246072 
L 191.187777 326.472795 
L 194.598014 326.674038 
L 198.008251 326.85151 
L 201.418487 327.007024 
L 204.828724 327.142563 
L 208.238961 327.260198 
L 211.649198 327.361985 
L 215.059435 327.449226 
L 218.469672 327.501274 
L 221.879908 327.14379 
L 225.290145 323.974649 
L 228.700382 313.675751 
L 232.110619 302.41185 
L 235.520856 310.560664 
L 238.931092 337.658075 
L 242.341329 353.323411 
L 245.751566 347.064987 
L 249.161803 340.912543 
L 252.57204 346.668986 
L 255.982277 352.113542 
L 259.392513 346.755765 
L 262.80275 335.99878 
L 266.212987 328.988191 
L 269.623224 326.814072 
L 273.033461 326.663544 
L 276.443697 327.501262 
L 279.853934 330.543891 
L 283.264171 337.135652 
L 286.674408 344.468445 
L 290.084645 346.076211 
L 293.494882 340.253453 
L 296.905118 332.647435 
L 300.315355 328.200731 
L 303.725592 326.809578 
L 307.135829 326.632291 
L 310.546066 326.709884 
L 313.956303 326.83973 
L 317.366539 327.151943 
L 320.776776 328.312067 
L 324.187013 331.600228 
L 327.59725 337.234803 
L 331.007487 342.125021 
L 334.417723 341.934952 
L 337.82796 336.911201 
L 341.238197 331.339687 
L 344.648434 328.105039 
L 348.058671 327.214833 
L 351.468908 327.040318 
L 354.879144 326.941234 
L 358.289381 327.223785 
L 361.699618 327.304538 
L 365.109855 327.244467 
L 368.520092 328.05718 
L 371.930328 330.339437 
L 375.340565 334.264757 
L 378.750802 338.512072 
L 382.161039 340.10806 
L 385.571276 337.706926 
L 388.981513 333.091625 
L 392.391749 328.950135 
L 395.801986 327.025523 
L 399.212223 327.542723 
L 402.62246 328.526155 
L 406.032697 327.817467 
L 409.442934 326.125124 
L 412.85317 326.097861 
L 416.263407 328.514002 
L 419.673644 330.541828 
L 423.083881 330.458713 
L 426.494118 330.583232 
L 429.904354 333.525303 
L 433.314591 338.353209 
L 436.724828 340.427056 
L 440.135065 336.706874 
L 443.545302 329.731796 
L 446.955539 324.202016 
L 450.365775 323.231754 
L 453.776012 326.925015 
L 457.186249 331.9324 
L 460.596486 333.644201 
L 464.006723 330.295162 
L 467.41696 324.708846 
L 470.827196 321.552998 
L 474.237433 323.444589 
L 477.64767 329.596563 
L 481.057907 337.853774 
L 484.468144 344.228937 
L 487.87838 343.227162 
L 491.288617 334.572085 
L 494.698854 325.072503 
L 498.109091 321.251841 
" style="fill:none;stroke:#2ca02c;stroke-linecap:square;stroke-width:1.5;"/>
   </g>
   <g id="line2d_16">
    <path clip-path="url(#p1630a15bd0)" d="M 239.861157 378 
L 239.861157 51.84 
" style="fill:none;stroke:#ff0000;stroke-dasharray:5.55,2.4;stroke-dashoffset:0;stroke-width:1.5;"/>
   </g>
   <g id="patch_3">
    <path d="M 72 378 
L 72 51.84 
" style="fill:none;stroke:#000000;stroke-linecap:square;stroke-linejoin:miter;stroke-width:0.8;"/>
   </g>
   <g id="patch_4">
    <path d="M 518.4 378 
L 518.4 51.84 
" style="fill:none;stroke:#000000;stroke-linecap:square;stroke-linejoin:miter;stroke-width:0.8;"/>
   </g>
   <g id="patch_5">
    <path d="M 72 378 
L 518.4 378 
" style="fill:none;stroke:#000000;stroke-linecap:square;stroke-linejoin:miter;stroke-width:0.8;"/>
   </g>
   <g id="patch_6">
    <path d="M 72 51.84 
L 518.4 51.84 
" style="fill:none;stroke:#000000;stroke-linecap:square;stroke-linejoin:miter;stroke-width:0.8;"/>
   </g>
   <g id="legend_1">
    <g id="patch_7">
     <path d="M 360.239062 118.5525 
L 511.4 118.5525 
Q 513.4 118.5525 513.4 116.5525 
L 513.4 58.84 
Q 513.4 56.84 511.4 56.84 
L 360.239062 56.84 
Q 358.239062 56.84 358.239062 58.84 
L 358.239062 116.5525 
Q 358.239062 118.5525 360.239062 118.5525 
z
" style="fill:#ffffff;opacity:0.8;stroke:#cccccc;stroke-linejoin:miter;"/>
    </g>
    <g id="line2d_17">
     <path d="M 362.239062 64.938438 
L 382.239062 64.938438 
" style="fill:none;stroke:#1f77b4;stroke-linecap:square;stroke-width:1.5;"/>
    </g>
    <g id="line2d_18"/>
    <g id="text_15">
     <!-- j=50 -->
     <g transform="translate(390.239062 68.438438)scale(0.1 -0.1)">
      <defs>
       <path d="M 603 3500 
L 1178 3500 
L 1178 -63 
Q 1178 -731 923 -1031 
Q 669 -1331 103 -1331 
L -116 -1331 
L -116 -844 
L 38 -844 
Q 366 -844 484 -692 
Q 603 -541 603 -63 
L 603 3500 
z
M 603 4863 
L 1178 4863 
L 1178 4134 
L 603 4134 
L 603 4863 
z
" id="DejaVuSans-6a" transform="scale(0.015625)"/>
       <path d="M 678 2906 
L 4684 2906 
L 4684 2381 
L 678 2381 
L 678 2906 
z
M 678 1631 
L 4684 1631 
L 4684 1100 
L 678 1100 
L 678 1631 
z
" id="DejaVuSans-3d" transform="scale(0.015625)"/>
       <path d="M 691 4666 
L 3169 4666 
L 3169 4134 
L 1269 4134 
L 1269 2991 
Q 1406 3038 1543 3061 
Q 1681 3084 1819 3084 
Q 2600 3084 3056 2656 
Q 3513 2228 3513 1497 
Q 3513 744 3044 326 
Q 2575 -91 1722 -91 
Q 1428 -91 1123 -41 
Q 819 9 494 109 
L 494 744 
Q 775 591 1075 516 
Q 1375 441 1709 441 
Q 2250 441 2565 725 
Q 2881 1009 2881 1497 
Q 2881 1984 2565 2268 
Q 2250 2553 1709 2553 
Q 1456 2553 1204 2497 
Q 953 2441 691 2322 
L 691 4666 
z
" id="DejaVuSans-35" transform="scale(0.015625)"/>
      </defs>
      <use xlink:href="#DejaVuSans-6a"/>
      <use x="27.783203" xlink:href="#DejaVuSans-3d"/>
      <use x="111.572266" xlink:href="#DejaVuSans-35"/>
      <use x="175.195312" xlink:href="#DejaVuSans-30"/>
     </g>
    </g>
    <g id="line2d_19">
     <path d="M 362.239062 79.616563 
L 382.239062 79.616563 
" style="fill:none;stroke:#ff7f0e;stroke-linecap:square;stroke-width:1.5;"/>
    </g>
    <g id="line2d_20"/>
    <g id="text_16">
     <!-- j=200 -->
     <g transform="translate(390.239062 83.116563)scale(0.1 -0.1)">
      <use xlink:href="#DejaVuSans-6a"/>
      <use x="27.783203" xlink:href="#DejaVuSans-3d"/>
      <use x="111.572266" xlink:href="#DejaVuSans-32"/>
      <use x="175.195312" xlink:href="#DejaVuSans-30"/>
      <use x="238.818359" xlink:href="#DejaVuSans-30"/>
     </g>
    </g>
    <g id="line2d_21">
     <path d="M 362.239062 94.294688 
L 382.239062 94.294688 
" style="fill:none;stroke:#2ca02c;stroke-linecap:square;stroke-width:1.5;"/>
    </g>
    <g id="line2d_22"/>
    <g id="text_17">
     <!-- j=500 -->
     <g transform="translate(390.239062 97.794688)scale(0.1 -0.1)">
      <use xlink:href="#DejaVuSans-6a"/>
      <use x="27.783203" xlink:href="#DejaVuSans-3d"/>
      <use x="111.572266" xlink:href="#DejaVuSans-35"/>
      <use x="175.195312" xlink:href="#DejaVuSans-30"/>
      <use x="238.818359" xlink:href="#DejaVuSans-30"/>
     </g>
    </g>
    <g id="line2d_23">
     <path d="M 362.239062 108.972813 
L 382.239062 108.972813 
" style="fill:none;stroke:#ff0000;stroke-dasharray:5.55,2.4;stroke-dashoffset:0;stroke-width:1.5;"/>
    </g>
    <g id="line2d_24"/>
    <g id="text_18">
     <!-- Dynamical Critical Point -->
     <g transform="translate(390.239062 112.472813)scale(0.1 -0.1)">
      <defs>
       <path d="M 1259 4147 
L 1259 519 
L 2022 519 
Q 2988 519 3436 956 
Q 3884 1394 3884 2338 
Q 3884 3275 3436 3711 
Q 2988 4147 2022 4147 
L 1259 4147 
z
M 628 4666 
L 1925 4666 
Q 3281 4666 3915 4102 
Q 4550 3538 4550 2338 
Q 4550 1131 3912 565 
Q 3275 0 1925 0 
L 628 0 
L 628 4666 
z
" id="DejaVuSans-44" transform="scale(0.015625)"/>
       <path d="M 2059 -325 
Q 1816 -950 1584 -1140 
Q 1353 -1331 966 -1331 
L 506 -1331 
L 506 -850 
L 844 -850 
Q 1081 -850 1212 -737 
Q 1344 -625 1503 -206 
L 1606 56 
L 191 3500 
L 800 3500 
L 1894 763 
L 2988 3500 
L 3597 3500 
L 2059 -325 
z
" id="DejaVuSans-79" transform="scale(0.015625)"/>
       <path d="M 3513 2113 
L 3513 0 
L 2938 0 
L 2938 2094 
Q 2938 2591 2744 2837 
Q 2550 3084 2163 3084 
Q 1697 3084 1428 2787 
Q 1159 2491 1159 1978 
L 1159 0 
L 581 0 
L 581 3500 
L 1159 3500 
L 1159 2956 
Q 1366 3272 1645 3428 
Q 1925 3584 2291 3584 
Q 2894 3584 3203 3211 
Q 3513 2838 3513 2113 
z
" id="DejaVuSans-6e" transform="scale(0.015625)"/>
       <path d="M 2194 1759 
Q 1497 1759 1228 1600 
Q 959 1441 959 1056 
Q 959 750 1161 570 
Q 1363 391 1709 391 
Q 2188 391 2477 730 
Q 2766 1069 2766 1631 
L 2766 1759 
L 2194 1759 
z
M 3341 1997 
L 3341 0 
L 2766 0 
L 2766 531 
Q 2569 213 2275 61 
Q 1981 -91 1556 -91 
Q 1019 -91 701 211 
Q 384 513 384 1019 
Q 384 1609 779 1909 
Q 1175 2209 1959 2209 
L 2766 2209 
L 2766 2266 
Q 2766 2663 2505 2880 
Q 2244 3097 1772 3097 
Q 1472 3097 1187 3025 
Q 903 2953 641 2809 
L 641 3341 
Q 956 3463 1253 3523 
Q 1550 3584 1831 3584 
Q 2591 3584 2966 3190 
Q 3341 2797 3341 1997 
z
" id="DejaVuSans-61" transform="scale(0.015625)"/>
       <path d="M 3328 2828 
Q 3544 3216 3844 3400 
Q 4144 3584 4550 3584 
Q 5097 3584 5394 3201 
Q 5691 2819 5691 2113 
L 5691 0 
L 5113 0 
L 5113 2094 
Q 5113 2597 4934 2840 
Q 4756 3084 4391 3084 
Q 3944 3084 3684 2787 
Q 3425 2491 3425 1978 
L 3425 0 
L 2847 0 
L 2847 2094 
Q 2847 2600 2669 2842 
Q 2491 3084 2119 3084 
Q 1678 3084 1418 2786 
Q 1159 2488 1159 1978 
L 1159 0 
L 581 0 
L 581 3500 
L 1159 3500 
L 1159 2956 
Q 1356 3278 1631 3431 
Q 1906 3584 2284 3584 
Q 2666 3584 2933 3390 
Q 3200 3197 3328 2828 
z
" id="DejaVuSans-6d" transform="scale(0.015625)"/>
       <path d="M 603 3500 
L 1178 3500 
L 1178 0 
L 603 0 
L 603 3500 
z
M 603 4863 
L 1178 4863 
L 1178 4134 
L 603 4134 
L 603 4863 
z
" id="DejaVuSans-69" transform="scale(0.015625)"/>
       <path d="M 3122 3366 
L 3122 2828 
Q 2878 2963 2633 3030 
Q 2388 3097 2138 3097 
Q 1578 3097 1268 2742 
Q 959 2388 959 1747 
Q 959 1106 1268 751 
Q 1578 397 2138 397 
Q 2388 397 2633 464 
Q 2878 531 3122 666 
L 3122 134 
Q 2881 22 2623 -34 
Q 2366 -91 2075 -91 
Q 1284 -91 818 406 
Q 353 903 353 1747 
Q 353 2603 823 3093 
Q 1294 3584 2113 3584 
Q 2378 3584 2631 3529 
Q 2884 3475 3122 3366 
z
" id="DejaVuSans-63" transform="scale(0.015625)"/>
       <path d="M 603 4863 
L 1178 4863 
L 1178 0 
L 603 0 
L 603 4863 
z
" id="DejaVuSans-6c" transform="scale(0.015625)"/>
       <path id="DejaVuSans-20" transform="scale(0.015625)"/>
       <path d="M 4122 4306 
L 4122 3641 
Q 3803 3938 3442 4084 
Q 3081 4231 2675 4231 
Q 1875 4231 1450 3742 
Q 1025 3253 1025 2328 
Q 1025 1406 1450 917 
Q 1875 428 2675 428 
Q 3081 428 3442 575 
Q 3803 722 4122 1019 
L 4122 359 
Q 3791 134 3420 21 
Q 3050 -91 2638 -91 
Q 1578 -91 968 557 
Q 359 1206 359 2328 
Q 359 3453 968 4101 
Q 1578 4750 2638 4750 
Q 3056 4750 3426 4639 
Q 3797 4528 4122 4306 
z
" id="DejaVuSans-43" transform="scale(0.015625)"/>
       <path d="M 2631 2963 
Q 2534 3019 2420 3045 
Q 2306 3072 2169 3072 
Q 1681 3072 1420 2755 
Q 1159 2438 1159 1844 
L 1159 0 
L 581 0 
L 581 3500 
L 1159 3500 
L 1159 2956 
Q 1341 3275 1631 3429 
Q 1922 3584 2338 3584 
Q 2397 3584 2469 3576 
Q 2541 3569 2628 3553 
L 2631 2963 
z
" id="DejaVuSans-72" transform="scale(0.015625)"/>
       <path d="M 1172 4494 
L 1172 3500 
L 2356 3500 
L 2356 3053 
L 1172 3053 
L 1172 1153 
Q 1172 725 1289 603 
Q 1406 481 1766 481 
L 2356 481 
L 2356 0 
L 1766 0 
Q 1100 0 847 248 
Q 594 497 594 1153 
L 594 3053 
L 172 3053 
L 172 3500 
L 594 3500 
L 594 4494 
L 1172 4494 
z
" id="DejaVuSans-74" transform="scale(0.015625)"/>
       <path d="M 1259 4147 
L 1259 2394 
L 2053 2394 
Q 2494 2394 2734 2622 
Q 2975 2850 2975 3272 
Q 2975 3691 2734 3919 
Q 2494 4147 2053 4147 
L 1259 4147 
z
M 628 4666 
L 2053 4666 
Q 2838 4666 3239 4311 
Q 3641 3956 3641 3272 
Q 3641 2581 3239 2228 
Q 2838 1875 2053 1875 
L 1259 1875 
L 1259 0 
L 628 0 
L 628 4666 
z
" id="DejaVuSans-50" transform="scale(0.015625)"/>
       <path d="M 1959 3097 
Q 1497 3097 1228 2736 
Q 959 2375 959 1747 
Q 959 1119 1226 758 
Q 1494 397 1959 397 
Q 2419 397 2687 759 
Q 2956 1122 2956 1747 
Q 2956 2369 2687 2733 
Q 2419 3097 1959 3097 
z
M 1959 3584 
Q 2709 3584 3137 3096 
Q 3566 2609 3566 1747 
Q 3566 888 3137 398 
Q 2709 -91 1959 -91 
Q 1206 -91 779 398 
Q 353 888 353 1747 
Q 353 2609 779 3096 
Q 1206 3584 1959 3584 
z
" id="DejaVuSans-6f" transform="scale(0.015625)"/>
      </defs>
      <use xlink:href="#DejaVuSans-44"/>
      <use x="77.001953" xlink:href="#DejaVuSans-79"/>
      <use x="136.181641" xlink:href="#DejaVuSans-6e"/>
      <use x="199.560547" xlink:href="#DejaVuSans-61"/>
      <use x="260.839844" xlink:href="#DejaVuSans-6d"/>
      <use x="358.251953" xlink:href="#DejaVuSans-69"/>
      <use x="386.035156" xlink:href="#DejaVuSans-63"/>
      <use x="441.015625" xlink:href="#DejaVuSans-61"/>
      <use x="502.294922" xlink:href="#DejaVuSans-6c"/>
      <use x="530.078125" xlink:href="#DejaVuSans-20"/>
      <use x="561.865234" xlink:href="#DejaVuSans-43"/>
      <use x="631.689453" xlink:href="#DejaVuSans-72"/>
      <use x="672.802734" xlink:href="#DejaVuSans-69"/>
      <use x="700.585938" xlink:href="#DejaVuSans-74"/>
      <use x="739.794922" xlink:href="#DejaVuSans-69"/>
      <use x="767.578125" xlink:href="#DejaVuSans-63"/>
      <use x="822.558594" xlink:href="#DejaVuSans-61"/>
      <use x="883.837891" xlink:href="#DejaVuSans-6c"/>
      <use x="911.621094" xlink:href="#DejaVuSans-20"/>
      <use x="943.408203" xlink:href="#DejaVuSans-50"/>
      <use x="1000.085938" xlink:href="#DejaVuSans-6f"/>
      <use x="1061.267578" xlink:href="#DejaVuSans-69"/>
      <use x="1089.050781" xlink:href="#DejaVuSans-6e"/>
      <use x="1152.429688" xlink:href="#DejaVuSans-74"/>
     </g>
    </g>
   </g>
  </g>
 </g>
 <defs>
  <clipPath id="p1630a15bd0">
   <rect height="326.16" width="446.4" x="72" y="51.84"/>
  </clipPath>
 </defs>
</svg>
