<?xml version="1.0" encoding="UTF-8" standalone="no"?>
<!-- Created with Inkscape (http://www.inkscape.org/) -->

<svg
   xmlns:dc="http://purl.org/dc/elements/1.1/"
   xmlns:cc="http://creativecommons.org/ns#"
   xmlns:rdf="http://www.w3.org/1999/02/22-rdf-syntax-ns#"
   xmlns:svg="http://www.w3.org/2000/svg"
   xmlns="http://www.w3.org/2000/svg"
   xmlns:sodipodi="http://sodipodi.sourceforge.net/DTD/sodipodi-0.dtd"
   xmlns:inkscape="http://www.inkscape.org/namespaces/inkscape"
   width="210mm"
   height="297mm"
   viewBox="0 0 210 297"
   version="1.1"
   id="svg76"
   inkscape:version="0.92.5 (2060ec1f9f, 2020-04-08)"
   sodipodi:docname="Signature.svg">
  <defs
     id="defs70" />
  <sodipodi:namedview
     id="base"
     pagecolor="#ffffff"
     bordercolor="#666666"
     borderopacity="1.0"
     inkscape:pageopacity="0.0"
     inkscape:pageshadow="2"
     inkscape:zoom="2.8"
     inkscape:cx="107.5109"
     inkscape:cy="650.01968"
     inkscape:document-units="mm"
     inkscape:current-layer="layer1"
     showgrid="false"
     inkscape:window-width="1366"
     inkscape:window-height="704"
     inkscape:window-x="0"
     inkscape:window-y="27"
     inkscape:window-maximized="1" />
  <metadata
     id="metadata73">
    <rdf:RDF>
      <cc:Work
         rdf:about="">
        <dc:format>image/svg+xml</dc:format>
        <dc:type
           rdf:resource="http://purl.org/dc/dcmitype/StillImage" />
        <dc:title></dc:title>
      </cc:Work>
    </rdf:RDF>
  </metadata>
  <g
     inkscape:label="Layer 1"
     inkscape:groupmode="layer"
     id="layer1">
    <path
       d="m 7.5141439,120.58854 v 14.09578 H 54.190469 v -14.09578 z"
       style="fill:#000200;fill-rule:evenodd;stroke-width:0.15996286"
       id="path6"
       inkscape:connector-curvature="0" />
    <path
       d="m 27.229534,120.58854 h 26.960935 v 14.09578 H 27.229534 c -1.192813,0 -2.169104,-1.45402 -2.169104,-3.23122 v -7.63334 c 0,-1.77721 0.976109,-3.23122 2.169104,-3.23122 z"
       style="fill:#f3af15;fill-rule:evenodd;stroke-width:0.23104309"
       id="path8"
       inkscape:connector-curvature="0" />
    <g
       transform="matrix(0.26458333,0,0,0.26458333,-21.884326,65.801557)"
       id="Layer1002">
      <path
         d="m 129.8478,222.9317 c 0,0 0.096,-0.0885 0.2814,-0.2601 0.1838,-0.1738 0.4647,-0.4221 0.8254,-0.7532 0.7281,-0.6542 1.7973,-1.6112 3.2003,-2.7933 0.802,-0.6699 1.7097,-1.4205 2.7448,-2.2029 -0.4733,-0.2374 -0.9648,-0.4736 -1.4741,-0.7068 -1.1412,-0.5237 -2.3695,-1.0357 -3.6788,-1.5016 -0.3269,-0.1152 -0.658,-0.2316 -0.9933,-0.3496 -0.3334,-0.1203 -0.6685,-0.2473 -1.0106,-0.3661 -0.6842,-0.2382 -1.3984,-0.4314 -2.1303,-0.5955 -0.732,-0.1634 -1.4851,-0.2901 -2.2513,-0.358 -0.383,-0.0347 -0.7695,-0.056 -1.157,-0.0564 -0.3873,-0.003 -0.7764,0.0113 -1.1631,0.0505 -0.3868,0.0379 -0.772,0.0959 -1.1513,0.18 -0.3785,0.0862 -0.7504,0.1977 -1.1102,0.3387 -0.7196,0.2813 -1.3876,0.685 -1.9509,1.2176 -0.0689,0.0682 -0.1422,0.1319 -0.2066,0.2051 -0.064,0.0706 -0.1389,0.1432 -0.1925,0.2117 l -0.0876,0.1033 -0.0447,0.0521 -0.0511,0.0677 -0.1026,0.1356 -0.0513,0.0678 c 0.0189,-0.0257 -0.007,0.0107 -0.008,0.0128 l -0.0207,0.0309 c -0.2271,0.3239 -0.4239,0.6744 -0.5894,1.0457 -0.3326,0.7423 -0.5328,1.569 -0.6259,2.4294 -0.0466,0.4304 -0.0667,0.8699 -0.0641,1.3144 0.004,0.4447 0.0329,0.8944 0.0798,1.3465 0.046,0.4521 0.1146,0.9068 0.2009,1.3618 0.0851,0.4551 0.1867,0.9113 0.3066,1.3664 0.0995,0.381 0.2093,0.7613 0.3284,1.141 h -1.8494 c -0.0674,-0.2313 -0.1316,-0.4632 -0.1925,-0.6961 -0.1292,-0.4911 -0.2399,-0.9868 -0.3331,-1.4849 -0.0944,-0.4981 -0.17,-0.9991 -0.2215,-1.5031 -0.0523,-0.5038 -0.085,-1.0096 -0.0895,-1.5167 -0.003,-0.507 0.0196,-1.015 0.0744,-1.5208 0.1095,-1.0101 0.3483,-2.0178 0.7685,-2.9575 0.2091,-0.4695 0.4617,-0.9204 0.756,-1.3407 l 0.0271,-0.04 c 0.015,-0.0211 0.005,-0.009 0.0405,-0.0572 l 0.0513,-0.068 0.1026,-0.1355 0.0513,-0.0676 0.0643,-0.078 0.1306,-0.1559 c 0.0876,-0.108 0.1744,-0.1931 0.2619,-0.2886 0.0854,-0.0951 0.1805,-0.1805 0.2715,-0.2696 0.7411,-0.7013 1.6172,-1.2258 2.5194,-1.5777 0.4517,-0.1772 0.9104,-0.3137 1.3684,-0.4181 0.4585,-0.1018 0.9162,-0.1703 1.3691,-0.2147 0.4533,-0.0457 0.9016,-0.0617 1.3432,-0.0587 0.4422,7e-4 0.8773,0.0249 1.3052,0.0636 0.8563,0.076 1.6825,0.2158 2.478,0.3931 0.3984,0.0871 0.7876,0.1884 1.1714,0.2921 0.3818,0.1087 0.7581,0.2195 1.1281,0.3334 0.3697,0.1143 0.7342,0.2302 1.0861,0.3656 0.1756,0.0684 0.351,0.1349 0.5205,0.2116 0.1708,0.0736 0.3395,0.1489 0.5048,0.2286 1.3302,0.6202 2.5324,1.31 3.62,2.0121 0.6071,0.3931 1.1796,0.7875 1.7203,1.1773 0.5407,-0.3898 1.1135,-0.7842 1.7206,-1.1773 1.0876,-0.7021 2.2898,-1.3919 3.6198,-2.0121 0.1654,-0.0798 0.3342,-0.155 0.5051,-0.2286 0.1694,-0.0767 0.3446,-0.1432 0.5204,-0.2116 0.3518,-0.1355 0.7165,-0.2513 1.0862,-0.3656 0.37,-0.114 0.7461,-0.2247 1.128,-0.3334 0.3837,-0.1037 0.7729,-0.205 1.1713,-0.2921 0.7957,-0.1774 1.6218,-0.3171 2.4782,-0.3931 0.4279,-0.0387 0.8629,-0.0628 1.305,-0.0636 0.4417,-0.003 0.8902,0.0131 1.3432,0.0587 0.453,0.0444 0.9106,0.113 1.3691,0.2147 0.4582,0.1043 0.917,0.2409 1.3684,0.4181 0.9024,0.3518 1.7783,0.8764 2.5196,1.5777 0.0908,0.0891 0.1859,0.1745 0.2713,0.2696 0.0875,0.0955 0.1743,0.1806 0.2619,0.2886 l 0.1306,0.1559 0.0645,0.078 0.0511,0.0676 0.1027,0.1355 0.0514,0.068 c 0.0357,0.0486 0.0253,0.0362 0.0404,0.0575 l 0.0271,0.0395 c 0.2943,0.4204 0.5469,0.8716 0.756,1.3409 0.4203,0.9396 0.6589,1.9474 0.7684,2.9575 0.0549,0.5057 0.0777,1.0138 0.0745,1.5208 -0.004,0.5071 -0.0372,1.0129 -0.0895,1.5167 -0.0514,0.5039 -0.1272,1.0051 -0.2215,1.5031 -0.0933,0.4981 -0.2039,0.9938 -0.333,1.4849 -0.5137,1.9664 -1.2663,3.8789 -2.1731,5.7299 -0.5539,1.1307 -1.1657,2.2393 -1.8257,3.325 0.2645,0.3884 0.5265,0.7898 0.7835,1.2049 0.3888,0.6173 0.7338,1.2831 1.0554,1.9798 0.323,0.6957 0.6543,1.4087 0.9572,2.1541 0.6087,1.4888 1.1423,3.0928 1.491,4.8203 0.1698,0.8646 0.2963,1.759 0.3385,2.6828 0.0445,0.9227 0.006,1.8759 -0.1622,2.8384 -0.1658,0.9609 -0.4773,1.9338 -0.976,2.8406 -0.0594,0.1147 -0.1287,0.2247 -0.1961,0.3359 -0.0653,0.1122 -0.1398,0.2195 -0.2133,0.3275 l -0.0551,0.0811 -0.0275,0.0403 -0.04,0.0536 -0.105,0.1387 -0.0526,0.0695 -0.0262,0.0347 -0.0326,0.0398 -0.1343,0.1608 c -0.0902,0.1108 -0.1803,0.2049 -0.2709,0.3016 -0.0888,0.0985 -0.186,0.189 -0.2817,0.2815 -0.1924,0.1835 -0.3966,0.3556 -0.609,0.5174 -0.8503,0.6491 -1.8402,1.1052 -2.8597,1.3804 -1.0218,0.277 -2.0735,0.384 -3.1154,0.3804 -1.0435,-0.002 -2.0788,-0.1214 -3.0995,-0.3107 -1.0204,-0.1926 -2.0262,-0.459 -3.015,-0.782 -1.9785,-0.6462 -3.8889,-1.5132 -5.7329,-2.5161 -0.5775,-0.3154 -1.1483,-0.6444 -1.7123,-0.986 -0.5642,0.3419 -1.135,0.6711 -1.7127,0.986 -1.844,1.0029 -3.7544,1.87 -5.7328,2.5161 -0.9888,0.323 -1.9947,0.5895 -3.0149,0.782 -1.0207,0.1892 -2.0563,0.3085 -3.0997,0.3107 -1.0417,0.004 -2.0933,-0.1033 -3.1153,-0.3804 -1.0197,-0.2752 -2.0095,-0.7311 -2.8597,-1.3804 -0.2123,-0.1618 -0.4166,-0.3338 -0.609,-0.5174 -0.0957,-0.0925 -0.193,-0.183 -0.2817,-0.2815 -0.0906,-0.0967 -0.1808,-0.1907 -0.2709,-0.3016 l -0.1342,-0.1608 -0.0326,-0.0398 -0.0263,-0.0347 -0.0527,-0.0695 -0.1049,-0.1387 -0.0398,-0.0536 -0.0277,-0.0403 -0.0551,-0.0811 c -0.0735,-0.1081 -0.148,-0.2152 -0.2134,-0.3275 -0.0673,-0.1113 -0.1366,-0.2212 -0.1959,-0.3359 -0.4988,-0.9069 -0.8103,-1.8797 -0.9761,-2.8406 -0.1679,-0.9625 -0.2067,-1.9157 -0.1623,-2.8384 0.0423,-0.9239 0.1688,-1.8182 0.3385,-2.6828 0.1445,-0.7158 0.321,-1.4104 0.5212,-2.0844 h 1.8527 c -0.2522,0.7869 -0.4698,1.5984 -0.6378,2.4311 -0.1552,0.7911 -0.2691,1.6012 -0.3062,2.4189 -0.0395,0.8173 -0.003,1.6427 0.1373,2.4481 0.1384,0.8056 0.3946,1.5867 0.7832,2.2938 0.0459,0.09 0.1004,0.1747 0.1524,0.2611 0.0502,0.0877 0.1085,0.1697 0.165,0.2534 l 0.0423,0.0625 0.0212,0.0314 c -0.0192,-0.0257 0.01,0.0128 0.0122,0.0161 l 0.105,0.1386 0.0526,0.0696 0.0263,0.0346 0.023,0.0272 0.0906,0.1065 c 0.056,0.0704 0.1277,0.1445 0.1966,0.2181 0.0671,0.0758 0.1419,0.144 0.2144,0.2144 0.1463,0.1396 0.3017,0.2705 0.4639,0.3941 0.6482,0.4949 1.4177,0.8555 2.2522,1.0811 0.835,0.2268 1.7309,0.3217 2.6444,0.3186 0.9142,-0.002 1.8474,-0.1076 2.7801,-0.2804 0.9329,-0.1762 1.8661,-0.4225 2.7914,-0.7252 1.8521,-0.6044 3.6706,-1.4275 5.4353,-2.3873 0.296,-0.1616 0.5903,-0.3273 0.8832,-0.4966 -2.4118,-1.6037 -4.6909,-3.4318 -6.8259,-5.405 -2.9932,-2.7771 -5.71,-5.8578 -8.0109,-9.1733 v -4.5714 l 0.0166,-0.0213 c 1.6099,-2.0229 3.1745,-3.6281 4.4614,-4.9339 1.2941,-1.3006 2.331,-2.2925 3.0391,-2.9683 0.7107,-0.6731 1.0953,-1.0254 1.0953,-1.0255 z m 0.0816,35.6299 c 0,0.9124 -0.7396,1.652 -1.6519,1.652 -0.9124,-10e-5 -1.652,-0.7396 -1.652,-1.652 0,-0.9123 0.7396,-1.652 1.652,-1.652 0.9123,-1e-4 1.6519,0.7398 1.6519,1.652 z m 24.8734,-49.8351 c 0,0.9123 -0.7397,1.652 -1.652,1.652 -0.9124,-1e-4 -1.6522,-0.7395 -1.6522,-1.652 0,-0.9123 0.7397,-1.6519 1.6522,-1.6519 0.9123,-1e-4 1.6519,0.7396 1.652,1.6519 z m 7.4354,29.2993 c 0,0.9122 -0.7397,1.6518 -1.652,1.6518 -0.9123,0 -1.652,-0.7396 -1.652,-1.6518 0,-0.9125 0.7397,-1.6522 1.652,-1.6522 0.9124,0 1.6519,0.7397 1.652,1.6522 z m -38.1571,20.5358 c 0,0.5666 -0.4594,1.0262 -1.0261,1.0262 -0.5669,0 -1.0263,-0.4595 -1.0263,-1.0262 0,-0.5667 0.4594,-1.0261 1.0263,-1.0261 0.5667,-1e-4 1.0261,0.4594 1.0261,1.0261 z m 34.8757,-1.0622 c 0,0.5667 -0.4595,1.0263 -1.0262,1.0263 -0.5667,-2e-4 -1.0261,-0.4595 -1.0261,-1.0262 0,-0.5669 0.4594,-1.0264 1.0261,-1.0264 0.5667,0 1.0261,0.4596 1.0262,1.0263 z m -9.2058,-47.9762 c 0,0.5667 -0.4595,1.0261 -1.0261,1.0261 -0.5666,0 -1.0262,-0.4594 -1.0262,-1.0261 0,-0.5668 0.4596,-1.0262 1.0262,-1.0262 0.5666,-1e-4 1.0261,0.4595 1.0261,1.0262 z m -13.3661,1.5933 c 0,0.5667 -0.4594,1.0262 -1.0262,1.0262 -0.5666,0 -1.0261,-0.4594 -1.0261,-1.0262 0,-0.5667 0.4595,-1.0262 1.0261,-1.0262 0.5668,0 1.0262,0.4595 1.0262,1.0262 z m 18.4536,24.4862 c -0.1049,0.1582 -0.2107,0.316 -0.3175,0.4732 -1.1765,1.7299 -2.4694,3.396 -3.8532,4.9914 -0.6927,0.7968 -1.4085,1.5763 -2.1453,2.3363 -0.3677,0.3807 -0.7424,0.755 -1.1207,1.1259 -0.1885,0.1857 -0.3836,0.37 -0.5752,0.5551 l -0.5716,0.5371 -0.5906,0.5394 c -0.1983,0.1759 -0.3942,0.3541 -0.5941,0.5279 -0.3989,0.3488 -0.8009,0.694 -1.2092,1.0312 -0.8156,0.676 -1.6494,1.3293 -2.501,1.956 -0.6355,0.4662 -1.2807,0.9181 -1.9355,1.3538 0.293,0.1694 0.5877,0.3352 0.8839,0.497 1.7646,0.9598 3.5831,1.783 5.4352,2.3873 0.9253,0.3027 1.8588,0.549 2.7916,0.7252 0.9325,0.1728 1.8657,0.2789 2.78,0.2804 0.9133,0.003 1.8095,-0.0918 2.6443,-0.3186 0.8347,-0.2257 1.604,-0.5862 2.2524,-1.0811 0.162,-0.1236 0.3176,-0.2543 0.4638,-0.3941 0.0725,-0.0705 0.1473,-0.1386 0.2145,-0.2144 0.0689,-0.0736 0.1404,-0.1476 0.1966,-0.2181 l 0.0904,-0.1065 0.0231,-0.0272 0.0264,-0.0346 0.0526,-0.0696 0.1048,-0.1387 c 0.002,-0.003 0.0315,-0.0417 0.0123,-0.016 l 0.0212,-0.0314 0.0423,-0.0625 c 0.0565,-0.0838 0.1148,-0.1656 0.165,-0.2534 0.0521,-0.0864 0.1066,-0.1711 0.1524,-0.2611 0.3886,-0.7071 0.6447,-1.4882 0.7832,-2.2938 0.1407,-0.8054 0.1769,-1.6308 0.1372,-2.4481 -0.037,-0.8178 -0.1509,-1.6276 -0.3061,-2.4189 -0.3193,-1.5832 -0.8176,-3.0889 -1.3934,-4.4967 -0.2898,-0.7035 -0.5916,-1.3875 -0.9273,-2.0373 -0.337,-0.6491 -0.6762,-1.2776 -0.9847,-1.9052 -0.0823,-0.1646 -0.165,-0.328 -0.2478,-0.4899 z m -9.1889,-12.671 c 0,0 -0.0968,-0.0874 -0.2842,-0.257 -0.1874,-0.1697 -0.465,-0.4217 -0.8372,-0.7393 -0.7433,-0.6349 -1.8578,-1.5444 -3.3755,-2.5572 -0.9704,-0.6488 -2.11,-1.3347 -3.4041,-2.0189 -1.2941,0.6842 -2.4335,1.37 -3.4038,2.0189 -1.5176,1.0128 -2.6321,1.9223 -3.3755,2.5572 -0.3721,0.3176 -0.6499,0.5696 -0.8373,0.7393 -0.1874,0.1696 -0.2842,0.2571 -0.2842,0.257 0,0 -0.0946,0.09 -0.2779,0.2638 -0.1833,0.174 -0.4563,0.4314 -0.8008,0.7786 -0.1709,0.1752 -0.3643,0.368 -0.5718,0.5856 -0.2061,0.2187 -0.43,0.4585 -0.668,0.7213 -0.1204,0.1302 -0.2405,0.2695 -0.3655,0.4129 -0.1249,0.1438 -0.2555,0.2909 -0.3862,0.4467 -0.2602,0.3122 -0.5368,0.6436 -0.8176,1.0031 -1.1297,1.4315 -2.3816,3.2648 -3.6489,5.4402 -0.2326,0.4001 -0.4664,0.8111 -0.7003,1.2332 0.269,0.4244 0.5457,0.8455 0.8296,1.263 2.2712,3.3366 4.9954,6.4511 8.009,9.2465 2.2765,2.1045 4.7201,4.0347 7.2993,5.6836 2.5795,-1.6494 5.0252,-3.581 7.2955,-5.6799 l 0.5692,-0.5351 c 0.1835,-0.1774 0.3681,-0.3514 0.5509,-0.5317 0.3669,-0.3599 0.7305,-0.7227 1.0871,-1.092 0.7144,-0.7373 1.4085,-1.4927 2.0797,-2.2649 1.3407,-1.5456 2.5915,-3.1579 3.726,-4.8265 0.2839,-0.4175 0.5606,-0.8387 0.8295,-1.263 -0.2339,-0.4221 -0.4678,-0.8331 -0.7003,-1.2332 -1.2671,-2.1755 -2.5192,-4.0087 -3.6489,-5.4402 -0.2805,-0.3596 -0.5572,-0.6909 -0.8177,-1.0031 -0.1303,-0.1558 -0.2612,-0.3028 -0.3859,-0.4467 -0.125,-0.1434 -0.2453,-0.2826 -0.3656,-0.4129 -0.238,-0.2628 -0.462,-0.5025 -0.668,-0.7213 -0.2076,-0.2177 -0.401,-0.4103 -0.5718,-0.5856 -0.3445,-0.3473 -0.6174,-0.6046 -0.8007,-0.7786 -0.1835,-0.1739 -0.2781,-0.2637 -0.2781,-0.2638 z m 0,0 c 0,0 0.3848,0.3525 1.0954,1.0255 0.7082,0.6758 1.7451,1.6678 3.0392,2.9683 1.2869,1.3058 2.8514,2.911 4.4612,4.9339 0.1554,0.1968 0.311,0.3974 0.4667,0.6022 0.4882,-0.8354 0.9445,-1.6822 1.3641,-2.5391 0.8651,-1.7644 1.574,-3.5746 2.0495,-5.3963 0.1198,-0.4551 0.2215,-0.9112 0.3066,-1.3664 0.0865,-0.4551 0.155,-0.9097 0.201,-1.3618 0.0469,-0.4521 0.0758,-0.9018 0.0799,-1.3465 0.003,-0.4446 -0.0176,-0.884 -0.0642,-1.3144 -0.0931,-0.8604 -0.2933,-1.6871 -0.626,-2.4294 -0.1654,-0.3713 -0.3623,-0.7217 -0.5894,-1.0457 l -0.0206,-0.0309 c -0.001,-0.002 -0.0268,-0.0384 -0.008,-0.0126 l -0.0514,-0.068 -0.1026,-0.1356 -0.0511,-0.0677 -0.0445,-0.0521 -0.0878,-0.1033 c -0.0536,-0.0686 -0.1284,-0.141 -0.1925,-0.2117 -0.0643,-0.0732 -0.1379,-0.1369 -0.2065,-0.2051 -0.5634,-0.5326 -1.2314,-0.9363 -1.951,-1.2176 -0.3596,-0.141 -0.7318,-0.2525 -1.1103,-0.3387 -0.3792,-0.0841 -0.7645,-0.1421 -1.1513,-0.18 -0.3865,-0.0392 -0.7757,-0.0532 -1.163,-0.0505 -0.3875,4e-4 -0.7739,0.0217 -1.1569,0.0564 -0.7663,0.0679 -1.5193,0.1946 -2.2515,0.358 -0.7318,0.1641 -1.4461,0.3573 -2.1302,0.5955 -0.342,0.1188 -0.6772,0.2458 -1.0106,0.3661 -0.3352,0.118 -0.6663,0.2345 -0.9931,0.3496 -1.3094,0.4658 -2.5377,0.978 -3.6789,1.5016 -0.5094,0.2332 -1.0011,0.4694 -1.4744,0.7068 1.0352,0.7824 1.943,1.533 2.7451,2.2029 1.403,1.1821 2.4721,2.1392 3.2004,2.7933 0.3604,0.3311 0.6414,0.5795 0.8251,0.7532 0.1856,0.1716 0.2814,0.2602 0.2814,0.2601 z"
         style="fill:#f3af15;fill-rule:evenodd"
         id="path24"
         inkscape:connector-curvature="0" />
      <path
         d="m 131.9059,224.9349 c -1.554,0.7324 -2.8532,2.1359 -3.635,3.5933 -1.0132,1.8886 -1.1473,3.9378 -0.5387,5.8988 0.8816,2.8409 2.9003,4.7978 5.464,6.1353 3.4813,1.8161 8.0228,1.8626 10.902,-0.6713 0.8975,-0.7899 1.5854,-1.7697 2.0017,-2.8435 0.8825,-2.2762 0.3544,-4.6701 -0.944,-6.6532 -0.3646,-0.5569 -0.7973,-1.0673 -1.2988,-1.4702 -0.7435,-0.5972 -1.5203,-0.8534 -2.4586,-0.8865 -0.3538,-0.0125 -0.7066,-0.0161 -1.0659,-0.0886 -0.4468,-0.0903 -0.8288,-0.278 -1.1459,-0.5632 -0.4187,-0.3765 -0.7153,-0.793 -1.0516,-1.1894 -1.5211,-1.7935 -4.153,-2.24 -6.2292,-1.2615 z"
         style="fill:#f3af15;fill-rule:evenodd"
         id="path26"
         inkscape:connector-curvature="0" />
      <path
         d="m 119.9381,230.3333 c -0.002,-0.1621 -0.1251,-0.3239 -0.348,-0.3239 h -3.6051 c -0.2024,0 -0.3425,0.1618 -0.3404,0.3239 l 0.0195,5.6302 c 0.002,0.1621 0.1457,0.3243 0.3481,0.3243 h 3.6051 c 0.2229,0 0.3424,-0.1622 0.3408,-0.3243 z m 0.5905,8.7697 c 0.4239,0.732 0.9172,1.4408 1.48,2.1265 h -4.1263 c -0.4763,-0.6842 -0.9744,-1.3959 -1.3118,-2.1265 h -1.4294 c -1.3568,0 -2.4811,-1.1141 -2.4841,-2.4708 l -0.0405,-6.9672 c -0.003,-1.357 1.1004,-2.4709 2.4572,-2.4709 h 5.3875 c 1.3773,0 2.481,1.1139 2.4841,2.4709 l 0.0405,6.9672 c 0.003,1.3567 -1.0799,2.4708 -2.4572,2.4708 z"
         style="fill:#f3af15;fill-rule:evenodd"
         id="path28"
         inkscape:connector-curvature="0" />
      <path
         d="m 129.7405,231.2646 c -0.2808,-0.2809 -0.6692,-0.4545 -1.0988,-0.4545 h -3.6435 v 0 0 5.7834 h 1.0327 v -2.6603 h 2.7678 v -0.008 c 0.0165,0 0.0331,0 0.0496,0 0.1569,-0.0165 0.3057,-0.0578 0.4461,-0.1239 0.537,-0.2479 0.9088,-0.7931 0.9088,-1.4211 0,-0.4296 -0.1735,-0.8179 -0.4544,-1.0988 z m -0.8757,1.6028 c -0.0661,0.0331 -0.1404,0.0496 -0.2148,0.0496 h -2.6191 v -1.0658 h 2.6191 c 0.1818,0 0.3057,0.0826 0.3718,0.1486 0.0578,0.0579 0.1569,0.1901 0.1569,0.3801 0,0.2066 -0.1239,0.3966 -0.3139,0.4792 z m 3.7179,-1.0245 h 4.2219 v -1.0328 h -4.2219 c -0.8593,0 -1.5533,0.7023 -1.5533,1.5616 v 2.6604 c 0,0.8592 0.694,1.5614 1.5533,1.5614 h 4.2219 v -1.0327 h -4.2219 c -0.2892,0 -0.5288,-0.2396 -0.5288,-0.5287 v -1.0906 h 3.7179 v -1.0328 h -3.7179 v -0.537 c 0,-0.2892 0.2396,-0.5288 0.5288,-0.5288 z m 10.377,1.8589 c 0,-1.5945 -1.2971,-2.8917 -2.8917,-2.8917 -1.5946,0 -2.8917,1.2972 -2.8917,2.8917 0,1.5946 1.2971,2.8917 2.8917,2.8917 0.008,0 0.0165,0 0.0248,0 h 2.8587 v -1.0327 h -0.6775 c 0.4214,-0.504 0.6775,-1.1484 0.6775,-1.859 z m -2.8504,1.859 h -0.0495 v 0 c -1.0245,0 -1.859,-0.8344 -1.859,-1.859 0,-1.0244 0.8345,-1.8589 1.859,-1.8589 1.0245,0 1.8589,0.8345 1.8589,1.8589 0,1.008 -0.8096,1.8342 -1.8094,1.859 z m 8.4273,-4.7507 v 2.8917 c 0,1.0246 -0.8344,1.859 -1.859,1.859 -1.0245,0 -1.8589,-0.8344 -1.8589,-1.859 v -2.8917 h -1.0328 v 2.8917 c 0,1.5946 1.2971,2.8917 2.8917,2.8917 1.5946,0 2.8917,-1.2971 2.8917,-2.8917 v -2.8917 z m 2.8917,5.7834 v -5.7834 h -1.0328 v 5.7834 z"
         style="fill:#000200;fill-rule:evenodd"
         id="path30"
         inkscape:connector-curvature="0" />
      <path
         d="m 129.3985,230.7629 c -0.2809,-0.2809 -0.6693,-0.4544 -1.0989,-0.4544 h -3.6435 v 0 0 5.7834 h 1.0328 v -2.6604 h 2.7677 v -0.008 c 0.0166,0 0.0331,0 0.0496,0 0.157,-0.0166 0.3057,-0.0579 0.4461,-0.124 0.537,-0.2479 0.9089,-0.7931 0.9089,-1.4211 0,-0.4296 -0.1736,-0.8179 -0.4544,-1.0988 z m -0.8758,1.6028 c -0.0661,0.0331 -0.1404,0.0496 -0.2148,0.0496 h -2.619 v -1.0658 h 2.619 c 0.1818,0 0.3057,0.0826 0.3718,0.1487 0.0578,0.0578 0.1569,0.19 0.1569,0.38 0,0.2066 -0.1239,0.3966 -0.3139,0.4793 z m 3.7179,-1.0245 h 4.2219 v -1.0327 h -4.2219 c -0.8593,0 -1.5532,0.7022 -1.5532,1.5615 v 2.6604 c 0,0.8592 0.6939,1.5615 1.5532,1.5615 h 4.2219 v -1.0328 h -4.2219 c -0.2892,0 -0.5288,-0.2395 -0.5288,-0.5287 v -1.0906 h 3.7179 v -1.0328 h -3.7179 v -0.537 c 0,-0.2892 0.2396,-0.5288 0.5288,-0.5288 z m 10.3771,1.859 c 0,-1.5946 -1.2972,-2.8917 -2.8918,-2.8917 -1.5945,0 -2.8917,1.2971 -2.8917,2.8917 0,1.5945 1.2972,2.8917 2.8917,2.8917 0.008,0 0.0166,0 0.0249,0 h 2.8586 v -1.0328 h -0.6775 c 0.4214,-0.504 0.6775,-1.1484 0.6775,-1.8589 z m -2.8504,1.8589 h -0.0496 v 0 c -1.0245,0 -1.859,-0.8344 -1.859,-1.8589 0,-1.0245 0.8345,-1.859 1.859,-1.859 1.0245,0 1.859,0.8345 1.859,1.859 0,1.0079 -0.8097,1.8342 -1.8094,1.8589 z m 8.4272,-4.7506 v 2.8917 c 0,1.0245 -0.8344,1.8589 -1.859,1.8589 -1.0244,0 -1.8589,-0.8344 -1.8589,-1.8589 v -2.8917 h -1.0328 v 2.8917 c 0,1.5945 1.2972,2.8917 2.8917,2.8917 1.5946,0 2.8917,-1.2972 2.8917,-2.8917 v -2.8917 z m 2.8917,5.7834 v -5.7834 h -1.0328 v 5.7834 z"
         style="fill:#ffffff;fill-rule:evenodd"
         id="path32"
         inkscape:connector-curvature="0" />
    </g>
    <text
       xml:space="preserve"
       style="font-style:normal;font-weight:normal;font-size:10.58333302px;line-height:1.25;font-family:sans-serif;letter-spacing:0px;word-spacing:0px;fill:#000000;fill-opacity:1;stroke:none;stroke-width:0.26458332"
       x="29.566692"
       y="123.47525"
       id="text102"><tspan
         sodipodi:role="line"
         id="tspan100"
         x="29.566692"
         y="132.83902"
         style="stroke-width:0.26458332" /></text>
    <text
       x="28.009136"
       y="124.52438"
       style="font-size:3.17499995px;stroke-width:0.26458332"
       id="text128">
      <tspan
         font-size="7.5000"
         style="font-size:1.984375px;font-family:Arial;fill:#000200;stroke-width:0.26458332"
         id="tspan130">Prof. Lucas Chibebe Céleri</tspan>
    </text>
    <text
       x="28.212429"
       y="127.91513"
       style="font-size:3.17499995px;stroke-width:0.26458332"
       id="text128-3"
       inkscape:transform-center-x="0.37797619"
       inkscape:transform-center-y="-4.5357143">
      <tspan
         font-size="7.5000"
         style="font-size:1.984375px;font-family:Arial;fill:#000200;stroke-width:0.26458332"
         id="tspan130-6">Institute of Physics - UFG</tspan>
    </text>
    <text
       x="28.401417"
       y="131.33577"
       style="font-size:3.17499995px;stroke-width:0.26458332"
       id="text128-7">
      <tspan
         font-size="7.5000"
         style="font-size:1.984375px;font-family:Arial;fill:#000200;stroke-width:0.26458332"
         id="tspan130-5">www.qpequi.com</tspan>
    </text>
  </g>
</svg>
