<?xml version="1.0" encoding="utf-8"?>
<!-- Generator: Adobe Illustrator 16.0.4, SVG Export Plug-In . SVG Version: 6.00 Build 0)  -->
<!DOCTYPE svg PUBLIC "-//W3C//DTD SVG 1.1//EN" "http://www.w3.org/Graphics/SVG/1.1/DTD/svg11.dtd">
<svg version="1.1" xmlns="http://www.w3.org/2000/svg" xmlns:xlink="http://www.w3.org/1999/xlink" x="0px" y="0px"
	 width="1190.549px" height="841.891px" viewBox="0 0 1190.549 841.891" enable-background="new 0 0 1190.549 841.891"
	 xml:space="preserve">
<g id="Camada_1">
</g>
<g id="Camada_2_1_">
	<g>
		<path fill="#231F20" d="M973.531,138.232v239.674h-54.054V138.232H973.531z"/>
		<path fill="#231F20" d="M1020.827,138.232h146.154v44.447h-92.107v54.764h86.062v44.094h-86.062v96.369h-54.047V138.232z"/>
	</g>
	<g>
		<path fill="#231F20" d="M633.104,513.623v61.732h-11.266v-61.732H633.104z"/>
		<path fill="#231F20" d="M646.023,575.355v-61.732h12.824l15.934,26.469c4.121,6.871,7.695,14.014,10.535,20.702h0.182
			c-0.734-8.24-1.008-16.21-1.008-25.642v-21.529h10.441v61.732H683.3l-16.121-27.111c-3.938-6.776-8.059-14.38-11.08-21.339
			L655.825,527c0.457,7.969,0.548,16.12,0.548,26.285v22.07H646.023z"/>
		<path fill="#231F20" d="M707.673,563.084c3.663,2.107,9.158,3.938,14.928,3.938c7.237,0,11.267-3.389,11.267-8.423
			c0-4.677-3.115-7.421-10.991-10.26c-10.166-3.666-16.668-9.067-16.668-17.951c0-10.076,8.424-17.768,21.797-17.768
			c6.686,0,11.633,1.464,14.837,3.11l-2.747,9.067c-2.199-1.187-6.502-2.928-12.272-2.928c-7.143,0-10.257,3.849-10.257,7.42
			c0,4.757,3.571,6.959,11.815,10.164c10.714,4.032,15.934,9.434,15.934,18.317c0,9.894-7.511,18.499-23.446,18.499
			c-6.502,0-13.281-1.83-16.668-3.849L707.673,563.084z"/>
		<path fill="#231F20" d="M767.308,523.063h-17.585v-9.44h46.618v9.44h-17.769v52.292h-11.265V523.063z"/>
		<path fill="#231F20" d="M814.853,513.623v61.732h-11.267v-61.732H814.853z"/>
		<path fill="#231F20" d="M839.587,523.063h-17.585v-9.44h46.616v9.44h-17.767v52.292h-11.265V523.063z"/>
		<path fill="#231F20" d="M887.039,513.623v35.996c0,12.09,5.04,17.68,12.64,17.68c8.151,0,13.007-5.59,13.007-17.68v-35.996h11.265
			v35.265c0,19.048-9.801,27.478-24.638,27.478c-14.289,0-23.538-7.969-23.538-27.39v-35.353H887.039z"/>
		<path fill="#231F20" d="M948.688,523.063h-17.585v-9.44h46.618v9.44h-17.769v52.292h-11.265V523.063z"/>
		<path fill="#231F20" d="M1037.169,543.853c0,20.695-12.544,32.513-29.578,32.513c-17.402,0-28.395-13.281-28.395-31.415
			c0-18.96,11.906-32.33,29.309-32.33C1026.543,512.62,1037.169,526.268,1037.169,543.853z M991.103,544.768
			c0,12.543,6.316,22.531,17.131,22.531c10.896,0,17.036-10.076,17.036-22.992c0-11.628-5.774-22.62-17.036-22.62
			C997.053,521.687,991.103,532.034,991.103,544.768z"/>
		<path fill="#231F20" d="M1065.853,514.449c4.945-0.826,11.268-1.279,17.955-1.279c11.535,0,19.511,2.378,25.188,7.142
			c5.95,4.853,9.617,12.184,9.617,22.715c0,10.991-3.762,19.231-9.617,24.543c-6.14,5.591-15.937,8.43-27.938,8.43
			c-6.594,0-11.54-0.366-15.205-0.826V514.449z M1077.12,566.75c1.559,0.271,3.938,0.271,6.228,0.271
			c14.658,0.094,23.352-7.97,23.352-23.63c0.096-13.647-7.779-21.433-21.881-21.433c-3.577,0-6.14,0.277-7.698,0.643V566.75z"/>
		<path fill="#231F20" d="M1162.955,547.973h-23.27v18.134h26.014v9.249h-37.275v-61.732h35.901v9.256h-24.64v15.933h23.27V547.973z
			"/>
		<path fill="#231F20" d="M920.297,623.554h35.626v9.257h-24.359v17.029h22.714v9.256h-22.714v26.191h-11.267V623.554z"/>
		<path fill="#231F20" d="M987.166,609.271l-11.452,10.989h-9.064l8.062-10.989H987.166z M978.187,623.554v61.733h-11.262v-61.733
			H978.187z"/>
		<path fill="#231F20" d="M990.832,673.014c3.665,2.108,9.162,3.938,14.927,3.938c7.245,0,11.27-3.389,11.27-8.423
			c0-4.676-3.116-7.421-10.991-10.26c-10.164-3.667-16.669-9.067-16.669-17.95c0-10.076,8.43-17.769,21.8-17.769
			c6.681,0,11.627,1.464,14.834,3.111l-2.746,9.065c-2.201-1.186-6.505-2.926-12.272-2.926c-7.141,0-10.258,3.849-10.258,7.419
			c0,4.758,3.571,6.959,11.816,10.165c10.714,4.031,15.932,9.432,15.932,18.317c0,9.892-7.509,18.498-23.445,18.498
			c-6.498,0-13.275-1.83-16.67-3.842L990.832,673.014z"/>
		<path fill="#231F20" d="M1049.921,623.554v61.733h-11.264v-61.733H1049.921z"/>
		<path fill="#231F20" d="M1107.072,683.457c-2.656,1.37-8.518,2.744-15.93,2.744c-19.605,0-31.512-12.271-31.512-31.049
			c0-20.328,14.108-32.602,32.976-32.602c7.419,0,12.731,1.558,15.016,2.745l-2.474,8.979c-2.929-1.28-6.959-2.385-12.088-2.385
			c-12.544,0-21.618,7.881-21.618,22.713c0,13.561,7.976,22.26,21.528,22.26c4.58,0,9.339-0.92,12.271-2.29L1107.072,683.457z"/>
		<path fill="#231F20" d="M1129.704,667.797l-5.307,17.49h-11.628l19.774-61.733h14.385l20.053,61.733h-12.09l-5.583-17.49H1129.704
			z M1147.383,659.278l-4.851-15.205c-1.192-3.754-2.203-7.969-3.11-11.54h-0.19c-0.914,3.571-1.83,7.873-2.927,11.54l-4.765,15.205
			H1147.383z"/>
	</g>
</g>
</svg>
