<?xml version="1.0" encoding="utf-8" standalone="no"?>
<!DOCTYPE svg PUBLIC "-//W3C//DTD SVG 1.1//EN"
  "http://www.w3.org/Graphics/SVG/1.1/DTD/svg11.dtd">
<svg height="288pt" version="1.1" viewBox="0 0 432 288" width="432pt" xmlns="http://www.w3.org/2000/svg" xmlns:xlink="http://www.w3.org/1999/xlink">
 <metadata>
  <rdf:RDF xmlns:cc="http://creativecommons.org/ns#" xmlns:dc="http://purl.org/dc/elements/1.1/" xmlns:rdf="http://www.w3.org/1999/02/22-rdf-syntax-ns#">
   <cc:Work>
    <dc:type rdf:resource="http://purl.org/dc/dcmitype/StillImage"/>
    <dc:date>2023-06-15T12:26:55.264832</dc:date>
    <dc:format>image/svg+xml</dc:format>
    <dc:creator>
     <cc:Agent>
      <dc:title>Matplotlib v3.4.3, https://matplotlib.org/</dc:title>
     </cc:Agent>
    </dc:creator>
   </cc:Work>
  </rdf:RDF>
 </metadata>
 <defs>
  <style type="text/css">*{stroke-linecap:butt;stroke-linejoin:round;}</style>
 </defs>
 <g id="figure_1">
  <g id="patch_1">
   <path d="M 0 288 
L 432 288 
L 432 0 
L 0 0 
z
" style="fill:#ffffff;"/>
  </g>
  <g id="axes_1">
   <g id="patch_2">
    <path d="M 54 252 
L 388.8 252 
L 388.8 34.56 
L 54 34.56 
z
" style="fill:#ffffff;"/>
   </g>
   <g id="matplotlib.axis_1">
    <g id="xtick_1">
     <g id="line2d_1">
      <defs>
       <path d="M 0 0 
L 0 3.5 
" id="m239396df2a" style="stroke:#000000;stroke-width:0.8;"/>
      </defs>
      <g>
       <use style="stroke:#000000;stroke-width:0.8;" x="69.218182" xlink:href="#m239396df2a" y="252"/>
      </g>
     </g>
     <g id="text_1">
      <!-- 0.1 -->
      <g transform="translate(61.266619 266.598437)scale(0.1 -0.1)">
       <defs>
        <path d="M 2034 4250 
Q 1547 4250 1301 3770 
Q 1056 3291 1056 2328 
Q 1056 1369 1301 889 
Q 1547 409 2034 409 
Q 2525 409 2770 889 
Q 3016 1369 3016 2328 
Q 3016 3291 2770 3770 
Q 2525 4250 2034 4250 
z
M 2034 4750 
Q 2819 4750 3233 4129 
Q 3647 3509 3647 2328 
Q 3647 1150 3233 529 
Q 2819 -91 2034 -91 
Q 1250 -91 836 529 
Q 422 1150 422 2328 
Q 422 3509 836 4129 
Q 1250 4750 2034 4750 
z
" id="DejaVuSans-30" transform="scale(0.015625)"/>
        <path d="M 684 794 
L 1344 794 
L 1344 0 
L 684 0 
L 684 794 
z
" id="DejaVuSans-2e" transform="scale(0.015625)"/>
        <path d="M 794 531 
L 1825 531 
L 1825 4091 
L 703 3866 
L 703 4441 
L 1819 4666 
L 2450 4666 
L 2450 531 
L 3481 531 
L 3481 0 
L 794 0 
L 794 531 
z
" id="DejaVuSans-31" transform="scale(0.015625)"/>
       </defs>
       <use xlink:href="#DejaVuSans-30"/>
       <use x="63.623047" xlink:href="#DejaVuSans-2e"/>
       <use x="95.410156" xlink:href="#DejaVuSans-31"/>
      </g>
     </g>
    </g>
    <g id="xtick_2">
     <g id="line2d_2">
      <g>
       <use style="stroke:#000000;stroke-width:0.8;" x="112.698701" xlink:href="#m239396df2a" y="252"/>
      </g>
     </g>
     <g id="text_2">
      <!-- 0.2 -->
      <g transform="translate(104.747139 266.598437)scale(0.1 -0.1)">
       <defs>
        <path d="M 1228 531 
L 3431 531 
L 3431 0 
L 469 0 
L 469 531 
Q 828 903 1448 1529 
Q 2069 2156 2228 2338 
Q 2531 2678 2651 2914 
Q 2772 3150 2772 3378 
Q 2772 3750 2511 3984 
Q 2250 4219 1831 4219 
Q 1534 4219 1204 4116 
Q 875 4013 500 3803 
L 500 4441 
Q 881 4594 1212 4672 
Q 1544 4750 1819 4750 
Q 2544 4750 2975 4387 
Q 3406 4025 3406 3419 
Q 3406 3131 3298 2873 
Q 3191 2616 2906 2266 
Q 2828 2175 2409 1742 
Q 1991 1309 1228 531 
z
" id="DejaVuSans-32" transform="scale(0.015625)"/>
       </defs>
       <use xlink:href="#DejaVuSans-30"/>
       <use x="63.623047" xlink:href="#DejaVuSans-2e"/>
       <use x="95.410156" xlink:href="#DejaVuSans-32"/>
      </g>
     </g>
    </g>
    <g id="xtick_3">
     <g id="line2d_3">
      <g>
       <use style="stroke:#000000;stroke-width:0.8;" x="156.179221" xlink:href="#m239396df2a" y="252"/>
      </g>
     </g>
     <g id="text_3">
      <!-- 0.3 -->
      <g transform="translate(148.227658 266.598437)scale(0.1 -0.1)">
       <defs>
        <path d="M 2597 2516 
Q 3050 2419 3304 2112 
Q 3559 1806 3559 1356 
Q 3559 666 3084 287 
Q 2609 -91 1734 -91 
Q 1441 -91 1130 -33 
Q 819 25 488 141 
L 488 750 
Q 750 597 1062 519 
Q 1375 441 1716 441 
Q 2309 441 2620 675 
Q 2931 909 2931 1356 
Q 2931 1769 2642 2001 
Q 2353 2234 1838 2234 
L 1294 2234 
L 1294 2753 
L 1863 2753 
Q 2328 2753 2575 2939 
Q 2822 3125 2822 3475 
Q 2822 3834 2567 4026 
Q 2313 4219 1838 4219 
Q 1578 4219 1281 4162 
Q 984 4106 628 3988 
L 628 4550 
Q 988 4650 1302 4700 
Q 1616 4750 1894 4750 
Q 2613 4750 3031 4423 
Q 3450 4097 3450 3541 
Q 3450 3153 3228 2886 
Q 3006 2619 2597 2516 
z
" id="DejaVuSans-33" transform="scale(0.015625)"/>
       </defs>
       <use xlink:href="#DejaVuSans-30"/>
       <use x="63.623047" xlink:href="#DejaVuSans-2e"/>
       <use x="95.410156" xlink:href="#DejaVuSans-33"/>
      </g>
     </g>
    </g>
    <g id="xtick_4">
     <g id="line2d_4">
      <g>
       <use style="stroke:#000000;stroke-width:0.8;" x="199.65974" xlink:href="#m239396df2a" y="252"/>
      </g>
     </g>
     <g id="text_4">
      <!-- 0.4 -->
      <g transform="translate(191.708178 266.598437)scale(0.1 -0.1)">
       <defs>
        <path d="M 2419 4116 
L 825 1625 
L 2419 1625 
L 2419 4116 
z
M 2253 4666 
L 3047 4666 
L 3047 1625 
L 3713 1625 
L 3713 1100 
L 3047 1100 
L 3047 0 
L 2419 0 
L 2419 1100 
L 313 1100 
L 313 1709 
L 2253 4666 
z
" id="DejaVuSans-34" transform="scale(0.015625)"/>
       </defs>
       <use xlink:href="#DejaVuSans-30"/>
       <use x="63.623047" xlink:href="#DejaVuSans-2e"/>
       <use x="95.410156" xlink:href="#DejaVuSans-34"/>
      </g>
     </g>
    </g>
    <g id="xtick_5">
     <g id="line2d_5">
      <g>
       <use style="stroke:#000000;stroke-width:0.8;" x="243.14026" xlink:href="#m239396df2a" y="252"/>
      </g>
     </g>
     <g id="text_5">
      <!-- 0.5 -->
      <g transform="translate(235.188697 266.598437)scale(0.1 -0.1)">
       <defs>
        <path d="M 691 4666 
L 3169 4666 
L 3169 4134 
L 1269 4134 
L 1269 2991 
Q 1406 3038 1543 3061 
Q 1681 3084 1819 3084 
Q 2600 3084 3056 2656 
Q 3513 2228 3513 1497 
Q 3513 744 3044 326 
Q 2575 -91 1722 -91 
Q 1428 -91 1123 -41 
Q 819 9 494 109 
L 494 744 
Q 775 591 1075 516 
Q 1375 441 1709 441 
Q 2250 441 2565 725 
Q 2881 1009 2881 1497 
Q 2881 1984 2565 2268 
Q 2250 2553 1709 2553 
Q 1456 2553 1204 2497 
Q 953 2441 691 2322 
L 691 4666 
z
" id="DejaVuSans-35" transform="scale(0.015625)"/>
       </defs>
       <use xlink:href="#DejaVuSans-30"/>
       <use x="63.623047" xlink:href="#DejaVuSans-2e"/>
       <use x="95.410156" xlink:href="#DejaVuSans-35"/>
      </g>
     </g>
    </g>
    <g id="xtick_6">
     <g id="line2d_6">
      <g>
       <use style="stroke:#000000;stroke-width:0.8;" x="286.620779" xlink:href="#m239396df2a" y="252"/>
      </g>
     </g>
     <g id="text_6">
      <!-- 0.6 -->
      <g transform="translate(278.669217 266.598437)scale(0.1 -0.1)">
       <defs>
        <path d="M 2113 2584 
Q 1688 2584 1439 2293 
Q 1191 2003 1191 1497 
Q 1191 994 1439 701 
Q 1688 409 2113 409 
Q 2538 409 2786 701 
Q 3034 994 3034 1497 
Q 3034 2003 2786 2293 
Q 2538 2584 2113 2584 
z
M 3366 4563 
L 3366 3988 
Q 3128 4100 2886 4159 
Q 2644 4219 2406 4219 
Q 1781 4219 1451 3797 
Q 1122 3375 1075 2522 
Q 1259 2794 1537 2939 
Q 1816 3084 2150 3084 
Q 2853 3084 3261 2657 
Q 3669 2231 3669 1497 
Q 3669 778 3244 343 
Q 2819 -91 2113 -91 
Q 1303 -91 875 529 
Q 447 1150 447 2328 
Q 447 3434 972 4092 
Q 1497 4750 2381 4750 
Q 2619 4750 2861 4703 
Q 3103 4656 3366 4563 
z
" id="DejaVuSans-36" transform="scale(0.015625)"/>
       </defs>
       <use xlink:href="#DejaVuSans-30"/>
       <use x="63.623047" xlink:href="#DejaVuSans-2e"/>
       <use x="95.410156" xlink:href="#DejaVuSans-36"/>
      </g>
     </g>
    </g>
    <g id="xtick_7">
     <g id="line2d_7">
      <g>
       <use style="stroke:#000000;stroke-width:0.8;" x="330.101299" xlink:href="#m239396df2a" y="252"/>
      </g>
     </g>
     <g id="text_7">
      <!-- 0.7 -->
      <g transform="translate(322.149736 266.598437)scale(0.1 -0.1)">
       <defs>
        <path d="M 525 4666 
L 3525 4666 
L 3525 4397 
L 1831 0 
L 1172 0 
L 2766 4134 
L 525 4134 
L 525 4666 
z
" id="DejaVuSans-37" transform="scale(0.015625)"/>
       </defs>
       <use xlink:href="#DejaVuSans-30"/>
       <use x="63.623047" xlink:href="#DejaVuSans-2e"/>
       <use x="95.410156" xlink:href="#DejaVuSans-37"/>
      </g>
     </g>
    </g>
    <g id="xtick_8">
     <g id="line2d_8">
      <g>
       <use style="stroke:#000000;stroke-width:0.8;" x="373.581818" xlink:href="#m239396df2a" y="252"/>
      </g>
     </g>
     <g id="text_8">
      <!-- 0.8 -->
      <g transform="translate(365.630256 266.598437)scale(0.1 -0.1)">
       <defs>
        <path d="M 2034 2216 
Q 1584 2216 1326 1975 
Q 1069 1734 1069 1313 
Q 1069 891 1326 650 
Q 1584 409 2034 409 
Q 2484 409 2743 651 
Q 3003 894 3003 1313 
Q 3003 1734 2745 1975 
Q 2488 2216 2034 2216 
z
M 1403 2484 
Q 997 2584 770 2862 
Q 544 3141 544 3541 
Q 544 4100 942 4425 
Q 1341 4750 2034 4750 
Q 2731 4750 3128 4425 
Q 3525 4100 3525 3541 
Q 3525 3141 3298 2862 
Q 3072 2584 2669 2484 
Q 3125 2378 3379 2068 
Q 3634 1759 3634 1313 
Q 3634 634 3220 271 
Q 2806 -91 2034 -91 
Q 1263 -91 848 271 
Q 434 634 434 1313 
Q 434 1759 690 2068 
Q 947 2378 1403 2484 
z
M 1172 3481 
Q 1172 3119 1398 2916 
Q 1625 2713 2034 2713 
Q 2441 2713 2670 2916 
Q 2900 3119 2900 3481 
Q 2900 3844 2670 4047 
Q 2441 4250 2034 4250 
Q 1625 4250 1398 4047 
Q 1172 3844 1172 3481 
z
" id="DejaVuSans-38" transform="scale(0.015625)"/>
       </defs>
       <use xlink:href="#DejaVuSans-30"/>
       <use x="63.623047" xlink:href="#DejaVuSans-2e"/>
       <use x="95.410156" xlink:href="#DejaVuSans-38"/>
      </g>
     </g>
    </g>
    <g id="text_9">
     <!-- h -->
     <g transform="translate(216.96375 283.315938)scale(0.14 -0.14)">
      <defs>
       <path d="M 3513 2113 
L 3513 0 
L 2938 0 
L 2938 2094 
Q 2938 2591 2744 2837 
Q 2550 3084 2163 3084 
Q 1697 3084 1428 2787 
Q 1159 2491 1159 1978 
L 1159 0 
L 581 0 
L 581 4863 
L 1159 4863 
L 1159 2956 
Q 1366 3272 1645 3428 
Q 1925 3584 2291 3584 
Q 2894 3584 3203 3211 
Q 3513 2838 3513 2113 
z
" id="DejaVuSans-68" transform="scale(0.015625)"/>
      </defs>
      <use xlink:href="#DejaVuSans-68"/>
     </g>
    </g>
   </g>
   <g id="matplotlib.axis_2">
    <g id="ytick_1">
     <g id="line2d_9">
      <defs>
       <path d="M 0 0 
L -3.5 0 
" id="mb71044b4be" style="stroke:#000000;stroke-width:0.8;"/>
      </defs>
      <g>
       <use style="stroke:#000000;stroke-width:0.8;" x="54" xlink:href="#mb71044b4be" y="239.652284"/>
      </g>
     </g>
     <g id="text_10">
      <!-- 2 -->
      <g transform="translate(40.6375 243.451502)scale(0.1 -0.1)">
       <use xlink:href="#DejaVuSans-32"/>
      </g>
     </g>
    </g>
    <g id="ytick_2">
     <g id="line2d_10">
      <g>
       <use style="stroke:#000000;stroke-width:0.8;" x="54" xlink:href="#mb71044b4be" y="208.662433"/>
      </g>
     </g>
     <g id="text_11">
      <!-- 4 -->
      <g transform="translate(40.6375 212.461652)scale(0.1 -0.1)">
       <use xlink:href="#DejaVuSans-34"/>
      </g>
     </g>
    </g>
    <g id="ytick_3">
     <g id="line2d_11">
      <g>
       <use style="stroke:#000000;stroke-width:0.8;" x="54" xlink:href="#mb71044b4be" y="177.672582"/>
      </g>
     </g>
     <g id="text_12">
      <!-- 6 -->
      <g transform="translate(40.6375 181.471801)scale(0.1 -0.1)">
       <use xlink:href="#DejaVuSans-36"/>
      </g>
     </g>
    </g>
    <g id="ytick_4">
     <g id="line2d_12">
      <g>
       <use style="stroke:#000000;stroke-width:0.8;" x="54" xlink:href="#mb71044b4be" y="146.682732"/>
      </g>
     </g>
     <g id="text_13">
      <!-- 8 -->
      <g transform="translate(40.6375 150.48195)scale(0.1 -0.1)">
       <use xlink:href="#DejaVuSans-38"/>
      </g>
     </g>
    </g>
    <g id="ytick_5">
     <g id="line2d_13">
      <g>
       <use style="stroke:#000000;stroke-width:0.8;" x="54" xlink:href="#mb71044b4be" y="115.692881"/>
      </g>
     </g>
     <g id="text_14">
      <!-- 10 -->
      <g transform="translate(34.275 119.4921)scale(0.1 -0.1)">
       <use xlink:href="#DejaVuSans-31"/>
       <use x="63.623047" xlink:href="#DejaVuSans-30"/>
      </g>
     </g>
    </g>
    <g id="ytick_6">
     <g id="line2d_14">
      <g>
       <use style="stroke:#000000;stroke-width:0.8;" x="54" xlink:href="#mb71044b4be" y="84.70303"/>
      </g>
     </g>
     <g id="text_15">
      <!-- 12 -->
      <g transform="translate(34.275 88.502249)scale(0.1 -0.1)">
       <use xlink:href="#DejaVuSans-31"/>
       <use x="63.623047" xlink:href="#DejaVuSans-32"/>
      </g>
     </g>
    </g>
    <g id="ytick_7">
     <g id="line2d_15">
      <g>
       <use style="stroke:#000000;stroke-width:0.8;" x="54" xlink:href="#mb71044b4be" y="53.713179"/>
      </g>
     </g>
     <g id="text_16">
      <!-- 14 -->
      <g transform="translate(34.275 57.512398)scale(0.1 -0.1)">
       <use xlink:href="#DejaVuSans-31"/>
       <use x="63.623047" xlink:href="#DejaVuSans-34"/>
      </g>
     </g>
    </g>
    <g id="text_17">
     <!-- $\overline{s\left(\frac{2}{\pi}\mathcal{L} \right)}$ -->
     <g transform="translate(26.355 162.32)rotate(-90)scale(0.14 -0.14)">
      <defs>
       <path d="M 3200 3397 
L 3091 2853 
Q 2863 2978 2609 3040 
Q 2356 3103 2088 3103 
Q 1634 3103 1373 2948 
Q 1113 2794 1113 2528 
Q 1113 2219 1719 2053 
Q 1766 2041 1788 2034 
L 1972 1978 
Q 2547 1819 2739 1644 
Q 2931 1469 2931 1166 
Q 2931 609 2489 259 
Q 2047 -91 1331 -91 
Q 1053 -91 747 -37 
Q 441 16 72 128 
L 184 722 
Q 500 559 806 475 
Q 1113 391 1394 391 
Q 1816 391 2080 572 
Q 2344 753 2344 1031 
Q 2344 1331 1650 1516 
L 1591 1531 
L 1394 1581 
Q 956 1697 753 1886 
Q 550 2075 550 2369 
Q 550 2928 970 3256 
Q 1391 3584 2113 3584 
Q 2397 3584 2667 3537 
Q 2938 3491 3200 3397 
z
" id="DejaVuSans-Oblique-73" transform="scale(0.015625)"/>
       <path d="M 2445 -858 
L 2445 -1050 
Q 1728 -371 1309 630 
Q 890 1632 890 2886 
Q 890 4122 1309 5136 
Q 1728 6150 2445 6822 
L 2445 6630 
Q 1408 5363 1408 2886 
Q 1408 410 2445 -858 
z
" id="STIXSizeOneSym-Regular-28" transform="scale(0.015625)"/>
       <path d="M 584 3500 
L 3938 3500 
L 3825 2925 
L 3384 2925 
L 2966 775 
Q 2922 550 2981 450 
Q 3038 353 3209 353 
Q 3256 353 3325 363 
Q 3397 369 3419 372 
L 3338 -44 
Q 3222 -84 3103 -103 
Q 2981 -122 2866 -122 
Q 2491 -122 2388 81 
Q 2284 288 2391 838 
L 2797 2925 
L 1506 2925 
L 938 0 
L 350 0 
L 919 2925 
L 472 2925 
L 584 3500 
z
" id="DejaVuSans-Oblique-3c0" transform="scale(0.015625)"/>
       <path d="M 4070 915 
L 4179 800 
Q 3347 -45 2413 -45 
Q 2157 -45 1850 26 
Q 1395 122 1146 122 
Q 1005 122 672 61 
Q 339 0 192 0 
L 230 154 
Q 582 154 730 749 
L 1178 2566 
Q 1286 3008 1516 3353 
Q 1747 3699 2025 3894 
Q 2304 4090 2585 4189 
Q 2867 4288 3123 4288 
Q 3443 4288 3593 4083 
Q 3744 3878 3744 3584 
Q 3744 3347 3593 3200 
Q 3443 3053 3226 3053 
Q 3085 3053 2995 3149 
Q 2906 3245 2906 3379 
Q 2906 3482 2957 3552 
Q 3008 3622 3065 3644 
Q 3123 3667 3174 3705 
Q 3226 3744 3226 3789 
Q 3226 4032 2854 4032 
Q 2522 4032 2310 3785 
Q 2099 3539 1990 3132 
Q 1882 2726 1795 2284 
Q 1709 1843 1549 1363 
Q 1389 883 1158 589 
L 1158 563 
Q 1363 704 1888 704 
Q 2227 704 2460 544 
Q 2694 384 2963 384 
Q 3507 384 4070 915 
z
" id="STIXNonUnicode-Italic-e238" transform="scale(0.015625)"/>
       <path d="M 550 6630 
L 550 6822 
Q 1267 6144 1686 5142 
Q 2106 4141 2106 2886 
Q 2106 1651 1686 636 
Q 1267 -378 550 -1050 
L 550 -858 
Q 1587 410 1587 2886 
Q 1587 5363 550 6630 
z
" id="STIXSizeOneSym-Regular-29" transform="scale(0.015625)"/>
      </defs>
      <use transform="translate(0 1)" xlink:href="#DejaVuSans-Oblique-73"/>
      <use transform="translate(52.099609 -9.69375)scale(0.998526)" xlink:href="#STIXSizeOneSym-Regular-28"/>
      <use transform="translate(98.826477 44.796875)scale(0.7)" xlink:href="#DejaVuSans-32"/>
      <use transform="translate(99.826477 -24.734375)scale(0.7)" xlink:href="#DejaVuSans-Oblique-3c0"/>
      <use transform="translate(155.86261 1)" xlink:href="#STIXNonUnicode-Italic-e238"/>
      <use transform="translate(225.162598 -9.69375)scale(0.998526)" xlink:href="#STIXSizeOneSym-Regular-29"/>
      <path d="M 0 108.5 
L 0 114.75 
L 271.889465 114.75 
L 271.889465 108.5 
L 0 108.5 
z
"/>
      <path d="M 98.826477 19.796875 
L 98.826477 26.046875 
L 143.36261 26.046875 
L 143.36261 19.796875 
L 98.826477 19.796875 
z
"/>
     </g>
    </g>
   </g>
   <g id="line2d_16">
    <path clip-path="url(#p3b22cdfde7)" d="M 69.218182 242.116364 
L 72.292562 238.591317 
L 75.366942 234.855027 
L 78.441322 230.904111 
L 81.515702 226.735707 
L 84.590083 222.348535 
L 87.664463 217.74075 
L 90.738843 212.912288 
L 93.813223 207.862152 
L 96.887603 202.590583 
L 99.961983 197.097267 
L 103.036364 191.384578 
L 106.110744 185.457504 
L 109.185124 179.327792 
L 112.259504 173.0175 
L 115.333884 166.652866 
L 118.408264 160.2251 
L 121.482645 154.592615 
L 124.557025 149.356737 
L 127.631405 144.157437 
L 130.705785 139.025319 
L 133.780165 133.960975 
L 136.854545 129.028362 
L 139.928926 124.616989 
L 143.003306 120.934476 
L 146.077686 117.865075 
L 149.152066 115.175335 
L 152.226446 112.463802 
L 155.300826 110.735261 
L 158.375207 108.572961 
L 161.449587 106.125643 
L 164.523967 112.929535 
L 167.598347 129.065731 
L 170.672727 136.676169 
L 173.747107 144.992383 
L 176.821488 144.501008 
L 179.895868 152.89705 
L 182.970248 161.470679 
L 186.044628 161.316446 
L 189.119008 169.744124 
L 192.193388 168.401318 
L 195.267769 167.712368 
L 198.342149 176.872949 
L 201.416529 175.164343 
L 204.490909 183.301662 
L 207.565289 183.581564 
L 210.639669 174.93306 
L 213.71405 177.495112 
L 216.78843 180.492377 
L 219.86281 171.201072 
L 222.93719 178.306277 
L 226.01157 181.988466 
L 229.08595 177.262002 
L 232.160331 180.816554 
L 235.234711 183.633008 
L 238.309091 193.892833 
L 241.383471 188.344033 
L 244.457851 192.772367 
L 247.532231 196.772177 
L 250.606612 200.277827 
L 253.680992 192.453738 
L 256.755372 195.5595 
L 259.829752 199.764421 
L 262.904132 202.011345 
L 265.978512 203.61437 
L 269.052893 204.945776 
L 272.127273 204.215432 
L 275.201653 198.973793 
L 278.276033 199.400736 
L 281.350413 201.471106 
L 284.424793 201.876019 
L 287.499174 203.331817 
L 290.573554 202.946117 
L 293.647934 203.380312 
L 296.722314 213.407895 
L 299.796694 201.47322 
L 302.871074 205.91364 
L 305.945455 204.174845 
L 309.019835 206.710211 
L 312.094215 205.614886 
L 315.168595 207.545425 
L 318.242975 206.942767 
L 321.317355 208.540386 
L 324.391736 207.429067 
L 327.466116 207.457568 
L 330.540496 198.370011 
L 333.614876 200.522902 
L 336.689256 198.706805 
L 339.763636 200.882998 
L 342.838017 199.95345 
L 345.912397 200.536759 
L 348.986777 200.321528 
L 352.061157 200.016668 
L 355.135537 201.443575 
L 358.209917 198.883509 
L 361.284298 200.965386 
L 364.358678 200.872284 
L 367.433058 200.81205 
L 370.507438 200.628185 
L 373.581818 200.020344 
" style="fill:none;stroke:#1f77b4;stroke-linecap:square;stroke-width:1.5;"/>
   </g>
   <g id="line2d_17">
    <path clip-path="url(#p3b22cdfde7)" d="M 69.218182 195.17423 
L 72.292562 184.96633 
L 75.366942 174.080274 
L 78.441322 162.516231 
L 81.515702 150.274106 
L 84.590083 137.353923 
L 87.664463 123.756594 
L 90.738843 109.482075 
L 93.813223 94.530416 
L 96.887603 78.891858 
L 99.961983 62.48129 
L 103.036364 44.443636 
L 106.110744 108.562859 
L 109.185124 132.271874 
L 112.259504 150.75015 
L 115.333884 161.927801 
L 118.408264 160.914901 
L 121.482645 175.002294 
L 124.557025 180.309368 
L 127.631405 176.836526 
L 130.705785 183.688872 
L 133.780165 190.046685 
L 136.854545 189.262525 
L 139.928926 188.828914 
L 143.003306 179.710045 
L 146.077686 187.752645 
L 149.152066 189.698625 
L 152.226446 182.75259 
L 155.300826 179.692007 
L 158.375207 181.809611 
L 161.449587 192.190055 
L 164.523967 184.330379 
L 167.598347 194.40884 
L 170.672727 186.272261 
L 173.747107 177.03775 
L 176.821488 195.458698 
L 179.895868 187.169491 
L 182.970248 187.48095 
L 186.044628 179.828973 
L 189.119008 181.299088 
L 192.193388 174.913805 
L 195.267769 152.529336 
L 198.342149 156.987761 
L 201.416529 153.285018 
L 204.490909 167.58877 
L 207.565289 171.140586 
L 210.639669 175.660133 
L 213.71405 188.08018 
L 216.78843 191.621989 
L 219.86281 184.816654 
L 222.93719 183.521192 
L 226.01157 181.222272 
L 229.08595 179.454415 
L 232.160331 185.989572 
L 235.234711 184.617681 
L 238.309091 188.907005 
L 241.383471 188.905685 
L 244.457851 192.770333 
L 247.532231 190.361717 
L 250.606612 196.752047 
L 253.680992 200.331155 
L 256.755372 204.162426 
L 259.829752 207.301963 
L 262.904132 209.035707 
L 265.978512 201.812573 
L 269.052893 202.279733 
L 272.127273 202.270284 
L 275.201653 202.516062 
L 278.276033 202.448954 
L 281.350413 195.818197 
L 284.424793 195.054566 
L 287.499174 195.986495 
L 290.573554 194.675518 
L 293.647934 193.959847 
L 296.722314 183.34374 
L 299.796694 183.667059 
L 302.871074 180.516962 
L 305.945455 180.989604 
L 309.019835 180.370633 
L 312.094215 179.427458 
L 315.168595 178.069223 
L 318.242975 178.056853 
L 321.317355 178.023443 
L 324.391736 177.246801 
L 327.466116 177.280237 
L 330.540496 177.077533 
L 333.614876 185.321602 
L 336.689256 184.539436 
L 339.763636 182.714245 
L 342.838017 181.291464 
L 345.912397 181.786693 
L 348.986777 172.397458 
L 352.061157 180.502802 
L 355.135537 181.949824 
L 358.209917 178.159552 
L 361.284298 173.401876 
L 364.358678 180.088207 
L 367.433058 181.39604 
L 370.507438 182.206549 
L 373.581818 181.594544 
" style="fill:none;stroke:#ff7f0e;stroke-linecap:square;stroke-width:1.5;"/>
   </g>
   <g id="line2d_18">
    <path clip-path="url(#p3b22cdfde7)" d="M 69.218182 148.782157 
L 72.292562 131.844597 
L 75.366942 113.770942 
L 78.441322 94.558908 
L 81.515702 74.182282 
L 84.590083 52.24932 
L 87.664463 110.322071 
L 90.738843 130.916434 
L 93.813223 154.907083 
L 96.887603 163.000609 
L 99.961983 185.861858 
L 103.036364 188.265059 
L 106.110744 191.09256 
L 109.185124 194.833387 
L 112.259504 207.783383 
L 115.333884 203.708744 
L 118.408264 200.534529 
L 121.482645 207.022694 
L 124.557025 213.322666 
L 127.631405 220.184288 
L 130.705785 210.321736 
L 133.780165 209.102868 
L 136.854545 207.087858 
L 139.928926 215.471397 
L 143.003306 214.92449 
L 146.077686 197.586929 
L 149.152066 216.021587 
L 152.226446 208.510455 
L 155.300826 209.147544 
L 158.375207 202.155465 
L 161.449587 205.168394 
L 164.523967 203.071639 
L 167.598347 196.32001 
L 170.672727 206.66554 
L 173.747107 208.043438 
L 176.821488 208.727784 
L 179.895868 209.064489 
L 182.970248 199.821883 
L 186.044628 207.755277 
L 189.119008 208.066221 
L 192.193388 198.989698 
L 195.267769 190.086281 
L 198.342149 190.637387 
L 201.416529 183.82446 
L 204.490909 170.501957 
L 207.565289 150.4893 
L 210.639669 159.34075 
L 213.71405 168.784464 
L 216.78843 176.792136 
L 219.86281 192.994951 
L 222.93719 201.004661 
L 226.01157 198.140138 
L 229.08595 187.705055 
L 232.160331 186.628101 
L 235.234711 186.111148 
L 238.309091 195.369118 
L 241.383471 193.374405 
L 244.457851 192.540604 
L 247.532231 199.41207 
L 250.606612 199.063903 
L 253.680992 203.648345 
L 256.755372 207.152115 
L 259.829752 201.495689 
L 262.904132 202.506655 
L 265.978512 201.649565 
L 269.052893 191.045297 
L 272.127273 189.59334 
L 275.201653 189.617593 
L 278.276033 178.613506 
L 281.350413 178.718387 
L 284.424793 177.569447 
L 287.499174 176.220191 
L 290.573554 174.148171 
L 293.647934 170.867798 
L 296.722314 168.805646 
L 299.796694 166.337317 
L 302.871074 172.619138 
L 305.945455 171.396068 
L 309.019835 179.015271 
L 312.094215 169.787037 
L 315.168595 169.59899 
L 318.242975 169.842757 
L 321.317355 178.73767 
L 324.391736 178.498952 
L 327.466116 167.932698 
L 330.540496 177.071397 
L 333.614876 166.833317 
L 336.689256 166.278245 
L 339.763636 163.799155 
L 342.838017 163.701727 
L 345.912397 162.962192 
L 348.986777 170.210302 
L 352.061157 168.680138 
L 355.135537 169.167474 
L 358.209917 168.737925 
L 361.284298 168.878229 
L 364.358678 159.718018 
L 367.433058 169.377155 
L 370.507438 178.048029 
L 373.581818 169.58579 
" style="fill:none;stroke:#2ca02c;stroke-linecap:square;stroke-width:1.5;"/>
   </g>
   <g id="line2d_19">
    <path clip-path="url(#p3b22cdfde7)" d="M 243.14026 252 
L 243.14026 34.56 
" style="fill:none;stroke:#ff0000;stroke-dasharray:5.55,2.4;stroke-dashoffset:0;stroke-width:1.5;"/>
   </g>
   <g id="patch_3">
    <path d="M 54 252 
L 54 34.56 
" style="fill:none;stroke:#000000;stroke-linecap:square;stroke-linejoin:miter;stroke-width:0.8;"/>
   </g>
   <g id="patch_4">
    <path d="M 388.8 252 
L 388.8 34.56 
" style="fill:none;stroke:#000000;stroke-linecap:square;stroke-linejoin:miter;stroke-width:0.8;"/>
   </g>
   <g id="patch_5">
    <path d="M 54 252 
L 388.8 252 
" style="fill:none;stroke:#000000;stroke-linecap:square;stroke-linejoin:miter;stroke-width:0.8;"/>
   </g>
   <g id="patch_6">
    <path d="M 54 34.56 
L 388.8 34.56 
" style="fill:none;stroke:#000000;stroke-linecap:square;stroke-linejoin:miter;stroke-width:0.8;"/>
   </g>
   <g id="legend_1">
    <g id="patch_7">
     <path d="M 319.554688 86.594375 
L 381.8 86.594375 
Q 383.8 86.594375 383.8 84.594375 
L 383.8 41.56 
Q 383.8 39.56 381.8 39.56 
L 319.554688 39.56 
Q 317.554688 39.56 317.554688 41.56 
L 317.554688 84.594375 
Q 317.554688 86.594375 319.554688 86.594375 
z
" style="fill:#ffffff;opacity:0.8;stroke:#cccccc;stroke-linejoin:miter;"/>
    </g>
    <g id="line2d_20">
     <path d="M 321.554688 47.658438 
L 341.554688 47.658438 
" style="fill:none;stroke:#1f77b4;stroke-linecap:square;stroke-width:1.5;"/>
    </g>
    <g id="line2d_21"/>
    <g id="text_18">
     <!-- j=100 -->
     <g transform="translate(349.554688 51.158438)scale(0.1 -0.1)">
      <defs>
       <path d="M 603 3500 
L 1178 3500 
L 1178 -63 
Q 1178 -731 923 -1031 
Q 669 -1331 103 -1331 
L -116 -1331 
L -116 -844 
L 38 -844 
Q 366 -844 484 -692 
Q 603 -541 603 -63 
L 603 3500 
z
M 603 4863 
L 1178 4863 
L 1178 4134 
L 603 4134 
L 603 4863 
z
" id="DejaVuSans-6a" transform="scale(0.015625)"/>
       <path d="M 678 2906 
L 4684 2906 
L 4684 2381 
L 678 2381 
L 678 2906 
z
M 678 1631 
L 4684 1631 
L 4684 1100 
L 678 1100 
L 678 1631 
z
" id="DejaVuSans-3d" transform="scale(0.015625)"/>
      </defs>
      <use xlink:href="#DejaVuSans-6a"/>
      <use x="27.783203" xlink:href="#DejaVuSans-3d"/>
      <use x="111.572266" xlink:href="#DejaVuSans-31"/>
      <use x="175.195312" xlink:href="#DejaVuSans-30"/>
      <use x="238.818359" xlink:href="#DejaVuSans-30"/>
     </g>
    </g>
    <g id="line2d_22">
     <path d="M 321.554688 62.336563 
L 341.554688 62.336563 
" style="fill:none;stroke:#ff7f0e;stroke-linecap:square;stroke-width:1.5;"/>
    </g>
    <g id="line2d_23"/>
    <g id="text_19">
     <!-- j=300 -->
     <g transform="translate(349.554688 65.836563)scale(0.1 -0.1)">
      <use xlink:href="#DejaVuSans-6a"/>
      <use x="27.783203" xlink:href="#DejaVuSans-3d"/>
      <use x="111.572266" xlink:href="#DejaVuSans-33"/>
      <use x="175.195312" xlink:href="#DejaVuSans-30"/>
      <use x="238.818359" xlink:href="#DejaVuSans-30"/>
     </g>
    </g>
    <g id="line2d_24">
     <path d="M 321.554688 77.014688 
L 341.554688 77.014688 
" style="fill:none;stroke:#2ca02c;stroke-linecap:square;stroke-width:1.5;"/>
    </g>
    <g id="line2d_25"/>
    <g id="text_20">
     <!-- j=500 -->
     <g transform="translate(349.554688 80.514688)scale(0.1 -0.1)">
      <use xlink:href="#DejaVuSans-6a"/>
      <use x="27.783203" xlink:href="#DejaVuSans-3d"/>
      <use x="111.572266" xlink:href="#DejaVuSans-35"/>
      <use x="175.195312" xlink:href="#DejaVuSans-30"/>
      <use x="238.818359" xlink:href="#DejaVuSans-30"/>
     </g>
    </g>
   </g>
  </g>
 </g>
 <defs>
  <clipPath id="p3b22cdfde7">
   <rect height="217.44" width="334.8" x="54" y="34.56"/>
  </clipPath>
 </defs>
</svg>
