<?xml version="1.0" encoding="utf-8" standalone="no"?>
<!DOCTYPE svg PUBLIC "-//W3C//DTD SVG 1.1//EN"
  "http://www.w3.org/Graphics/SVG/1.1/DTD/svg11.dtd">
<svg height="288pt" version="1.1" viewBox="0 0 432 288" width="432pt" xmlns="http://www.w3.org/2000/svg" xmlns:xlink="http://www.w3.org/1999/xlink">
 <metadata>
  <rdf:RDF xmlns:cc="http://creativecommons.org/ns#" xmlns:dc="http://purl.org/dc/elements/1.1/" xmlns:rdf="http://www.w3.org/1999/02/22-rdf-syntax-ns#">
   <cc:Work>
    <dc:type rdf:resource="http://purl.org/dc/dcmitype/StillImage"/>
    <dc:date>2023-06-15T12:30:17.958362</dc:date>
    <dc:format>image/svg+xml</dc:format>
    <dc:creator>
     <cc:Agent>
      <dc:title>Matplotlib v3.4.3, https://matplotlib.org/</dc:title>
     </cc:Agent>
    </dc:creator>
   </cc:Work>
  </rdf:RDF>
 </metadata>
 <defs>
  <style type="text/css">*{stroke-linecap:butt;stroke-linejoin:round;}</style>
 </defs>
 <g id="figure_1">
  <g id="patch_1">
   <path d="M 0 288 
L 432 288 
L 432 0 
L 0 0 
z
" style="fill:#ffffff;"/>
  </g>
  <g id="axes_1">
   <g id="patch_2">
    <path d="M 54 252 
L 388.8 252 
L 388.8 34.56 
L 54 34.56 
z
" style="fill:#ffffff;"/>
   </g>
   <g id="matplotlib.axis_1">
    <g id="xtick_1">
     <g id="line2d_1">
      <defs>
       <path d="M 0 0 
L 0 3.5 
" id="md89c33cd1a" style="stroke:#000000;stroke-width:0.8;"/>
      </defs>
      <g>
       <use style="stroke:#000000;stroke-width:0.8;" x="69.218182" xlink:href="#md89c33cd1a" y="252"/>
      </g>
     </g>
     <g id="text_1">
      <!-- 0.1 -->
      <g transform="translate(61.266619 266.598437)scale(0.1 -0.1)">
       <defs>
        <path d="M 2034 4250 
Q 1547 4250 1301 3770 
Q 1056 3291 1056 2328 
Q 1056 1369 1301 889 
Q 1547 409 2034 409 
Q 2525 409 2770 889 
Q 3016 1369 3016 2328 
Q 3016 3291 2770 3770 
Q 2525 4250 2034 4250 
z
M 2034 4750 
Q 2819 4750 3233 4129 
Q 3647 3509 3647 2328 
Q 3647 1150 3233 529 
Q 2819 -91 2034 -91 
Q 1250 -91 836 529 
Q 422 1150 422 2328 
Q 422 3509 836 4129 
Q 1250 4750 2034 4750 
z
" id="DejaVuSans-30" transform="scale(0.015625)"/>
        <path d="M 684 794 
L 1344 794 
L 1344 0 
L 684 0 
L 684 794 
z
" id="DejaVuSans-2e" transform="scale(0.015625)"/>
        <path d="M 794 531 
L 1825 531 
L 1825 4091 
L 703 3866 
L 703 4441 
L 1819 4666 
L 2450 4666 
L 2450 531 
L 3481 531 
L 3481 0 
L 794 0 
L 794 531 
z
" id="DejaVuSans-31" transform="scale(0.015625)"/>
       </defs>
       <use xlink:href="#DejaVuSans-30"/>
       <use x="63.623047" xlink:href="#DejaVuSans-2e"/>
       <use x="95.410156" xlink:href="#DejaVuSans-31"/>
      </g>
     </g>
    </g>
    <g id="xtick_2">
     <g id="line2d_2">
      <g>
       <use style="stroke:#000000;stroke-width:0.8;" x="112.698701" xlink:href="#md89c33cd1a" y="252"/>
      </g>
     </g>
     <g id="text_2">
      <!-- 0.2 -->
      <g transform="translate(104.747139 266.598437)scale(0.1 -0.1)">
       <defs>
        <path d="M 1228 531 
L 3431 531 
L 3431 0 
L 469 0 
L 469 531 
Q 828 903 1448 1529 
Q 2069 2156 2228 2338 
Q 2531 2678 2651 2914 
Q 2772 3150 2772 3378 
Q 2772 3750 2511 3984 
Q 2250 4219 1831 4219 
Q 1534 4219 1204 4116 
Q 875 4013 500 3803 
L 500 4441 
Q 881 4594 1212 4672 
Q 1544 4750 1819 4750 
Q 2544 4750 2975 4387 
Q 3406 4025 3406 3419 
Q 3406 3131 3298 2873 
Q 3191 2616 2906 2266 
Q 2828 2175 2409 1742 
Q 1991 1309 1228 531 
z
" id="DejaVuSans-32" transform="scale(0.015625)"/>
       </defs>
       <use xlink:href="#DejaVuSans-30"/>
       <use x="63.623047" xlink:href="#DejaVuSans-2e"/>
       <use x="95.410156" xlink:href="#DejaVuSans-32"/>
      </g>
     </g>
    </g>
    <g id="xtick_3">
     <g id="line2d_3">
      <g>
       <use style="stroke:#000000;stroke-width:0.8;" x="156.179221" xlink:href="#md89c33cd1a" y="252"/>
      </g>
     </g>
     <g id="text_3">
      <!-- 0.3 -->
      <g transform="translate(148.227658 266.598437)scale(0.1 -0.1)">
       <defs>
        <path d="M 2597 2516 
Q 3050 2419 3304 2112 
Q 3559 1806 3559 1356 
Q 3559 666 3084 287 
Q 2609 -91 1734 -91 
Q 1441 -91 1130 -33 
Q 819 25 488 141 
L 488 750 
Q 750 597 1062 519 
Q 1375 441 1716 441 
Q 2309 441 2620 675 
Q 2931 909 2931 1356 
Q 2931 1769 2642 2001 
Q 2353 2234 1838 2234 
L 1294 2234 
L 1294 2753 
L 1863 2753 
Q 2328 2753 2575 2939 
Q 2822 3125 2822 3475 
Q 2822 3834 2567 4026 
Q 2313 4219 1838 4219 
Q 1578 4219 1281 4162 
Q 984 4106 628 3988 
L 628 4550 
Q 988 4650 1302 4700 
Q 1616 4750 1894 4750 
Q 2613 4750 3031 4423 
Q 3450 4097 3450 3541 
Q 3450 3153 3228 2886 
Q 3006 2619 2597 2516 
z
" id="DejaVuSans-33" transform="scale(0.015625)"/>
       </defs>
       <use xlink:href="#DejaVuSans-30"/>
       <use x="63.623047" xlink:href="#DejaVuSans-2e"/>
       <use x="95.410156" xlink:href="#DejaVuSans-33"/>
      </g>
     </g>
    </g>
    <g id="xtick_4">
     <g id="line2d_4">
      <g>
       <use style="stroke:#000000;stroke-width:0.8;" x="199.65974" xlink:href="#md89c33cd1a" y="252"/>
      </g>
     </g>
     <g id="text_4">
      <!-- 0.4 -->
      <g transform="translate(191.708178 266.598437)scale(0.1 -0.1)">
       <defs>
        <path d="M 2419 4116 
L 825 1625 
L 2419 1625 
L 2419 4116 
z
M 2253 4666 
L 3047 4666 
L 3047 1625 
L 3713 1625 
L 3713 1100 
L 3047 1100 
L 3047 0 
L 2419 0 
L 2419 1100 
L 313 1100 
L 313 1709 
L 2253 4666 
z
" id="DejaVuSans-34" transform="scale(0.015625)"/>
       </defs>
       <use xlink:href="#DejaVuSans-30"/>
       <use x="63.623047" xlink:href="#DejaVuSans-2e"/>
       <use x="95.410156" xlink:href="#DejaVuSans-34"/>
      </g>
     </g>
    </g>
    <g id="xtick_5">
     <g id="line2d_5">
      <g>
       <use style="stroke:#000000;stroke-width:0.8;" x="243.14026" xlink:href="#md89c33cd1a" y="252"/>
      </g>
     </g>
     <g id="text_5">
      <!-- 0.5 -->
      <g transform="translate(235.188697 266.598437)scale(0.1 -0.1)">
       <defs>
        <path d="M 691 4666 
L 3169 4666 
L 3169 4134 
L 1269 4134 
L 1269 2991 
Q 1406 3038 1543 3061 
Q 1681 3084 1819 3084 
Q 2600 3084 3056 2656 
Q 3513 2228 3513 1497 
Q 3513 744 3044 326 
Q 2575 -91 1722 -91 
Q 1428 -91 1123 -41 
Q 819 9 494 109 
L 494 744 
Q 775 591 1075 516 
Q 1375 441 1709 441 
Q 2250 441 2565 725 
Q 2881 1009 2881 1497 
Q 2881 1984 2565 2268 
Q 2250 2553 1709 2553 
Q 1456 2553 1204 2497 
Q 953 2441 691 2322 
L 691 4666 
z
" id="DejaVuSans-35" transform="scale(0.015625)"/>
       </defs>
       <use xlink:href="#DejaVuSans-30"/>
       <use x="63.623047" xlink:href="#DejaVuSans-2e"/>
       <use x="95.410156" xlink:href="#DejaVuSans-35"/>
      </g>
     </g>
    </g>
    <g id="xtick_6">
     <g id="line2d_6">
      <g>
       <use style="stroke:#000000;stroke-width:0.8;" x="286.620779" xlink:href="#md89c33cd1a" y="252"/>
      </g>
     </g>
     <g id="text_6">
      <!-- 0.6 -->
      <g transform="translate(278.669217 266.598437)scale(0.1 -0.1)">
       <defs>
        <path d="M 2113 2584 
Q 1688 2584 1439 2293 
Q 1191 2003 1191 1497 
Q 1191 994 1439 701 
Q 1688 409 2113 409 
Q 2538 409 2786 701 
Q 3034 994 3034 1497 
Q 3034 2003 2786 2293 
Q 2538 2584 2113 2584 
z
M 3366 4563 
L 3366 3988 
Q 3128 4100 2886 4159 
Q 2644 4219 2406 4219 
Q 1781 4219 1451 3797 
Q 1122 3375 1075 2522 
Q 1259 2794 1537 2939 
Q 1816 3084 2150 3084 
Q 2853 3084 3261 2657 
Q 3669 2231 3669 1497 
Q 3669 778 3244 343 
Q 2819 -91 2113 -91 
Q 1303 -91 875 529 
Q 447 1150 447 2328 
Q 447 3434 972 4092 
Q 1497 4750 2381 4750 
Q 2619 4750 2861 4703 
Q 3103 4656 3366 4563 
z
" id="DejaVuSans-36" transform="scale(0.015625)"/>
       </defs>
       <use xlink:href="#DejaVuSans-30"/>
       <use x="63.623047" xlink:href="#DejaVuSans-2e"/>
       <use x="95.410156" xlink:href="#DejaVuSans-36"/>
      </g>
     </g>
    </g>
    <g id="xtick_7">
     <g id="line2d_7">
      <g>
       <use style="stroke:#000000;stroke-width:0.8;" x="330.101299" xlink:href="#md89c33cd1a" y="252"/>
      </g>
     </g>
     <g id="text_7">
      <!-- 0.7 -->
      <g transform="translate(322.149736 266.598437)scale(0.1 -0.1)">
       <defs>
        <path d="M 525 4666 
L 3525 4666 
L 3525 4397 
L 1831 0 
L 1172 0 
L 2766 4134 
L 525 4134 
L 525 4666 
z
" id="DejaVuSans-37" transform="scale(0.015625)"/>
       </defs>
       <use xlink:href="#DejaVuSans-30"/>
       <use x="63.623047" xlink:href="#DejaVuSans-2e"/>
       <use x="95.410156" xlink:href="#DejaVuSans-37"/>
      </g>
     </g>
    </g>
    <g id="xtick_8">
     <g id="line2d_8">
      <g>
       <use style="stroke:#000000;stroke-width:0.8;" x="373.581818" xlink:href="#md89c33cd1a" y="252"/>
      </g>
     </g>
     <g id="text_8">
      <!-- 0.8 -->
      <g transform="translate(365.630256 266.598437)scale(0.1 -0.1)">
       <defs>
        <path d="M 2034 2216 
Q 1584 2216 1326 1975 
Q 1069 1734 1069 1313 
Q 1069 891 1326 650 
Q 1584 409 2034 409 
Q 2484 409 2743 651 
Q 3003 894 3003 1313 
Q 3003 1734 2745 1975 
Q 2488 2216 2034 2216 
z
M 1403 2484 
Q 997 2584 770 2862 
Q 544 3141 544 3541 
Q 544 4100 942 4425 
Q 1341 4750 2034 4750 
Q 2731 4750 3128 4425 
Q 3525 4100 3525 3541 
Q 3525 3141 3298 2862 
Q 3072 2584 2669 2484 
Q 3125 2378 3379 2068 
Q 3634 1759 3634 1313 
Q 3634 634 3220 271 
Q 2806 -91 2034 -91 
Q 1263 -91 848 271 
Q 434 634 434 1313 
Q 434 1759 690 2068 
Q 947 2378 1403 2484 
z
M 1172 3481 
Q 1172 3119 1398 2916 
Q 1625 2713 2034 2713 
Q 2441 2713 2670 2916 
Q 2900 3119 2900 3481 
Q 2900 3844 2670 4047 
Q 2441 4250 2034 4250 
Q 1625 4250 1398 4047 
Q 1172 3844 1172 3481 
z
" id="DejaVuSans-38" transform="scale(0.015625)"/>
       </defs>
       <use xlink:href="#DejaVuSans-30"/>
       <use x="63.623047" xlink:href="#DejaVuSans-2e"/>
       <use x="95.410156" xlink:href="#DejaVuSans-38"/>
      </g>
     </g>
    </g>
    <g id="text_9">
     <!-- h -->
     <g transform="translate(216.96375 283.315938)scale(0.14 -0.14)">
      <defs>
       <path d="M 3513 2113 
L 3513 0 
L 2938 0 
L 2938 2094 
Q 2938 2591 2744 2837 
Q 2550 3084 2163 3084 
Q 1697 3084 1428 2787 
Q 1159 2491 1159 1978 
L 1159 0 
L 581 0 
L 581 4863 
L 1159 4863 
L 1159 2956 
Q 1366 3272 1645 3428 
Q 1925 3584 2291 3584 
Q 2894 3584 3203 3211 
Q 3513 2838 3513 2113 
z
" id="DejaVuSans-68" transform="scale(0.015625)"/>
      </defs>
      <use xlink:href="#DejaVuSans-68"/>
     </g>
    </g>
   </g>
   <g id="matplotlib.axis_2">
    <g id="ytick_1">
     <g id="line2d_9">
      <defs>
       <path d="M 0 0 
L -3.5 0 
" id="m7a619dc944" style="stroke:#000000;stroke-width:0.8;"/>
      </defs>
      <g>
       <use style="stroke:#000000;stroke-width:0.8;" x="54" xlink:href="#m7a619dc944" y="215.767252"/>
      </g>
     </g>
     <g id="text_10">
      <!-- 5 -->
      <g transform="translate(40.6375 219.566471)scale(0.1 -0.1)">
       <use xlink:href="#DejaVuSans-35"/>
      </g>
     </g>
    </g>
    <g id="ytick_2">
     <g id="line2d_10">
      <g>
       <use style="stroke:#000000;stroke-width:0.8;" x="54" xlink:href="#m7a619dc944" y="173.418093"/>
      </g>
     </g>
     <g id="text_11">
      <!-- 10 -->
      <g transform="translate(34.275 177.217311)scale(0.1 -0.1)">
       <use xlink:href="#DejaVuSans-31"/>
       <use x="63.623047" xlink:href="#DejaVuSans-30"/>
      </g>
     </g>
    </g>
    <g id="ytick_3">
     <g id="line2d_11">
      <g>
       <use style="stroke:#000000;stroke-width:0.8;" x="54" xlink:href="#m7a619dc944" y="131.068933"/>
      </g>
     </g>
     <g id="text_12">
      <!-- 15 -->
      <g transform="translate(34.275 134.868151)scale(0.1 -0.1)">
       <use xlink:href="#DejaVuSans-31"/>
       <use x="63.623047" xlink:href="#DejaVuSans-35"/>
      </g>
     </g>
    </g>
    <g id="ytick_4">
     <g id="line2d_12">
      <g>
       <use style="stroke:#000000;stroke-width:0.8;" x="54" xlink:href="#m7a619dc944" y="88.719773"/>
      </g>
     </g>
     <g id="text_13">
      <!-- 20 -->
      <g transform="translate(34.275 92.518992)scale(0.1 -0.1)">
       <use xlink:href="#DejaVuSans-32"/>
       <use x="63.623047" xlink:href="#DejaVuSans-30"/>
      </g>
     </g>
    </g>
    <g id="ytick_5">
     <g id="line2d_13">
      <g>
       <use style="stroke:#000000;stroke-width:0.8;" x="54" xlink:href="#m7a619dc944" y="46.370613"/>
      </g>
     </g>
     <g id="text_14">
      <!-- 25 -->
      <g transform="translate(34.275 50.169832)scale(0.1 -0.1)">
       <use xlink:href="#DejaVuSans-32"/>
       <use x="63.623047" xlink:href="#DejaVuSans-35"/>
      </g>
     </g>
    </g>
    <g id="text_15">
     <!-- $\overline{s\left(\frac{2}{\pi}\mathcal{L} \right)}$ -->
     <g transform="translate(26.355 162.32)rotate(-90)scale(0.14 -0.14)">
      <defs>
       <path d="M 3200 3397 
L 3091 2853 
Q 2863 2978 2609 3040 
Q 2356 3103 2088 3103 
Q 1634 3103 1373 2948 
Q 1113 2794 1113 2528 
Q 1113 2219 1719 2053 
Q 1766 2041 1788 2034 
L 1972 1978 
Q 2547 1819 2739 1644 
Q 2931 1469 2931 1166 
Q 2931 609 2489 259 
Q 2047 -91 1331 -91 
Q 1053 -91 747 -37 
Q 441 16 72 128 
L 184 722 
Q 500 559 806 475 
Q 1113 391 1394 391 
Q 1816 391 2080 572 
Q 2344 753 2344 1031 
Q 2344 1331 1650 1516 
L 1591 1531 
L 1394 1581 
Q 956 1697 753 1886 
Q 550 2075 550 2369 
Q 550 2928 970 3256 
Q 1391 3584 2113 3584 
Q 2397 3584 2667 3537 
Q 2938 3491 3200 3397 
z
" id="DejaVuSans-Oblique-73" transform="scale(0.015625)"/>
       <path d="M 2445 -858 
L 2445 -1050 
Q 1728 -371 1309 630 
Q 890 1632 890 2886 
Q 890 4122 1309 5136 
Q 1728 6150 2445 6822 
L 2445 6630 
Q 1408 5363 1408 2886 
Q 1408 410 2445 -858 
z
" id="STIXSizeOneSym-Regular-28" transform="scale(0.015625)"/>
       <path d="M 584 3500 
L 3938 3500 
L 3825 2925 
L 3384 2925 
L 2966 775 
Q 2922 550 2981 450 
Q 3038 353 3209 353 
Q 3256 353 3325 363 
Q 3397 369 3419 372 
L 3338 -44 
Q 3222 -84 3103 -103 
Q 2981 -122 2866 -122 
Q 2491 -122 2388 81 
Q 2284 288 2391 838 
L 2797 2925 
L 1506 2925 
L 938 0 
L 350 0 
L 919 2925 
L 472 2925 
L 584 3500 
z
" id="DejaVuSans-Oblique-3c0" transform="scale(0.015625)"/>
       <path d="M 4070 915 
L 4179 800 
Q 3347 -45 2413 -45 
Q 2157 -45 1850 26 
Q 1395 122 1146 122 
Q 1005 122 672 61 
Q 339 0 192 0 
L 230 154 
Q 582 154 730 749 
L 1178 2566 
Q 1286 3008 1516 3353 
Q 1747 3699 2025 3894 
Q 2304 4090 2585 4189 
Q 2867 4288 3123 4288 
Q 3443 4288 3593 4083 
Q 3744 3878 3744 3584 
Q 3744 3347 3593 3200 
Q 3443 3053 3226 3053 
Q 3085 3053 2995 3149 
Q 2906 3245 2906 3379 
Q 2906 3482 2957 3552 
Q 3008 3622 3065 3644 
Q 3123 3667 3174 3705 
Q 3226 3744 3226 3789 
Q 3226 4032 2854 4032 
Q 2522 4032 2310 3785 
Q 2099 3539 1990 3132 
Q 1882 2726 1795 2284 
Q 1709 1843 1549 1363 
Q 1389 883 1158 589 
L 1158 563 
Q 1363 704 1888 704 
Q 2227 704 2460 544 
Q 2694 384 2963 384 
Q 3507 384 4070 915 
z
" id="STIXNonUnicode-Italic-e238" transform="scale(0.015625)"/>
       <path d="M 550 6630 
L 550 6822 
Q 1267 6144 1686 5142 
Q 2106 4141 2106 2886 
Q 2106 1651 1686 636 
Q 1267 -378 550 -1050 
L 550 -858 
Q 1587 410 1587 2886 
Q 1587 5363 550 6630 
z
" id="STIXSizeOneSym-Regular-29" transform="scale(0.015625)"/>
      </defs>
      <use transform="translate(0 1)" xlink:href="#DejaVuSans-Oblique-73"/>
      <use transform="translate(52.099609 -9.69375)scale(0.998526)" xlink:href="#STIXSizeOneSym-Regular-28"/>
      <use transform="translate(98.826477 44.796875)scale(0.7)" xlink:href="#DejaVuSans-32"/>
      <use transform="translate(99.826477 -24.734375)scale(0.7)" xlink:href="#DejaVuSans-Oblique-3c0"/>
      <use transform="translate(155.86261 1)" xlink:href="#STIXNonUnicode-Italic-e238"/>
      <use transform="translate(225.162598 -9.69375)scale(0.998526)" xlink:href="#STIXSizeOneSym-Regular-29"/>
      <path d="M 0 108.5 
L 0 114.75 
L 271.889465 114.75 
L 271.889465 108.5 
L 0 108.5 
z
"/>
      <path d="M 98.826477 19.796875 
L 98.826477 26.046875 
L 143.36261 26.046875 
L 143.36261 19.796875 
L 98.826477 19.796875 
z
"/>
     </g>
    </g>
   </g>
   <g id="line2d_14">
    <path clip-path="url(#p78d4aa89f3)" d="M 69.218182 242.116364 
L 72.292562 240.218663 
L 75.366942 238.200672 
L 78.441322 236.061619 
L 81.515702 233.801138 
L 84.590083 231.419085 
L 87.664463 228.915405 
L 90.738843 226.290019 
L 93.813223 223.542694 
L 96.887603 216.871473 
L 99.961983 180.44682 
L 103.036364 159.727357 
L 106.110744 147.025599 
L 109.185124 140.197727 
L 112.259504 131.650516 
L 115.333884 127.068371 
L 118.408264 122.532062 
L 121.482645 118.112144 
L 124.557025 117.580808 
L 127.631405 113.378162 
L 130.705785 112.988915 
L 133.780165 116.424141 
L 136.854545 108.510581 
L 139.928926 104.56631 
L 143.003306 108.310636 
L 146.077686 108.153694 
L 149.152066 108.106005 
L 152.226446 108.057574 
L 155.300826 112.02747 
L 158.375207 112.142763 
L 161.449587 112.240163 
L 164.523967 118.105941 
L 167.598347 110.554254 
L 170.672727 110.656952 
L 173.747107 110.658042 
L 176.821488 110.580288 
L 179.895868 110.448992 
L 182.970248 110.349093 
L 186.044628 110.221793 
L 189.119008 113.871194 
L 192.193388 113.617741 
L 195.267769 113.519942 
L 198.342149 121.08926 
L 201.416529 120.942337 
L 204.490909 128.741929 
L 207.565289 140.4767 
L 210.639669 133.098253 
L 213.71405 141.139071 
L 216.78843 137.755603 
L 219.86281 133.811962 
L 222.93719 138.171069 
L 226.01157 142.291426 
L 229.08595 146.721811 
L 232.160331 151.057654 
L 235.234711 151.421658 
L 238.309091 155.010026 
L 241.383471 155.649018 
L 244.457851 160.827813 
L 247.532231 165.932505 
L 250.606612 167.120848 
L 253.680992 167.070999 
L 256.755372 171.700952 
L 259.829752 173.24995 
L 262.904132 177.63544 
L 265.978512 178.015137 
L 269.052893 178.277569 
L 272.127273 177.443394 
L 275.201653 182.697309 
L 278.276033 182.396078 
L 281.350413 183.058509 
L 284.424793 182.848272 
L 287.499174 187.097805 
L 290.573554 186.672168 
L 293.647934 186.714212 
L 296.722314 187.10132 
L 299.796694 181.924285 
L 302.871074 183.190789 
L 305.945455 189.232054 
L 309.019835 183.025861 
L 312.094215 182.071592 
L 315.168595 182.910963 
L 318.242975 178.660685 
L 321.317355 179.249815 
L 324.391736 182.503563 
L 327.466116 179.16907 
L 330.540496 182.258436 
L 333.614876 179.522182 
L 336.689256 182.010582 
L 339.763636 183.189946 
L 342.838017 182.437683 
L 345.912397 178.903465 
L 348.986777 174.992165 
L 352.061157 182.117934 
L 355.135537 186.62376 
L 358.209917 178.544416 
L 361.284298 182.690716 
L 364.358678 179.015995 
L 367.433058 186.403657 
L 370.507438 182.767838 
L 373.581818 182.467158 
" style="fill:none;stroke:#1f77b4;stroke-linecap:square;stroke-width:1.5;"/>
   </g>
   <g id="line2d_15">
    <path clip-path="url(#p78d4aa89f3)" d="M 69.218182 172.241212 
L 72.292562 150.63924 
L 75.366942 135.325363 
L 78.441322 122.347148 
L 81.515702 117.172025 
L 84.590083 108.377831 
L 87.664463 99.728238 
L 90.738843 95.008128 
L 93.813223 90.460883 
L 96.887603 85.911086 
L 99.961983 85.26383 
L 103.036364 77.082945 
L 106.110744 76.57968 
L 109.185124 72.252871 
L 112.259504 67.950265 
L 115.333884 67.582382 
L 118.408264 67.423263 
L 121.482645 67.207298 
L 124.557025 66.911845 
L 127.631405 62.745636 
L 130.705785 58.643244 
L 133.780165 62.383308 
L 136.854545 66.038892 
L 139.928926 62.076308 
L 143.003306 65.865337 
L 146.077686 65.828139 
L 149.152066 58.064304 
L 152.226446 58.166688 
L 155.300826 58.230937 
L 158.375207 65.876243 
L 161.449587 62.178879 
L 164.523967 66.161446 
L 167.598347 62.445668 
L 170.672727 66.453699 
L 173.747107 70.6438 
L 176.821488 72.706015 
L 179.895868 72.824812 
L 182.970248 69.153656 
L 186.044628 72.799098 
L 189.119008 68.823213 
L 192.193388 72.188023 
L 195.267769 68.030186 
L 198.342149 67.608513 
L 201.416529 67.213311 
L 204.490909 62.993629 
L 207.565289 70.397243 
L 210.639669 70.296374 
L 213.71405 70.455221 
L 216.78843 74.723812 
L 219.86281 81.29519 
L 222.93719 101.653902 
L 226.01157 112.88306 
L 229.08595 114.077993 
L 232.160331 110.654951 
L 235.234711 118.176116 
L 238.309091 121.419699 
L 241.383471 135.042512 
L 244.457851 138.925671 
L 247.532231 144.457389 
L 250.606612 150.107254 
L 253.680992 154.506077 
L 256.755372 155.185195 
L 259.829752 159.320951 
L 262.904132 159.125579 
L 265.978512 159.085497 
L 269.052893 154.488203 
L 272.127273 149.90945 
L 275.201653 142.448297 
L 278.276033 142.378298 
L 281.350413 146.818065 
L 284.424793 146.401501 
L 287.499174 143.019956 
L 290.573554 138.789488 
L 293.647934 142.498293 
L 296.722314 141.918773 
L 299.796694 134.298815 
L 302.871074 129.376859 
L 305.945455 133.703503 
L 309.019835 133.489727 
L 312.094215 137.278596 
L 315.168595 133.789376 
L 318.242975 133.958564 
L 321.317355 137.855893 
L 324.391736 126.392319 
L 327.466116 130.368421 
L 330.540496 134.159137 
L 333.614876 134.128105 
L 336.689256 126.353285 
L 339.763636 127.787602 
L 342.838017 125.562397 
L 345.912397 129.265109 
L 348.986777 129.026404 
L 352.061157 125.21581 
L 355.135537 129.340964 
L 358.209917 129.404006 
L 361.284298 133.703134 
L 364.358678 122.051248 
L 367.433058 125.979169 
L 370.507438 129.985688 
L 373.581818 126.187005 
" style="fill:none;stroke:#ff7f0e;stroke-linecap:square;stroke-width:1.5;"/>
   </g>
   <g id="line2d_16">
    <path clip-path="url(#p78d4aa89f3)" d="M 69.218182 113.187047 
L 72.292562 104.098686 
L 75.366942 99.080287 
L 78.441322 94.173469 
L 81.515702 85.636501 
L 84.590083 81.027648 
L 87.664463 80.250854 
L 90.738843 71.945762 
L 93.813223 71.413859 
L 96.887603 70.86626 
L 99.961983 66.617756 
L 103.036364 62.409759 
L 106.110744 62.123941 
L 109.185124 61.798706 
L 112.259504 61.42508 
L 115.333884 60.991365 
L 118.408264 53.100727 
L 121.482645 49.146291 
L 124.557025 48.938274 
L 127.631405 52.684248 
L 130.705785 48.753133 
L 133.780165 48.6675 
L 136.854545 48.428916 
L 139.928926 48.411559 
L 143.003306 44.518935 
L 146.077686 44.443636 
L 149.152066 52.082901 
L 152.226446 52.127993 
L 155.300826 48.206608 
L 158.375207 48.445519 
L 161.449587 48.409511 
L 164.523967 52.23804 
L 167.598347 52.467504 
L 170.672727 56.400347 
L 173.747107 52.600002 
L 176.821488 56.751764 
L 179.895868 60.801152 
L 182.970248 59.011597 
L 186.044628 58.983212 
L 189.119008 55.070582 
L 192.193388 58.572937 
L 195.267769 57.992613 
L 198.342149 53.638704 
L 201.416529 53.23201 
L 204.490909 52.68191 
L 207.565289 48.497386 
L 210.639669 48.45772 
L 213.71405 44.811798 
L 216.78843 51.167546 
L 219.86281 59.475206 
L 222.93719 68.131955 
L 226.01157 84.688273 
L 229.08595 99.780532 
L 232.160331 100.820369 
L 235.234711 96.944338 
L 238.309091 108.343616 
L 241.383471 115.779069 
L 244.457851 124.917448 
L 247.532231 129.841025 
L 250.606612 139.963168 
L 253.680992 136.559189 
L 256.755372 140.782602 
L 259.829752 148.399136 
L 262.904132 132.559534 
L 265.978512 131.998309 
L 269.052893 127.160001 
L 272.127273 122.972688 
L 275.201653 126.681814 
L 278.276033 119.006182 
L 281.350413 115.582647 
L 284.424793 115.785158 
L 287.499174 119.657751 
L 290.573554 115.927463 
L 293.647934 111.791543 
L 296.722314 111.232287 
L 299.796694 108.52838 
L 302.871074 110.048892 
L 305.945455 102.340086 
L 309.019835 102.242894 
L 312.094215 98.620056 
L 315.168595 110.239604 
L 318.242975 106.713073 
L 321.317355 103.441929 
L 324.391736 107.453396 
L 327.466116 103.585619 
L 330.540496 103.525209 
L 333.614876 107.125905 
L 336.689256 104.971852 
L 339.763636 104.628496 
L 342.838017 100.390309 
L 345.912397 98.283424 
L 348.986777 98.130801 
L 352.061157 94.434117 
L 355.135537 102.043521 
L 358.209917 102.050963 
L 361.284298 94.702775 
L 364.358678 106.638413 
L 367.433058 99.483218 
L 370.507438 99.533124 
L 373.581818 103.538694 
" style="fill:none;stroke:#2ca02c;stroke-linecap:square;stroke-width:1.5;"/>
   </g>
   <g id="line2d_17">
    <path clip-path="url(#p78d4aa89f3)" d="M 243.14026 252 
L 243.14026 34.56 
" style="fill:none;stroke:#ff0000;stroke-dasharray:5.55,2.4;stroke-dashoffset:0;stroke-width:1.5;"/>
   </g>
   <g id="patch_3">
    <path d="M 54 252 
L 54 34.56 
" style="fill:none;stroke:#000000;stroke-linecap:square;stroke-linejoin:miter;stroke-width:0.8;"/>
   </g>
   <g id="patch_4">
    <path d="M 388.8 252 
L 388.8 34.56 
" style="fill:none;stroke:#000000;stroke-linecap:square;stroke-linejoin:miter;stroke-width:0.8;"/>
   </g>
   <g id="patch_5">
    <path d="M 54 252 
L 388.8 252 
" style="fill:none;stroke:#000000;stroke-linecap:square;stroke-linejoin:miter;stroke-width:0.8;"/>
   </g>
   <g id="patch_6">
    <path d="M 54 34.56 
L 388.8 34.56 
" style="fill:none;stroke:#000000;stroke-linecap:square;stroke-linejoin:miter;stroke-width:0.8;"/>
   </g>
   <g id="legend_1">
    <g id="patch_7">
     <path d="M 319.554688 86.594375 
L 381.8 86.594375 
Q 383.8 86.594375 383.8 84.594375 
L 383.8 41.56 
Q 383.8 39.56 381.8 39.56 
L 319.554688 39.56 
Q 317.554688 39.56 317.554688 41.56 
L 317.554688 84.594375 
Q 317.554688 86.594375 319.554688 86.594375 
z
" style="fill:#ffffff;opacity:0.8;stroke:#cccccc;stroke-linejoin:miter;"/>
    </g>
    <g id="line2d_18">
     <path d="M 321.554688 47.658438 
L 341.554688 47.658438 
" style="fill:none;stroke:#1f77b4;stroke-linecap:square;stroke-width:1.5;"/>
    </g>
    <g id="line2d_19"/>
    <g id="text_16">
     <!-- j=100 -->
     <g transform="translate(349.554688 51.158438)scale(0.1 -0.1)">
      <defs>
       <path d="M 603 3500 
L 1178 3500 
L 1178 -63 
Q 1178 -731 923 -1031 
Q 669 -1331 103 -1331 
L -116 -1331 
L -116 -844 
L 38 -844 
Q 366 -844 484 -692 
Q 603 -541 603 -63 
L 603 3500 
z
M 603 4863 
L 1178 4863 
L 1178 4134 
L 603 4134 
L 603 4863 
z
" id="DejaVuSans-6a" transform="scale(0.015625)"/>
       <path d="M 678 2906 
L 4684 2906 
L 4684 2381 
L 678 2381 
L 678 2906 
z
M 678 1631 
L 4684 1631 
L 4684 1100 
L 678 1100 
L 678 1631 
z
" id="DejaVuSans-3d" transform="scale(0.015625)"/>
      </defs>
      <use xlink:href="#DejaVuSans-6a"/>
      <use x="27.783203" xlink:href="#DejaVuSans-3d"/>
      <use x="111.572266" xlink:href="#DejaVuSans-31"/>
      <use x="175.195312" xlink:href="#DejaVuSans-30"/>
      <use x="238.818359" xlink:href="#DejaVuSans-30"/>
     </g>
    </g>
    <g id="line2d_20">
     <path d="M 321.554688 62.336563 
L 341.554688 62.336563 
" style="fill:none;stroke:#ff7f0e;stroke-linecap:square;stroke-width:1.5;"/>
    </g>
    <g id="line2d_21"/>
    <g id="text_17">
     <!-- j=300 -->
     <g transform="translate(349.554688 65.836563)scale(0.1 -0.1)">
      <use xlink:href="#DejaVuSans-6a"/>
      <use x="27.783203" xlink:href="#DejaVuSans-3d"/>
      <use x="111.572266" xlink:href="#DejaVuSans-33"/>
      <use x="175.195312" xlink:href="#DejaVuSans-30"/>
      <use x="238.818359" xlink:href="#DejaVuSans-30"/>
     </g>
    </g>
    <g id="line2d_22">
     <path d="M 321.554688 77.014688 
L 341.554688 77.014688 
" style="fill:none;stroke:#2ca02c;stroke-linecap:square;stroke-width:1.5;"/>
    </g>
    <g id="line2d_23"/>
    <g id="text_18">
     <!-- j=500 -->
     <g transform="translate(349.554688 80.514688)scale(0.1 -0.1)">
      <use xlink:href="#DejaVuSans-6a"/>
      <use x="27.783203" xlink:href="#DejaVuSans-3d"/>
      <use x="111.572266" xlink:href="#DejaVuSans-35"/>
      <use x="175.195312" xlink:href="#DejaVuSans-30"/>
      <use x="238.818359" xlink:href="#DejaVuSans-30"/>
     </g>
    </g>
   </g>
  </g>
 </g>
 <defs>
  <clipPath id="p78d4aa89f3">
   <rect height="217.44" width="334.8" x="54" y="34.56"/>
  </clipPath>
 </defs>
</svg>
