<?xml version="1.0" encoding="utf-8" standalone="no"?>
<!DOCTYPE svg PUBLIC "-//W3C//DTD SVG 1.1//EN"
  "http://www.w3.org/Graphics/SVG/1.1/DTD/svg11.dtd">
<svg height="432pt" version="1.1" viewBox="0 0 576 432" width="576pt" xmlns="http://www.w3.org/2000/svg" xmlns:xlink="http://www.w3.org/1999/xlink">
 <metadata>
  <rdf:RDF xmlns:cc="http://creativecommons.org/ns#" xmlns:dc="http://purl.org/dc/elements/1.1/" xmlns:rdf="http://www.w3.org/1999/02/22-rdf-syntax-ns#">
   <cc:Work>
    <dc:type rdf:resource="http://purl.org/dc/dcmitype/StillImage"/>
    <dc:date>2023-04-26T10:37:03.184039</dc:date>
    <dc:format>image/svg+xml</dc:format>
    <dc:creator>
     <cc:Agent>
      <dc:title>Matplotlib v3.4.3, https://matplotlib.org/</dc:title>
     </cc:Agent>
    </dc:creator>
   </cc:Work>
  </rdf:RDF>
 </metadata>
 <defs>
  <style type="text/css">*{stroke-linecap:butt;stroke-linejoin:round;}</style>
 </defs>
 <g id="figure_1">
  <g id="patch_1">
   <path d="M 0 432 
L 576 432 
L 576 0 
L 0 0 
z
" style="fill:#ffffff;"/>
  </g>
  <g id="axes_1">
   <g id="patch_2">
    <path d="M 72 378 
L 518.4 378 
L 518.4 51.84 
L 72 51.84 
z
" style="fill:#ffffff;"/>
   </g>
   <g id="matplotlib.axis_1">
    <g id="xtick_1">
     <g id="line2d_1">
      <defs>
       <path d="M 0 0 
L 0 3.5 
" id="m2ab967082a" style="stroke:#000000;stroke-width:0.8;"/>
      </defs>
      <g>
       <use style="stroke:#000000;stroke-width:0.8;" x="129.183471" xlink:href="#m2ab967082a" y="378"/>
      </g>
     </g>
     <g id="text_1">
      <!-- 0.2 -->
      <g transform="translate(121.231909 392.598437)scale(0.1 -0.1)">
       <defs>
        <path d="M 2034 4250 
Q 1547 4250 1301 3770 
Q 1056 3291 1056 2328 
Q 1056 1369 1301 889 
Q 1547 409 2034 409 
Q 2525 409 2770 889 
Q 3016 1369 3016 2328 
Q 3016 3291 2770 3770 
Q 2525 4250 2034 4250 
z
M 2034 4750 
Q 2819 4750 3233 4129 
Q 3647 3509 3647 2328 
Q 3647 1150 3233 529 
Q 2819 -91 2034 -91 
Q 1250 -91 836 529 
Q 422 1150 422 2328 
Q 422 3509 836 4129 
Q 1250 4750 2034 4750 
z
" id="DejaVuSans-30" transform="scale(0.015625)"/>
        <path d="M 684 794 
L 1344 794 
L 1344 0 
L 684 0 
L 684 794 
z
" id="DejaVuSans-2e" transform="scale(0.015625)"/>
        <path d="M 1228 531 
L 3431 531 
L 3431 0 
L 469 0 
L 469 531 
Q 828 903 1448 1529 
Q 2069 2156 2228 2338 
Q 2531 2678 2651 2914 
Q 2772 3150 2772 3378 
Q 2772 3750 2511 3984 
Q 2250 4219 1831 4219 
Q 1534 4219 1204 4116 
Q 875 4013 500 3803 
L 500 4441 
Q 881 4594 1212 4672 
Q 1544 4750 1819 4750 
Q 2544 4750 2975 4387 
Q 3406 4025 3406 3419 
Q 3406 3131 3298 2873 
Q 3191 2616 2906 2266 
Q 2828 2175 2409 1742 
Q 1991 1309 1228 531 
z
" id="DejaVuSans-32" transform="scale(0.015625)"/>
       </defs>
       <use xlink:href="#DejaVuSans-30"/>
       <use x="63.623047" xlink:href="#DejaVuSans-2e"/>
       <use x="95.410156" xlink:href="#DejaVuSans-32"/>
      </g>
     </g>
    </g>
    <g id="xtick_2">
     <g id="line2d_2">
      <g>
       <use style="stroke:#000000;stroke-width:0.8;" x="202.968595" xlink:href="#m2ab967082a" y="378"/>
      </g>
     </g>
     <g id="text_2">
      <!-- 0.4 -->
      <g transform="translate(195.017033 392.598437)scale(0.1 -0.1)">
       <defs>
        <path d="M 2419 4116 
L 825 1625 
L 2419 1625 
L 2419 4116 
z
M 2253 4666 
L 3047 4666 
L 3047 1625 
L 3713 1625 
L 3713 1100 
L 3047 1100 
L 3047 0 
L 2419 0 
L 2419 1100 
L 313 1100 
L 313 1709 
L 2253 4666 
z
" id="DejaVuSans-34" transform="scale(0.015625)"/>
       </defs>
       <use xlink:href="#DejaVuSans-30"/>
       <use x="63.623047" xlink:href="#DejaVuSans-2e"/>
       <use x="95.410156" xlink:href="#DejaVuSans-34"/>
      </g>
     </g>
    </g>
    <g id="xtick_3">
     <g id="line2d_3">
      <g>
       <use style="stroke:#000000;stroke-width:0.8;" x="276.753719" xlink:href="#m2ab967082a" y="378"/>
      </g>
     </g>
     <g id="text_3">
      <!-- 0.6 -->
      <g transform="translate(268.802157 392.598437)scale(0.1 -0.1)">
       <defs>
        <path d="M 2113 2584 
Q 1688 2584 1439 2293 
Q 1191 2003 1191 1497 
Q 1191 994 1439 701 
Q 1688 409 2113 409 
Q 2538 409 2786 701 
Q 3034 994 3034 1497 
Q 3034 2003 2786 2293 
Q 2538 2584 2113 2584 
z
M 3366 4563 
L 3366 3988 
Q 3128 4100 2886 4159 
Q 2644 4219 2406 4219 
Q 1781 4219 1451 3797 
Q 1122 3375 1075 2522 
Q 1259 2794 1537 2939 
Q 1816 3084 2150 3084 
Q 2853 3084 3261 2657 
Q 3669 2231 3669 1497 
Q 3669 778 3244 343 
Q 2819 -91 2113 -91 
Q 1303 -91 875 529 
Q 447 1150 447 2328 
Q 447 3434 972 4092 
Q 1497 4750 2381 4750 
Q 2619 4750 2861 4703 
Q 3103 4656 3366 4563 
z
" id="DejaVuSans-36" transform="scale(0.015625)"/>
       </defs>
       <use xlink:href="#DejaVuSans-30"/>
       <use x="63.623047" xlink:href="#DejaVuSans-2e"/>
       <use x="95.410156" xlink:href="#DejaVuSans-36"/>
      </g>
     </g>
    </g>
    <g id="xtick_4">
     <g id="line2d_4">
      <g>
       <use style="stroke:#000000;stroke-width:0.8;" x="350.538843" xlink:href="#m2ab967082a" y="378"/>
      </g>
     </g>
     <g id="text_4">
      <!-- 0.8 -->
      <g transform="translate(342.58728 392.598437)scale(0.1 -0.1)">
       <defs>
        <path d="M 2034 2216 
Q 1584 2216 1326 1975 
Q 1069 1734 1069 1313 
Q 1069 891 1326 650 
Q 1584 409 2034 409 
Q 2484 409 2743 651 
Q 3003 894 3003 1313 
Q 3003 1734 2745 1975 
Q 2488 2216 2034 2216 
z
M 1403 2484 
Q 997 2584 770 2862 
Q 544 3141 544 3541 
Q 544 4100 942 4425 
Q 1341 4750 2034 4750 
Q 2731 4750 3128 4425 
Q 3525 4100 3525 3541 
Q 3525 3141 3298 2862 
Q 3072 2584 2669 2484 
Q 3125 2378 3379 2068 
Q 3634 1759 3634 1313 
Q 3634 634 3220 271 
Q 2806 -91 2034 -91 
Q 1263 -91 848 271 
Q 434 634 434 1313 
Q 434 1759 690 2068 
Q 947 2378 1403 2484 
z
M 1172 3481 
Q 1172 3119 1398 2916 
Q 1625 2713 2034 2713 
Q 2441 2713 2670 2916 
Q 2900 3119 2900 3481 
Q 2900 3844 2670 4047 
Q 2441 4250 2034 4250 
Q 1625 4250 1398 4047 
Q 1172 3844 1172 3481 
z
" id="DejaVuSans-38" transform="scale(0.015625)"/>
       </defs>
       <use xlink:href="#DejaVuSans-30"/>
       <use x="63.623047" xlink:href="#DejaVuSans-2e"/>
       <use x="95.410156" xlink:href="#DejaVuSans-38"/>
      </g>
     </g>
    </g>
    <g id="xtick_5">
     <g id="line2d_5">
      <g>
       <use style="stroke:#000000;stroke-width:0.8;" x="424.323967" xlink:href="#m2ab967082a" y="378"/>
      </g>
     </g>
     <g id="text_5">
      <!-- 1.0 -->
      <g transform="translate(416.372404 392.598437)scale(0.1 -0.1)">
       <defs>
        <path d="M 794 531 
L 1825 531 
L 1825 4091 
L 703 3866 
L 703 4441 
L 1819 4666 
L 2450 4666 
L 2450 531 
L 3481 531 
L 3481 0 
L 794 0 
L 794 531 
z
" id="DejaVuSans-31" transform="scale(0.015625)"/>
       </defs>
       <use xlink:href="#DejaVuSans-31"/>
       <use x="63.623047" xlink:href="#DejaVuSans-2e"/>
       <use x="95.410156" xlink:href="#DejaVuSans-30"/>
      </g>
     </g>
    </g>
    <g id="xtick_6">
     <g id="line2d_6">
      <g>
       <use style="stroke:#000000;stroke-width:0.8;" x="498.109091" xlink:href="#m2ab967082a" y="378"/>
      </g>
     </g>
     <g id="text_6">
      <!-- 1.2 -->
      <g transform="translate(490.157528 392.598437)scale(0.1 -0.1)">
       <use xlink:href="#DejaVuSans-31"/>
       <use x="63.623047" xlink:href="#DejaVuSans-2e"/>
       <use x="95.410156" xlink:href="#DejaVuSans-32"/>
      </g>
     </g>
    </g>
    <g id="text_7">
     <!-- h -->
     <g transform="translate(290.76375 409.315938)scale(0.14 -0.14)">
      <defs>
       <path d="M 3513 2113 
L 3513 0 
L 2938 0 
L 2938 2094 
Q 2938 2591 2744 2837 
Q 2550 3084 2163 3084 
Q 1697 3084 1428 2787 
Q 1159 2491 1159 1978 
L 1159 0 
L 581 0 
L 581 4863 
L 1159 4863 
L 1159 2956 
Q 1366 3272 1645 3428 
Q 1925 3584 2291 3584 
Q 2894 3584 3203 3211 
Q 3513 2838 3513 2113 
z
" id="DejaVuSans-68" transform="scale(0.015625)"/>
      </defs>
      <use xlink:href="#DejaVuSans-68"/>
     </g>
    </g>
   </g>
   <g id="matplotlib.axis_2">
    <g id="ytick_1">
     <g id="line2d_7">
      <defs>
       <path d="M 0 0 
L -3.5 0 
" id="m79ee069a36" style="stroke:#000000;stroke-width:0.8;"/>
      </defs>
      <g>
       <use style="stroke:#000000;stroke-width:0.8;" x="72" xlink:href="#m79ee069a36" y="371.042093"/>
      </g>
     </g>
     <g id="text_8">
      <!-- 0.8 -->
      <g transform="translate(49.096875 374.841312)scale(0.1 -0.1)">
       <use xlink:href="#DejaVuSans-30"/>
       <use x="63.623047" xlink:href="#DejaVuSans-2e"/>
       <use x="95.410156" xlink:href="#DejaVuSans-38"/>
      </g>
     </g>
    </g>
    <g id="ytick_2">
     <g id="line2d_8">
      <g>
       <use style="stroke:#000000;stroke-width:0.8;" x="72" xlink:href="#m79ee069a36" y="318.976968"/>
      </g>
     </g>
     <g id="text_9">
      <!-- 1.0 -->
      <g transform="translate(49.096875 322.776187)scale(0.1 -0.1)">
       <use xlink:href="#DejaVuSans-31"/>
       <use x="63.623047" xlink:href="#DejaVuSans-2e"/>
       <use x="95.410156" xlink:href="#DejaVuSans-30"/>
      </g>
     </g>
    </g>
    <g id="ytick_3">
     <g id="line2d_9">
      <g>
       <use style="stroke:#000000;stroke-width:0.8;" x="72" xlink:href="#m79ee069a36" y="266.911843"/>
      </g>
     </g>
     <g id="text_10">
      <!-- 1.2 -->
      <g transform="translate(49.096875 270.711062)scale(0.1 -0.1)">
       <use xlink:href="#DejaVuSans-31"/>
       <use x="63.623047" xlink:href="#DejaVuSans-2e"/>
       <use x="95.410156" xlink:href="#DejaVuSans-32"/>
      </g>
     </g>
    </g>
    <g id="ytick_4">
     <g id="line2d_10">
      <g>
       <use style="stroke:#000000;stroke-width:0.8;" x="72" xlink:href="#m79ee069a36" y="214.846718"/>
      </g>
     </g>
     <g id="text_11">
      <!-- 1.4 -->
      <g transform="translate(49.096875 218.645937)scale(0.1 -0.1)">
       <use xlink:href="#DejaVuSans-31"/>
       <use x="63.623047" xlink:href="#DejaVuSans-2e"/>
       <use x="95.410156" xlink:href="#DejaVuSans-34"/>
      </g>
     </g>
    </g>
    <g id="ytick_5">
     <g id="line2d_11">
      <g>
       <use style="stroke:#000000;stroke-width:0.8;" x="72" xlink:href="#m79ee069a36" y="162.781593"/>
      </g>
     </g>
     <g id="text_12">
      <!-- 1.6 -->
      <g transform="translate(49.096875 166.580811)scale(0.1 -0.1)">
       <use xlink:href="#DejaVuSans-31"/>
       <use x="63.623047" xlink:href="#DejaVuSans-2e"/>
       <use x="95.410156" xlink:href="#DejaVuSans-36"/>
      </g>
     </g>
    </g>
    <g id="ytick_6">
     <g id="line2d_12">
      <g>
       <use style="stroke:#000000;stroke-width:0.8;" x="72" xlink:href="#m79ee069a36" y="110.716467"/>
      </g>
     </g>
     <g id="text_13">
      <!-- 1.8 -->
      <g transform="translate(49.096875 114.515686)scale(0.1 -0.1)">
       <use xlink:href="#DejaVuSans-31"/>
       <use x="63.623047" xlink:href="#DejaVuSans-2e"/>
       <use x="95.410156" xlink:href="#DejaVuSans-38"/>
      </g>
     </g>
    </g>
    <g id="ytick_7">
     <g id="line2d_13">
      <g>
       <use style="stroke:#000000;stroke-width:0.8;" x="72" xlink:href="#m79ee069a36" y="58.651342"/>
      </g>
     </g>
     <g id="text_14">
      <!-- 2.0 -->
      <g transform="translate(49.096875 62.450561)scale(0.1 -0.1)">
       <use xlink:href="#DejaVuSans-32"/>
       <use x="63.623047" xlink:href="#DejaVuSans-2e"/>
       <use x="95.410156" xlink:href="#DejaVuSans-30"/>
      </g>
     </g>
    </g>
    <g id="text_15">
     <!-- $\bar{\langle \Sigma \rangle}$ -->
     <g transform="translate(41.769375 226.28)rotate(-90)scale(0.16 -0.16)">
      <defs>
       <path d="M -2522 4769 
L -653 4769 
L -653 4306 
L -2522 4306 
L -2522 4769 
z
" id="DejaVuSans-304" transform="scale(0.015625)"/>
       <path d="M 572 2006 
L 1453 4856 
L 1984 4856 
L 1103 2006 
L 1984 -844 
L 1453 -844 
L 572 2006 
z
" id="DejaVuSans-27e8" transform="scale(0.015625)"/>
       <path d="M 1353 531 
L 3634 531 
L 3634 0 
L 628 0 
L 628 531 
L 2125 2481 
L 628 4134 
L 628 4666 
L 3578 4666 
L 3578 4134 
L 1353 4134 
L 2850 2494 
L 1353 531 
z
" id="DejaVuSans-3a3" transform="scale(0.015625)"/>
       <path d="M 1925 2006 
L 1044 -844 
L 513 -844 
L 1394 2006 
L 513 4856 
L 1044 4856 
L 1925 2006 
z
" id="DejaVuSans-27e9" transform="scale(0.015625)"/>
      </defs>
      <use transform="translate(112.708984 21.484375)" xlink:href="#DejaVuSans-304"/>
      <use transform="translate(0 0.390625)" xlink:href="#DejaVuSans-27e8"/>
      <use transform="translate(39.013672 0.390625)" xlink:href="#DejaVuSans-3a3"/>
      <use transform="translate(102.197266 0.390625)" xlink:href="#DejaVuSans-27e9"/>
     </g>
    </g>
   </g>
   <g id="line2d_14">
    <path clip-path="url(#pe5ec5a8588)" d="M 92.290909 363.174545 
L 96.390083 333.184221 
L 100.489256 306.095031 
L 104.58843 282.239472 
L 108.687603 261.646829 
L 112.786777 244.120933 
L 116.88595 229.325611 
L 120.985124 216.858894 
L 125.084298 206.306585 
L 129.183471 197.274632 
L 133.282645 189.405474 
L 137.381818 182.385832 
L 141.480992 175.953309 
L 145.580165 169.906337 
L 149.679339 164.114344 
L 153.778512 158.516216 
L 157.877686 153.106171 
L 161.97686 147.943062 
L 166.076033 143.183209 
L 170.175207 139.007452 
L 174.27438 135.371823 
L 178.373554 131.961654 
L 182.472727 128.701197 
L 186.571901 125.727379 
L 190.671074 123.056052 
L 194.770248 120.311498 
L 198.869421 117.333472 
L 202.968595 113.846703 
L 207.067769 110.421202 
L 211.166942 107.646641 
L 215.266116 104.700603 
L 219.365289 100.446164 
L 223.464463 98.391874 
L 227.563636 95.779365 
L 231.66281 93.854887 
L 235.761983 93.408977 
L 239.861157 94.597455 
L 243.960331 95.902933 
L 248.059504 99.717985 
L 252.158678 102.903271 
L 256.257851 106.081104 
L 260.357025 109.194659 
L 264.456198 111.31552 
L 268.555372 113.644446 
L 272.654545 115.700009 
L 276.753719 117.172324 
L 280.852893 118.797381 
L 284.952066 119.839337 
L 289.05124 121.342852 
L 293.150413 121.916141 
L 297.249587 123.478574 
L 301.34876 123.62546 
L 305.447934 125.205426 
L 309.547107 125.196559 
L 313.646281 126.495886 
L 317.745455 126.715122 
L 321.844628 127.434685 
L 325.943802 128.143563 
L 330.042975 128.219617 
L 334.142149 129.356697 
L 338.241322 129.065336 
L 342.340496 130.253807 
L 346.439669 130.042109 
L 350.538843 130.795388 
L 354.638017 131.065715 
L 358.73719 131.176886 
L 362.836364 131.958997 
L 366.935537 131.668697 
L 371.034711 132.625885 
L 375.133884 132.341094 
L 379.233058 132.996804 
L 383.332231 133.143868 
L 387.431405 133.200609 
L 391.530579 133.842078 
L 395.629752 133.520932 
L 399.728926 134.302921 
L 403.828099 133.983542 
L 407.927273 134.522153 
L 412.026446 134.631399 
L 416.12562 134.625039 
L 420.224793 135.202408 
L 424.323967 134.883828 
L 428.42314 135.532781 
L 432.522314 135.379011 
L 436.621488 135.658011 
L 440.720661 135.793149 
L 444.819835 135.686225 
L 448.919008 136.191327 
L 453.018182 135.914224 
L 457.117355 136.400886 
L 461.216529 136.262445 
L 465.315702 136.536445 
L 469.414876 136.707798 
L 473.51405 136.702554 
L 477.613223 137.048806 
L 481.712397 136.691711 
L 485.81157 137.116195 
L 489.910744 137.203268 
L 494.009917 137.198675 
L 498.109091 137.417351 
" style="fill:none;stroke:#1f77b4;stroke-linecap:square;stroke-width:1.5;"/>
   </g>
   <g id="line2d_15">
    <path clip-path="url(#pe5ec5a8588)" d="M 92.290909 266.752218 
L 96.390083 241.111721 
L 100.489256 220.751753 
L 104.58843 204.610231 
L 108.687603 191.6931 
L 112.786777 181.19247 
L 116.88595 172.501307 
L 120.985124 165.181094 
L 125.084298 158.918388 
L 129.183471 153.485281 
L 133.282645 148.705204 
L 137.381818 144.420113 
L 141.480992 140.459738 
L 145.580165 136.628945 
L 149.679339 132.74045 
L 153.778512 128.694898 
L 157.877686 124.552938 
L 161.97686 120.527321 
L 166.076033 116.896223 
L 170.175207 113.842873 
L 174.27438 111.388035 
L 178.373554 109.476208 
L 182.472727 107.786595 
L 186.571901 106.20224 
L 190.671074 104.482012 
L 194.770248 102.444062 
L 198.869421 100.129036 
L 202.968595 97.663043 
L 207.067769 95.313274 
L 211.166942 92.971158 
L 215.266116 90.968341 
L 219.365289 88.485012 
L 223.464463 86.220552 
L 227.563636 83.867195 
L 231.66281 81.578319 
L 235.761983 80.947398 
L 239.861157 81.712971 
L 243.960331 83.815587 
L 248.059504 86.754567 
L 252.158678 89.875517 
L 256.257851 92.421833 
L 260.357025 94.689097 
L 264.456198 96.702711 
L 268.555372 98.365111 
L 272.654545 99.650491 
L 276.753719 100.674565 
L 280.852893 101.765903 
L 284.952066 102.625389 
L 289.05124 103.390649 
L 293.150413 104.161658 
L 297.249587 104.777876 
L 301.34876 105.475706 
L 305.447934 106.00416 
L 309.547107 106.637655 
L 313.646281 107.069353 
L 317.745455 107.565722 
L 321.844628 107.852862 
L 325.943802 108.248136 
L 330.042975 108.583691 
L 334.142149 109.027014 
L 338.241322 109.349783 
L 342.340496 109.751306 
L 346.439669 109.944054 
L 350.538843 110.249144 
L 354.638017 110.400887 
L 358.73719 110.59615 
L 362.836364 111.069907 
L 366.935537 111.132176 
L 371.034711 111.421336 
L 375.133884 111.573046 
L 379.233058 111.897123 
L 383.332231 111.946915 
L 387.431405 112.366565 
L 391.530579 112.194499 
L 395.629752 112.409064 
L 399.728926 112.661977 
L 403.828099 113.271351 
L 407.927273 112.792966 
L 412.026446 112.9951 
L 416.12562 113.19084 
L 420.224793 113.481438 
L 424.323967 113.730638 
L 428.42314 113.613277 
L 432.522314 113.608619 
L 436.621488 113.562494 
L 440.720661 114.523673 
L 444.819835 113.983909 
L 448.919008 114.102285 
L 453.018182 114.032142 
L 457.117355 115.209965 
L 461.216529 114.07555 
L 465.315702 114.391484 
L 469.414876 114.311304 
L 473.51405 115.672412 
L 477.613223 114.416252 
L 481.712397 114.951678 
L 485.81157 114.929509 
L 489.910744 115.046025 
L 494.009917 114.704777 
L 498.109091 116.074592 
" style="fill:none;stroke:#ff7f0e;stroke-linecap:square;stroke-width:1.5;"/>
   </g>
   <g id="line2d_16">
    <path clip-path="url(#pe5ec5a8588)" d="M 92.290909 194.324713 
L 96.390083 178.897224 
L 100.489256 166.957228 
L 104.58843 157.406541 
L 108.687603 149.568324 
L 112.786777 143.010781 
L 116.88595 137.442733 
L 120.985124 132.657261 
L 125.084298 128.501362 
L 129.183471 124.858692 
L 133.282645 121.638768 
L 137.381818 118.767772 
L 141.480992 116.170729 
L 145.580165 113.725289 
L 149.679339 111.201773 
L 153.778512 108.323683 
L 157.877686 105.041387 
L 161.97686 101.7195 
L 166.076033 98.893586 
L 170.175207 96.825253 
L 174.27438 95.373713 
L 178.373554 94.255847 
L 182.472727 93.278373 
L 186.571901 92.338884 
L 190.671074 91.307402 
L 194.770248 89.956952 
L 198.869421 88.128416 
L 202.968595 86.027154 
L 207.067769 84.141754 
L 211.166942 82.734501 
L 215.266116 81.559698 
L 219.365289 80.120074 
L 223.464463 78.29305 
L 227.563636 76.142731 
L 231.66281 74.158696 
L 235.761983 72.822304 
L 239.861157 73.264075 
L 243.960331 75.646814 
L 248.059504 78.588669 
L 252.158678 81.169526 
L 256.257851 83.211025 
L 260.357025 84.706151 
L 264.456198 85.839017 
L 268.555372 86.984005 
L 272.654545 87.984845 
L 276.753719 88.558564 
L 280.852893 89.343932 
L 284.952066 89.962012 
L 289.05124 90.524015 
L 293.150413 91.089674 
L 297.249587 91.558496 
L 301.34876 92.243717 
L 305.447934 92.215119 
L 309.547107 92.959798 
L 313.646281 92.986733 
L 317.745455 93.553623 
L 321.844628 93.768331 
L 325.943802 93.89111 
L 330.042975 94.477963 
L 334.142149 94.487348 
L 338.241322 95.348313 
L 342.340496 95.070342 
L 346.439669 95.084432 
L 350.538843 95.332163 
L 354.638017 95.21284 
L 358.73719 95.772561 
L 362.836364 95.589363 
L 366.935537 96.694136 
L 371.034711 96.004207 
L 375.133884 96.772701 
L 379.233058 96.800028 
L 383.332231 96.569883 
L 387.431405 97.200002 
L 391.530579 97.017077 
L 395.629752 97.005237 
L 399.728926 97.887539 
L 403.828099 96.713981 
L 407.927273 98.578226 
L 412.026446 96.920606 
L 416.12562 98.327646 
L 420.224793 97.53201 
L 424.323967 98.309757 
L 428.42314 97.615097 
L 432.522314 99.084004 
L 436.621488 97.536338 
L 440.720661 99.10613 
L 444.819835 97.910494 
L 448.919008 98.354176 
L 453.018182 98.74137 
L 457.117355 97.743958 
L 461.216529 100.443448 
L 465.315702 97.046084 
L 469.414876 101.228662 
L 473.51405 97.49813 
L 477.613223 99.952736 
L 481.712397 98.30797 
L 485.81157 99.000716 
L 489.910744 98.867389 
L 494.009917 98.936683 
L 498.109091 99.778306 
" style="fill:none;stroke:#2ca02c;stroke-linecap:square;stroke-width:1.5;"/>
   </g>
   <g id="line2d_17">
    <path clip-path="url(#pe5ec5a8588)" d="M 92.290909 140.764044 
L 96.390083 132.323712 
L 100.489256 125.529078 
L 104.58843 119.945285 
L 108.687603 115.281188 
L 112.786777 111.332818 
L 116.88595 107.952065 
L 120.985124 105.028392 
L 125.084298 102.477245 
L 129.183471 100.232047 
L 133.282645 98.24147 
L 137.381818 96.463686 
L 141.480992 94.86633 
L 145.580165 93.419374 
L 149.679339 92.046302 
L 153.778512 90.421932 
L 157.877686 88.048547 
L 161.97686 85.357703 
L 166.076033 83.465673 
L 170.175207 82.443998 
L 174.27438 81.72742 
L 178.373554 81.090208 
L 182.472727 80.494171 
L 186.571901 79.934904 
L 190.671074 79.397357 
L 194.770248 78.748865 
L 198.869421 77.541024 
L 202.968595 75.74098 
L 207.067769 74.367694 
L 211.166942 73.735266 
L 215.266116 73.34708 
L 219.365289 72.709487 
L 223.464463 71.106773 
L 227.563636 69.80993 
L 231.66281 68.371783 
L 235.761983 66.893346 
L 239.861157 66.665455 
L 243.960331 69.075629 
L 248.059504 71.617936 
L 252.158678 73.264564 
L 256.257851 74.548348 
L 260.357025 75.835389 
L 264.456198 75.919032 
L 268.555372 76.890528 
L 272.654545 77.335006 
L 276.753719 77.866827 
L 280.852893 78.322072 
L 284.952066 78.879192 
L 289.05124 79.62482 
L 293.150413 80.253448 
L 297.249587 80.663293 
L 301.34876 80.997131 
L 305.447934 81.279291 
L 309.547107 81.185478 
L 313.646281 80.844672 
L 317.745455 80.770235 
L 321.844628 81.207026 
L 325.943802 81.667139 
L 330.042975 81.778419 
L 334.142149 81.929961 
L 338.241322 82.115648 
L 342.340496 82.099932 
L 346.439669 82.248291 
L 350.538843 82.581927 
L 354.638017 82.704299 
L 358.73719 82.525246 
L 362.836364 82.741836 
L 366.935537 83.148301 
L 371.034711 83.152945 
L 375.133884 82.916938 
L 379.233058 83.046068 
L 383.332231 83.640854 
L 387.431405 83.939036 
L 391.530579 83.544379 
L 395.629752 83.285149 
L 399.728926 83.418124 
L 403.828099 83.965618 
L 407.927273 84.509684 
L 412.026446 84.141653 
L 416.12562 83.824552 
L 420.224793 83.762887 
L 424.323967 83.528924 
L 428.42314 84.003831 
L 432.522314 84.588974 
L 436.621488 84.878143 
L 440.720661 84.70157 
L 444.819835 84.175223 
L 448.919008 83.744937 
L 453.018182 83.55264 
L 457.117355 84.169501 
L 461.216529 84.639964 
L 465.315702 85.219174 
L 469.414876 85.995594 
L 473.51405 85.157705 
L 477.613223 84.162115 
L 481.712397 84.190108 
L 485.81157 84.794255 
L 489.910744 84.095922 
L 494.009917 83.932123 
L 498.109091 84.797856 
" style="fill:none;stroke:#d62728;stroke-linecap:square;stroke-width:1.5;"/>
   </g>
   <g id="line2d_18">
    <path clip-path="url(#pe5ec5a8588)" d="M 239.861157 378 
L 239.861157 51.84 
" style="fill:none;stroke:#ff0000;stroke-dasharray:5.55,2.4;stroke-dashoffset:0;stroke-width:1.5;"/>
   </g>
   <g id="patch_3">
    <path d="M 72 378 
L 72 51.84 
" style="fill:none;stroke:#000000;stroke-linecap:square;stroke-linejoin:miter;stroke-width:0.8;"/>
   </g>
   <g id="patch_4">
    <path d="M 518.4 378 
L 518.4 51.84 
" style="fill:none;stroke:#000000;stroke-linecap:square;stroke-linejoin:miter;stroke-width:0.8;"/>
   </g>
   <g id="patch_5">
    <path d="M 72 378 
L 518.4 378 
" style="fill:none;stroke:#000000;stroke-linecap:square;stroke-linejoin:miter;stroke-width:0.8;"/>
   </g>
   <g id="patch_6">
    <path d="M 72 51.84 
L 518.4 51.84 
" style="fill:none;stroke:#000000;stroke-linecap:square;stroke-linejoin:miter;stroke-width:0.8;"/>
   </g>
   <g id="legend_1">
    <g id="patch_7">
     <path d="M 360.239062 373 
L 511.4 373 
Q 513.4 373 513.4 371 
L 513.4 298.609375 
Q 513.4 296.609375 511.4 296.609375 
L 360.239062 296.609375 
Q 358.239062 296.609375 358.239062 298.609375 
L 358.239062 371 
Q 358.239062 373 360.239062 373 
z
" style="fill:#ffffff;opacity:0.8;stroke:#cccccc;stroke-linejoin:miter;"/>
    </g>
    <g id="line2d_19">
     <path d="M 362.239062 304.707812 
L 382.239062 304.707812 
" style="fill:none;stroke:#1f77b4;stroke-linecap:square;stroke-width:1.5;"/>
    </g>
    <g id="line2d_20"/>
    <g id="text_16">
     <!-- j=50 -->
     <g transform="translate(390.239062 308.207812)scale(0.1 -0.1)">
      <defs>
       <path d="M 603 3500 
L 1178 3500 
L 1178 -63 
Q 1178 -731 923 -1031 
Q 669 -1331 103 -1331 
L -116 -1331 
L -116 -844 
L 38 -844 
Q 366 -844 484 -692 
Q 603 -541 603 -63 
L 603 3500 
z
M 603 4863 
L 1178 4863 
L 1178 4134 
L 603 4134 
L 603 4863 
z
" id="DejaVuSans-6a" transform="scale(0.015625)"/>
       <path d="M 678 2906 
L 4684 2906 
L 4684 2381 
L 678 2381 
L 678 2906 
z
M 678 1631 
L 4684 1631 
L 4684 1100 
L 678 1100 
L 678 1631 
z
" id="DejaVuSans-3d" transform="scale(0.015625)"/>
       <path d="M 691 4666 
L 3169 4666 
L 3169 4134 
L 1269 4134 
L 1269 2991 
Q 1406 3038 1543 3061 
Q 1681 3084 1819 3084 
Q 2600 3084 3056 2656 
Q 3513 2228 3513 1497 
Q 3513 744 3044 326 
Q 2575 -91 1722 -91 
Q 1428 -91 1123 -41 
Q 819 9 494 109 
L 494 744 
Q 775 591 1075 516 
Q 1375 441 1709 441 
Q 2250 441 2565 725 
Q 2881 1009 2881 1497 
Q 2881 1984 2565 2268 
Q 2250 2553 1709 2553 
Q 1456 2553 1204 2497 
Q 953 2441 691 2322 
L 691 4666 
z
" id="DejaVuSans-35" transform="scale(0.015625)"/>
      </defs>
      <use xlink:href="#DejaVuSans-6a"/>
      <use x="27.783203" xlink:href="#DejaVuSans-3d"/>
      <use x="111.572266" xlink:href="#DejaVuSans-35"/>
      <use x="175.195312" xlink:href="#DejaVuSans-30"/>
     </g>
    </g>
    <g id="line2d_21">
     <path d="M 362.239062 319.385938 
L 382.239062 319.385938 
" style="fill:none;stroke:#ff7f0e;stroke-linecap:square;stroke-width:1.5;"/>
    </g>
    <g id="line2d_22"/>
    <g id="text_17">
     <!-- j=100 -->
     <g transform="translate(390.239062 322.885938)scale(0.1 -0.1)">
      <use xlink:href="#DejaVuSans-6a"/>
      <use x="27.783203" xlink:href="#DejaVuSans-3d"/>
      <use x="111.572266" xlink:href="#DejaVuSans-31"/>
      <use x="175.195312" xlink:href="#DejaVuSans-30"/>
      <use x="238.818359" xlink:href="#DejaVuSans-30"/>
     </g>
    </g>
    <g id="line2d_23">
     <path d="M 362.239062 334.064062 
L 382.239062 334.064062 
" style="fill:none;stroke:#2ca02c;stroke-linecap:square;stroke-width:1.5;"/>
    </g>
    <g id="line2d_24"/>
    <g id="text_18">
     <!-- j=200 -->
     <g transform="translate(390.239062 337.564062)scale(0.1 -0.1)">
      <use xlink:href="#DejaVuSans-6a"/>
      <use x="27.783203" xlink:href="#DejaVuSans-3d"/>
      <use x="111.572266" xlink:href="#DejaVuSans-32"/>
      <use x="175.195312" xlink:href="#DejaVuSans-30"/>
      <use x="238.818359" xlink:href="#DejaVuSans-30"/>
     </g>
    </g>
    <g id="line2d_25">
     <path d="M 362.239062 348.742188 
L 382.239062 348.742188 
" style="fill:none;stroke:#d62728;stroke-linecap:square;stroke-width:1.5;"/>
    </g>
    <g id="line2d_26"/>
    <g id="text_19">
     <!-- j=500 -->
     <g transform="translate(390.239062 352.242188)scale(0.1 -0.1)">
      <use xlink:href="#DejaVuSans-6a"/>
      <use x="27.783203" xlink:href="#DejaVuSans-3d"/>
      <use x="111.572266" xlink:href="#DejaVuSans-35"/>
      <use x="175.195312" xlink:href="#DejaVuSans-30"/>
      <use x="238.818359" xlink:href="#DejaVuSans-30"/>
     </g>
    </g>
    <g id="line2d_27">
     <path d="M 362.239062 363.420313 
L 382.239062 363.420313 
" style="fill:none;stroke:#ff0000;stroke-dasharray:5.55,2.4;stroke-dashoffset:0;stroke-width:1.5;"/>
    </g>
    <g id="line2d_28"/>
    <g id="text_20">
     <!-- Dynamical Critical Point -->
     <g transform="translate(390.239062 366.920313)scale(0.1 -0.1)">
      <defs>
       <path d="M 1259 4147 
L 1259 519 
L 2022 519 
Q 2988 519 3436 956 
Q 3884 1394 3884 2338 
Q 3884 3275 3436 3711 
Q 2988 4147 2022 4147 
L 1259 4147 
z
M 628 4666 
L 1925 4666 
Q 3281 4666 3915 4102 
Q 4550 3538 4550 2338 
Q 4550 1131 3912 565 
Q 3275 0 1925 0 
L 628 0 
L 628 4666 
z
" id="DejaVuSans-44" transform="scale(0.015625)"/>
       <path d="M 2059 -325 
Q 1816 -950 1584 -1140 
Q 1353 -1331 966 -1331 
L 506 -1331 
L 506 -850 
L 844 -850 
Q 1081 -850 1212 -737 
Q 1344 -625 1503 -206 
L 1606 56 
L 191 3500 
L 800 3500 
L 1894 763 
L 2988 3500 
L 3597 3500 
L 2059 -325 
z
" id="DejaVuSans-79" transform="scale(0.015625)"/>
       <path d="M 3513 2113 
L 3513 0 
L 2938 0 
L 2938 2094 
Q 2938 2591 2744 2837 
Q 2550 3084 2163 3084 
Q 1697 3084 1428 2787 
Q 1159 2491 1159 1978 
L 1159 0 
L 581 0 
L 581 3500 
L 1159 3500 
L 1159 2956 
Q 1366 3272 1645 3428 
Q 1925 3584 2291 3584 
Q 2894 3584 3203 3211 
Q 3513 2838 3513 2113 
z
" id="DejaVuSans-6e" transform="scale(0.015625)"/>
       <path d="M 2194 1759 
Q 1497 1759 1228 1600 
Q 959 1441 959 1056 
Q 959 750 1161 570 
Q 1363 391 1709 391 
Q 2188 391 2477 730 
Q 2766 1069 2766 1631 
L 2766 1759 
L 2194 1759 
z
M 3341 1997 
L 3341 0 
L 2766 0 
L 2766 531 
Q 2569 213 2275 61 
Q 1981 -91 1556 -91 
Q 1019 -91 701 211 
Q 384 513 384 1019 
Q 384 1609 779 1909 
Q 1175 2209 1959 2209 
L 2766 2209 
L 2766 2266 
Q 2766 2663 2505 2880 
Q 2244 3097 1772 3097 
Q 1472 3097 1187 3025 
Q 903 2953 641 2809 
L 641 3341 
Q 956 3463 1253 3523 
Q 1550 3584 1831 3584 
Q 2591 3584 2966 3190 
Q 3341 2797 3341 1997 
z
" id="DejaVuSans-61" transform="scale(0.015625)"/>
       <path d="M 3328 2828 
Q 3544 3216 3844 3400 
Q 4144 3584 4550 3584 
Q 5097 3584 5394 3201 
Q 5691 2819 5691 2113 
L 5691 0 
L 5113 0 
L 5113 2094 
Q 5113 2597 4934 2840 
Q 4756 3084 4391 3084 
Q 3944 3084 3684 2787 
Q 3425 2491 3425 1978 
L 3425 0 
L 2847 0 
L 2847 2094 
Q 2847 2600 2669 2842 
Q 2491 3084 2119 3084 
Q 1678 3084 1418 2786 
Q 1159 2488 1159 1978 
L 1159 0 
L 581 0 
L 581 3500 
L 1159 3500 
L 1159 2956 
Q 1356 3278 1631 3431 
Q 1906 3584 2284 3584 
Q 2666 3584 2933 3390 
Q 3200 3197 3328 2828 
z
" id="DejaVuSans-6d" transform="scale(0.015625)"/>
       <path d="M 603 3500 
L 1178 3500 
L 1178 0 
L 603 0 
L 603 3500 
z
M 603 4863 
L 1178 4863 
L 1178 4134 
L 603 4134 
L 603 4863 
z
" id="DejaVuSans-69" transform="scale(0.015625)"/>
       <path d="M 3122 3366 
L 3122 2828 
Q 2878 2963 2633 3030 
Q 2388 3097 2138 3097 
Q 1578 3097 1268 2742 
Q 959 2388 959 1747 
Q 959 1106 1268 751 
Q 1578 397 2138 397 
Q 2388 397 2633 464 
Q 2878 531 3122 666 
L 3122 134 
Q 2881 22 2623 -34 
Q 2366 -91 2075 -91 
Q 1284 -91 818 406 
Q 353 903 353 1747 
Q 353 2603 823 3093 
Q 1294 3584 2113 3584 
Q 2378 3584 2631 3529 
Q 2884 3475 3122 3366 
z
" id="DejaVuSans-63" transform="scale(0.015625)"/>
       <path d="M 603 4863 
L 1178 4863 
L 1178 0 
L 603 0 
L 603 4863 
z
" id="DejaVuSans-6c" transform="scale(0.015625)"/>
       <path id="DejaVuSans-20" transform="scale(0.015625)"/>
       <path d="M 4122 4306 
L 4122 3641 
Q 3803 3938 3442 4084 
Q 3081 4231 2675 4231 
Q 1875 4231 1450 3742 
Q 1025 3253 1025 2328 
Q 1025 1406 1450 917 
Q 1875 428 2675 428 
Q 3081 428 3442 575 
Q 3803 722 4122 1019 
L 4122 359 
Q 3791 134 3420 21 
Q 3050 -91 2638 -91 
Q 1578 -91 968 557 
Q 359 1206 359 2328 
Q 359 3453 968 4101 
Q 1578 4750 2638 4750 
Q 3056 4750 3426 4639 
Q 3797 4528 4122 4306 
z
" id="DejaVuSans-43" transform="scale(0.015625)"/>
       <path d="M 2631 2963 
Q 2534 3019 2420 3045 
Q 2306 3072 2169 3072 
Q 1681 3072 1420 2755 
Q 1159 2438 1159 1844 
L 1159 0 
L 581 0 
L 581 3500 
L 1159 3500 
L 1159 2956 
Q 1341 3275 1631 3429 
Q 1922 3584 2338 3584 
Q 2397 3584 2469 3576 
Q 2541 3569 2628 3553 
L 2631 2963 
z
" id="DejaVuSans-72" transform="scale(0.015625)"/>
       <path d="M 1172 4494 
L 1172 3500 
L 2356 3500 
L 2356 3053 
L 1172 3053 
L 1172 1153 
Q 1172 725 1289 603 
Q 1406 481 1766 481 
L 2356 481 
L 2356 0 
L 1766 0 
Q 1100 0 847 248 
Q 594 497 594 1153 
L 594 3053 
L 172 3053 
L 172 3500 
L 594 3500 
L 594 4494 
L 1172 4494 
z
" id="DejaVuSans-74" transform="scale(0.015625)"/>
       <path d="M 1259 4147 
L 1259 2394 
L 2053 2394 
Q 2494 2394 2734 2622 
Q 2975 2850 2975 3272 
Q 2975 3691 2734 3919 
Q 2494 4147 2053 4147 
L 1259 4147 
z
M 628 4666 
L 2053 4666 
Q 2838 4666 3239 4311 
Q 3641 3956 3641 3272 
Q 3641 2581 3239 2228 
Q 2838 1875 2053 1875 
L 1259 1875 
L 1259 0 
L 628 0 
L 628 4666 
z
" id="DejaVuSans-50" transform="scale(0.015625)"/>
       <path d="M 1959 3097 
Q 1497 3097 1228 2736 
Q 959 2375 959 1747 
Q 959 1119 1226 758 
Q 1494 397 1959 397 
Q 2419 397 2687 759 
Q 2956 1122 2956 1747 
Q 2956 2369 2687 2733 
Q 2419 3097 1959 3097 
z
M 1959 3584 
Q 2709 3584 3137 3096 
Q 3566 2609 3566 1747 
Q 3566 888 3137 398 
Q 2709 -91 1959 -91 
Q 1206 -91 779 398 
Q 353 888 353 1747 
Q 353 2609 779 3096 
Q 1206 3584 1959 3584 
z
" id="DejaVuSans-6f" transform="scale(0.015625)"/>
      </defs>
      <use xlink:href="#DejaVuSans-44"/>
      <use x="77.001953" xlink:href="#DejaVuSans-79"/>
      <use x="136.181641" xlink:href="#DejaVuSans-6e"/>
      <use x="199.560547" xlink:href="#DejaVuSans-61"/>
      <use x="260.839844" xlink:href="#DejaVuSans-6d"/>
      <use x="358.251953" xlink:href="#DejaVuSans-69"/>
      <use x="386.035156" xlink:href="#DejaVuSans-63"/>
      <use x="441.015625" xlink:href="#DejaVuSans-61"/>
      <use x="502.294922" xlink:href="#DejaVuSans-6c"/>
      <use x="530.078125" xlink:href="#DejaVuSans-20"/>
      <use x="561.865234" xlink:href="#DejaVuSans-43"/>
      <use x="631.689453" xlink:href="#DejaVuSans-72"/>
      <use x="672.802734" xlink:href="#DejaVuSans-69"/>
      <use x="700.585938" xlink:href="#DejaVuSans-74"/>
      <use x="739.794922" xlink:href="#DejaVuSans-69"/>
      <use x="767.578125" xlink:href="#DejaVuSans-63"/>
      <use x="822.558594" xlink:href="#DejaVuSans-61"/>
      <use x="883.837891" xlink:href="#DejaVuSans-6c"/>
      <use x="911.621094" xlink:href="#DejaVuSans-20"/>
      <use x="943.408203" xlink:href="#DejaVuSans-50"/>
      <use x="1000.085938" xlink:href="#DejaVuSans-6f"/>
      <use x="1061.267578" xlink:href="#DejaVuSans-69"/>
      <use x="1089.050781" xlink:href="#DejaVuSans-6e"/>
      <use x="1152.429688" xlink:href="#DejaVuSans-74"/>
     </g>
    </g>
   </g>
  </g>
 </g>
 <defs>
  <clipPath id="pe5ec5a8588">
   <rect height="326.16" width="446.4" x="72" y="51.84"/>
  </clipPath>
 </defs>
</svg>
