<?xml version="1.0" encoding="utf-8" standalone="no"?>
<!DOCTYPE svg PUBLIC "-//W3C//DTD SVG 1.1//EN"
  "http://www.w3.org/Graphics/SVG/1.1/DTD/svg11.dtd">
<svg height="288pt" version="1.1" viewBox="0 0 432 288" width="432pt" xmlns="http://www.w3.org/2000/svg" xmlns:xlink="http://www.w3.org/1999/xlink">
 <metadata>
  <rdf:RDF xmlns:cc="http://creativecommons.org/ns#" xmlns:dc="http://purl.org/dc/elements/1.1/" xmlns:rdf="http://www.w3.org/1999/02/22-rdf-syntax-ns#">
   <cc:Work>
    <dc:type rdf:resource="http://purl.org/dc/dcmitype/StillImage"/>
    <dc:date>2023-06-15T12:31:41.501068</dc:date>
    <dc:format>image/svg+xml</dc:format>
    <dc:creator>
     <cc:Agent>
      <dc:title>Matplotlib v3.4.3, https://matplotlib.org/</dc:title>
     </cc:Agent>
    </dc:creator>
   </cc:Work>
  </rdf:RDF>
 </metadata>
 <defs>
  <style type="text/css">*{stroke-linecap:butt;stroke-linejoin:round;}</style>
 </defs>
 <g id="figure_1">
  <g id="patch_1">
   <path d="M 0 288 
L 432 288 
L 432 0 
L 0 0 
z
" style="fill:#ffffff;"/>
  </g>
  <g id="axes_1">
   <g id="patch_2">
    <path d="M 54 252 
L 388.8 252 
L 388.8 34.56 
L 54 34.56 
z
" style="fill:#ffffff;"/>
   </g>
   <g id="matplotlib.axis_1">
    <g id="xtick_1">
     <g id="line2d_1">
      <defs>
       <path d="M 0 0 
L 0 3.5 
" id="mf10b5831b9" style="stroke:#000000;stroke-width:0.8;"/>
      </defs>
      <g>
       <use style="stroke:#000000;stroke-width:0.8;" x="69.218182" xlink:href="#mf10b5831b9" y="252"/>
      </g>
     </g>
     <g id="text_1">
      <!-- 0.1 -->
      <g transform="translate(61.266619 266.598437)scale(0.1 -0.1)">
       <defs>
        <path d="M 2034 4250 
Q 1547 4250 1301 3770 
Q 1056 3291 1056 2328 
Q 1056 1369 1301 889 
Q 1547 409 2034 409 
Q 2525 409 2770 889 
Q 3016 1369 3016 2328 
Q 3016 3291 2770 3770 
Q 2525 4250 2034 4250 
z
M 2034 4750 
Q 2819 4750 3233 4129 
Q 3647 3509 3647 2328 
Q 3647 1150 3233 529 
Q 2819 -91 2034 -91 
Q 1250 -91 836 529 
Q 422 1150 422 2328 
Q 422 3509 836 4129 
Q 1250 4750 2034 4750 
z
" id="DejaVuSans-30" transform="scale(0.015625)"/>
        <path d="M 684 794 
L 1344 794 
L 1344 0 
L 684 0 
L 684 794 
z
" id="DejaVuSans-2e" transform="scale(0.015625)"/>
        <path d="M 794 531 
L 1825 531 
L 1825 4091 
L 703 3866 
L 703 4441 
L 1819 4666 
L 2450 4666 
L 2450 531 
L 3481 531 
L 3481 0 
L 794 0 
L 794 531 
z
" id="DejaVuSans-31" transform="scale(0.015625)"/>
       </defs>
       <use xlink:href="#DejaVuSans-30"/>
       <use x="63.623047" xlink:href="#DejaVuSans-2e"/>
       <use x="95.410156" xlink:href="#DejaVuSans-31"/>
      </g>
     </g>
    </g>
    <g id="xtick_2">
     <g id="line2d_2">
      <g>
       <use style="stroke:#000000;stroke-width:0.8;" x="112.698701" xlink:href="#mf10b5831b9" y="252"/>
      </g>
     </g>
     <g id="text_2">
      <!-- 0.2 -->
      <g transform="translate(104.747139 266.598437)scale(0.1 -0.1)">
       <defs>
        <path d="M 1228 531 
L 3431 531 
L 3431 0 
L 469 0 
L 469 531 
Q 828 903 1448 1529 
Q 2069 2156 2228 2338 
Q 2531 2678 2651 2914 
Q 2772 3150 2772 3378 
Q 2772 3750 2511 3984 
Q 2250 4219 1831 4219 
Q 1534 4219 1204 4116 
Q 875 4013 500 3803 
L 500 4441 
Q 881 4594 1212 4672 
Q 1544 4750 1819 4750 
Q 2544 4750 2975 4387 
Q 3406 4025 3406 3419 
Q 3406 3131 3298 2873 
Q 3191 2616 2906 2266 
Q 2828 2175 2409 1742 
Q 1991 1309 1228 531 
z
" id="DejaVuSans-32" transform="scale(0.015625)"/>
       </defs>
       <use xlink:href="#DejaVuSans-30"/>
       <use x="63.623047" xlink:href="#DejaVuSans-2e"/>
       <use x="95.410156" xlink:href="#DejaVuSans-32"/>
      </g>
     </g>
    </g>
    <g id="xtick_3">
     <g id="line2d_3">
      <g>
       <use style="stroke:#000000;stroke-width:0.8;" x="156.179221" xlink:href="#mf10b5831b9" y="252"/>
      </g>
     </g>
     <g id="text_3">
      <!-- 0.3 -->
      <g transform="translate(148.227658 266.598437)scale(0.1 -0.1)">
       <defs>
        <path d="M 2597 2516 
Q 3050 2419 3304 2112 
Q 3559 1806 3559 1356 
Q 3559 666 3084 287 
Q 2609 -91 1734 -91 
Q 1441 -91 1130 -33 
Q 819 25 488 141 
L 488 750 
Q 750 597 1062 519 
Q 1375 441 1716 441 
Q 2309 441 2620 675 
Q 2931 909 2931 1356 
Q 2931 1769 2642 2001 
Q 2353 2234 1838 2234 
L 1294 2234 
L 1294 2753 
L 1863 2753 
Q 2328 2753 2575 2939 
Q 2822 3125 2822 3475 
Q 2822 3834 2567 4026 
Q 2313 4219 1838 4219 
Q 1578 4219 1281 4162 
Q 984 4106 628 3988 
L 628 4550 
Q 988 4650 1302 4700 
Q 1616 4750 1894 4750 
Q 2613 4750 3031 4423 
Q 3450 4097 3450 3541 
Q 3450 3153 3228 2886 
Q 3006 2619 2597 2516 
z
" id="DejaVuSans-33" transform="scale(0.015625)"/>
       </defs>
       <use xlink:href="#DejaVuSans-30"/>
       <use x="63.623047" xlink:href="#DejaVuSans-2e"/>
       <use x="95.410156" xlink:href="#DejaVuSans-33"/>
      </g>
     </g>
    </g>
    <g id="xtick_4">
     <g id="line2d_4">
      <g>
       <use style="stroke:#000000;stroke-width:0.8;" x="199.65974" xlink:href="#mf10b5831b9" y="252"/>
      </g>
     </g>
     <g id="text_4">
      <!-- 0.4 -->
      <g transform="translate(191.708178 266.598437)scale(0.1 -0.1)">
       <defs>
        <path d="M 2419 4116 
L 825 1625 
L 2419 1625 
L 2419 4116 
z
M 2253 4666 
L 3047 4666 
L 3047 1625 
L 3713 1625 
L 3713 1100 
L 3047 1100 
L 3047 0 
L 2419 0 
L 2419 1100 
L 313 1100 
L 313 1709 
L 2253 4666 
z
" id="DejaVuSans-34" transform="scale(0.015625)"/>
       </defs>
       <use xlink:href="#DejaVuSans-30"/>
       <use x="63.623047" xlink:href="#DejaVuSans-2e"/>
       <use x="95.410156" xlink:href="#DejaVuSans-34"/>
      </g>
     </g>
    </g>
    <g id="xtick_5">
     <g id="line2d_5">
      <g>
       <use style="stroke:#000000;stroke-width:0.8;" x="243.14026" xlink:href="#mf10b5831b9" y="252"/>
      </g>
     </g>
     <g id="text_5">
      <!-- 0.5 -->
      <g transform="translate(235.188697 266.598437)scale(0.1 -0.1)">
       <defs>
        <path d="M 691 4666 
L 3169 4666 
L 3169 4134 
L 1269 4134 
L 1269 2991 
Q 1406 3038 1543 3061 
Q 1681 3084 1819 3084 
Q 2600 3084 3056 2656 
Q 3513 2228 3513 1497 
Q 3513 744 3044 326 
Q 2575 -91 1722 -91 
Q 1428 -91 1123 -41 
Q 819 9 494 109 
L 494 744 
Q 775 591 1075 516 
Q 1375 441 1709 441 
Q 2250 441 2565 725 
Q 2881 1009 2881 1497 
Q 2881 1984 2565 2268 
Q 2250 2553 1709 2553 
Q 1456 2553 1204 2497 
Q 953 2441 691 2322 
L 691 4666 
z
" id="DejaVuSans-35" transform="scale(0.015625)"/>
       </defs>
       <use xlink:href="#DejaVuSans-30"/>
       <use x="63.623047" xlink:href="#DejaVuSans-2e"/>
       <use x="95.410156" xlink:href="#DejaVuSans-35"/>
      </g>
     </g>
    </g>
    <g id="xtick_6">
     <g id="line2d_6">
      <g>
       <use style="stroke:#000000;stroke-width:0.8;" x="286.620779" xlink:href="#mf10b5831b9" y="252"/>
      </g>
     </g>
     <g id="text_6">
      <!-- 0.6 -->
      <g transform="translate(278.669217 266.598437)scale(0.1 -0.1)">
       <defs>
        <path d="M 2113 2584 
Q 1688 2584 1439 2293 
Q 1191 2003 1191 1497 
Q 1191 994 1439 701 
Q 1688 409 2113 409 
Q 2538 409 2786 701 
Q 3034 994 3034 1497 
Q 3034 2003 2786 2293 
Q 2538 2584 2113 2584 
z
M 3366 4563 
L 3366 3988 
Q 3128 4100 2886 4159 
Q 2644 4219 2406 4219 
Q 1781 4219 1451 3797 
Q 1122 3375 1075 2522 
Q 1259 2794 1537 2939 
Q 1816 3084 2150 3084 
Q 2853 3084 3261 2657 
Q 3669 2231 3669 1497 
Q 3669 778 3244 343 
Q 2819 -91 2113 -91 
Q 1303 -91 875 529 
Q 447 1150 447 2328 
Q 447 3434 972 4092 
Q 1497 4750 2381 4750 
Q 2619 4750 2861 4703 
Q 3103 4656 3366 4563 
z
" id="DejaVuSans-36" transform="scale(0.015625)"/>
       </defs>
       <use xlink:href="#DejaVuSans-30"/>
       <use x="63.623047" xlink:href="#DejaVuSans-2e"/>
       <use x="95.410156" xlink:href="#DejaVuSans-36"/>
      </g>
     </g>
    </g>
    <g id="xtick_7">
     <g id="line2d_7">
      <g>
       <use style="stroke:#000000;stroke-width:0.8;" x="330.101299" xlink:href="#mf10b5831b9" y="252"/>
      </g>
     </g>
     <g id="text_7">
      <!-- 0.7 -->
      <g transform="translate(322.149736 266.598437)scale(0.1 -0.1)">
       <defs>
        <path d="M 525 4666 
L 3525 4666 
L 3525 4397 
L 1831 0 
L 1172 0 
L 2766 4134 
L 525 4134 
L 525 4666 
z
" id="DejaVuSans-37" transform="scale(0.015625)"/>
       </defs>
       <use xlink:href="#DejaVuSans-30"/>
       <use x="63.623047" xlink:href="#DejaVuSans-2e"/>
       <use x="95.410156" xlink:href="#DejaVuSans-37"/>
      </g>
     </g>
    </g>
    <g id="xtick_8">
     <g id="line2d_8">
      <g>
       <use style="stroke:#000000;stroke-width:0.8;" x="373.581818" xlink:href="#mf10b5831b9" y="252"/>
      </g>
     </g>
     <g id="text_8">
      <!-- 0.8 -->
      <g transform="translate(365.630256 266.598437)scale(0.1 -0.1)">
       <defs>
        <path d="M 2034 2216 
Q 1584 2216 1326 1975 
Q 1069 1734 1069 1313 
Q 1069 891 1326 650 
Q 1584 409 2034 409 
Q 2484 409 2743 651 
Q 3003 894 3003 1313 
Q 3003 1734 2745 1975 
Q 2488 2216 2034 2216 
z
M 1403 2484 
Q 997 2584 770 2862 
Q 544 3141 544 3541 
Q 544 4100 942 4425 
Q 1341 4750 2034 4750 
Q 2731 4750 3128 4425 
Q 3525 4100 3525 3541 
Q 3525 3141 3298 2862 
Q 3072 2584 2669 2484 
Q 3125 2378 3379 2068 
Q 3634 1759 3634 1313 
Q 3634 634 3220 271 
Q 2806 -91 2034 -91 
Q 1263 -91 848 271 
Q 434 634 434 1313 
Q 434 1759 690 2068 
Q 947 2378 1403 2484 
z
M 1172 3481 
Q 1172 3119 1398 2916 
Q 1625 2713 2034 2713 
Q 2441 2713 2670 2916 
Q 2900 3119 2900 3481 
Q 2900 3844 2670 4047 
Q 2441 4250 2034 4250 
Q 1625 4250 1398 4047 
Q 1172 3844 1172 3481 
z
" id="DejaVuSans-38" transform="scale(0.015625)"/>
       </defs>
       <use xlink:href="#DejaVuSans-30"/>
       <use x="63.623047" xlink:href="#DejaVuSans-2e"/>
       <use x="95.410156" xlink:href="#DejaVuSans-38"/>
      </g>
     </g>
    </g>
    <g id="text_9">
     <!-- h -->
     <g transform="translate(216.96375 283.315938)scale(0.14 -0.14)">
      <defs>
       <path d="M 3513 2113 
L 3513 0 
L 2938 0 
L 2938 2094 
Q 2938 2591 2744 2837 
Q 2550 3084 2163 3084 
Q 1697 3084 1428 2787 
Q 1159 2491 1159 1978 
L 1159 0 
L 581 0 
L 581 4863 
L 1159 4863 
L 1159 2956 
Q 1366 3272 1645 3428 
Q 1925 3584 2291 3584 
Q 2894 3584 3203 3211 
Q 3513 2838 3513 2113 
z
" id="DejaVuSans-68" transform="scale(0.015625)"/>
      </defs>
      <use xlink:href="#DejaVuSans-68"/>
     </g>
    </g>
   </g>
   <g id="matplotlib.axis_2">
    <g id="ytick_1">
     <g id="line2d_9">
      <defs>
       <path d="M 0 0 
L -3.5 0 
" id="me1a9f66f3e" style="stroke:#000000;stroke-width:0.8;"/>
      </defs>
      <g>
       <use style="stroke:#000000;stroke-width:0.8;" x="54" xlink:href="#me1a9f66f3e" y="248.669856"/>
      </g>
     </g>
     <g id="text_10">
      <!-- 1.2 -->
      <g transform="translate(31.096875 252.469075)scale(0.1 -0.1)">
       <use xlink:href="#DejaVuSans-31"/>
       <use x="63.623047" xlink:href="#DejaVuSans-2e"/>
       <use x="95.410156" xlink:href="#DejaVuSans-32"/>
      </g>
     </g>
    </g>
    <g id="ytick_2">
     <g id="line2d_10">
      <g>
       <use style="stroke:#000000;stroke-width:0.8;" x="54" xlink:href="#me1a9f66f3e" y="221.889305"/>
      </g>
     </g>
     <g id="text_11">
      <!-- 1.3 -->
      <g transform="translate(31.096875 225.688524)scale(0.1 -0.1)">
       <use xlink:href="#DejaVuSans-31"/>
       <use x="63.623047" xlink:href="#DejaVuSans-2e"/>
       <use x="95.410156" xlink:href="#DejaVuSans-33"/>
      </g>
     </g>
    </g>
    <g id="ytick_3">
     <g id="line2d_11">
      <g>
       <use style="stroke:#000000;stroke-width:0.8;" x="54" xlink:href="#me1a9f66f3e" y="195.108754"/>
      </g>
     </g>
     <g id="text_12">
      <!-- 1.4 -->
      <g transform="translate(31.096875 198.907972)scale(0.1 -0.1)">
       <use xlink:href="#DejaVuSans-31"/>
       <use x="63.623047" xlink:href="#DejaVuSans-2e"/>
       <use x="95.410156" xlink:href="#DejaVuSans-34"/>
      </g>
     </g>
    </g>
    <g id="ytick_4">
     <g id="line2d_12">
      <g>
       <use style="stroke:#000000;stroke-width:0.8;" x="54" xlink:href="#me1a9f66f3e" y="168.328202"/>
      </g>
     </g>
     <g id="text_13">
      <!-- 1.5 -->
      <g transform="translate(31.096875 172.127421)scale(0.1 -0.1)">
       <use xlink:href="#DejaVuSans-31"/>
       <use x="63.623047" xlink:href="#DejaVuSans-2e"/>
       <use x="95.410156" xlink:href="#DejaVuSans-35"/>
      </g>
     </g>
    </g>
    <g id="ytick_5">
     <g id="line2d_13">
      <g>
       <use style="stroke:#000000;stroke-width:0.8;" x="54" xlink:href="#me1a9f66f3e" y="141.547651"/>
      </g>
     </g>
     <g id="text_14">
      <!-- 1.6 -->
      <g transform="translate(31.096875 145.34687)scale(0.1 -0.1)">
       <use xlink:href="#DejaVuSans-31"/>
       <use x="63.623047" xlink:href="#DejaVuSans-2e"/>
       <use x="95.410156" xlink:href="#DejaVuSans-36"/>
      </g>
     </g>
    </g>
    <g id="ytick_6">
     <g id="line2d_14">
      <g>
       <use style="stroke:#000000;stroke-width:0.8;" x="54" xlink:href="#me1a9f66f3e" y="114.7671"/>
      </g>
     </g>
     <g id="text_15">
      <!-- 1.7 -->
      <g transform="translate(31.096875 118.566319)scale(0.1 -0.1)">
       <use xlink:href="#DejaVuSans-31"/>
       <use x="63.623047" xlink:href="#DejaVuSans-2e"/>
       <use x="95.410156" xlink:href="#DejaVuSans-37"/>
      </g>
     </g>
    </g>
    <g id="ytick_7">
     <g id="line2d_15">
      <g>
       <use style="stroke:#000000;stroke-width:0.8;" x="54" xlink:href="#me1a9f66f3e" y="87.986549"/>
      </g>
     </g>
     <g id="text_16">
      <!-- 1.8 -->
      <g transform="translate(31.096875 91.785767)scale(0.1 -0.1)">
       <use xlink:href="#DejaVuSans-31"/>
       <use x="63.623047" xlink:href="#DejaVuSans-2e"/>
       <use x="95.410156" xlink:href="#DejaVuSans-38"/>
      </g>
     </g>
    </g>
    <g id="ytick_8">
     <g id="line2d_16">
      <g>
       <use style="stroke:#000000;stroke-width:0.8;" x="54" xlink:href="#me1a9f66f3e" y="61.205997"/>
      </g>
     </g>
     <g id="text_17">
      <!-- 1.9 -->
      <g transform="translate(31.096875 65.005216)scale(0.1 -0.1)">
       <defs>
        <path d="M 703 97 
L 703 672 
Q 941 559 1184 500 
Q 1428 441 1663 441 
Q 2288 441 2617 861 
Q 2947 1281 2994 2138 
Q 2813 1869 2534 1725 
Q 2256 1581 1919 1581 
Q 1219 1581 811 2004 
Q 403 2428 403 3163 
Q 403 3881 828 4315 
Q 1253 4750 1959 4750 
Q 2769 4750 3195 4129 
Q 3622 3509 3622 2328 
Q 3622 1225 3098 567 
Q 2575 -91 1691 -91 
Q 1453 -91 1209 -44 
Q 966 3 703 97 
z
M 1959 2075 
Q 2384 2075 2632 2365 
Q 2881 2656 2881 3163 
Q 2881 3666 2632 3958 
Q 2384 4250 1959 4250 
Q 1534 4250 1286 3958 
Q 1038 3666 1038 3163 
Q 1038 2656 1286 2365 
Q 1534 2075 1959 2075 
z
" id="DejaVuSans-39" transform="scale(0.015625)"/>
       </defs>
       <use xlink:href="#DejaVuSans-31"/>
       <use x="63.623047" xlink:href="#DejaVuSans-2e"/>
       <use x="95.410156" xlink:href="#DejaVuSans-39"/>
      </g>
     </g>
    </g>
    <g id="text_18">
     <!-- $\overline{s\left(\frac{2}{\pi}\mathcal{L} \right)}$ -->
     <g transform="translate(23.176875 162.32)rotate(-90)scale(0.14 -0.14)">
      <defs>
       <path d="M 3200 3397 
L 3091 2853 
Q 2863 2978 2609 3040 
Q 2356 3103 2088 3103 
Q 1634 3103 1373 2948 
Q 1113 2794 1113 2528 
Q 1113 2219 1719 2053 
Q 1766 2041 1788 2034 
L 1972 1978 
Q 2547 1819 2739 1644 
Q 2931 1469 2931 1166 
Q 2931 609 2489 259 
Q 2047 -91 1331 -91 
Q 1053 -91 747 -37 
Q 441 16 72 128 
L 184 722 
Q 500 559 806 475 
Q 1113 391 1394 391 
Q 1816 391 2080 572 
Q 2344 753 2344 1031 
Q 2344 1331 1650 1516 
L 1591 1531 
L 1394 1581 
Q 956 1697 753 1886 
Q 550 2075 550 2369 
Q 550 2928 970 3256 
Q 1391 3584 2113 3584 
Q 2397 3584 2667 3537 
Q 2938 3491 3200 3397 
z
" id="DejaVuSans-Oblique-73" transform="scale(0.015625)"/>
       <path d="M 2445 -858 
L 2445 -1050 
Q 1728 -371 1309 630 
Q 890 1632 890 2886 
Q 890 4122 1309 5136 
Q 1728 6150 2445 6822 
L 2445 6630 
Q 1408 5363 1408 2886 
Q 1408 410 2445 -858 
z
" id="STIXSizeOneSym-Regular-28" transform="scale(0.015625)"/>
       <path d="M 584 3500 
L 3938 3500 
L 3825 2925 
L 3384 2925 
L 2966 775 
Q 2922 550 2981 450 
Q 3038 353 3209 353 
Q 3256 353 3325 363 
Q 3397 369 3419 372 
L 3338 -44 
Q 3222 -84 3103 -103 
Q 2981 -122 2866 -122 
Q 2491 -122 2388 81 
Q 2284 288 2391 838 
L 2797 2925 
L 1506 2925 
L 938 0 
L 350 0 
L 919 2925 
L 472 2925 
L 584 3500 
z
" id="DejaVuSans-Oblique-3c0" transform="scale(0.015625)"/>
       <path d="M 4070 915 
L 4179 800 
Q 3347 -45 2413 -45 
Q 2157 -45 1850 26 
Q 1395 122 1146 122 
Q 1005 122 672 61 
Q 339 0 192 0 
L 230 154 
Q 582 154 730 749 
L 1178 2566 
Q 1286 3008 1516 3353 
Q 1747 3699 2025 3894 
Q 2304 4090 2585 4189 
Q 2867 4288 3123 4288 
Q 3443 4288 3593 4083 
Q 3744 3878 3744 3584 
Q 3744 3347 3593 3200 
Q 3443 3053 3226 3053 
Q 3085 3053 2995 3149 
Q 2906 3245 2906 3379 
Q 2906 3482 2957 3552 
Q 3008 3622 3065 3644 
Q 3123 3667 3174 3705 
Q 3226 3744 3226 3789 
Q 3226 4032 2854 4032 
Q 2522 4032 2310 3785 
Q 2099 3539 1990 3132 
Q 1882 2726 1795 2284 
Q 1709 1843 1549 1363 
Q 1389 883 1158 589 
L 1158 563 
Q 1363 704 1888 704 
Q 2227 704 2460 544 
Q 2694 384 2963 384 
Q 3507 384 4070 915 
z
" id="STIXNonUnicode-Italic-e238" transform="scale(0.015625)"/>
       <path d="M 550 6630 
L 550 6822 
Q 1267 6144 1686 5142 
Q 2106 4141 2106 2886 
Q 2106 1651 1686 636 
Q 1267 -378 550 -1050 
L 550 -858 
Q 1587 410 1587 2886 
Q 1587 5363 550 6630 
z
" id="STIXSizeOneSym-Regular-29" transform="scale(0.015625)"/>
      </defs>
      <use transform="translate(0 1)" xlink:href="#DejaVuSans-Oblique-73"/>
      <use transform="translate(52.099609 -9.69375)scale(0.998526)" xlink:href="#STIXSizeOneSym-Regular-28"/>
      <use transform="translate(98.826477 44.796875)scale(0.7)" xlink:href="#DejaVuSans-32"/>
      <use transform="translate(99.826477 -24.734375)scale(0.7)" xlink:href="#DejaVuSans-Oblique-3c0"/>
      <use transform="translate(155.86261 1)" xlink:href="#STIXNonUnicode-Italic-e238"/>
      <use transform="translate(225.162598 -9.69375)scale(0.998526)" xlink:href="#STIXSizeOneSym-Regular-29"/>
      <path d="M 0 108.5 
L 0 114.75 
L 271.889465 114.75 
L 271.889465 108.5 
L 0 108.5 
z
"/>
      <path d="M 98.826477 19.796875 
L 98.826477 26.046875 
L 143.36261 26.046875 
L 143.36261 19.796875 
L 98.826477 19.796875 
z
"/>
     </g>
    </g>
   </g>
   <g id="line2d_17">
    <path clip-path="url(#p1ec8e14b13)" d="M 69.218182 242.116364 
L 72.292562 224.661693 
L 75.366942 209.612764 
L 78.441322 196.676993 
L 81.515702 185.54872 
L 84.590083 175.937788 
L 87.664463 167.585774 
L 90.738843 160.272612 
L 93.813223 153.816723 
L 96.887603 148.071441 
L 99.961983 142.919792 
L 103.036364 138.268976 
L 106.110744 134.045299 
L 109.185124 130.189888 
L 112.259504 126.655264 
L 115.333884 123.402692 
L 118.408264 120.400157 
L 121.482645 117.620807 
L 124.557025 115.041768 
L 127.631405 112.643307 
L 130.705785 110.408318 
L 133.780165 108.321986 
L 136.854545 106.371405 
L 139.928926 104.545147 
L 143.003306 102.832963 
L 146.077686 101.225572 
L 149.152066 99.714373 
L 152.226446 98.291217 
L 155.300826 96.948515 
L 158.375207 95.679344 
L 161.449587 94.47668 
L 164.523967 93.331289 
L 167.598347 92.22854 
L 170.672727 91.144453 
L 173.747107 90.041003 
L 176.821488 88.86345 
L 179.895868 87.539368 
L 182.970248 85.983905 
L 186.044628 84.13555 
L 189.119008 81.95304 
L 192.193388 79.435557 
L 195.267769 76.714772 
L 198.342149 73.867363 
L 201.416529 71.105341 
L 204.490909 68.57057 
L 207.565289 66.310974 
L 210.639669 64.552144 
L 213.71405 63.077343 
L 216.78843 62.117031 
L 219.86281 60.988213 
L 222.93719 60.280346 
L 226.01157 59.460439 
L 229.08595 58.861973 
L 232.160331 58.256129 
L 235.234711 57.352358 
L 238.309091 56.968385 
L 241.383471 56.924347 
L 244.457851 57.608583 
L 247.532231 59.520973 
L 250.606612 61.483241 
L 253.680992 63.231862 
L 256.755372 65.446865 
L 259.829752 67.564761 
L 262.904132 69.008434 
L 265.978512 70.415979 
L 269.052893 71.702717 
L 272.127273 72.725413 
L 275.201653 74.373546 
L 278.276033 74.918677 
L 281.350413 76.35505 
L 284.424793 76.928669 
L 287.499174 77.783312 
L 290.573554 78.744558 
L 293.647934 78.529792 
L 296.722314 79.88401 
L 299.796694 78.87942 
L 302.871074 80.648807 
L 305.945455 79.455643 
L 309.019835 81.531189 
L 312.094215 80.530996 
L 315.168595 82.791569 
L 318.242975 81.845034 
L 321.317355 84.242615 
L 324.391736 82.925971 
L 327.466116 85.375032 
L 330.540496 83.553829 
L 333.614876 85.78464 
L 336.689256 83.92376 
L 339.763636 85.51445 
L 342.838017 84.385816 
L 345.912397 85.059084 
L 348.986777 85.076792 
L 352.061157 85.089696 
L 355.135537 85.860549 
L 358.209917 86.011843 
L 361.284298 86.527915 
L 364.358678 87.593514 
L 367.433058 86.952873 
L 370.507438 89.048799 
L 373.581818 87.177613 
" style="fill:none;stroke:#1f77b4;stroke-linecap:square;stroke-width:1.5;"/>
   </g>
   <g id="line2d_18">
    <path clip-path="url(#p1ec8e14b13)" d="M 69.218182 140.924912 
L 72.292562 133.310504 
L 75.366942 126.778076 
L 78.441322 121.096817 
L 81.515702 116.102066 
L 84.590083 111.672095 
L 87.664463 107.714098 
L 90.738843 104.155625 
L 93.813223 100.939177 
L 96.887603 98.018532 
L 99.961983 95.355892 
L 103.036364 92.91947 
L 106.110744 90.681649 
L 109.185124 88.618143 
L 112.259504 86.70841 
L 115.333884 84.93699 
L 118.408264 83.294076 
L 121.482645 81.772129 
L 124.557025 80.357788 
L 127.631405 79.027336 
L 130.705785 77.758411 
L 133.780165 76.552235 
L 136.854545 75.435031 
L 139.928926 74.425935 
L 143.003306 73.51297 
L 146.077686 72.667046 
L 149.152066 71.856728 
L 152.226446 71.051795 
L 155.300826 70.254075 
L 158.375207 69.513513 
L 161.449587 68.873067 
L 164.523967 68.309253 
L 167.598347 67.752345 
L 170.672727 67.178692 
L 173.747107 66.640163 
L 176.821488 66.166509 
L 179.895868 65.706165 
L 182.970248 65.183996 
L 186.044628 64.512345 
L 189.119008 63.513884 
L 192.193388 61.978249 
L 195.267769 59.86365 
L 198.342149 57.411476 
L 201.416529 55.055133 
L 204.490909 53.189798 
L 207.565289 51.969886 
L 210.639669 51.290896 
L 213.71405 50.942686 
L 216.78843 50.745452 
L 219.86281 50.592291 
L 222.93719 50.475626 
L 226.01157 50.253974 
L 229.08595 50.084147 
L 232.160331 49.192399 
L 235.234711 48.840939 
L 238.309091 46.770736 
L 241.383471 47.884522 
L 244.457851 46.965256 
L 247.532231 48.736707 
L 250.606612 51.349611 
L 253.680992 52.861165 
L 256.755372 54.131471 
L 259.829752 55.67522 
L 262.904132 56.777706 
L 265.978512 57.353951 
L 269.052893 57.378971 
L 272.127273 57.740665 
L 275.201653 58.57037 
L 278.276033 59.544479 
L 281.350413 60.847774 
L 284.424793 61.71584 
L 287.499174 62.474046 
L 290.573554 62.702921 
L 293.647934 62.752533 
L 296.722314 62.463431 
L 299.796694 62.450699 
L 302.871074 62.065888 
L 305.945455 62.246856 
L 309.019835 62.292895 
L 312.094215 62.929813 
L 315.168595 63.667345 
L 318.242975 64.563872 
L 321.317355 65.327735 
L 324.391736 65.877344 
L 327.466116 66.199193 
L 330.540496 66.331924 
L 333.614876 66.290643 
L 336.689256 66.061894 
L 339.763636 65.658929 
L 342.838017 65.203683 
L 345.912397 64.937151 
L 348.986777 65.038366 
L 352.061157 65.461186 
L 355.135537 66.082709 
L 358.209917 66.559787 
L 361.284298 66.890922 
L 364.358678 66.978332 
L 367.433058 67.093284 
L 370.507438 67.430024 
L 373.581818 68.04575 
" style="fill:none;stroke:#ff7f0e;stroke-linecap:square;stroke-width:1.5;"/>
   </g>
   <g id="line2d_19">
    <path clip-path="url(#p1ec8e14b13)" d="M 69.218182 115.511083 
L 72.292562 109.945431 
L 75.366942 105.113207 
L 78.441322 100.875987 
L 81.515702 97.128983 
L 84.590083 93.79107 
L 87.664463 90.798288 
L 90.738843 88.098745 
L 93.813223 85.648046 
L 96.887603 83.406748 
L 99.961983 81.342802 
L 103.036364 79.438845 
L 106.110744 77.696473 
L 109.185124 76.125494 
L 112.259504 74.717354 
L 115.333884 73.426574 
L 118.408264 72.193271 
L 121.482645 71.002078 
L 124.557025 69.909255 
L 127.631405 68.970482 
L 130.705785 68.13289 
L 133.780165 67.269341 
L 136.854545 66.357678 
L 139.928926 65.518109 
L 143.003306 64.799261 
L 146.077686 64.124307 
L 149.152066 63.534958 
L 152.226446 63.128028 
L 155.300826 62.751489 
L 158.375207 62.237995 
L 161.449587 61.670922 
L 164.523967 61.164182 
L 167.598347 60.791757 
L 170.672727 60.506371 
L 173.747107 60.172142 
L 176.821488 59.820667 
L 179.895868 59.503302 
L 182.970248 59.179686 
L 186.044628 58.836993 
L 189.119008 58.317949 
L 192.193388 57.24847 
L 195.267769 55.460826 
L 198.342149 53.180148 
L 201.416529 50.998122 
L 204.490909 49.500591 
L 207.565289 48.742976 
L 210.639669 48.432098 
L 213.71405 48.293376 
L 216.78843 48.197836 
L 219.86281 48.110841 
L 222.93719 48.025575 
L 226.01157 47.937675 
L 229.08595 47.817922 
L 232.160331 47.354733 
L 235.234711 46.421672 
L 238.309091 46.123992 
L 241.383471 44.443636 
L 244.457851 44.805059 
L 247.532231 46.137515 
L 250.606612 48.850087 
L 253.680992 50.141691 
L 256.755372 51.663463 
L 259.829752 52.883196 
L 262.904132 53.277032 
L 265.978512 53.338222 
L 269.052893 53.271407 
L 272.127273 53.380378 
L 275.201653 53.960075 
L 278.276033 54.988731 
L 281.350413 56.220091 
L 284.424793 57.209692 
L 287.499174 57.700538 
L 290.573554 57.796518 
L 293.647934 57.678359 
L 296.722314 57.445896 
L 299.796694 57.218088 
L 302.871074 57.068349 
L 305.945455 56.980289 
L 309.019835 56.976591 
L 312.094215 57.264051 
L 315.168595 58.08424 
L 318.242975 59.22943 
L 321.317355 60.078273 
L 324.391736 60.251889 
L 327.466116 60.102764 
L 330.540496 60.240605 
L 333.614876 60.674185 
L 336.689256 60.804021 
L 339.763636 60.213633 
L 342.838017 59.139056 
L 345.912397 58.350108 
L 348.986777 58.518631 
L 352.061157 59.577043 
L 355.135537 60.790955 
L 358.209917 61.423085 
L 361.284298 61.271056 
L 364.358678 60.679408 
L 367.433058 60.199039 
L 370.507438 60.230891 
L 373.581818 60.986886 
" style="fill:none;stroke:#2ca02c;stroke-linecap:square;stroke-width:1.5;"/>
   </g>
   <g id="line2d_20">
    <path clip-path="url(#p1ec8e14b13)" d="M 243.14026 252 
L 243.14026 34.56 
" style="fill:none;stroke:#ff0000;stroke-dasharray:5.55,2.4;stroke-dashoffset:0;stroke-width:1.5;"/>
   </g>
   <g id="patch_3">
    <path d="M 54 252 
L 54 34.56 
" style="fill:none;stroke:#000000;stroke-linecap:square;stroke-linejoin:miter;stroke-width:0.8;"/>
   </g>
   <g id="patch_4">
    <path d="M 388.8 252 
L 388.8 34.56 
" style="fill:none;stroke:#000000;stroke-linecap:square;stroke-linejoin:miter;stroke-width:0.8;"/>
   </g>
   <g id="patch_5">
    <path d="M 54 252 
L 388.8 252 
" style="fill:none;stroke:#000000;stroke-linecap:square;stroke-linejoin:miter;stroke-width:0.8;"/>
   </g>
   <g id="patch_6">
    <path d="M 54 34.56 
L 388.8 34.56 
" style="fill:none;stroke:#000000;stroke-linecap:square;stroke-linejoin:miter;stroke-width:0.8;"/>
   </g>
   <g id="legend_1">
    <g id="patch_7">
     <path d="M 319.554688 247 
L 381.8 247 
Q 383.8 247 383.8 245 
L 383.8 201.965625 
Q 383.8 199.965625 381.8 199.965625 
L 319.554688 199.965625 
Q 317.554688 199.965625 317.554688 201.965625 
L 317.554688 245 
Q 317.554688 247 319.554688 247 
z
" style="fill:#ffffff;opacity:0.8;stroke:#cccccc;stroke-linejoin:miter;"/>
    </g>
    <g id="line2d_21">
     <path d="M 321.554688 208.064063 
L 341.554688 208.064063 
" style="fill:none;stroke:#1f77b4;stroke-linecap:square;stroke-width:1.5;"/>
    </g>
    <g id="line2d_22"/>
    <g id="text_19">
     <!-- j=100 -->
     <g transform="translate(349.554688 211.564063)scale(0.1 -0.1)">
      <defs>
       <path d="M 603 3500 
L 1178 3500 
L 1178 -63 
Q 1178 -731 923 -1031 
Q 669 -1331 103 -1331 
L -116 -1331 
L -116 -844 
L 38 -844 
Q 366 -844 484 -692 
Q 603 -541 603 -63 
L 603 3500 
z
M 603 4863 
L 1178 4863 
L 1178 4134 
L 603 4134 
L 603 4863 
z
" id="DejaVuSans-6a" transform="scale(0.015625)"/>
       <path d="M 678 2906 
L 4684 2906 
L 4684 2381 
L 678 2381 
L 678 2906 
z
M 678 1631 
L 4684 1631 
L 4684 1100 
L 678 1100 
L 678 1631 
z
" id="DejaVuSans-3d" transform="scale(0.015625)"/>
      </defs>
      <use xlink:href="#DejaVuSans-6a"/>
      <use x="27.783203" xlink:href="#DejaVuSans-3d"/>
      <use x="111.572266" xlink:href="#DejaVuSans-31"/>
      <use x="175.195312" xlink:href="#DejaVuSans-30"/>
      <use x="238.818359" xlink:href="#DejaVuSans-30"/>
     </g>
    </g>
    <g id="line2d_23">
     <path d="M 321.554688 222.742188 
L 341.554688 222.742188 
" style="fill:none;stroke:#ff7f0e;stroke-linecap:square;stroke-width:1.5;"/>
    </g>
    <g id="line2d_24"/>
    <g id="text_20">
     <!-- j=300 -->
     <g transform="translate(349.554688 226.242188)scale(0.1 -0.1)">
      <use xlink:href="#DejaVuSans-6a"/>
      <use x="27.783203" xlink:href="#DejaVuSans-3d"/>
      <use x="111.572266" xlink:href="#DejaVuSans-33"/>
      <use x="175.195312" xlink:href="#DejaVuSans-30"/>
      <use x="238.818359" xlink:href="#DejaVuSans-30"/>
     </g>
    </g>
    <g id="line2d_25">
     <path d="M 321.554688 237.420313 
L 341.554688 237.420313 
" style="fill:none;stroke:#2ca02c;stroke-linecap:square;stroke-width:1.5;"/>
    </g>
    <g id="line2d_26"/>
    <g id="text_21">
     <!-- j=500 -->
     <g transform="translate(349.554688 240.920313)scale(0.1 -0.1)">
      <use xlink:href="#DejaVuSans-6a"/>
      <use x="27.783203" xlink:href="#DejaVuSans-3d"/>
      <use x="111.572266" xlink:href="#DejaVuSans-35"/>
      <use x="175.195312" xlink:href="#DejaVuSans-30"/>
      <use x="238.818359" xlink:href="#DejaVuSans-30"/>
     </g>
    </g>
   </g>
  </g>
 </g>
 <defs>
  <clipPath id="p1ec8e14b13">
   <rect height="217.44" width="334.8" x="54" y="34.56"/>
  </clipPath>
 </defs>
</svg>
