<?xml version="1.0" encoding="utf-8" standalone="no"?>
<!DOCTYPE svg PUBLIC "-//W3C//DTD SVG 1.1//EN"
  "http://www.w3.org/Graphics/SVG/1.1/DTD/svg11.dtd">
<svg height="288pt" version="1.1" viewBox="0 0 432 288" width="432pt" xmlns="http://www.w3.org/2000/svg" xmlns:xlink="http://www.w3.org/1999/xlink">
 <metadata>
  <rdf:RDF xmlns:cc="http://creativecommons.org/ns#" xmlns:dc="http://purl.org/dc/elements/1.1/" xmlns:rdf="http://www.w3.org/1999/02/22-rdf-syntax-ns#">
   <cc:Work>
    <dc:type rdf:resource="http://purl.org/dc/dcmitype/StillImage"/>
    <dc:date>2023-06-15T12:22:43.065488</dc:date>
    <dc:format>image/svg+xml</dc:format>
    <dc:creator>
     <cc:Agent>
      <dc:title>Matplotlib v3.4.3, https://matplotlib.org/</dc:title>
     </cc:Agent>
    </dc:creator>
   </cc:Work>
  </rdf:RDF>
 </metadata>
 <defs>
  <style type="text/css">*{stroke-linecap:butt;stroke-linejoin:round;}</style>
 </defs>
 <g id="figure_1">
  <g id="patch_1">
   <path d="M 0 288 
L 432 288 
L 432 0 
L 0 0 
z
" style="fill:#ffffff;"/>
  </g>
  <g id="axes_1">
   <g id="patch_2">
    <path d="M 54 252 
L 388.8 252 
L 388.8 34.56 
L 54 34.56 
z
" style="fill:#ffffff;"/>
   </g>
   <g id="matplotlib.axis_1">
    <g id="xtick_1">
     <g id="line2d_1">
      <defs>
       <path d="M 0 0 
L 0 3.5 
" id="m6e5f5e71cc" style="stroke:#000000;stroke-width:0.8;"/>
      </defs>
      <g>
       <use style="stroke:#000000;stroke-width:0.8;" x="69.218182" xlink:href="#m6e5f5e71cc" y="252"/>
      </g>
     </g>
     <g id="text_1">
      <!-- 0.1 -->
      <g transform="translate(61.266619 266.598437)scale(0.1 -0.1)">
       <defs>
        <path d="M 2034 4250 
Q 1547 4250 1301 3770 
Q 1056 3291 1056 2328 
Q 1056 1369 1301 889 
Q 1547 409 2034 409 
Q 2525 409 2770 889 
Q 3016 1369 3016 2328 
Q 3016 3291 2770 3770 
Q 2525 4250 2034 4250 
z
M 2034 4750 
Q 2819 4750 3233 4129 
Q 3647 3509 3647 2328 
Q 3647 1150 3233 529 
Q 2819 -91 2034 -91 
Q 1250 -91 836 529 
Q 422 1150 422 2328 
Q 422 3509 836 4129 
Q 1250 4750 2034 4750 
z
" id="DejaVuSans-30" transform="scale(0.015625)"/>
        <path d="M 684 794 
L 1344 794 
L 1344 0 
L 684 0 
L 684 794 
z
" id="DejaVuSans-2e" transform="scale(0.015625)"/>
        <path d="M 794 531 
L 1825 531 
L 1825 4091 
L 703 3866 
L 703 4441 
L 1819 4666 
L 2450 4666 
L 2450 531 
L 3481 531 
L 3481 0 
L 794 0 
L 794 531 
z
" id="DejaVuSans-31" transform="scale(0.015625)"/>
       </defs>
       <use xlink:href="#DejaVuSans-30"/>
       <use x="63.623047" xlink:href="#DejaVuSans-2e"/>
       <use x="95.410156" xlink:href="#DejaVuSans-31"/>
      </g>
     </g>
    </g>
    <g id="xtick_2">
     <g id="line2d_2">
      <g>
       <use style="stroke:#000000;stroke-width:0.8;" x="112.698701" xlink:href="#m6e5f5e71cc" y="252"/>
      </g>
     </g>
     <g id="text_2">
      <!-- 0.2 -->
      <g transform="translate(104.747139 266.598437)scale(0.1 -0.1)">
       <defs>
        <path d="M 1228 531 
L 3431 531 
L 3431 0 
L 469 0 
L 469 531 
Q 828 903 1448 1529 
Q 2069 2156 2228 2338 
Q 2531 2678 2651 2914 
Q 2772 3150 2772 3378 
Q 2772 3750 2511 3984 
Q 2250 4219 1831 4219 
Q 1534 4219 1204 4116 
Q 875 4013 500 3803 
L 500 4441 
Q 881 4594 1212 4672 
Q 1544 4750 1819 4750 
Q 2544 4750 2975 4387 
Q 3406 4025 3406 3419 
Q 3406 3131 3298 2873 
Q 3191 2616 2906 2266 
Q 2828 2175 2409 1742 
Q 1991 1309 1228 531 
z
" id="DejaVuSans-32" transform="scale(0.015625)"/>
       </defs>
       <use xlink:href="#DejaVuSans-30"/>
       <use x="63.623047" xlink:href="#DejaVuSans-2e"/>
       <use x="95.410156" xlink:href="#DejaVuSans-32"/>
      </g>
     </g>
    </g>
    <g id="xtick_3">
     <g id="line2d_3">
      <g>
       <use style="stroke:#000000;stroke-width:0.8;" x="156.179221" xlink:href="#m6e5f5e71cc" y="252"/>
      </g>
     </g>
     <g id="text_3">
      <!-- 0.3 -->
      <g transform="translate(148.227658 266.598437)scale(0.1 -0.1)">
       <defs>
        <path d="M 2597 2516 
Q 3050 2419 3304 2112 
Q 3559 1806 3559 1356 
Q 3559 666 3084 287 
Q 2609 -91 1734 -91 
Q 1441 -91 1130 -33 
Q 819 25 488 141 
L 488 750 
Q 750 597 1062 519 
Q 1375 441 1716 441 
Q 2309 441 2620 675 
Q 2931 909 2931 1356 
Q 2931 1769 2642 2001 
Q 2353 2234 1838 2234 
L 1294 2234 
L 1294 2753 
L 1863 2753 
Q 2328 2753 2575 2939 
Q 2822 3125 2822 3475 
Q 2822 3834 2567 4026 
Q 2313 4219 1838 4219 
Q 1578 4219 1281 4162 
Q 984 4106 628 3988 
L 628 4550 
Q 988 4650 1302 4700 
Q 1616 4750 1894 4750 
Q 2613 4750 3031 4423 
Q 3450 4097 3450 3541 
Q 3450 3153 3228 2886 
Q 3006 2619 2597 2516 
z
" id="DejaVuSans-33" transform="scale(0.015625)"/>
       </defs>
       <use xlink:href="#DejaVuSans-30"/>
       <use x="63.623047" xlink:href="#DejaVuSans-2e"/>
       <use x="95.410156" xlink:href="#DejaVuSans-33"/>
      </g>
     </g>
    </g>
    <g id="xtick_4">
     <g id="line2d_4">
      <g>
       <use style="stroke:#000000;stroke-width:0.8;" x="199.65974" xlink:href="#m6e5f5e71cc" y="252"/>
      </g>
     </g>
     <g id="text_4">
      <!-- 0.4 -->
      <g transform="translate(191.708178 266.598437)scale(0.1 -0.1)">
       <defs>
        <path d="M 2419 4116 
L 825 1625 
L 2419 1625 
L 2419 4116 
z
M 2253 4666 
L 3047 4666 
L 3047 1625 
L 3713 1625 
L 3713 1100 
L 3047 1100 
L 3047 0 
L 2419 0 
L 2419 1100 
L 313 1100 
L 313 1709 
L 2253 4666 
z
" id="DejaVuSans-34" transform="scale(0.015625)"/>
       </defs>
       <use xlink:href="#DejaVuSans-30"/>
       <use x="63.623047" xlink:href="#DejaVuSans-2e"/>
       <use x="95.410156" xlink:href="#DejaVuSans-34"/>
      </g>
     </g>
    </g>
    <g id="xtick_5">
     <g id="line2d_5">
      <g>
       <use style="stroke:#000000;stroke-width:0.8;" x="243.14026" xlink:href="#m6e5f5e71cc" y="252"/>
      </g>
     </g>
     <g id="text_5">
      <!-- 0.5 -->
      <g transform="translate(235.188697 266.598437)scale(0.1 -0.1)">
       <defs>
        <path d="M 691 4666 
L 3169 4666 
L 3169 4134 
L 1269 4134 
L 1269 2991 
Q 1406 3038 1543 3061 
Q 1681 3084 1819 3084 
Q 2600 3084 3056 2656 
Q 3513 2228 3513 1497 
Q 3513 744 3044 326 
Q 2575 -91 1722 -91 
Q 1428 -91 1123 -41 
Q 819 9 494 109 
L 494 744 
Q 775 591 1075 516 
Q 1375 441 1709 441 
Q 2250 441 2565 725 
Q 2881 1009 2881 1497 
Q 2881 1984 2565 2268 
Q 2250 2553 1709 2553 
Q 1456 2553 1204 2497 
Q 953 2441 691 2322 
L 691 4666 
z
" id="DejaVuSans-35" transform="scale(0.015625)"/>
       </defs>
       <use xlink:href="#DejaVuSans-30"/>
       <use x="63.623047" xlink:href="#DejaVuSans-2e"/>
       <use x="95.410156" xlink:href="#DejaVuSans-35"/>
      </g>
     </g>
    </g>
    <g id="xtick_6">
     <g id="line2d_6">
      <g>
       <use style="stroke:#000000;stroke-width:0.8;" x="286.620779" xlink:href="#m6e5f5e71cc" y="252"/>
      </g>
     </g>
     <g id="text_6">
      <!-- 0.6 -->
      <g transform="translate(278.669217 266.598437)scale(0.1 -0.1)">
       <defs>
        <path d="M 2113 2584 
Q 1688 2584 1439 2293 
Q 1191 2003 1191 1497 
Q 1191 994 1439 701 
Q 1688 409 2113 409 
Q 2538 409 2786 701 
Q 3034 994 3034 1497 
Q 3034 2003 2786 2293 
Q 2538 2584 2113 2584 
z
M 3366 4563 
L 3366 3988 
Q 3128 4100 2886 4159 
Q 2644 4219 2406 4219 
Q 1781 4219 1451 3797 
Q 1122 3375 1075 2522 
Q 1259 2794 1537 2939 
Q 1816 3084 2150 3084 
Q 2853 3084 3261 2657 
Q 3669 2231 3669 1497 
Q 3669 778 3244 343 
Q 2819 -91 2113 -91 
Q 1303 -91 875 529 
Q 447 1150 447 2328 
Q 447 3434 972 4092 
Q 1497 4750 2381 4750 
Q 2619 4750 2861 4703 
Q 3103 4656 3366 4563 
z
" id="DejaVuSans-36" transform="scale(0.015625)"/>
       </defs>
       <use xlink:href="#DejaVuSans-30"/>
       <use x="63.623047" xlink:href="#DejaVuSans-2e"/>
       <use x="95.410156" xlink:href="#DejaVuSans-36"/>
      </g>
     </g>
    </g>
    <g id="xtick_7">
     <g id="line2d_7">
      <g>
       <use style="stroke:#000000;stroke-width:0.8;" x="330.101299" xlink:href="#m6e5f5e71cc" y="252"/>
      </g>
     </g>
     <g id="text_7">
      <!-- 0.7 -->
      <g transform="translate(322.149736 266.598437)scale(0.1 -0.1)">
       <defs>
        <path d="M 525 4666 
L 3525 4666 
L 3525 4397 
L 1831 0 
L 1172 0 
L 2766 4134 
L 525 4134 
L 525 4666 
z
" id="DejaVuSans-37" transform="scale(0.015625)"/>
       </defs>
       <use xlink:href="#DejaVuSans-30"/>
       <use x="63.623047" xlink:href="#DejaVuSans-2e"/>
       <use x="95.410156" xlink:href="#DejaVuSans-37"/>
      </g>
     </g>
    </g>
    <g id="xtick_8">
     <g id="line2d_8">
      <g>
       <use style="stroke:#000000;stroke-width:0.8;" x="373.581818" xlink:href="#m6e5f5e71cc" y="252"/>
      </g>
     </g>
     <g id="text_8">
      <!-- 0.8 -->
      <g transform="translate(365.630256 266.598437)scale(0.1 -0.1)">
       <defs>
        <path d="M 2034 2216 
Q 1584 2216 1326 1975 
Q 1069 1734 1069 1313 
Q 1069 891 1326 650 
Q 1584 409 2034 409 
Q 2484 409 2743 651 
Q 3003 894 3003 1313 
Q 3003 1734 2745 1975 
Q 2488 2216 2034 2216 
z
M 1403 2484 
Q 997 2584 770 2862 
Q 544 3141 544 3541 
Q 544 4100 942 4425 
Q 1341 4750 2034 4750 
Q 2731 4750 3128 4425 
Q 3525 4100 3525 3541 
Q 3525 3141 3298 2862 
Q 3072 2584 2669 2484 
Q 3125 2378 3379 2068 
Q 3634 1759 3634 1313 
Q 3634 634 3220 271 
Q 2806 -91 2034 -91 
Q 1263 -91 848 271 
Q 434 634 434 1313 
Q 434 1759 690 2068 
Q 947 2378 1403 2484 
z
M 1172 3481 
Q 1172 3119 1398 2916 
Q 1625 2713 2034 2713 
Q 2441 2713 2670 2916 
Q 2900 3119 2900 3481 
Q 2900 3844 2670 4047 
Q 2441 4250 2034 4250 
Q 1625 4250 1398 4047 
Q 1172 3844 1172 3481 
z
" id="DejaVuSans-38" transform="scale(0.015625)"/>
       </defs>
       <use xlink:href="#DejaVuSans-30"/>
       <use x="63.623047" xlink:href="#DejaVuSans-2e"/>
       <use x="95.410156" xlink:href="#DejaVuSans-38"/>
      </g>
     </g>
    </g>
    <g id="text_9">
     <!-- h -->
     <g transform="translate(216.96375 283.315938)scale(0.14 -0.14)">
      <defs>
       <path d="M 3513 2113 
L 3513 0 
L 2938 0 
L 2938 2094 
Q 2938 2591 2744 2837 
Q 2550 3084 2163 3084 
Q 1697 3084 1428 2787 
Q 1159 2491 1159 1978 
L 1159 0 
L 581 0 
L 581 4863 
L 1159 4863 
L 1159 2956 
Q 1366 3272 1645 3428 
Q 1925 3584 2291 3584 
Q 2894 3584 3203 3211 
Q 3513 2838 3513 2113 
z
" id="DejaVuSans-68" transform="scale(0.015625)"/>
      </defs>
      <use xlink:href="#DejaVuSans-68"/>
     </g>
    </g>
   </g>
   <g id="matplotlib.axis_2">
    <g id="ytick_1">
     <g id="line2d_9">
      <defs>
       <path d="M 0 0 
L -3.5 0 
" id="mbe6bc5cd64" style="stroke:#000000;stroke-width:0.8;"/>
      </defs>
      <g>
       <use style="stroke:#000000;stroke-width:0.8;" x="54" xlink:href="#mbe6bc5cd64" y="211.023672"/>
      </g>
     </g>
     <g id="text_10">
      <!-- 5 -->
      <g transform="translate(40.6375 214.822891)scale(0.1 -0.1)">
       <use xlink:href="#DejaVuSans-35"/>
      </g>
     </g>
    </g>
    <g id="ytick_2">
     <g id="line2d_10">
      <g>
       <use style="stroke:#000000;stroke-width:0.8;" x="54" xlink:href="#mbe6bc5cd64" y="169.847069"/>
      </g>
     </g>
     <g id="text_11">
      <!-- 10 -->
      <g transform="translate(34.275 173.646288)scale(0.1 -0.1)">
       <use xlink:href="#DejaVuSans-31"/>
       <use x="63.623047" xlink:href="#DejaVuSans-30"/>
      </g>
     </g>
    </g>
    <g id="ytick_3">
     <g id="line2d_11">
      <g>
       <use style="stroke:#000000;stroke-width:0.8;" x="54" xlink:href="#mbe6bc5cd64" y="128.670466"/>
      </g>
     </g>
     <g id="text_12">
      <!-- 15 -->
      <g transform="translate(34.275 132.469685)scale(0.1 -0.1)">
       <use xlink:href="#DejaVuSans-31"/>
       <use x="63.623047" xlink:href="#DejaVuSans-35"/>
      </g>
     </g>
    </g>
    <g id="ytick_4">
     <g id="line2d_12">
      <g>
       <use style="stroke:#000000;stroke-width:0.8;" x="54" xlink:href="#mbe6bc5cd64" y="87.493862"/>
      </g>
     </g>
     <g id="text_13">
      <!-- 20 -->
      <g transform="translate(34.275 91.293081)scale(0.1 -0.1)">
       <use xlink:href="#DejaVuSans-32"/>
       <use x="63.623047" xlink:href="#DejaVuSans-30"/>
      </g>
     </g>
    </g>
    <g id="ytick_5">
     <g id="line2d_13">
      <g>
       <use style="stroke:#000000;stroke-width:0.8;" x="54" xlink:href="#mbe6bc5cd64" y="46.317259"/>
      </g>
     </g>
     <g id="text_14">
      <!-- 25 -->
      <g transform="translate(34.275 50.116478)scale(0.1 -0.1)">
       <use xlink:href="#DejaVuSans-32"/>
       <use x="63.623047" xlink:href="#DejaVuSans-35"/>
      </g>
     </g>
    </g>
    <g id="text_15">
     <!-- $\overline{s\left(\frac{2}{\pi}\mathcal{L} \right)}$ -->
     <g transform="translate(26.355 162.32)rotate(-90)scale(0.14 -0.14)">
      <defs>
       <path d="M 3200 3397 
L 3091 2853 
Q 2863 2978 2609 3040 
Q 2356 3103 2088 3103 
Q 1634 3103 1373 2948 
Q 1113 2794 1113 2528 
Q 1113 2219 1719 2053 
Q 1766 2041 1788 2034 
L 1972 1978 
Q 2547 1819 2739 1644 
Q 2931 1469 2931 1166 
Q 2931 609 2489 259 
Q 2047 -91 1331 -91 
Q 1053 -91 747 -37 
Q 441 16 72 128 
L 184 722 
Q 500 559 806 475 
Q 1113 391 1394 391 
Q 1816 391 2080 572 
Q 2344 753 2344 1031 
Q 2344 1331 1650 1516 
L 1591 1531 
L 1394 1581 
Q 956 1697 753 1886 
Q 550 2075 550 2369 
Q 550 2928 970 3256 
Q 1391 3584 2113 3584 
Q 2397 3584 2667 3537 
Q 2938 3491 3200 3397 
z
" id="DejaVuSans-Oblique-73" transform="scale(0.015625)"/>
       <path d="M 2445 -858 
L 2445 -1050 
Q 1728 -371 1309 630 
Q 890 1632 890 2886 
Q 890 4122 1309 5136 
Q 1728 6150 2445 6822 
L 2445 6630 
Q 1408 5363 1408 2886 
Q 1408 410 2445 -858 
z
" id="STIXSizeOneSym-Regular-28" transform="scale(0.015625)"/>
       <path d="M 584 3500 
L 3938 3500 
L 3825 2925 
L 3384 2925 
L 2966 775 
Q 2922 550 2981 450 
Q 3038 353 3209 353 
Q 3256 353 3325 363 
Q 3397 369 3419 372 
L 3338 -44 
Q 3222 -84 3103 -103 
Q 2981 -122 2866 -122 
Q 2491 -122 2388 81 
Q 2284 288 2391 838 
L 2797 2925 
L 1506 2925 
L 938 0 
L 350 0 
L 919 2925 
L 472 2925 
L 584 3500 
z
" id="DejaVuSans-Oblique-3c0" transform="scale(0.015625)"/>
       <path d="M 4070 915 
L 4179 800 
Q 3347 -45 2413 -45 
Q 2157 -45 1850 26 
Q 1395 122 1146 122 
Q 1005 122 672 61 
Q 339 0 192 0 
L 230 154 
Q 582 154 730 749 
L 1178 2566 
Q 1286 3008 1516 3353 
Q 1747 3699 2025 3894 
Q 2304 4090 2585 4189 
Q 2867 4288 3123 4288 
Q 3443 4288 3593 4083 
Q 3744 3878 3744 3584 
Q 3744 3347 3593 3200 
Q 3443 3053 3226 3053 
Q 3085 3053 2995 3149 
Q 2906 3245 2906 3379 
Q 2906 3482 2957 3552 
Q 3008 3622 3065 3644 
Q 3123 3667 3174 3705 
Q 3226 3744 3226 3789 
Q 3226 4032 2854 4032 
Q 2522 4032 2310 3785 
Q 2099 3539 1990 3132 
Q 1882 2726 1795 2284 
Q 1709 1843 1549 1363 
Q 1389 883 1158 589 
L 1158 563 
Q 1363 704 1888 704 
Q 2227 704 2460 544 
Q 2694 384 2963 384 
Q 3507 384 4070 915 
z
" id="STIXNonUnicode-Italic-e238" transform="scale(0.015625)"/>
       <path d="M 550 6630 
L 550 6822 
Q 1267 6144 1686 5142 
Q 2106 4141 2106 2886 
Q 2106 1651 1686 636 
Q 1267 -378 550 -1050 
L 550 -858 
Q 1587 410 1587 2886 
Q 1587 5363 550 6630 
z
" id="STIXSizeOneSym-Regular-29" transform="scale(0.015625)"/>
      </defs>
      <use transform="translate(0 1)" xlink:href="#DejaVuSans-Oblique-73"/>
      <use transform="translate(52.099609 -9.69375)scale(0.998526)" xlink:href="#STIXSizeOneSym-Regular-28"/>
      <use transform="translate(98.826477 44.796875)scale(0.7)" xlink:href="#DejaVuSans-32"/>
      <use transform="translate(99.826477 -24.734375)scale(0.7)" xlink:href="#DejaVuSans-Oblique-3c0"/>
      <use transform="translate(155.86261 1)" xlink:href="#STIXNonUnicode-Italic-e238"/>
      <use transform="translate(225.162598 -9.69375)scale(0.998526)" xlink:href="#STIXSizeOneSym-Regular-29"/>
      <path d="M 0 108.5 
L 0 114.75 
L 271.889465 114.75 
L 271.889465 108.5 
L 0 108.5 
z
"/>
      <path d="M 98.826477 19.796875 
L 98.826477 26.046875 
L 143.36261 26.046875 
L 143.36261 19.796875 
L 98.826477 19.796875 
z
"/>
     </g>
    </g>
   </g>
   <g id="line2d_14">
    <path clip-path="url(#p8fdc89bff8)" d="M 69.218182 236.643234 
L 72.292562 234.798077 
L 75.366942 232.835959 
L 78.441322 230.756132 
L 81.515702 228.558239 
L 84.590083 226.24214 
L 87.664463 223.807781 
L 90.738843 221.255087 
L 93.813223 218.583829 
L 96.887603 212.09732 
L 99.961983 176.681186 
L 103.036364 156.5354 
L 106.110744 144.185326 
L 109.185124 137.546504 
L 112.259504 129.235947 
L 115.333884 124.780671 
L 118.408264 120.369962 
L 121.482645 116.072423 
L 124.557025 115.555798 
L 127.631405 111.469515 
L 130.705785 111.091045 
L 133.780165 114.431157 
L 136.854545 106.736706 
L 139.928926 102.901643 
L 143.003306 106.542297 
L 146.077686 106.389701 
L 149.152066 106.343331 
L 152.226446 106.296242 
L 155.300826 110.15622 
L 158.375207 110.26832 
L 161.449587 110.363024 
L 164.523967 116.066391 
L 167.598347 108.723795 
L 170.672727 108.823648 
L 173.747107 108.824709 
L 176.821488 108.749107 
L 179.895868 108.621447 
L 182.970248 108.524313 
L 186.044628 108.400538 
L 189.119008 111.948895 
L 192.193388 111.70246 
L 195.267769 111.607369 
L 198.342149 118.967109 
L 201.416529 118.824253 
L 204.490909 126.407892 
L 207.565289 137.817752 
L 210.639669 130.643598 
L 213.71405 138.461784 
L 216.78843 135.171997 
L 219.86281 131.337547 
L 222.93719 135.57596 
L 226.01157 139.582232 
L 229.08595 143.88995 
L 232.160331 148.105743 
L 235.234711 148.459668 
L 238.309091 151.948682 
L 241.383471 152.569981 
L 244.457851 157.605387 
L 247.532231 162.568741 
L 250.606612 163.724181 
L 253.680992 163.675713 
L 256.755372 168.177473 
L 259.829752 169.683582 
L 262.904132 173.947648 
L 265.978512 174.316831 
L 269.052893 174.571997 
L 272.127273 173.760919 
L 275.201653 178.869364 
L 278.276033 178.576473 
L 281.350413 179.220563 
L 284.424793 179.016147 
L 287.499174 183.14802 
L 290.573554 182.734168 
L 293.647934 182.775048 
L 296.722314 183.151438 
L 299.796694 178.117744 
L 302.871074 179.34918 
L 305.945455 185.223176 
L 309.019835 179.188819 
L 312.094215 178.260971 
L 315.168595 179.077103 
L 318.242975 174.944506 
L 321.317355 175.517324 
L 324.391736 178.680983 
L 327.466116 175.438815 
L 330.540496 178.442642 
L 333.614876 175.782149 
L 336.689256 178.201651 
L 339.763636 179.348361 
L 342.838017 178.616927 
L 345.912397 175.180564 
L 348.986777 171.377559 
L 352.061157 178.306031 
L 355.135537 182.687101 
L 358.209917 174.831456 
L 361.284298 178.862954 
L 364.358678 175.289977 
L 367.433058 182.473091 
L 370.507438 178.93794 
L 373.581818 178.645586 
" style="fill:none;stroke:#1f77b4;stroke-linecap:square;stroke-width:1.5;"/>
   </g>
   <g id="line2d_15">
    <path clip-path="url(#p8fdc89bff8)" d="M 69.218182 242.116364 
L 72.292562 241.579613 
L 75.366942 241.116841 
L 78.441322 240.719052 
L 81.515702 240.376845 
L 84.590083 240.081298 
L 87.664463 239.824464 
L 90.738843 239.599576 
L 93.813223 239.40105 
L 96.887603 239.224377 
L 99.961983 239.065958 
L 103.036364 238.92294 
L 106.110744 238.793057 
L 109.185124 238.674499 
L 112.259504 238.565805 
L 115.333884 238.465785 
L 118.408264 238.373453 
L 121.482645 238.287985 
L 124.557025 238.208677 
L 127.631405 238.134922 
L 130.705785 238.066193 
L 133.780165 238.002036 
L 136.854545 237.942054 
L 139.928926 237.885894 
L 143.003306 237.833242 
L 146.077686 237.783813 
L 149.152066 237.737342 
L 152.226446 237.693579 
L 155.300826 237.652289 
L 158.375207 237.613261 
L 161.449587 237.576277 
L 164.523967 237.541055 
L 167.598347 237.507144 
L 170.672727 237.473808 
L 173.747107 237.439875 
L 176.821488 237.403664 
L 179.895868 237.362947 
L 182.970248 237.315115 
L 186.044628 237.258276 
L 189.119008 237.191161 
L 192.193388 237.113746 
L 195.267769 237.030079 
L 198.342149 236.942518 
L 201.416529 236.857582 
L 204.490909 236.779635 
L 207.565289 236.71015 
L 210.639669 236.656064 
L 213.71405 236.610712 
L 216.78843 236.581182 
L 219.86281 236.546469 
L 222.93719 236.524702 
L 226.01157 236.499489 
L 229.08595 236.481085 
L 232.160331 236.462455 
L 235.234711 236.434663 
L 238.309091 236.422855 
L 241.383471 236.421501 
L 244.457851 236.442542 
L 247.532231 236.50135 
L 250.606612 236.561692 
L 253.680992 236.615464 
L 256.755372 236.683578 
L 259.829752 236.748706 
L 262.904132 236.7931 
L 265.978512 236.836384 
L 269.052893 236.875952 
L 272.127273 236.907401 
L 275.201653 236.958083 
L 278.276033 236.974847 
L 281.350413 237.019017 
L 284.424793 237.036656 
L 287.499174 237.062938 
L 290.573554 237.092497 
L 293.647934 237.085893 
L 296.722314 237.127536 
L 299.796694 237.096644 
L 302.871074 237.151055 
L 305.945455 237.114364 
L 309.019835 237.178189 
L 312.094215 237.147432 
L 315.168595 237.216947 
L 318.242975 237.18784 
L 321.317355 237.261568 
L 324.391736 237.22108 
L 327.466116 237.296391 
L 330.540496 237.240387 
L 333.614876 237.308987 
L 336.689256 237.251763 
L 339.763636 237.300679 
L 342.838017 237.265972 
L 345.912397 237.286676 
L 348.986777 237.28722 
L 352.061157 237.287617 
L 355.135537 237.311322 
L 358.209917 237.315974 
L 361.284298 237.331844 
L 364.358678 237.364612 
L 367.433058 237.344912 
L 370.507438 237.409364 
L 373.581818 237.351823 
" style="fill:none;stroke:#ff7f0e;stroke-linecap:square;stroke-width:1.5;"/>
   </g>
   <g id="line2d_16">
    <path clip-path="url(#p8fdc89bff8)" d="M 69.218182 237.039256 
L 72.292562 235.165747 
L 75.366942 233.179964 
L 78.441322 231.080112 
L 81.515702 228.864667 
L 84.590083 226.532951 
L 87.664463 224.083983 
L 90.738843 221.517727 
L 93.813223 218.833656 
L 96.887603 216.031896 
L 99.961983 213.112281 
L 103.036364 210.076072 
L 106.110744 206.925921 
L 109.185124 203.668071 
L 112.259504 200.314245 
L 115.333884 196.931538 
L 118.408264 193.515276 
L 121.482645 190.521695 
L 124.557025 187.738904 
L 127.631405 184.975554 
L 130.705785 182.24791 
L 133.780165 179.556287 
L 136.854545 176.934677 
L 139.928926 174.590099 
L 143.003306 172.632898 
L 146.077686 171.001558 
L 149.152066 169.572001 
L 152.226446 168.130862 
L 155.300826 167.212168 
L 158.375207 166.062938 
L 161.449587 164.762226 
L 164.523967 168.378392 
L 167.598347 176.954538 
L 170.672727 180.999372 
L 173.747107 185.419315 
L 176.821488 185.158157 
L 179.895868 189.620527 
L 182.970248 194.177283 
L 186.044628 194.09531 
L 189.119008 198.574495 
L 192.193388 197.860814 
L 195.267769 197.494647 
L 198.342149 202.363358 
L 201.416529 201.45526 
L 204.490909 205.780123 
L 207.565289 205.928887 
L 210.639669 201.332337 
L 213.71405 202.694029 
L 216.78843 204.28703 
L 219.86281 199.348841 
L 222.93719 203.125151 
L 226.01157 205.082179 
L 229.08595 202.570135 
L 232.160331 204.459326 
L 235.234711 205.956229 
L 238.309091 211.409172 
L 241.383471 208.460068 
L 244.457851 210.813661 
L 247.532231 212.9395 
L 250.606612 214.802701 
L 253.680992 210.644315 
L 256.755372 212.294981 
L 259.829752 214.529833 
L 262.904132 215.724039 
L 265.978512 216.576023 
L 269.052893 217.283646 
L 272.127273 216.895479 
L 275.201653 214.109626 
L 278.276033 214.33654 
L 281.350413 215.436911 
L 284.424793 215.652116 
L 287.499174 216.425851 
L 290.573554 216.220857 
L 293.647934 216.451625 
L 296.722314 221.781135 
L 299.796694 215.438034 
L 302.871074 217.798051 
L 305.945455 216.873907 
L 309.019835 218.221416 
L 312.094215 217.639267 
L 315.168595 218.66532 
L 318.242975 218.345016 
L 321.317355 219.194127 
L 324.391736 218.603478 
L 327.466116 218.618625 
L 330.540496 213.788725 
L 333.614876 214.932954 
L 336.689256 213.967726 
L 339.763636 215.12434 
L 342.838017 214.630299 
L 345.912397 214.940319 
L 348.986777 214.825927 
L 352.061157 214.663898 
L 355.135537 215.422278 
L 358.209917 214.061641 
L 361.284298 215.168128 
L 364.358678 215.118646 
L 367.433058 215.086632 
L 370.507438 214.98891 
L 373.581818 214.665852 
" style="fill:none;stroke:#2ca02c;stroke-linecap:square;stroke-width:1.5;"/>
   </g>
   <g id="line2d_17">
    <path clip-path="url(#p8fdc89bff8)" d="M 69.218182 168.702774 
L 72.292562 147.698913 
L 75.366942 132.809044 
L 78.441322 120.190169 
L 81.515702 115.158333 
L 84.590083 106.607631 
L 87.664463 98.197527 
L 90.738843 93.608107 
L 93.813223 89.186765 
L 96.887603 84.762942 
L 99.961983 84.133608 
L 103.036364 76.179234 
L 106.110744 75.689903 
L 109.185124 71.482894 
L 112.259504 67.299417 
L 115.333884 66.94172 
L 118.408264 66.787007 
L 121.482645 66.577022 
L 124.557025 66.289749 
L 127.631405 62.238893 
L 130.705785 58.250087 
L 133.780165 61.886597 
L 136.854545 65.440966 
L 139.928926 61.588097 
L 143.003306 65.272217 
L 146.077686 65.236048 
L 149.152066 57.687177 
L 152.226446 57.786727 
L 155.300826 57.849196 
L 158.375207 65.28282 
L 161.449587 61.687828 
L 164.523967 65.560127 
L 167.598347 61.947231 
L 170.672727 65.844288 
L 173.747107 69.918374 
L 176.821488 71.923491 
L 179.895868 72.038998 
L 182.970248 68.469489 
L 186.044628 72.013997 
L 189.119008 68.148195 
L 192.193388 71.419841 
L 195.267769 67.377125 
L 198.342149 66.967127 
L 201.416529 66.582868 
L 204.490909 62.48002 
L 207.565289 69.678644 
L 210.639669 69.580567 
L 213.71405 69.735017 
L 216.78843 73.885419 
L 219.86281 80.27485 
L 222.93719 100.069873 
L 226.01157 110.98812 
L 229.08595 112.149969 
L 232.160331 108.821703 
L 235.234711 116.134623 
L 238.309091 119.288399 
L 241.383471 132.534025 
L 244.457851 136.309668 
L 247.532231 141.688224 
L 250.606612 147.181658 
L 253.680992 151.458686 
L 256.755372 152.119001 
L 259.829752 156.140247 
L 262.904132 155.950285 
L 265.978512 155.911312 
L 269.052893 151.441307 
L 272.127273 146.98933 
L 275.201653 139.73476 
L 278.276033 139.666699 
L 281.350413 143.983539 
L 284.424793 143.578508 
L 287.499174 140.290591 
L 290.573554 136.177255 
L 293.647934 139.783372 
L 296.722314 139.219897 
L 299.796694 131.81092 
L 302.871074 127.025242 
L 305.945455 131.23209 
L 309.019835 131.024234 
L 312.094215 134.708197 
L 315.168595 131.315586 
L 318.242975 131.480089 
L 321.317355 135.269509 
L 324.391736 124.123338 
L 327.466116 127.98935 
L 330.540496 131.675109 
L 333.614876 131.644936 
L 336.689256 124.085384 
L 339.763636 125.479988 
L 342.838017 123.316394 
L 345.912397 126.916586 
L 348.986777 126.68449 
L 352.061157 122.979404 
L 355.135537 126.990341 
L 358.209917 127.051637 
L 361.284298 131.231732 
L 364.358678 119.902461 
L 367.433058 123.721627 
L 370.507438 127.617214 
L 373.581818 123.923708 
" style="fill:none;stroke:#d62728;stroke-linecap:square;stroke-width:1.5;"/>
   </g>
   <g id="line2d_18">
    <path clip-path="url(#p8fdc89bff8)" d="M 69.218182 239.004613 
L 72.292562 238.770461 
L 75.366942 238.569582 
L 78.441322 238.394876 
L 81.515702 238.241282 
L 84.590083 238.105056 
L 87.664463 237.983343 
L 90.738843 237.873916 
L 93.813223 237.775006 
L 96.887603 237.685193 
L 99.961983 237.603314 
L 103.036364 237.528391 
L 106.110744 237.459576 
L 109.185124 237.396121 
L 112.259504 237.337394 
L 115.333884 237.282921 
L 118.408264 237.2324 
L 121.482645 237.185598 
L 124.557025 237.142106 
L 127.631405 237.101193 
L 130.705785 237.062172 
L 133.780165 237.02508 
L 136.854545 236.990725 
L 139.928926 236.959694 
L 143.003306 236.93162 
L 146.077686 236.905607 
L 149.152066 236.880688 
L 152.226446 236.855936 
L 155.300826 236.831405 
L 158.375207 236.808632 
L 161.449587 236.788937 
L 164.523967 236.7716 
L 167.598347 236.754474 
L 170.672727 236.736834 
L 173.747107 236.720273 
L 176.821488 236.705708 
L 179.895868 236.691552 
L 182.970248 236.675494 
L 186.044628 236.65484 
L 189.119008 236.624137 
L 192.193388 236.576914 
L 195.267769 236.511888 
L 198.342149 236.436481 
L 201.416529 236.36402 
L 204.490909 236.306659 
L 207.565289 236.269146 
L 210.639669 236.248266 
L 213.71405 236.237558 
L 216.78843 236.231493 
L 219.86281 236.226783 
L 222.93719 236.223195 
L 226.01157 236.216379 
L 229.08595 236.211157 
L 232.160331 236.183735 
L 235.234711 236.172927 
L 238.309091 236.109266 
L 241.383471 236.143516 
L 244.457851 236.115248 
L 247.532231 236.169722 
L 250.606612 236.250071 
L 253.680992 236.296553 
L 256.755372 236.335617 
L 259.829752 236.383089 
L 262.904132 236.416992 
L 265.978512 236.434712 
L 269.052893 236.435481 
L 272.127273 236.446604 
L 275.201653 236.472118 
L 278.276033 236.502073 
L 281.350413 236.542151 
L 284.424793 236.568845 
L 287.499174 236.59216 
L 290.573554 236.599199 
L 293.647934 236.600724 
L 296.722314 236.591834 
L 299.796694 236.591442 
L 302.871074 236.579609 
L 305.945455 236.585174 
L 309.019835 236.58659 
L 312.094215 236.606176 
L 315.168595 236.628856 
L 318.242975 236.656425 
L 321.317355 236.679914 
L 324.391736 236.696816 
L 327.466116 236.706713 
L 330.540496 236.710794 
L 333.614876 236.709525 
L 336.689256 236.702491 
L 339.763636 236.690099 
L 342.838017 236.6761 
L 345.912397 236.667904 
L 348.986777 236.671016 
L 352.061157 236.684018 
L 355.135537 236.703131 
L 358.209917 236.717801 
L 361.284298 236.727984 
L 364.358678 236.730672 
L 367.433058 236.734207 
L 370.507438 236.744562 
L 373.581818 236.763497 
" style="fill:none;stroke:#9467bd;stroke-linecap:square;stroke-width:1.5;"/>
   </g>
   <g id="line2d_19">
    <path clip-path="url(#p8fdc89bff8)" d="M 69.218182 212.090215 
L 72.292562 206.664869 
L 75.366942 200.879094 
L 78.441322 194.732978 
L 81.515702 188.226472 
L 84.590083 181.359588 
L 87.664463 174.132812 
L 90.738843 166.546119 
L 93.813223 158.599536 
L 96.887603 150.287877 
L 99.961983 141.565906 
L 103.036364 131.979163 
L 106.110744 166.057569 
L 109.185124 178.658556 
L 112.259504 188.479483 
L 115.333884 194.420236 
L 118.408264 193.881895 
L 121.482645 201.369133 
L 124.557025 204.189764 
L 127.631405 202.344 
L 130.705785 205.98592 
L 133.780165 209.365002 
L 136.854545 208.948233 
L 139.928926 208.717775 
L 143.003306 203.871233 
L 146.077686 208.145754 
L 149.152066 209.180013 
L 152.226446 205.4883 
L 155.300826 203.861646 
L 158.375207 204.98712 
L 161.449587 210.504171 
L 164.523967 206.326871 
L 167.598347 211.683422 
L 170.672727 207.358952 
L 173.747107 202.450948 
L 176.821488 212.241406 
L 179.895868 207.835817 
L 182.970248 208.001352 
L 186.044628 203.934441 
L 189.119008 204.715785 
L 192.193388 201.322103 
L 195.267769 189.425093 
L 198.342149 191.794679 
L 201.416529 189.826727 
L 204.490909 197.428957 
L 207.565289 199.316694 
L 210.639669 201.718765 
L 213.71405 208.319834 
L 216.78843 210.202252 
L 219.86281 206.585319 
L 222.93719 205.8968 
L 226.01157 204.674959 
L 229.08595 203.735369 
L 232.160331 207.208707 
L 235.234711 206.479568 
L 238.309091 208.759279 
L 241.383471 208.758577 
L 244.457851 210.81258 
L 247.532231 209.532437 
L 250.606612 212.928801 
L 253.680992 214.831043 
L 256.755372 216.867307 
L 259.829752 218.535923 
L 262.904132 219.457383 
L 265.978512 215.618395 
L 269.052893 215.866684 
L 272.127273 215.861662 
L 275.201653 215.992289 
L 278.276033 215.956622 
L 281.350413 212.432474 
L 284.424793 212.026616 
L 287.499174 212.521922 
L 290.573554 211.825157 
L 293.647934 211.444789 
L 296.722314 205.802487 
L 299.796694 205.974327 
L 302.871074 204.300097 
L 305.945455 204.551299 
L 309.019835 204.222325 
L 312.094215 203.721042 
L 315.168595 202.99916 
L 318.242975 202.992586 
L 321.317355 202.974829 
L 324.391736 202.562055 
L 327.466116 202.579826 
L 330.540496 202.472092 
L 333.614876 206.853691 
L 336.689256 206.437981 
L 339.763636 205.46792 
L 342.838017 204.711733 
L 345.912397 204.97494 
L 348.986777 199.984702 
L 352.061157 204.292571 
L 355.135537 205.061642 
L 358.209917 203.047169 
L 361.284298 200.518536 
L 364.358678 204.07222 
L 367.433058 204.767314 
L 370.507438 205.198087 
L 373.581818 204.872816 
" style="fill:none;stroke:#8c564b;stroke-linecap:square;stroke-width:1.5;"/>
   </g>
   <g id="line2d_20">
    <path clip-path="url(#p8fdc89bff8)" d="M 69.218182 111.283691 
L 72.292562 102.446967 
L 75.366942 97.567516 
L 78.441322 92.796558 
L 81.515702 84.495959 
L 84.590083 80.014716 
L 87.664463 79.259429 
L 90.738843 71.184287 
L 93.813223 70.667112 
L 96.887603 70.134675 
L 99.961983 66.003802 
L 103.036364 61.912316 
L 106.110744 61.634412 
L 109.185124 61.318182 
L 112.259504 60.9549 
L 115.333884 60.533194 
L 118.408264 52.861031 
L 121.482645 49.016085 
L 124.557025 48.813827 
L 127.631405 52.456084 
L 130.705785 48.633812 
L 133.780165 48.550551 
L 136.854545 48.318572 
L 139.928926 48.301696 
L 143.003306 44.51685 
L 146.077686 44.443636 
L 149.152066 51.871386 
L 152.226446 51.91523 
L 155.300826 48.102419 
L 158.375207 48.334715 
L 161.449587 48.299704 
L 164.523967 52.02223 
L 167.598347 52.24534 
L 170.672727 56.069291 
L 173.747107 52.374169 
L 176.821488 56.410979 
L 179.895868 60.348248 
L 182.970248 58.608242 
L 186.044628 58.580643 
L 189.119008 54.776345 
L 192.193388 58.181728 
L 195.267769 57.617472 
L 198.342149 53.384113 
L 201.416529 52.988679 
L 204.490909 52.45381 
L 207.565289 48.385146 
L 210.639669 48.346579 
L 213.71405 44.801604 
L 216.78843 50.981375 
L 219.86281 59.059014 
L 222.93719 67.476077 
L 226.01157 83.573986 
L 229.08595 98.248373 
L 232.160331 99.259419 
L 235.234711 95.490707 
L 238.309091 106.574364 
L 241.383471 113.803945 
L 244.457851 122.689302 
L 247.532231 127.476557 
L 250.606612 137.318439 
L 253.680992 134.008708 
L 256.755372 138.115185 
L 259.829752 145.520833 
L 262.904132 130.119796 
L 265.978512 129.574109 
L 269.052893 124.869764 
L 272.127273 120.798388 
L 275.201653 124.404817 
L 278.276033 116.941707 
L 281.350413 113.612961 
L 284.424793 113.809865 
L 287.499174 117.575235 
L 290.573554 113.948231 
L 293.647934 109.926825 
L 296.722314 109.383054 
L 299.796694 106.754012 
L 302.871074 108.232424 
L 305.945455 100.737058 
L 309.019835 100.642557 
L 312.094215 97.120028 
L 315.168595 108.417856 
L 318.242975 104.988967 
L 321.317355 101.808394 
L 324.391736 105.708792 
L 327.466116 101.948106 
L 330.540496 101.889369 
L 333.614876 105.390368 
L 336.689256 103.295957 
L 339.763636 102.962107 
L 342.838017 98.841267 
L 345.912397 96.792717 
L 348.986777 96.64432 
L 352.061157 93.049989 
L 355.135537 100.448705 
L 358.209917 100.455941 
L 361.284298 93.311208 
L 364.358678 104.916374 
L 367.433058 97.959291 
L 370.507438 98.007816 
L 373.581818 101.90248 
" style="fill:none;stroke:#e377c2;stroke-linecap:square;stroke-width:1.5;"/>
   </g>
   <g id="line2d_21">
    <path clip-path="url(#p8fdc89bff8)" d="M 69.218182 238.223109 
L 72.292562 238.051959 
L 75.366942 237.903363 
L 78.441322 237.773063 
L 81.515702 237.657839 
L 84.590083 237.555194 
L 87.664463 237.463163 
L 90.738843 237.380149 
L 93.813223 237.304787 
L 96.887603 237.235864 
L 99.961983 237.172396 
L 103.036364 237.113847 
L 106.110744 237.060267 
L 109.185124 237.011958 
L 112.259504 236.968656 
L 115.333884 236.928963 
L 118.408264 236.891037 
L 121.482645 236.854407 
L 124.557025 236.820801 
L 127.631405 236.791933 
L 130.705785 236.766176 
L 133.780165 236.739621 
L 136.854545 236.711586 
L 139.928926 236.685769 
L 143.003306 236.663663 
L 146.077686 236.642908 
L 149.152066 236.624785 
L 152.226446 236.612271 
L 155.300826 236.600692 
L 158.375207 236.584902 
L 161.449587 236.567463 
L 164.523967 236.551881 
L 167.598347 236.540428 
L 170.672727 236.531652 
L 173.747107 236.521374 
L 176.821488 236.510566 
L 179.895868 236.500807 
L 182.970248 236.490855 
L 186.044628 236.480317 
L 189.119008 236.464356 
L 192.193388 236.431468 
L 195.267769 236.376496 
L 198.342149 236.306363 
L 201.416529 236.239263 
L 204.490909 236.193212 
L 207.565289 236.169915 
L 210.639669 236.160355 
L 213.71405 236.156089 
L 216.78843 236.153151 
L 219.86281 236.150476 
L 222.93719 236.147854 
L 226.01157 236.145151 
L 229.08595 236.141468 
L 232.160331 236.127224 
L 235.234711 236.098532 
L 238.309091 236.089378 
L 241.383471 236.037705 
L 244.457851 236.048819 
L 247.532231 236.089794 
L 250.606612 236.173208 
L 253.680992 236.212927 
L 256.755372 236.259723 
L 259.829752 236.297231 
L 262.904132 236.309342 
L 265.978512 236.311224 
L 269.052893 236.309169 
L 272.127273 236.31252 
L 275.201653 236.330346 
L 278.276033 236.361978 
L 281.350413 236.399844 
L 284.424793 236.430276 
L 287.499174 236.44537 
L 290.573554 236.448321 
L 293.647934 236.444688 
L 296.722314 236.437539 
L 299.796694 236.430534 
L 302.871074 236.425929 
L 305.945455 236.423221 
L 309.019835 236.423107 
L 312.094215 236.431947 
L 315.168595 236.457169 
L 318.242975 236.492385 
L 321.317355 236.518488 
L 324.391736 236.523827 
L 327.466116 236.519241 
L 330.540496 236.52348 
L 333.614876 236.536813 
L 336.689256 236.540805 
L 339.763636 236.52265 
L 342.838017 236.489606 
L 345.912397 236.465345 
L 348.986777 236.470527 
L 352.061157 236.503074 
L 355.135537 236.540403 
L 358.209917 236.559842 
L 361.284298 236.555167 
L 364.358678 236.536973 
L 367.433058 236.522201 
L 370.507438 236.523181 
L 373.581818 236.546429 
" style="fill:none;stroke:#7f7f7f;stroke-linecap:square;stroke-width:1.5;"/>
   </g>
   <g id="line2d_22">
    <path clip-path="url(#p8fdc89bff8)" d="M 69.218182 187.433523 
L 72.292562 178.431464 
L 75.366942 168.825587 
L 78.441322 158.614679 
L 81.515702 147.784808 
L 84.590083 136.127767 
L 87.664463 166.992564 
L 90.738843 177.938159 
L 93.813223 190.68883 
L 96.887603 194.990418 
L 99.961983 207.140829 
L 103.036364 208.418094 
L 106.110744 209.920869 
L 109.185124 211.909062 
L 112.259504 218.791791 
L 115.333884 216.626181 
L 118.408264 214.939134 
L 121.482645 218.387496 
L 124.557025 221.735837 
L 127.631405 225.382686 
L 130.705785 220.140887 
L 133.780165 219.493078 
L 136.854545 218.42213 
L 139.928926 222.877856 
L 143.003306 222.587183 
L 146.077686 213.372528 
L 149.152066 223.170273 
L 152.226446 219.178219 
L 155.300826 219.516822 
L 158.375207 215.800637 
L 161.449587 217.401964 
L 164.523967 216.28757 
L 167.598347 212.69918 
L 170.672727 218.197674 
L 173.747107 218.930006 
L 176.821488 219.293726 
L 179.895868 219.47268 
L 182.970248 214.560373 
L 186.044628 218.776853 
L 189.119008 218.942115 
L 192.193388 214.118079 
L 195.267769 209.386047 
L 198.342149 209.678951 
L 201.416529 206.057982 
L 204.490909 198.977272 
L 207.565289 188.340845 
L 210.639669 193.045258 
L 213.71405 198.06445 
L 216.78843 202.320408 
L 219.86281 210.931961 
L 222.93719 215.189002 
L 226.01157 213.666551 
L 229.08595 208.120461 
L 232.160331 207.548076 
L 235.234711 207.273323 
L 238.309091 212.193795 
L 241.383471 211.133635 
L 244.457851 210.690482 
L 247.532231 214.342564 
L 250.606612 214.157518 
L 253.680992 216.594081 
L 256.755372 218.456282 
L 259.829752 215.449976 
L 262.904132 215.987289 
L 265.978512 215.531759 
L 269.052893 209.895749 
L 272.127273 209.124056 
L 275.201653 209.136946 
L 278.276033 203.288438 
L 281.350413 203.344182 
L 284.424793 202.733537 
L 287.499174 202.016428 
L 290.573554 200.91518 
L 293.647934 199.171711 
L 296.722314 198.075708 
L 299.796694 196.763828 
L 302.871074 200.102522 
L 305.945455 199.452478 
L 309.019835 203.501971 
L 312.094215 198.597302 
L 315.168595 198.497358 
L 318.242975 198.626917 
L 321.317355 203.35443 
L 324.391736 203.227555 
L 327.466116 197.611749 
L 330.540496 202.468831 
L 333.614876 197.027445 
L 336.689256 196.732432 
L 339.763636 195.414833 
L 342.838017 195.363052 
L 345.912397 194.97 
L 348.986777 198.822262 
L 352.061157 198.009002 
L 355.135537 198.268014 
L 358.209917 198.039715 
L 361.284298 198.114285 
L 364.358678 193.24577 
L 367.433058 198.379456 
L 370.507438 202.987896 
L 373.581818 198.490343 
" style="fill:none;stroke:#bcbd22;stroke-linecap:square;stroke-width:1.5;"/>
   </g>
   <g id="line2d_23">
    <path clip-path="url(#p8fdc89bff8)" d="M 243.14026 252 
L 243.14026 34.56 
" style="fill:none;stroke:#ff0000;stroke-dasharray:5.55,2.4;stroke-dashoffset:0;stroke-width:1.5;"/>
   </g>
   <g id="patch_3">
    <path d="M 54 252 
L 54 34.56 
" style="fill:none;stroke:#000000;stroke-linecap:square;stroke-linejoin:miter;stroke-width:0.8;"/>
   </g>
   <g id="patch_4">
    <path d="M 388.8 252 
L 388.8 34.56 
" style="fill:none;stroke:#000000;stroke-linecap:square;stroke-linejoin:miter;stroke-width:0.8;"/>
   </g>
   <g id="patch_5">
    <path d="M 54 252 
L 388.8 252 
" style="fill:none;stroke:#000000;stroke-linecap:square;stroke-linejoin:miter;stroke-width:0.8;"/>
   </g>
   <g id="patch_6">
    <path d="M 54 34.56 
L 388.8 34.56 
" style="fill:none;stroke:#000000;stroke-linecap:square;stroke-linejoin:miter;stroke-width:0.8;"/>
   </g>
   <g id="legend_1">
    <g id="patch_7">
     <path d="M 320.501562 174.663125 
L 381.8 174.663125 
Q 383.8 174.663125 383.8 172.663125 
L 383.8 41.56 
Q 383.8 39.56 381.8 39.56 
L 320.501562 39.56 
Q 318.501562 39.56 318.501562 41.56 
L 318.501562 172.663125 
Q 318.501562 174.663125 320.501562 174.663125 
z
" style="fill:#ffffff;opacity:0.8;stroke:#cccccc;stroke-linejoin:miter;"/>
    </g>
    <g id="line2d_24">
     <path d="M 322.501562 47.658437 
L 342.501562 47.658437 
" style="fill:none;stroke:#1f77b4;stroke-linecap:square;stroke-width:1.5;"/>
    </g>
    <g id="line2d_25"/>
    <g id="text_16">
     <!-- upper -->
     <g transform="translate(350.501562 51.158437)scale(0.1 -0.1)">
      <defs>
       <path d="M 544 1381 
L 544 3500 
L 1119 3500 
L 1119 1403 
Q 1119 906 1312 657 
Q 1506 409 1894 409 
Q 2359 409 2629 706 
Q 2900 1003 2900 1516 
L 2900 3500 
L 3475 3500 
L 3475 0 
L 2900 0 
L 2900 538 
Q 2691 219 2414 64 
Q 2138 -91 1772 -91 
Q 1169 -91 856 284 
Q 544 659 544 1381 
z
M 1991 3584 
L 1991 3584 
z
" id="DejaVuSans-75" transform="scale(0.015625)"/>
       <path d="M 1159 525 
L 1159 -1331 
L 581 -1331 
L 581 3500 
L 1159 3500 
L 1159 2969 
Q 1341 3281 1617 3432 
Q 1894 3584 2278 3584 
Q 2916 3584 3314 3078 
Q 3713 2572 3713 1747 
Q 3713 922 3314 415 
Q 2916 -91 2278 -91 
Q 1894 -91 1617 61 
Q 1341 213 1159 525 
z
M 3116 1747 
Q 3116 2381 2855 2742 
Q 2594 3103 2138 3103 
Q 1681 3103 1420 2742 
Q 1159 2381 1159 1747 
Q 1159 1113 1420 752 
Q 1681 391 2138 391 
Q 2594 391 2855 752 
Q 3116 1113 3116 1747 
z
" id="DejaVuSans-70" transform="scale(0.015625)"/>
       <path d="M 3597 1894 
L 3597 1613 
L 953 1613 
Q 991 1019 1311 708 
Q 1631 397 2203 397 
Q 2534 397 2845 478 
Q 3156 559 3463 722 
L 3463 178 
Q 3153 47 2828 -22 
Q 2503 -91 2169 -91 
Q 1331 -91 842 396 
Q 353 884 353 1716 
Q 353 2575 817 3079 
Q 1281 3584 2069 3584 
Q 2775 3584 3186 3129 
Q 3597 2675 3597 1894 
z
M 3022 2063 
Q 3016 2534 2758 2815 
Q 2500 3097 2075 3097 
Q 1594 3097 1305 2825 
Q 1016 2553 972 2059 
L 3022 2063 
z
" id="DejaVuSans-65" transform="scale(0.015625)"/>
       <path d="M 2631 2963 
Q 2534 3019 2420 3045 
Q 2306 3072 2169 3072 
Q 1681 3072 1420 2755 
Q 1159 2438 1159 1844 
L 1159 0 
L 581 0 
L 581 3500 
L 1159 3500 
L 1159 2956 
Q 1341 3275 1631 3429 
Q 1922 3584 2338 3584 
Q 2397 3584 2469 3576 
Q 2541 3569 2628 3553 
L 2631 2963 
z
" id="DejaVuSans-72" transform="scale(0.015625)"/>
      </defs>
      <use xlink:href="#DejaVuSans-75"/>
      <use x="63.378906" xlink:href="#DejaVuSans-70"/>
      <use x="126.855469" xlink:href="#DejaVuSans-70"/>
      <use x="190.332031" xlink:href="#DejaVuSans-65"/>
      <use x="251.855469" xlink:href="#DejaVuSans-72"/>
     </g>
    </g>
    <g id="line2d_26">
     <path d="M 322.501562 62.336563 
L 342.501562 62.336563 
" style="fill:none;stroke:#ff7f0e;stroke-linecap:square;stroke-width:1.5;"/>
    </g>
    <g id="line2d_27"/>
    <g id="text_17">
     <!-- lower -->
     <g transform="translate(350.501562 65.836563)scale(0.1 -0.1)">
      <defs>
       <path d="M 603 4863 
L 1178 4863 
L 1178 0 
L 603 0 
L 603 4863 
z
" id="DejaVuSans-6c" transform="scale(0.015625)"/>
       <path d="M 1959 3097 
Q 1497 3097 1228 2736 
Q 959 2375 959 1747 
Q 959 1119 1226 758 
Q 1494 397 1959 397 
Q 2419 397 2687 759 
Q 2956 1122 2956 1747 
Q 2956 2369 2687 2733 
Q 2419 3097 1959 3097 
z
M 1959 3584 
Q 2709 3584 3137 3096 
Q 3566 2609 3566 1747 
Q 3566 888 3137 398 
Q 2709 -91 1959 -91 
Q 1206 -91 779 398 
Q 353 888 353 1747 
Q 353 2609 779 3096 
Q 1206 3584 1959 3584 
z
" id="DejaVuSans-6f" transform="scale(0.015625)"/>
       <path d="M 269 3500 
L 844 3500 
L 1563 769 
L 2278 3500 
L 2956 3500 
L 3675 769 
L 4391 3500 
L 4966 3500 
L 4050 0 
L 3372 0 
L 2619 2869 
L 1863 0 
L 1184 0 
L 269 3500 
z
" id="DejaVuSans-77" transform="scale(0.015625)"/>
      </defs>
      <use xlink:href="#DejaVuSans-6c"/>
      <use x="27.783203" xlink:href="#DejaVuSans-6f"/>
      <use x="88.964844" xlink:href="#DejaVuSans-77"/>
      <use x="170.751953" xlink:href="#DejaVuSans-65"/>
      <use x="232.275391" xlink:href="#DejaVuSans-72"/>
     </g>
    </g>
    <g id="line2d_28">
     <path d="M 322.501562 77.014687 
L 342.501562 77.014687 
" style="fill:none;stroke:#2ca02c;stroke-linecap:square;stroke-width:1.5;"/>
    </g>
    <g id="line2d_29"/>
    <g id="text_18">
     <!-- s(x) -->
     <g transform="translate(350.501562 80.514687)scale(0.1 -0.1)">
      <defs>
       <path d="M 2834 3397 
L 2834 2853 
Q 2591 2978 2328 3040 
Q 2066 3103 1784 3103 
Q 1356 3103 1142 2972 
Q 928 2841 928 2578 
Q 928 2378 1081 2264 
Q 1234 2150 1697 2047 
L 1894 2003 
Q 2506 1872 2764 1633 
Q 3022 1394 3022 966 
Q 3022 478 2636 193 
Q 2250 -91 1575 -91 
Q 1294 -91 989 -36 
Q 684 19 347 128 
L 347 722 
Q 666 556 975 473 
Q 1284 391 1588 391 
Q 1994 391 2212 530 
Q 2431 669 2431 922 
Q 2431 1156 2273 1281 
Q 2116 1406 1581 1522 
L 1381 1569 
Q 847 1681 609 1914 
Q 372 2147 372 2553 
Q 372 3047 722 3315 
Q 1072 3584 1716 3584 
Q 2034 3584 2315 3537 
Q 2597 3491 2834 3397 
z
" id="DejaVuSans-73" transform="scale(0.015625)"/>
       <path d="M 1984 4856 
Q 1566 4138 1362 3434 
Q 1159 2731 1159 2009 
Q 1159 1288 1364 580 
Q 1569 -128 1984 -844 
L 1484 -844 
Q 1016 -109 783 600 
Q 550 1309 550 2009 
Q 550 2706 781 3412 
Q 1013 4119 1484 4856 
L 1984 4856 
z
" id="DejaVuSans-28" transform="scale(0.015625)"/>
       <path d="M 3513 3500 
L 2247 1797 
L 3578 0 
L 2900 0 
L 1881 1375 
L 863 0 
L 184 0 
L 1544 1831 
L 300 3500 
L 978 3500 
L 1906 2253 
L 2834 3500 
L 3513 3500 
z
" id="DejaVuSans-78" transform="scale(0.015625)"/>
       <path d="M 513 4856 
L 1013 4856 
Q 1481 4119 1714 3412 
Q 1947 2706 1947 2009 
Q 1947 1309 1714 600 
Q 1481 -109 1013 -844 
L 513 -844 
Q 928 -128 1133 580 
Q 1338 1288 1338 2009 
Q 1338 2731 1133 3434 
Q 928 4138 513 4856 
z
" id="DejaVuSans-29" transform="scale(0.015625)"/>
      </defs>
      <use xlink:href="#DejaVuSans-73"/>
      <use x="52.099609" xlink:href="#DejaVuSans-28"/>
      <use x="91.113281" xlink:href="#DejaVuSans-78"/>
      <use x="150.292969" xlink:href="#DejaVuSans-29"/>
     </g>
    </g>
    <g id="line2d_30">
     <path d="M 322.501562 91.692813 
L 342.501562 91.692813 
" style="fill:none;stroke:#d62728;stroke-linecap:square;stroke-width:1.5;"/>
    </g>
    <g id="line2d_31"/>
    <g id="text_19">
     <!-- upper -->
     <g transform="translate(350.501562 95.192813)scale(0.1 -0.1)">
      <use xlink:href="#DejaVuSans-75"/>
      <use x="63.378906" xlink:href="#DejaVuSans-70"/>
      <use x="126.855469" xlink:href="#DejaVuSans-70"/>
      <use x="190.332031" xlink:href="#DejaVuSans-65"/>
      <use x="251.855469" xlink:href="#DejaVuSans-72"/>
     </g>
    </g>
    <g id="line2d_32">
     <path d="M 322.501562 106.370937 
L 342.501562 106.370937 
" style="fill:none;stroke:#9467bd;stroke-linecap:square;stroke-width:1.5;"/>
    </g>
    <g id="line2d_33"/>
    <g id="text_20">
     <!-- lower -->
     <g transform="translate(350.501562 109.870937)scale(0.1 -0.1)">
      <use xlink:href="#DejaVuSans-6c"/>
      <use x="27.783203" xlink:href="#DejaVuSans-6f"/>
      <use x="88.964844" xlink:href="#DejaVuSans-77"/>
      <use x="170.751953" xlink:href="#DejaVuSans-65"/>
      <use x="232.275391" xlink:href="#DejaVuSans-72"/>
     </g>
    </g>
    <g id="line2d_34">
     <path d="M 322.501562 121.049062 
L 342.501562 121.049062 
" style="fill:none;stroke:#8c564b;stroke-linecap:square;stroke-width:1.5;"/>
    </g>
    <g id="line2d_35"/>
    <g id="text_21">
     <!-- s(x) -->
     <g transform="translate(350.501562 124.549062)scale(0.1 -0.1)">
      <use xlink:href="#DejaVuSans-73"/>
      <use x="52.099609" xlink:href="#DejaVuSans-28"/>
      <use x="91.113281" xlink:href="#DejaVuSans-78"/>
      <use x="150.292969" xlink:href="#DejaVuSans-29"/>
     </g>
    </g>
    <g id="line2d_36">
     <path d="M 322.501562 135.727187 
L 342.501562 135.727187 
" style="fill:none;stroke:#e377c2;stroke-linecap:square;stroke-width:1.5;"/>
    </g>
    <g id="line2d_37"/>
    <g id="text_22">
     <!-- upper -->
     <g transform="translate(350.501562 139.227187)scale(0.1 -0.1)">
      <use xlink:href="#DejaVuSans-75"/>
      <use x="63.378906" xlink:href="#DejaVuSans-70"/>
      <use x="126.855469" xlink:href="#DejaVuSans-70"/>
      <use x="190.332031" xlink:href="#DejaVuSans-65"/>
      <use x="251.855469" xlink:href="#DejaVuSans-72"/>
     </g>
    </g>
    <g id="line2d_38">
     <path d="M 322.501562 150.405312 
L 342.501562 150.405312 
" style="fill:none;stroke:#7f7f7f;stroke-linecap:square;stroke-width:1.5;"/>
    </g>
    <g id="line2d_39"/>
    <g id="text_23">
     <!-- lower -->
     <g transform="translate(350.501562 153.905312)scale(0.1 -0.1)">
      <use xlink:href="#DejaVuSans-6c"/>
      <use x="27.783203" xlink:href="#DejaVuSans-6f"/>
      <use x="88.964844" xlink:href="#DejaVuSans-77"/>
      <use x="170.751953" xlink:href="#DejaVuSans-65"/>
      <use x="232.275391" xlink:href="#DejaVuSans-72"/>
     </g>
    </g>
    <g id="line2d_40">
     <path d="M 322.501562 165.083437 
L 342.501562 165.083437 
" style="fill:none;stroke:#bcbd22;stroke-linecap:square;stroke-width:1.5;"/>
    </g>
    <g id="line2d_41"/>
    <g id="text_24">
     <!-- s(x) -->
     <g transform="translate(350.501562 168.583437)scale(0.1 -0.1)">
      <use xlink:href="#DejaVuSans-73"/>
      <use x="52.099609" xlink:href="#DejaVuSans-28"/>
      <use x="91.113281" xlink:href="#DejaVuSans-78"/>
      <use x="150.292969" xlink:href="#DejaVuSans-29"/>
     </g>
    </g>
   </g>
  </g>
 </g>
 <defs>
  <clipPath id="p8fdc89bff8">
   <rect height="217.44" width="334.8" x="54" y="34.56"/>
  </clipPath>
 </defs>
</svg>
