<?xml version="1.0" encoding="utf-8" standalone="no"?>
<!DOCTYPE svg PUBLIC "-//W3C//DTD SVG 1.1//EN"
  "http://www.w3.org/Graphics/SVG/1.1/DTD/svg11.dtd">
<svg height="432pt" version="1.1" viewBox="0 0 576 432" width="576pt" xmlns="http://www.w3.org/2000/svg" xmlns:xlink="http://www.w3.org/1999/xlink">
 <metadata>
  <rdf:RDF xmlns:cc="http://creativecommons.org/ns#" xmlns:dc="http://purl.org/dc/elements/1.1/" xmlns:rdf="http://www.w3.org/1999/02/22-rdf-syntax-ns#">
   <cc:Work>
    <dc:type rdf:resource="http://purl.org/dc/dcmitype/StillImage"/>
    <dc:date>2023-04-24T15:33:45.183049</dc:date>
    <dc:format>image/svg+xml</dc:format>
    <dc:creator>
     <cc:Agent>
      <dc:title>Matplotlib v3.4.3, https://matplotlib.org/</dc:title>
     </cc:Agent>
    </dc:creator>
   </cc:Work>
  </rdf:RDF>
 </metadata>
 <defs>
  <style type="text/css">*{stroke-linecap:butt;stroke-linejoin:round;}</style>
 </defs>
 <g id="figure_1">
  <g id="patch_1">
   <path d="M 0 432 
L 576 432 
L 576 0 
L 0 0 
z
" style="fill:#ffffff;"/>
  </g>
  <g id="axes_1">
   <g id="patch_2">
    <path d="M 72 378 
L 518.4 378 
L 518.4 51.84 
L 72 51.84 
z
" style="fill:#ffffff;"/>
   </g>
   <g id="matplotlib.axis_1">
    <g id="xtick_1">
     <g id="line2d_1">
      <defs>
       <path d="M 0 0 
L 0 3.5 
" id="md07396a36a" style="stroke:#000000;stroke-width:0.8;"/>
      </defs>
      <g>
       <use style="stroke:#000000;stroke-width:0.8;" x="92.290909" xlink:href="#md07396a36a" y="378"/>
      </g>
     </g>
     <g id="text_1">
      <!-- 0 -->
      <g transform="translate(89.109659 392.598437)scale(0.1 -0.1)">
       <defs>
        <path d="M 2034 4250 
Q 1547 4250 1301 3770 
Q 1056 3291 1056 2328 
Q 1056 1369 1301 889 
Q 1547 409 2034 409 
Q 2525 409 2770 889 
Q 3016 1369 3016 2328 
Q 3016 3291 2770 3770 
Q 2525 4250 2034 4250 
z
M 2034 4750 
Q 2819 4750 3233 4129 
Q 3647 3509 3647 2328 
Q 3647 1150 3233 529 
Q 2819 -91 2034 -91 
Q 1250 -91 836 529 
Q 422 1150 422 2328 
Q 422 3509 836 4129 
Q 1250 4750 2034 4750 
z
" id="DejaVuSans-30" transform="scale(0.015625)"/>
       </defs>
       <use xlink:href="#DejaVuSans-30"/>
      </g>
     </g>
    </g>
    <g id="xtick_2">
     <g id="line2d_2">
      <g>
       <use style="stroke:#000000;stroke-width:0.8;" x="159.927273" xlink:href="#md07396a36a" y="378"/>
      </g>
     </g>
     <g id="text_2">
      <!-- 5 -->
      <g transform="translate(156.746023 392.598437)scale(0.1 -0.1)">
       <defs>
        <path d="M 691 4666 
L 3169 4666 
L 3169 4134 
L 1269 4134 
L 1269 2991 
Q 1406 3038 1543 3061 
Q 1681 3084 1819 3084 
Q 2600 3084 3056 2656 
Q 3513 2228 3513 1497 
Q 3513 744 3044 326 
Q 2575 -91 1722 -91 
Q 1428 -91 1123 -41 
Q 819 9 494 109 
L 494 744 
Q 775 591 1075 516 
Q 1375 441 1709 441 
Q 2250 441 2565 725 
Q 2881 1009 2881 1497 
Q 2881 1984 2565 2268 
Q 2250 2553 1709 2553 
Q 1456 2553 1204 2497 
Q 953 2441 691 2322 
L 691 4666 
z
" id="DejaVuSans-35" transform="scale(0.015625)"/>
       </defs>
       <use xlink:href="#DejaVuSans-35"/>
      </g>
     </g>
    </g>
    <g id="xtick_3">
     <g id="line2d_3">
      <g>
       <use style="stroke:#000000;stroke-width:0.8;" x="227.563636" xlink:href="#md07396a36a" y="378"/>
      </g>
     </g>
     <g id="text_3">
      <!-- 10 -->
      <g transform="translate(221.201136 392.598437)scale(0.1 -0.1)">
       <defs>
        <path d="M 794 531 
L 1825 531 
L 1825 4091 
L 703 3866 
L 703 4441 
L 1819 4666 
L 2450 4666 
L 2450 531 
L 3481 531 
L 3481 0 
L 794 0 
L 794 531 
z
" id="DejaVuSans-31" transform="scale(0.015625)"/>
       </defs>
       <use xlink:href="#DejaVuSans-31"/>
       <use x="63.623047" xlink:href="#DejaVuSans-30"/>
      </g>
     </g>
    </g>
    <g id="xtick_4">
     <g id="line2d_4">
      <g>
       <use style="stroke:#000000;stroke-width:0.8;" x="295.2" xlink:href="#md07396a36a" y="378"/>
      </g>
     </g>
     <g id="text_4">
      <!-- 15 -->
      <g transform="translate(288.8375 392.598437)scale(0.1 -0.1)">
       <use xlink:href="#DejaVuSans-31"/>
       <use x="63.623047" xlink:href="#DejaVuSans-35"/>
      </g>
     </g>
    </g>
    <g id="xtick_5">
     <g id="line2d_5">
      <g>
       <use style="stroke:#000000;stroke-width:0.8;" x="362.836364" xlink:href="#md07396a36a" y="378"/>
      </g>
     </g>
     <g id="text_5">
      <!-- 20 -->
      <g transform="translate(356.473864 392.598437)scale(0.1 -0.1)">
       <defs>
        <path d="M 1228 531 
L 3431 531 
L 3431 0 
L 469 0 
L 469 531 
Q 828 903 1448 1529 
Q 2069 2156 2228 2338 
Q 2531 2678 2651 2914 
Q 2772 3150 2772 3378 
Q 2772 3750 2511 3984 
Q 2250 4219 1831 4219 
Q 1534 4219 1204 4116 
Q 875 4013 500 3803 
L 500 4441 
Q 881 4594 1212 4672 
Q 1544 4750 1819 4750 
Q 2544 4750 2975 4387 
Q 3406 4025 3406 3419 
Q 3406 3131 3298 2873 
Q 3191 2616 2906 2266 
Q 2828 2175 2409 1742 
Q 1991 1309 1228 531 
z
" id="DejaVuSans-32" transform="scale(0.015625)"/>
       </defs>
       <use xlink:href="#DejaVuSans-32"/>
       <use x="63.623047" xlink:href="#DejaVuSans-30"/>
      </g>
     </g>
    </g>
    <g id="xtick_6">
     <g id="line2d_6">
      <g>
       <use style="stroke:#000000;stroke-width:0.8;" x="430.472727" xlink:href="#md07396a36a" y="378"/>
      </g>
     </g>
     <g id="text_6">
      <!-- 25 -->
      <g transform="translate(424.110227 392.598437)scale(0.1 -0.1)">
       <use xlink:href="#DejaVuSans-32"/>
       <use x="63.623047" xlink:href="#DejaVuSans-35"/>
      </g>
     </g>
    </g>
    <g id="xtick_7">
     <g id="line2d_7">
      <g>
       <use style="stroke:#000000;stroke-width:0.8;" x="498.109091" xlink:href="#md07396a36a" y="378"/>
      </g>
     </g>
     <g id="text_7">
      <!-- 30 -->
      <g transform="translate(491.746591 392.598437)scale(0.1 -0.1)">
       <defs>
        <path d="M 2597 2516 
Q 3050 2419 3304 2112 
Q 3559 1806 3559 1356 
Q 3559 666 3084 287 
Q 2609 -91 1734 -91 
Q 1441 -91 1130 -33 
Q 819 25 488 141 
L 488 750 
Q 750 597 1062 519 
Q 1375 441 1716 441 
Q 2309 441 2620 675 
Q 2931 909 2931 1356 
Q 2931 1769 2642 2001 
Q 2353 2234 1838 2234 
L 1294 2234 
L 1294 2753 
L 1863 2753 
Q 2328 2753 2575 2939 
Q 2822 3125 2822 3475 
Q 2822 3834 2567 4026 
Q 2313 4219 1838 4219 
Q 1578 4219 1281 4162 
Q 984 4106 628 3988 
L 628 4550 
Q 988 4650 1302 4700 
Q 1616 4750 1894 4750 
Q 2613 4750 3031 4423 
Q 3450 4097 3450 3541 
Q 3450 3153 3228 2886 
Q 3006 2619 2597 2516 
z
" id="DejaVuSans-33" transform="scale(0.015625)"/>
       </defs>
       <use xlink:href="#DejaVuSans-33"/>
       <use x="63.623047" xlink:href="#DejaVuSans-30"/>
      </g>
     </g>
    </g>
    <g id="text_8">
     <!-- t -->
     <g transform="translate(292.455781 409.315938)scale(0.14 -0.14)">
      <defs>
       <path d="M 1172 4494 
L 1172 3500 
L 2356 3500 
L 2356 3053 
L 1172 3053 
L 1172 1153 
Q 1172 725 1289 603 
Q 1406 481 1766 481 
L 2356 481 
L 2356 0 
L 1766 0 
Q 1100 0 847 248 
Q 594 497 594 1153 
L 594 3053 
L 172 3053 
L 172 3500 
L 594 3500 
L 594 4494 
L 1172 4494 
z
" id="DejaVuSans-74" transform="scale(0.015625)"/>
      </defs>
      <use xlink:href="#DejaVuSans-74"/>
     </g>
    </g>
   </g>
   <g id="matplotlib.axis_2">
    <g id="ytick_1">
     <g id="line2d_8">
      <defs>
       <path d="M 0 0 
L -3.5 0 
" id="m15c509ea94" style="stroke:#000000;stroke-width:0.8;"/>
      </defs>
      <g>
       <use style="stroke:#000000;stroke-width:0.8;" x="72" xlink:href="#m15c509ea94" y="363.174545"/>
      </g>
     </g>
     <g id="text_9">
      <!-- 0.00 -->
      <g transform="translate(42.734375 366.973764)scale(0.1 -0.1)">
       <defs>
        <path d="M 684 794 
L 1344 794 
L 1344 0 
L 684 0 
L 684 794 
z
" id="DejaVuSans-2e" transform="scale(0.015625)"/>
       </defs>
       <use xlink:href="#DejaVuSans-30"/>
       <use x="63.623047" xlink:href="#DejaVuSans-2e"/>
       <use x="95.410156" xlink:href="#DejaVuSans-30"/>
       <use x="159.033203" xlink:href="#DejaVuSans-30"/>
      </g>
     </g>
    </g>
    <g id="ytick_2">
     <g id="line2d_9">
      <g>
       <use style="stroke:#000000;stroke-width:0.8;" x="72" xlink:href="#m15c509ea94" y="326.110909"/>
      </g>
     </g>
     <g id="text_10">
      <!-- 0.25 -->
      <g transform="translate(42.734375 329.910128)scale(0.1 -0.1)">
       <use xlink:href="#DejaVuSans-30"/>
       <use x="63.623047" xlink:href="#DejaVuSans-2e"/>
       <use x="95.410156" xlink:href="#DejaVuSans-32"/>
       <use x="159.033203" xlink:href="#DejaVuSans-35"/>
      </g>
     </g>
    </g>
    <g id="ytick_3">
     <g id="line2d_10">
      <g>
       <use style="stroke:#000000;stroke-width:0.8;" x="72" xlink:href="#m15c509ea94" y="289.047273"/>
      </g>
     </g>
     <g id="text_11">
      <!-- 0.50 -->
      <g transform="translate(42.734375 292.846491)scale(0.1 -0.1)">
       <use xlink:href="#DejaVuSans-30"/>
       <use x="63.623047" xlink:href="#DejaVuSans-2e"/>
       <use x="95.410156" xlink:href="#DejaVuSans-35"/>
       <use x="159.033203" xlink:href="#DejaVuSans-30"/>
      </g>
     </g>
    </g>
    <g id="ytick_4">
     <g id="line2d_11">
      <g>
       <use style="stroke:#000000;stroke-width:0.8;" x="72" xlink:href="#m15c509ea94" y="251.983636"/>
      </g>
     </g>
     <g id="text_12">
      <!-- 0.75 -->
      <g transform="translate(42.734375 255.782855)scale(0.1 -0.1)">
       <defs>
        <path d="M 525 4666 
L 3525 4666 
L 3525 4397 
L 1831 0 
L 1172 0 
L 2766 4134 
L 525 4134 
L 525 4666 
z
" id="DejaVuSans-37" transform="scale(0.015625)"/>
       </defs>
       <use xlink:href="#DejaVuSans-30"/>
       <use x="63.623047" xlink:href="#DejaVuSans-2e"/>
       <use x="95.410156" xlink:href="#DejaVuSans-37"/>
       <use x="159.033203" xlink:href="#DejaVuSans-35"/>
      </g>
     </g>
    </g>
    <g id="ytick_5">
     <g id="line2d_12">
      <g>
       <use style="stroke:#000000;stroke-width:0.8;" x="72" xlink:href="#m15c509ea94" y="214.92"/>
      </g>
     </g>
     <g id="text_13">
      <!-- 1.00 -->
      <g transform="translate(42.734375 218.719219)scale(0.1 -0.1)">
       <use xlink:href="#DejaVuSans-31"/>
       <use x="63.623047" xlink:href="#DejaVuSans-2e"/>
       <use x="95.410156" xlink:href="#DejaVuSans-30"/>
       <use x="159.033203" xlink:href="#DejaVuSans-30"/>
      </g>
     </g>
    </g>
    <g id="ytick_6">
     <g id="line2d_13">
      <g>
       <use style="stroke:#000000;stroke-width:0.8;" x="72" xlink:href="#m15c509ea94" y="177.856364"/>
      </g>
     </g>
     <g id="text_14">
      <!-- 1.25 -->
      <g transform="translate(42.734375 181.655582)scale(0.1 -0.1)">
       <use xlink:href="#DejaVuSans-31"/>
       <use x="63.623047" xlink:href="#DejaVuSans-2e"/>
       <use x="95.410156" xlink:href="#DejaVuSans-32"/>
       <use x="159.033203" xlink:href="#DejaVuSans-35"/>
      </g>
     </g>
    </g>
    <g id="ytick_7">
     <g id="line2d_14">
      <g>
       <use style="stroke:#000000;stroke-width:0.8;" x="72" xlink:href="#m15c509ea94" y="140.792727"/>
      </g>
     </g>
     <g id="text_15">
      <!-- 1.50 -->
      <g transform="translate(42.734375 144.591946)scale(0.1 -0.1)">
       <use xlink:href="#DejaVuSans-31"/>
       <use x="63.623047" xlink:href="#DejaVuSans-2e"/>
       <use x="95.410156" xlink:href="#DejaVuSans-35"/>
       <use x="159.033203" xlink:href="#DejaVuSans-30"/>
      </g>
     </g>
    </g>
    <g id="ytick_8">
     <g id="line2d_15">
      <g>
       <use style="stroke:#000000;stroke-width:0.8;" x="72" xlink:href="#m15c509ea94" y="103.729091"/>
      </g>
     </g>
     <g id="text_16">
      <!-- 1.75 -->
      <g transform="translate(42.734375 107.52831)scale(0.1 -0.1)">
       <use xlink:href="#DejaVuSans-31"/>
       <use x="63.623047" xlink:href="#DejaVuSans-2e"/>
       <use x="95.410156" xlink:href="#DejaVuSans-37"/>
       <use x="159.033203" xlink:href="#DejaVuSans-35"/>
      </g>
     </g>
    </g>
    <g id="ytick_9">
     <g id="line2d_16">
      <g>
       <use style="stroke:#000000;stroke-width:0.8;" x="72" xlink:href="#m15c509ea94" y="66.665455"/>
      </g>
     </g>
     <g id="text_17">
      <!-- 2.00 -->
      <g transform="translate(42.734375 70.464673)scale(0.1 -0.1)">
       <use xlink:href="#DejaVuSans-32"/>
       <use x="63.623047" xlink:href="#DejaVuSans-2e"/>
       <use x="95.410156" xlink:href="#DejaVuSans-30"/>
       <use x="159.033203" xlink:href="#DejaVuSans-30"/>
      </g>
     </g>
    </g>
    <g id="text_18">
     <!-- $\langle \Sigma \rangle (t)$ -->
     <g transform="translate(35.822812 233.05)rotate(-90)scale(0.14 -0.14)">
      <defs>
       <path d="M 572 2006 
L 1453 4856 
L 1984 4856 
L 1103 2006 
L 1984 -844 
L 1453 -844 
L 572 2006 
z
" id="DejaVuSans-27e8" transform="scale(0.015625)"/>
       <path d="M 1353 531 
L 3634 531 
L 3634 0 
L 628 0 
L 628 531 
L 2125 2481 
L 628 4134 
L 628 4666 
L 3578 4666 
L 3578 4134 
L 1353 4134 
L 2850 2494 
L 1353 531 
z
" id="DejaVuSans-3a3" transform="scale(0.015625)"/>
       <path d="M 1925 2006 
L 1044 -844 
L 513 -844 
L 1394 2006 
L 513 4856 
L 1044 4856 
L 1925 2006 
z
" id="DejaVuSans-27e9" transform="scale(0.015625)"/>
       <path d="M 1984 4856 
Q 1566 4138 1362 3434 
Q 1159 2731 1159 2009 
Q 1159 1288 1364 580 
Q 1569 -128 1984 -844 
L 1484 -844 
Q 1016 -109 783 600 
Q 550 1309 550 2009 
Q 550 2706 781 3412 
Q 1013 4119 1484 4856 
L 1984 4856 
z
" id="DejaVuSans-28" transform="scale(0.015625)"/>
       <path d="M 2706 3500 
L 2619 3053 
L 1472 3053 
L 1100 1153 
Q 1081 1047 1072 975 
Q 1063 903 1063 863 
Q 1063 663 1183 572 
Q 1303 481 1569 481 
L 2150 481 
L 2053 0 
L 1503 0 
Q 991 0 739 200 
Q 488 400 488 806 
Q 488 878 497 964 
Q 506 1050 525 1153 
L 897 3053 
L 409 3053 
L 500 3500 
L 978 3500 
L 1172 4494 
L 1747 4494 
L 1556 3500 
L 2706 3500 
z
" id="DejaVuSans-Oblique-74" transform="scale(0.015625)"/>
       <path d="M 513 4856 
L 1013 4856 
Q 1481 4119 1714 3412 
Q 1947 2706 1947 2009 
Q 1947 1309 1714 600 
Q 1481 -109 1013 -844 
L 513 -844 
Q 928 -128 1133 580 
Q 1338 1288 1338 2009 
Q 1338 2731 1133 3434 
Q 928 4138 513 4856 
z
" id="DejaVuSans-29" transform="scale(0.015625)"/>
      </defs>
      <use transform="translate(0 0.125)" xlink:href="#DejaVuSans-27e8"/>
      <use transform="translate(39.013672 0.125)" xlink:href="#DejaVuSans-3a3"/>
      <use transform="translate(102.197266 0.125)" xlink:href="#DejaVuSans-27e9"/>
      <use transform="translate(141.210938 0.125)" xlink:href="#DejaVuSans-28"/>
      <use transform="translate(180.224609 0.125)" xlink:href="#DejaVuSans-Oblique-74"/>
      <use transform="translate(219.433594 0.125)" xlink:href="#DejaVuSans-29"/>
     </g>
    </g>
   </g>
   <g id="line2d_17">
    <path clip-path="url(#p7e5b54ec42)" d="M 92.290909 363.174545 
L 94.330196 95.13598 
L 96.369484 66.680472 
L 112.683783 66.665455 
L 165.705254 66.757453 
L 167.744541 69.245743 
L 169.783828 91.096694 
L 171.823116 150.389757 
L 173.862403 190.214811 
L 175.90169 161.717968 
L 177.940978 109.616606 
L 179.980265 79.318792 
L 182.019552 69.40659 
L 184.05884 67.150963 
L 186.098127 66.741502 
L 190.176702 66.667049 
L 241.158885 66.733348 
L 243.198173 67.217829 
L 245.23746 69.551355 
L 247.276747 76.772378 
L 249.316035 91.448887 
L 251.355322 111.216428 
L 253.394609 128.225081 
L 255.433897 134.945229 
L 257.473184 129.597674 
L 259.512471 116.135898 
L 261.551759 100.527489 
L 263.591046 87.227424 
L 265.630333 77.942329 
L 267.669621 72.347154 
L 269.708908 69.336138 
L 271.748196 67.852401 
L 273.787483 67.169933 
L 275.82677 66.872485 
L 279.905345 66.697842 
L 294.180356 66.665494 
L 316.612517 66.732048 
L 318.651804 66.954353 
L 320.691092 67.661059 
L 322.730379 69.448141 
L 324.769667 73.095992 
L 326.808954 79.175798 
L 328.848241 87.510582 
L 330.887529 96.911119 
L 332.926816 105.488895 
L 334.966103 111.3914 
L 337.005391 113.495934 
L 339.044678 111.706673 
L 341.083965 106.812512 
L 343.123253 100.079772 
L 345.16254 92.807624 
L 347.201827 86.009464 
L 349.241115 80.281964 
L 351.280402 75.833781 
L 353.319689 72.601112 
L 355.358977 70.378127 
L 357.398264 68.918901 
L 359.437551 67.997967 
L 361.476839 67.435832 
L 363.516126 67.1023 
L 367.594701 66.799478 
L 373.712563 66.686421 
L 390.026862 66.686579 
L 394.105436 66.866272 
L 396.144724 67.184973 
L 398.184011 67.890244 
L 400.223298 69.203703 
L 402.262586 71.409367 
L 404.301873 74.662902 
L 406.34116 78.997069 
L 408.380448 84.11052 
L 410.419735 89.543724 
L 412.459022 94.624994 
L 414.49831 98.718556 
L 416.537597 101.348001 
L 418.576884 102.253151 
L 420.616172 101.452085 
L 422.655459 99.191916 
L 424.694746 95.858731 
L 428.773321 87.720875 
L 430.812608 83.681819 
L 432.851896 80.017141 
L 434.891183 76.86162 
L 436.930471 74.261383 
L 438.969758 72.198029 
L 441.009045 70.61346 
L 443.048333 69.431019 
L 445.08762 68.570473 
L 447.126907 67.958379 
L 449.166195 67.530411 
L 453.244769 67.037322 
L 459.362631 66.771659 
L 467.519781 66.730495 
L 469.559068 66.764621 
L 473.637643 67.390906 
L 475.67693 67.864313 
L 477.716217 68.938354 
L 479.755505 70.538217 
L 481.794792 72.499792 
L 483.834079 74.962389 
L 485.873367 78.03426 
L 491.991229 88.459152 
L 494.030516 91.320075 
L 496.069804 93.500805 
L 498.109091 94.858743 
L 498.109091 94.858743 
" style="fill:none;stroke:#1f77b4;stroke-linecap:square;stroke-width:1.5;"/>
   </g>
   <g id="line2d_18">
    <path clip-path="url(#p7e5b54ec42)" d="M 92.290909 363.174545 
L 94.330196 73.528784 
L 96.369484 66.665505 
L 161.626679 66.711727 
L 165.705254 66.914622 
L 169.783828 67.443495 
L 173.862403 68.331958 
L 182.019552 70.432843 
L 186.098127 71.199502 
L 188.137414 71.535126 
L 194.255276 71.861486 
L 198.333851 72.534338 
L 200.373138 72.490899 
L 202.412426 71.526306 
L 204.451713 69.535283 
L 206.491 69.518565 
L 208.530288 74.253129 
L 210.569575 74.113178 
L 212.608862 67.383501 
L 214.64815 75.425021 
L 216.687437 71.795454 
L 218.726725 70.902376 
L 220.766012 75.48581 
L 222.805299 69.940577 
L 224.844587 74.882759 
L 226.883874 72.788333 
L 228.923161 70.303274 
L 230.962449 77.533511 
L 233.001736 66.792547 
L 235.041023 75.67011 
L 237.080311 73.782045 
L 239.119598 67.137163 
L 241.158885 74.852733 
L 243.198173 73.375849 
L 245.23746 67.516935 
L 247.276747 68.826171 
L 249.316035 80.111265 
L 251.355322 75.249907 
L 253.394609 66.731206 
L 255.433897 67.350721 
L 257.473184 79.813939 
L 259.512471 72.052208 
L 261.551759 72.616144 
L 263.591046 70.002175 
L 265.630333 67.183451 
L 267.669621 77.349952 
L 269.708908 69.69784 
L 271.748196 79.692602 
L 273.787483 66.799364 
L 275.82677 71.989961 
L 277.866058 67.851771 
L 279.905345 74.776778 
L 281.944632 66.879871 
L 283.98392 78.612855 
L 286.023207 74.590064 
L 288.062494 67.324918 
L 290.101782 74.476769 
L 292.141069 69.250467 
L 294.180356 69.475564 
L 296.219644 71.576504 
L 298.258931 66.976516 
L 300.298218 71.008195 
L 302.337506 76.027234 
L 304.376793 70.965099 
L 306.41608 66.985899 
L 308.455368 73.184648 
L 310.494655 74.778757 
L 312.533942 70.190063 
L 314.57323 67.841301 
L 316.612517 71.890958 
L 318.651804 70.398393 
L 320.691092 67.149127 
L 322.730379 67.823571 
L 324.769667 74.800505 
L 326.808954 70.739868 
L 328.848241 70.373868 
L 330.887529 68.784906 
L 332.926816 68.422253 
L 334.966103 68.539627 
L 337.005391 76.31811 
L 339.044678 74.054249 
L 341.083965 72.539601 
L 343.123253 70.008418 
L 345.16254 66.775535 
L 347.201827 67.732924 
L 349.241115 67.934028 
L 351.280402 78.620654 
L 353.319689 68.102791 
L 355.358977 78.358194 
L 357.398264 66.984786 
L 359.437551 67.534104 
L 361.476839 72.392332 
L 363.516126 75.067219 
L 365.555413 69.049906 
L 367.594701 67.544472 
L 369.633988 79.867861 
L 371.673275 67.468578 
L 373.712563 69.253908 
L 375.75185 73.129447 
L 377.791138 67.326093 
L 379.830425 79.500453 
L 381.869712 67.815042 
L 383.909 68.460952 
L 385.948287 75.364995 
L 387.987574 83.550511 
L 390.026862 66.788582 
L 392.066149 67.690936 
L 394.105436 78.272574 
L 396.144724 74.092184 
L 398.184011 68.322508 
L 400.223298 69.648661 
L 402.262586 67.073708 
L 404.301873 74.095445 
L 406.34116 67.790465 
L 408.380448 79.456696 
L 410.419735 71.975003 
L 412.459022 67.073218 
L 414.49831 71.335082 
L 416.537597 71.157142 
L 418.576884 77.952374 
L 420.616172 76.529934 
L 422.655459 68.760329 
L 424.694746 67.847167 
L 426.734034 70.638519 
L 428.773321 71.939425 
L 430.812608 76.101354 
L 432.851896 68.46151 
L 434.891183 68.965746 
L 436.930471 72.939088 
L 438.969758 68.986135 
L 441.009045 66.751074 
L 443.048333 72.057672 
L 445.08762 68.196014 
L 447.126907 66.89711 
L 449.166195 69.252053 
L 451.205482 78.967859 
L 453.244769 73.626592 
L 455.284057 67.946849 
L 457.323344 69.101364 
L 459.362631 76.5091 
L 461.401919 66.687836 
L 463.441206 67.461725 
L 465.480493 72.219354 
L 467.519781 76.309581 
L 469.559068 77.49177 
L 471.598355 67.158886 
L 473.637643 68.182568 
L 475.67693 67.023409 
L 477.716217 78.597914 
L 479.755505 68.599428 
L 481.794792 67.370654 
L 483.834079 72.82929 
L 485.873367 67.797833 
L 487.912654 68.997052 
L 489.951942 74.037 
L 491.991229 67.782965 
L 494.030516 75.041176 
L 496.069804 67.225156 
L 498.109091 68.05682 
L 498.109091 68.05682 
" style="fill:none;stroke:#ff7f0e;stroke-linecap:square;stroke-width:1.5;"/>
   </g>
   <g id="line2d_19">
    <path clip-path="url(#p7e5b54ec42)" d="M 92.290909 363.174545 
L 94.330196 66.678829 
L 112.683783 66.665455 
L 118.801645 66.665466 
L 120.840932 69.142663 
L 122.880219 230.082018 
L 124.919507 95.353427 
L 126.958794 66.710504 
L 133.076656 66.665455 
L 147.351667 66.665736 
L 149.390955 66.988178 
L 151.430242 85.881905 
L 153.469529 162.412143 
L 155.508817 136.854821 
L 157.548104 76.966365 
L 159.587392 67.048377 
L 161.626679 66.670273 
L 175.90169 66.666822 
L 177.940978 66.813929 
L 179.980265 70.481951 
L 182.019552 94.30877 
L 184.05884 133.482721 
L 186.098127 131.901462 
L 188.137414 95.709437 
L 190.176702 72.99421 
L 192.215989 67.40673 
L 194.255276 66.716789 
L 200.373138 66.665456 
L 206.491 66.761901 
L 208.530288 68.002095 
L 210.569575 75.359783 
L 212.608862 95.211587 
L 214.64815 117.83564 
L 216.687437 121.003888 
L 218.726725 102.902833 
L 220.766012 82.391421 
L 222.805299 71.270434 
L 224.844587 67.615474 
L 226.883874 66.809441 
L 228.923161 66.682091 
L 235.041023 66.738765 
L 237.080311 67.311622 
L 239.119598 70.174467 
L 241.158885 78.691033 
L 245.23746 108.088127 
L 247.276747 111.89743 
L 249.316035 102.962963 
L 251.355322 88.53881 
L 253.394609 76.749859 
L 255.433897 70.29965 
L 257.473184 67.717864 
L 259.512471 66.930919 
L 261.551759 66.749509 
L 263.591046 66.726068 
L 265.630333 67.00299 
L 267.669621 68.409902 
L 269.708908 72.35025 
L 271.748196 80.378477 
L 273.787483 91.561692 
L 275.82677 101.445965 
L 277.866058 104.963293 
L 279.905345 100.540259 
L 283.98392 81.152186 
L 286.023207 73.854026 
L 288.062494 69.674269 
L 290.101782 67.746845 
L 292.141069 66.959815 
L 294.180356 67.259535 
L 296.219644 67.399351 
L 298.258931 69.675752 
L 300.298218 74.180159 
L 302.337506 81.038644 
L 304.376793 89.439577 
L 306.41608 96.613401 
L 308.455368 99.682102 
L 310.494655 97.555775 
L 312.533942 91.399073 
L 314.57323 83.856719 
L 316.612517 77.222248 
L 318.651804 72.162202 
L 320.691092 68.730783 
L 322.730379 67.053976 
L 324.769667 66.933454 
L 326.808954 68.072436 
L 328.848241 70.578874 
L 330.887529 74.813786 
L 332.926816 80.728409 
L 334.966103 87.340658 
L 337.005391 92.874093 
L 339.044678 95.579943 
L 341.083965 94.673831 
L 343.123253 90.683293 
L 349.241115 73.733627 
L 351.280402 69.664128 
L 353.319689 67.747724 
L 355.358977 68.863533 
L 357.398264 71.686143 
L 361.476839 74.778007 
L 363.516126 80.052911 
L 365.555413 86.584246 
L 367.594701 90.18639 
L 369.633988 92.216959 
L 371.673275 92.326808 
L 373.712563 89.247122 
L 375.75185 84.665474 
L 377.791138 81.260974 
L 379.830425 78.171712 
L 381.869712 71.134344 
L 383.909 70.012489 
L 385.948287 73.872302 
L 387.987574 67.973329 
L 390.026862 74.04469 
L 392.066149 77.194185 
L 394.105436 78.944495 
L 396.144724 85.866595 
L 398.184011 86.760464 
L 400.223298 90.528512 
L 402.262586 89.586859 
L 404.301873 87.619277 
L 406.34116 86.53593 
L 408.380448 79.679133 
L 410.419735 79.650404 
L 412.459022 73.54874 
L 414.49831 73.755298 
L 416.537597 71.108588 
L 418.576884 73.888284 
L 420.616172 71.801023 
L 422.655459 79.978808 
L 424.694746 76.602036 
L 426.734034 86.068432 
L 428.773321 84.546297 
L 430.812608 87.948628 
L 434.891183 87.711868 
L 436.930471 82.472126 
L 438.969758 84.955789 
L 441.009045 76.187626 
L 443.048333 76.713373 
L 445.08762 78.106093 
L 447.126907 66.906709 
L 449.166195 79.058343 
L 451.205482 75.974762 
L 453.244769 71.655933 
L 455.284057 83.14298 
L 457.323344 84.500692 
L 459.362631 81.128172 
L 461.401919 85.915723 
L 463.441206 88.198769 
L 465.480493 83.781783 
L 467.519781 85.797026 
L 469.559068 82.689022 
L 471.598355 74.296094 
L 473.637643 80.340934 
L 475.67693 82.107927 
L 477.716217 69.726894 
L 479.755505 68.909505 
L 481.794792 81.088001 
L 483.834079 83.938145 
L 485.873367 77.59599 
L 487.912654 76.488326 
L 489.951942 81.915322 
L 491.991229 85.353393 
L 494.030516 87.326166 
L 496.069804 88.057027 
L 498.109091 83.101209 
L 498.109091 83.101209 
" style="fill:none;stroke:#2ca02c;stroke-linecap:square;stroke-width:1.5;"/>
   </g>
   <g id="patch_3">
    <path d="M 72 378 
L 72 51.84 
" style="fill:none;stroke:#000000;stroke-linecap:square;stroke-linejoin:miter;stroke-width:0.8;"/>
   </g>
   <g id="patch_4">
    <path d="M 518.4 378 
L 518.4 51.84 
" style="fill:none;stroke:#000000;stroke-linecap:square;stroke-linejoin:miter;stroke-width:0.8;"/>
   </g>
   <g id="patch_5">
    <path d="M 72 378 
L 518.4 378 
" style="fill:none;stroke:#000000;stroke-linecap:square;stroke-linejoin:miter;stroke-width:0.8;"/>
   </g>
   <g id="patch_6">
    <path d="M 72 51.84 
L 518.4 51.84 
" style="fill:none;stroke:#000000;stroke-linecap:square;stroke-linejoin:miter;stroke-width:0.8;"/>
   </g>
   <g id="legend_1">
    <g id="patch_7">
     <path d="M 448.779687 373 
L 511.4 373 
Q 513.4 373 513.4 371 
L 513.4 327.965625 
Q 513.4 325.965625 511.4 325.965625 
L 448.779687 325.965625 
Q 446.779687 325.965625 446.779687 327.965625 
L 446.779687 371 
Q 446.779687 373 448.779687 373 
z
" style="fill:#ffffff;opacity:0.8;stroke:#cccccc;stroke-linejoin:miter;"/>
    </g>
    <g id="line2d_20">
     <path d="M 450.779687 334.064062 
L 470.779687 334.064062 
" style="fill:none;stroke:#1f77b4;stroke-linecap:square;stroke-width:1.5;"/>
    </g>
    <g id="line2d_21"/>
    <g id="text_19">
     <!-- h=0.4 -->
     <g transform="translate(478.779687 337.564062)scale(0.1 -0.1)">
      <defs>
       <path d="M 3513 2113 
L 3513 0 
L 2938 0 
L 2938 2094 
Q 2938 2591 2744 2837 
Q 2550 3084 2163 3084 
Q 1697 3084 1428 2787 
Q 1159 2491 1159 1978 
L 1159 0 
L 581 0 
L 581 4863 
L 1159 4863 
L 1159 2956 
Q 1366 3272 1645 3428 
Q 1925 3584 2291 3584 
Q 2894 3584 3203 3211 
Q 3513 2838 3513 2113 
z
" id="DejaVuSans-68" transform="scale(0.015625)"/>
       <path d="M 678 2906 
L 4684 2906 
L 4684 2381 
L 678 2381 
L 678 2906 
z
M 678 1631 
L 4684 1631 
L 4684 1100 
L 678 1100 
L 678 1631 
z
" id="DejaVuSans-3d" transform="scale(0.015625)"/>
       <path d="M 2419 4116 
L 825 1625 
L 2419 1625 
L 2419 4116 
z
M 2253 4666 
L 3047 4666 
L 3047 1625 
L 3713 1625 
L 3713 1100 
L 3047 1100 
L 3047 0 
L 2419 0 
L 2419 1100 
L 313 1100 
L 313 1709 
L 2253 4666 
z
" id="DejaVuSans-34" transform="scale(0.015625)"/>
      </defs>
      <use xlink:href="#DejaVuSans-68"/>
      <use x="63.378906" xlink:href="#DejaVuSans-3d"/>
      <use x="147.167969" xlink:href="#DejaVuSans-30"/>
      <use x="210.791016" xlink:href="#DejaVuSans-2e"/>
      <use x="242.578125" xlink:href="#DejaVuSans-34"/>
     </g>
    </g>
    <g id="line2d_22">
     <path d="M 450.779687 348.742188 
L 470.779687 348.742188 
" style="fill:none;stroke:#ff7f0e;stroke-linecap:square;stroke-width:1.5;"/>
    </g>
    <g id="line2d_23"/>
    <g id="text_20">
     <!-- h=0.5 -->
     <g transform="translate(478.779687 352.242188)scale(0.1 -0.1)">
      <use xlink:href="#DejaVuSans-68"/>
      <use x="63.378906" xlink:href="#DejaVuSans-3d"/>
      <use x="147.167969" xlink:href="#DejaVuSans-30"/>
      <use x="210.791016" xlink:href="#DejaVuSans-2e"/>
      <use x="242.578125" xlink:href="#DejaVuSans-35"/>
     </g>
    </g>
    <g id="line2d_24">
     <path d="M 450.779687 363.420313 
L 470.779687 363.420313 
" style="fill:none;stroke:#2ca02c;stroke-linecap:square;stroke-width:1.5;"/>
    </g>
    <g id="line2d_25"/>
    <g id="text_21">
     <!-- h=0.8 -->
     <g transform="translate(478.779687 366.920313)scale(0.1 -0.1)">
      <defs>
       <path d="M 2034 2216 
Q 1584 2216 1326 1975 
Q 1069 1734 1069 1313 
Q 1069 891 1326 650 
Q 1584 409 2034 409 
Q 2484 409 2743 651 
Q 3003 894 3003 1313 
Q 3003 1734 2745 1975 
Q 2488 2216 2034 2216 
z
M 1403 2484 
Q 997 2584 770 2862 
Q 544 3141 544 3541 
Q 544 4100 942 4425 
Q 1341 4750 2034 4750 
Q 2731 4750 3128 4425 
Q 3525 4100 3525 3541 
Q 3525 3141 3298 2862 
Q 3072 2584 2669 2484 
Q 3125 2378 3379 2068 
Q 3634 1759 3634 1313 
Q 3634 634 3220 271 
Q 2806 -91 2034 -91 
Q 1263 -91 848 271 
Q 434 634 434 1313 
Q 434 1759 690 2068 
Q 947 2378 1403 2484 
z
M 1172 3481 
Q 1172 3119 1398 2916 
Q 1625 2713 2034 2713 
Q 2441 2713 2670 2916 
Q 2900 3119 2900 3481 
Q 2900 3844 2670 4047 
Q 2441 4250 2034 4250 
Q 1625 4250 1398 4047 
Q 1172 3844 1172 3481 
z
" id="DejaVuSans-38" transform="scale(0.015625)"/>
      </defs>
      <use xlink:href="#DejaVuSans-68"/>
      <use x="63.378906" xlink:href="#DejaVuSans-3d"/>
      <use x="147.167969" xlink:href="#DejaVuSans-30"/>
      <use x="210.791016" xlink:href="#DejaVuSans-2e"/>
      <use x="242.578125" xlink:href="#DejaVuSans-38"/>
     </g>
    </g>
   </g>
  </g>
 </g>
 <defs>
  <clipPath id="p7e5b54ec42">
   <rect height="326.16" width="446.4" x="72" y="51.84"/>
  </clipPath>
 </defs>
</svg>
