<?xml version="1.0" encoding="utf-8" standalone="no"?>
<!DOCTYPE svg PUBLIC "-//W3C//DTD SVG 1.1//EN"
  "http://www.w3.org/Graphics/SVG/1.1/DTD/svg11.dtd">
<svg height="432pt" version="1.1" viewBox="0 0 576 432" width="576pt" xmlns="http://www.w3.org/2000/svg" xmlns:xlink="http://www.w3.org/1999/xlink">
 <metadata>
  <rdf:RDF xmlns:cc="http://creativecommons.org/ns#" xmlns:dc="http://purl.org/dc/elements/1.1/" xmlns:rdf="http://www.w3.org/1999/02/22-rdf-syntax-ns#">
   <cc:Work>
    <dc:type rdf:resource="http://purl.org/dc/dcmitype/StillImage"/>
    <dc:date>2023-04-24T13:56:32.252943</dc:date>
    <dc:format>image/svg+xml</dc:format>
    <dc:creator>
     <cc:Agent>
      <dc:title>Matplotlib v3.4.3, https://matplotlib.org/</dc:title>
     </cc:Agent>
    </dc:creator>
   </cc:Work>
  </rdf:RDF>
 </metadata>
 <defs>
  <style type="text/css">*{stroke-linecap:butt;stroke-linejoin:round;}</style>
 </defs>
 <g id="figure_1">
  <g id="patch_1">
   <path d="M 0 432 
L 576 432 
L 576 0 
L 0 0 
z
" style="fill:#ffffff;"/>
  </g>
  <g id="axes_1">
   <g id="patch_2">
    <path d="M 72 378 
L 518.4 378 
L 518.4 51.84 
L 72 51.84 
z
" style="fill:#ffffff;"/>
   </g>
   <g id="matplotlib.axis_1">
    <g id="xtick_1">
     <g id="line2d_1">
      <defs>
       <path d="M 0 0 
L 0 3.5 
" id="mfb3b512f5a" style="stroke:#000000;stroke-width:0.8;"/>
      </defs>
      <g>
       <use style="stroke:#000000;stroke-width:0.8;" x="92.290909" xlink:href="#mfb3b512f5a" y="378"/>
      </g>
     </g>
     <g id="text_1">
      <!-- 0 -->
      <g transform="translate(89.109659 392.598437)scale(0.1 -0.1)">
       <defs>
        <path d="M 2034 4250 
Q 1547 4250 1301 3770 
Q 1056 3291 1056 2328 
Q 1056 1369 1301 889 
Q 1547 409 2034 409 
Q 2525 409 2770 889 
Q 3016 1369 3016 2328 
Q 3016 3291 2770 3770 
Q 2525 4250 2034 4250 
z
M 2034 4750 
Q 2819 4750 3233 4129 
Q 3647 3509 3647 2328 
Q 3647 1150 3233 529 
Q 2819 -91 2034 -91 
Q 1250 -91 836 529 
Q 422 1150 422 2328 
Q 422 3509 836 4129 
Q 1250 4750 2034 4750 
z
" id="DejaVuSans-30" transform="scale(0.015625)"/>
       </defs>
       <use xlink:href="#DejaVuSans-30"/>
      </g>
     </g>
    </g>
    <g id="xtick_2">
     <g id="line2d_2">
      <g>
       <use style="stroke:#000000;stroke-width:0.8;" x="159.927273" xlink:href="#mfb3b512f5a" y="378"/>
      </g>
     </g>
     <g id="text_2">
      <!-- 5 -->
      <g transform="translate(156.746023 392.598437)scale(0.1 -0.1)">
       <defs>
        <path d="M 691 4666 
L 3169 4666 
L 3169 4134 
L 1269 4134 
L 1269 2991 
Q 1406 3038 1543 3061 
Q 1681 3084 1819 3084 
Q 2600 3084 3056 2656 
Q 3513 2228 3513 1497 
Q 3513 744 3044 326 
Q 2575 -91 1722 -91 
Q 1428 -91 1123 -41 
Q 819 9 494 109 
L 494 744 
Q 775 591 1075 516 
Q 1375 441 1709 441 
Q 2250 441 2565 725 
Q 2881 1009 2881 1497 
Q 2881 1984 2565 2268 
Q 2250 2553 1709 2553 
Q 1456 2553 1204 2497 
Q 953 2441 691 2322 
L 691 4666 
z
" id="DejaVuSans-35" transform="scale(0.015625)"/>
       </defs>
       <use xlink:href="#DejaVuSans-35"/>
      </g>
     </g>
    </g>
    <g id="xtick_3">
     <g id="line2d_3">
      <g>
       <use style="stroke:#000000;stroke-width:0.8;" x="227.563636" xlink:href="#mfb3b512f5a" y="378"/>
      </g>
     </g>
     <g id="text_3">
      <!-- 10 -->
      <g transform="translate(221.201136 392.598437)scale(0.1 -0.1)">
       <defs>
        <path d="M 794 531 
L 1825 531 
L 1825 4091 
L 703 3866 
L 703 4441 
L 1819 4666 
L 2450 4666 
L 2450 531 
L 3481 531 
L 3481 0 
L 794 0 
L 794 531 
z
" id="DejaVuSans-31" transform="scale(0.015625)"/>
       </defs>
       <use xlink:href="#DejaVuSans-31"/>
       <use x="63.623047" xlink:href="#DejaVuSans-30"/>
      </g>
     </g>
    </g>
    <g id="xtick_4">
     <g id="line2d_4">
      <g>
       <use style="stroke:#000000;stroke-width:0.8;" x="295.2" xlink:href="#mfb3b512f5a" y="378"/>
      </g>
     </g>
     <g id="text_4">
      <!-- 15 -->
      <g transform="translate(288.8375 392.598437)scale(0.1 -0.1)">
       <use xlink:href="#DejaVuSans-31"/>
       <use x="63.623047" xlink:href="#DejaVuSans-35"/>
      </g>
     </g>
    </g>
    <g id="xtick_5">
     <g id="line2d_5">
      <g>
       <use style="stroke:#000000;stroke-width:0.8;" x="362.836364" xlink:href="#mfb3b512f5a" y="378"/>
      </g>
     </g>
     <g id="text_5">
      <!-- 20 -->
      <g transform="translate(356.473864 392.598437)scale(0.1 -0.1)">
       <defs>
        <path d="M 1228 531 
L 3431 531 
L 3431 0 
L 469 0 
L 469 531 
Q 828 903 1448 1529 
Q 2069 2156 2228 2338 
Q 2531 2678 2651 2914 
Q 2772 3150 2772 3378 
Q 2772 3750 2511 3984 
Q 2250 4219 1831 4219 
Q 1534 4219 1204 4116 
Q 875 4013 500 3803 
L 500 4441 
Q 881 4594 1212 4672 
Q 1544 4750 1819 4750 
Q 2544 4750 2975 4387 
Q 3406 4025 3406 3419 
Q 3406 3131 3298 2873 
Q 3191 2616 2906 2266 
Q 2828 2175 2409 1742 
Q 1991 1309 1228 531 
z
" id="DejaVuSans-32" transform="scale(0.015625)"/>
       </defs>
       <use xlink:href="#DejaVuSans-32"/>
       <use x="63.623047" xlink:href="#DejaVuSans-30"/>
      </g>
     </g>
    </g>
    <g id="xtick_6">
     <g id="line2d_6">
      <g>
       <use style="stroke:#000000;stroke-width:0.8;" x="430.472727" xlink:href="#mfb3b512f5a" y="378"/>
      </g>
     </g>
     <g id="text_6">
      <!-- 25 -->
      <g transform="translate(424.110227 392.598437)scale(0.1 -0.1)">
       <use xlink:href="#DejaVuSans-32"/>
       <use x="63.623047" xlink:href="#DejaVuSans-35"/>
      </g>
     </g>
    </g>
    <g id="xtick_7">
     <g id="line2d_7">
      <g>
       <use style="stroke:#000000;stroke-width:0.8;" x="498.109091" xlink:href="#mfb3b512f5a" y="378"/>
      </g>
     </g>
     <g id="text_7">
      <!-- 30 -->
      <g transform="translate(491.746591 392.598437)scale(0.1 -0.1)">
       <defs>
        <path d="M 2597 2516 
Q 3050 2419 3304 2112 
Q 3559 1806 3559 1356 
Q 3559 666 3084 287 
Q 2609 -91 1734 -91 
Q 1441 -91 1130 -33 
Q 819 25 488 141 
L 488 750 
Q 750 597 1062 519 
Q 1375 441 1716 441 
Q 2309 441 2620 675 
Q 2931 909 2931 1356 
Q 2931 1769 2642 2001 
Q 2353 2234 1838 2234 
L 1294 2234 
L 1294 2753 
L 1863 2753 
Q 2328 2753 2575 2939 
Q 2822 3125 2822 3475 
Q 2822 3834 2567 4026 
Q 2313 4219 1838 4219 
Q 1578 4219 1281 4162 
Q 984 4106 628 3988 
L 628 4550 
Q 988 4650 1302 4700 
Q 1616 4750 1894 4750 
Q 2613 4750 3031 4423 
Q 3450 4097 3450 3541 
Q 3450 3153 3228 2886 
Q 3006 2619 2597 2516 
z
" id="DejaVuSans-33" transform="scale(0.015625)"/>
       </defs>
       <use xlink:href="#DejaVuSans-33"/>
       <use x="63.623047" xlink:href="#DejaVuSans-30"/>
      </g>
     </g>
    </g>
    <g id="text_8">
     <!-- t -->
     <g transform="translate(292.455781 409.315938)scale(0.14 -0.14)">
      <defs>
       <path d="M 1172 4494 
L 1172 3500 
L 2356 3500 
L 2356 3053 
L 1172 3053 
L 1172 1153 
Q 1172 725 1289 603 
Q 1406 481 1766 481 
L 2356 481 
L 2356 0 
L 1766 0 
Q 1100 0 847 248 
Q 594 497 594 1153 
L 594 3053 
L 172 3053 
L 172 3500 
L 594 3500 
L 594 4494 
L 1172 4494 
z
" id="DejaVuSans-74" transform="scale(0.015625)"/>
      </defs>
      <use xlink:href="#DejaVuSans-74"/>
     </g>
    </g>
   </g>
   <g id="matplotlib.axis_2">
    <g id="ytick_1">
     <g id="line2d_8">
      <defs>
       <path d="M 0 0 
L -3.5 0 
" id="mf388a5c457" style="stroke:#000000;stroke-width:0.8;"/>
      </defs>
      <g>
       <use style="stroke:#000000;stroke-width:0.8;" x="72" xlink:href="#mf388a5c457" y="363.174545"/>
      </g>
     </g>
     <g id="text_9">
      <!-- 0.00 -->
      <g transform="translate(42.734375 366.973764)scale(0.1 -0.1)">
       <defs>
        <path d="M 684 794 
L 1344 794 
L 1344 0 
L 684 0 
L 684 794 
z
" id="DejaVuSans-2e" transform="scale(0.015625)"/>
       </defs>
       <use xlink:href="#DejaVuSans-30"/>
       <use x="63.623047" xlink:href="#DejaVuSans-2e"/>
       <use x="95.410156" xlink:href="#DejaVuSans-30"/>
       <use x="159.033203" xlink:href="#DejaVuSans-30"/>
      </g>
     </g>
    </g>
    <g id="ytick_2">
     <g id="line2d_9">
      <g>
       <use style="stroke:#000000;stroke-width:0.8;" x="72" xlink:href="#mf388a5c457" y="326.110909"/>
      </g>
     </g>
     <g id="text_10">
      <!-- 0.25 -->
      <g transform="translate(42.734375 329.910128)scale(0.1 -0.1)">
       <use xlink:href="#DejaVuSans-30"/>
       <use x="63.623047" xlink:href="#DejaVuSans-2e"/>
       <use x="95.410156" xlink:href="#DejaVuSans-32"/>
       <use x="159.033203" xlink:href="#DejaVuSans-35"/>
      </g>
     </g>
    </g>
    <g id="ytick_3">
     <g id="line2d_10">
      <g>
       <use style="stroke:#000000;stroke-width:0.8;" x="72" xlink:href="#mf388a5c457" y="289.047273"/>
      </g>
     </g>
     <g id="text_11">
      <!-- 0.50 -->
      <g transform="translate(42.734375 292.846491)scale(0.1 -0.1)">
       <use xlink:href="#DejaVuSans-30"/>
       <use x="63.623047" xlink:href="#DejaVuSans-2e"/>
       <use x="95.410156" xlink:href="#DejaVuSans-35"/>
       <use x="159.033203" xlink:href="#DejaVuSans-30"/>
      </g>
     </g>
    </g>
    <g id="ytick_4">
     <g id="line2d_11">
      <g>
       <use style="stroke:#000000;stroke-width:0.8;" x="72" xlink:href="#mf388a5c457" y="251.983636"/>
      </g>
     </g>
     <g id="text_12">
      <!-- 0.75 -->
      <g transform="translate(42.734375 255.782855)scale(0.1 -0.1)">
       <defs>
        <path d="M 525 4666 
L 3525 4666 
L 3525 4397 
L 1831 0 
L 1172 0 
L 2766 4134 
L 525 4134 
L 525 4666 
z
" id="DejaVuSans-37" transform="scale(0.015625)"/>
       </defs>
       <use xlink:href="#DejaVuSans-30"/>
       <use x="63.623047" xlink:href="#DejaVuSans-2e"/>
       <use x="95.410156" xlink:href="#DejaVuSans-37"/>
       <use x="159.033203" xlink:href="#DejaVuSans-35"/>
      </g>
     </g>
    </g>
    <g id="ytick_5">
     <g id="line2d_12">
      <g>
       <use style="stroke:#000000;stroke-width:0.8;" x="72" xlink:href="#mf388a5c457" y="214.92"/>
      </g>
     </g>
     <g id="text_13">
      <!-- 1.00 -->
      <g transform="translate(42.734375 218.719219)scale(0.1 -0.1)">
       <use xlink:href="#DejaVuSans-31"/>
       <use x="63.623047" xlink:href="#DejaVuSans-2e"/>
       <use x="95.410156" xlink:href="#DejaVuSans-30"/>
       <use x="159.033203" xlink:href="#DejaVuSans-30"/>
      </g>
     </g>
    </g>
    <g id="ytick_6">
     <g id="line2d_13">
      <g>
       <use style="stroke:#000000;stroke-width:0.8;" x="72" xlink:href="#mf388a5c457" y="177.856364"/>
      </g>
     </g>
     <g id="text_14">
      <!-- 1.25 -->
      <g transform="translate(42.734375 181.655582)scale(0.1 -0.1)">
       <use xlink:href="#DejaVuSans-31"/>
       <use x="63.623047" xlink:href="#DejaVuSans-2e"/>
       <use x="95.410156" xlink:href="#DejaVuSans-32"/>
       <use x="159.033203" xlink:href="#DejaVuSans-35"/>
      </g>
     </g>
    </g>
    <g id="ytick_7">
     <g id="line2d_14">
      <g>
       <use style="stroke:#000000;stroke-width:0.8;" x="72" xlink:href="#mf388a5c457" y="140.792727"/>
      </g>
     </g>
     <g id="text_15">
      <!-- 1.50 -->
      <g transform="translate(42.734375 144.591946)scale(0.1 -0.1)">
       <use xlink:href="#DejaVuSans-31"/>
       <use x="63.623047" xlink:href="#DejaVuSans-2e"/>
       <use x="95.410156" xlink:href="#DejaVuSans-35"/>
       <use x="159.033203" xlink:href="#DejaVuSans-30"/>
      </g>
     </g>
    </g>
    <g id="ytick_8">
     <g id="line2d_15">
      <g>
       <use style="stroke:#000000;stroke-width:0.8;" x="72" xlink:href="#mf388a5c457" y="103.729091"/>
      </g>
     </g>
     <g id="text_16">
      <!-- 1.75 -->
      <g transform="translate(42.734375 107.52831)scale(0.1 -0.1)">
       <use xlink:href="#DejaVuSans-31"/>
       <use x="63.623047" xlink:href="#DejaVuSans-2e"/>
       <use x="95.410156" xlink:href="#DejaVuSans-37"/>
       <use x="159.033203" xlink:href="#DejaVuSans-35"/>
      </g>
     </g>
    </g>
    <g id="ytick_9">
     <g id="line2d_16">
      <g>
       <use style="stroke:#000000;stroke-width:0.8;" x="72" xlink:href="#mf388a5c457" y="66.665455"/>
      </g>
     </g>
     <g id="text_17">
      <!-- 2.00 -->
      <g transform="translate(42.734375 70.464673)scale(0.1 -0.1)">
       <use xlink:href="#DejaVuSans-32"/>
       <use x="63.623047" xlink:href="#DejaVuSans-2e"/>
       <use x="95.410156" xlink:href="#DejaVuSans-30"/>
       <use x="159.033203" xlink:href="#DejaVuSans-30"/>
      </g>
     </g>
    </g>
    <g id="text_18">
     <!-- $\langle \Sigma \rangle$ -->
     <g transform="translate(35.406875 226.28)rotate(-90)scale(0.16 -0.16)">
      <defs>
       <path d="M 572 2006 
L 1453 4856 
L 1984 4856 
L 1103 2006 
L 1984 -844 
L 1453 -844 
L 572 2006 
z
" id="DejaVuSans-27e8" transform="scale(0.015625)"/>
       <path d="M 1353 531 
L 3634 531 
L 3634 0 
L 628 0 
L 628 531 
L 2125 2481 
L 628 4134 
L 628 4666 
L 3578 4666 
L 3578 4134 
L 1353 4134 
L 2850 2494 
L 1353 531 
z
" id="DejaVuSans-3a3" transform="scale(0.015625)"/>
       <path d="M 1925 2006 
L 1044 -844 
L 513 -844 
L 1394 2006 
L 513 4856 
L 1044 4856 
L 1925 2006 
z
" id="DejaVuSans-27e9" transform="scale(0.015625)"/>
      </defs>
      <use transform="translate(0 0.125)" xlink:href="#DejaVuSans-27e8"/>
      <use transform="translate(39.013672 0.125)" xlink:href="#DejaVuSans-3a3"/>
      <use transform="translate(102.197266 0.125)" xlink:href="#DejaVuSans-27e9"/>
     </g>
    </g>
   </g>
   <g id="line2d_17">
    <path clip-path="url(#pec26526e2b)" d="M 92.290909 363.174545 
L 93.307997 73.588471 
L 94.325085 66.6655 
L 112.632673 66.665466 
L 113.649761 66.948288 
L 114.666849 130.496809 
L 115.683937 273.932 
L 116.701025 88.48198 
L 117.718113 66.74437 
L 119.75229 66.665455 
L 135.008612 66.667584 
L 136.025701 67.201392 
L 137.042789 85.440655 
L 138.059877 173.604328 
L 139.076965 199.377296 
L 140.094053 110.931716 
L 141.111141 70.715395 
L 142.12823 66.78346 
L 143.145318 66.666733 
L 157.384552 66.693433 
L 158.40164 67.541017 
L 159.418729 76.897677 
L 160.435817 114.255185 
L 161.452905 162.894628 
L 162.469993 161.923009 
L 163.487081 115.676223 
L 164.50417 79.940193 
L 165.521258 68.640064 
L 166.538346 66.837183 
L 167.555434 66.674662 
L 178.743404 66.670253 
L 179.760492 66.764799 
L 180.77758 67.780818 
L 181.794668 73.711594 
L 182.811757 92.504916 
L 183.828845 123.687458 
L 184.845933 146.32882 
L 185.863021 140.548527 
L 187.897198 86.796417 
L 188.914286 72.728399 
L 189.931374 67.971952 
L 190.948462 66.872466 
L 191.96555 66.690145 
L 198.068079 66.665457 
L 201.119344 66.686835 
L 202.136432 66.864366 
L 203.15352 67.9147 
L 204.170608 72.067309 
L 205.187697 83.028654 
L 207.221873 122.522616 
L 208.238961 132.892584 
L 209.256049 126.896599 
L 211.290226 90.098789 
L 212.307314 76.832175 
L 213.324402 70.181041 
L 214.34149 67.648623 
L 215.358578 66.890922 
L 216.375666 66.708379 
L 220.444019 66.665549 
L 223.495284 66.718062 
L 224.512372 66.966166 
L 225.52946 67.975126 
L 226.546548 71.060378 
L 227.563636 78.150198 
L 228.580725 90.288792 
L 229.597813 105.40779 
L 230.614901 118.094806 
L 231.631989 122.74582 
L 232.649077 117.462825 
L 233.666165 105.146999 
L 234.683254 91.151921 
L 235.700342 79.815315 
L 236.71743 72.665348 
L 237.734518 69.010471 
L 238.751606 67.457225 
L 239.768694 66.898537 
L 240.785783 66.726314 
L 243.837047 66.668146 
L 245.871224 66.758372 
L 246.888312 67.054843 
L 247.9054 67.989888 
L 248.922488 70.37751 
L 249.939576 75.309851 
L 250.956664 83.510688 
L 252.990841 105.374199 
L 254.007929 113.15947 
L 255.025017 115.047223 
L 256.042105 110.566829 
L 257.059193 101.552939 
L 258.076282 91.021673 
L 259.09337 81.65081 
L 260.110458 74.823162 
L 261.127546 70.613771 
L 262.144634 68.374795 
L 263.161722 67.336433 
L 264.178811 66.913716 
L 266.212987 66.67875 
L 267.230075 66.68055 
L 268.247163 66.812511 
L 269.264252 67.152334 
L 270.28134 67.974336 
L 271.298428 69.870846 
L 272.315516 73.506047 
L 273.332604 79.323583 
L 274.349692 87.189805 
L 275.366781 95.989302 
L 276.383869 103.79193 
L 277.400957 108.581168 
L 278.418045 109.087422 
L 279.435133 105.311144 
L 280.452221 98.448686 
L 282.486398 82.624353 
L 283.503486 76.471243 
L 284.520574 72.150897 
L 285.537662 69.436241 
L 286.554751 68.043993 
L 287.571839 67.233417 
L 288.588927 66.836216 
L 289.606015 66.947477 
L 290.623103 66.739892 
L 292.65728 67.90414 
L 293.674368 69.522546 
L 294.691456 72.269242 
L 295.708544 76.571004 
L 296.725632 82.427624 
L 298.759809 96.142031 
L 299.776897 101.625675 
L 300.793985 104.567537 
L 301.811073 104.371212 
L 302.828161 101.174938 
L 303.845249 95.78669 
L 305.879426 83.052193 
L 306.896514 77.545846 
L 307.913602 73.545766 
L 308.93069 70.449344 
L 310.964867 67.600888 
L 311.981955 67.324524 
L 314.016131 67.023885 
L 315.033219 68.364268 
L 316.050308 68.8679 
L 317.067396 71.543385 
L 318.084484 74.742683 
L 319.101572 78.995261 
L 322.152837 95.443697 
L 323.169925 99.340026 
L 324.187013 101.123431 
L 325.204101 100.5477 
L 326.221189 97.853224 
L 327.238278 93.480898 
L 330.289542 78.09559 
L 331.30663 74.616414 
L 333.340807 68.954014 
L 335.374983 68.527551 
L 336.392071 66.802712 
L 337.409159 67.836877 
L 338.426247 70.026419 
L 339.443336 70.736761 
L 340.460424 72.642227 
L 342.4946 81.46416 
L 345.545865 94.328165 
L 346.562953 97.132526 
L 347.580041 98.189797 
L 348.597129 97.478947 
L 349.614217 95.053048 
L 351.648394 87.389853 
L 352.665482 83.226659 
L 353.68257 78.474121 
L 354.699658 74.460495 
L 355.716746 72.775752 
L 356.733835 71.948074 
L 357.750923 69.703549 
L 358.768011 67.138841 
L 359.785099 67.003686 
L 361.819275 72.021926 
L 363.853452 75.136164 
L 364.87054 77.72216 
L 365.887628 81.614467 
L 367.921805 90.158763 
L 368.938893 93.311445 
L 369.955981 95.236724 
L 370.973069 95.771485 
L 371.990157 94.822102 
L 373.007245 92.547407 
L 377.075598 80.131706 
L 380.126863 69.246913 
L 381.143951 67.603438 
L 382.161039 67.814167 
L 383.178127 69.412511 
L 386.229392 76.303721 
L 388.263568 81.284568 
L 391.314833 89.794568 
L 392.331921 91.951099 
L 393.349009 93.220748 
L 394.366097 93.383475 
L 395.383185 92.374728 
L 396.400273 90.312712 
L 397.417362 87.483624 
L 399.451538 81.109447 
L 400.468626 78.30419 
L 401.485714 76.068263 
L 402.502802 74.472294 
L 403.519891 73.48949 
L 404.536979 73.048361 
L 405.554067 73.07855 
L 406.571155 73.535897 
L 407.588243 74.404668 
L 408.605332 75.682797 
L 409.62242 77.35905 
L 410.639508 79.390501 
L 414.707861 88.519805 
L 415.724949 90.085239 
L 416.742037 90.966823 
L 417.759125 91.045084 
L 418.776213 90.289743 
L 419.793301 88.77328 
L 420.81039 86.669543 
L 423.861654 79.612191 
L 424.878742 77.987677 
L 425.89583 77.048238 
L 426.912919 76.774788 
L 427.930007 76.975585 
L 428.947095 77.332727 
L 429.964183 77.516455 
L 430.981271 77.342792 
L 431.99836 76.907784 
L 433.015448 76.609479 
L 434.032536 76.999535 
L 435.049624 78.498866 
L 436.066712 81.122045 
L 438.100889 87.533895 
L 439.117977 89.831202 
L 440.135065 90.944952 
L 441.152153 90.980732 
L 442.169241 90.297835 
L 443.186329 89.197537 
L 444.203418 87.685789 
L 445.220506 85.453538 
L 446.237594 82.133873 
L 448.27177 73.166198 
L 449.288859 69.865715 
L 450.305947 69.352305 
L 451.323035 72.002546 
L 452.340123 76.398524 
L 453.357211 79.858964 
L 454.374299 80.223171 
L 456.408476 74.837553 
L 457.425564 74.915994 
L 458.442652 78.762157 
L 459.45974 84.169755 
L 460.476828 88.0324 
L 461.493917 89.10519 
L 462.511005 88.577746 
L 463.528093 88.309408 
L 464.545181 88.679971 
L 465.562269 88.223355 
L 466.579357 85.666017 
L 467.596446 82.037403 
L 468.613534 79.939552 
L 469.630622 80.888556 
L 470.64771 83.424503 
L 471.664798 83.46357 
L 472.681887 78.198556 
L 473.698975 70.39646 
L 474.716063 66.974587 
L 475.733151 71.80503 
L 476.750239 80.062475 
L 477.767327 82.854189 
L 479.801504 73.082494 
L 480.818592 75.77177 
L 481.83568 83.419322 
L 482.852768 87.649605 
L 483.869856 86.265933 
L 484.886945 84.520105 
L 486.921121 88.434371 
L 487.938209 86.623878 
L 488.955297 84.085404 
L 489.972386 85.034718 
L 490.989474 87.874633 
L 492.006562 85.951608 
L 493.02365 77.938768 
L 494.040738 72.70523 
L 495.057826 76.998344 
L 496.074915 84.170406 
L 497.092003 81.084561 
L 498.109091 70.020763 
L 498.109091 70.020763 
" style="fill:none;stroke:#1f77b4;stroke-linecap:square;stroke-width:1.5;"/>
   </g>
   <g id="patch_3">
    <path d="M 72 378 
L 72 51.84 
" style="fill:none;stroke:#000000;stroke-linecap:square;stroke-linejoin:miter;stroke-width:0.8;"/>
   </g>
   <g id="patch_4">
    <path d="M 518.4 378 
L 518.4 51.84 
" style="fill:none;stroke:#000000;stroke-linecap:square;stroke-linejoin:miter;stroke-width:0.8;"/>
   </g>
   <g id="patch_5">
    <path d="M 72 378 
L 518.4 378 
" style="fill:none;stroke:#000000;stroke-linecap:square;stroke-linejoin:miter;stroke-width:0.8;"/>
   </g>
   <g id="patch_6">
    <path d="M 72 51.84 
L 518.4 51.84 
" style="fill:none;stroke:#000000;stroke-linecap:square;stroke-linejoin:miter;stroke-width:0.8;"/>
   </g>
   <g id="text_19">
    <!-- h = 1 -->
    <g transform="translate(278.738437 45.84)scale(0.12 -0.12)">
     <defs>
      <path d="M 3513 2113 
L 3513 0 
L 2938 0 
L 2938 2094 
Q 2938 2591 2744 2837 
Q 2550 3084 2163 3084 
Q 1697 3084 1428 2787 
Q 1159 2491 1159 1978 
L 1159 0 
L 581 0 
L 581 4863 
L 1159 4863 
L 1159 2956 
Q 1366 3272 1645 3428 
Q 1925 3584 2291 3584 
Q 2894 3584 3203 3211 
Q 3513 2838 3513 2113 
z
" id="DejaVuSans-68" transform="scale(0.015625)"/>
      <path id="DejaVuSans-20" transform="scale(0.015625)"/>
      <path d="M 678 2906 
L 4684 2906 
L 4684 2381 
L 678 2381 
L 678 2906 
z
M 678 1631 
L 4684 1631 
L 4684 1100 
L 678 1100 
L 678 1631 
z
" id="DejaVuSans-3d" transform="scale(0.015625)"/>
     </defs>
     <use xlink:href="#DejaVuSans-68"/>
     <use x="63.378906" xlink:href="#DejaVuSans-20"/>
     <use x="95.166016" xlink:href="#DejaVuSans-3d"/>
     <use x="178.955078" xlink:href="#DejaVuSans-20"/>
     <use x="210.742188" xlink:href="#DejaVuSans-31"/>
    </g>
   </g>
  </g>
 </g>
 <defs>
  <clipPath id="pec26526e2b">
   <rect height="326.16" width="446.4" x="72" y="51.84"/>
  </clipPath>
 </defs>
</svg>
